
<!-- <svg width="105" height="105" viewBox="0 0 105 105" fill="none" xmlns="http://www.w3.org/2000/svg">
<g filter="url(#filter0_d_7_772)">
<path d="M18 44.0013C18 58.3596 29.6404 70 44.0013 70C58.3596 70 70 58.3596 70 44.0013C70 29.643 58.3596 18 44.0013 18C29.643 18 18 29.6404 18 44.0013Z" fill="white"/>
<path d="M18 44.0013C18 58.3596 29.6404 70 44.0013 70C58.3596 70 70 58.3596 70 44.0013C70 29.643 58.3596 18 44.0013 18C29.643 18 18 29.6404 18 44.0013Z" fill="url(#paint0_linear_7_772)" style="mix-blend-mode:soft-light"/>
<path d="M44.0013 69.5667C29.8797 69.5667 18.4333 58.1203 18.4333 44.0013C18.4333 29.8797 29.8823 18.4333 44.0013 18.4333C58.1202 18.4333 69.5667 29.8823 69.5667 44.0013C69.5667 58.1203 58.1203 69.5667 44.0013 69.5667Z" stroke="url(#paint1_linear_7_772)" stroke-opacity="0.8" stroke-width="0.866667" style="mix-blend-mode:soft-light"/>
</g>
<g clip-path="url(#clip0_7_772)">
<path d="M43.9999 37.2622L32.4844 46.1231V57.9945H41.7375V49.2948H46.6531V57.9945H55.5154V46.1231L43.9999 37.2622Z" fill="black"/>
<path d="M55.9973 39.2352V33.1654H51.1476V35.5044L43.9995 30.0055L27.2598 42.8831L29.5706 45.8868L43.9995 34.7841L58.4285 45.8869L60.7392 42.8832L55.9973 39.2352Z" fill="black"/>
</g>
<defs>
<filter id="filter0_d_7_772" x="0.666669" y="0.666669" width="104" height="104" filterUnits="userSpaceOnUse" color-interpolation-filters="sRGB">
<feFlood flood-opacity="0" result="BackgroundImageFix"/>
<feColorMatrix in="SourceAlpha" type="matrix" values="0 0 0 0 0 0 0 0 0 0 0 0 0 0 0 0 0 0 127 0" result="hardAlpha"/>
<feOffset dx="8.66667" dy="8.66667"/>
<feGaussianBlur stdDeviation="13"/>
<feColorMatrix type="matrix" values="0 0 0 0 0.214583 0 0 0 0 0.300417 0 0 0 0 0.429167 0 0 0 0.35 0"/>
<feBlend mode="normal" in2="BackgroundImageFix" result="effect1_dropShadow_7_772"/>
<feBlend mode="normal" in="SourceGraphic" in2="effect1_dropShadow_7_772" result="shape"/>
</filter>
<linearGradient id="paint0_linear_7_772" x1="6.05998" y1="10.6727" x2="72.3942" y2="66.0677" gradientUnits="userSpaceOnUse">
<stop stop-color="white"/>
<stop offset="1" stop-opacity="0"/>
</linearGradient>
<linearGradient id="paint1_linear_7_772" x1="18.9747" y1="18.9455" x2="61.2236" y2="65.2204" gradientUnits="userSpaceOnUse">
<stop stop-color="white"/>
<stop offset="1" stop-color="white" stop-opacity="0"/>
</linearGradient>
<clipPath id="clip0_7_772">
<rect width="33.4795" height="33.4795" fill="white" transform="translate(27.2598 27.2603)"/>
</clipPath>
</defs>
</svg> -->
<svg width="40" height="40" viewBox="0 0 68 68" fill="none" xmlns="http://www.w3.org/2000/svg">
<g filter="url(#filter0_d_213_6653)">
<path d="M4 20.001C4 31.0459 12.9541 40 24.001 40C35.0459 40 44 31.0459 44 20.001C44 8.95615 35.0459 0 24.001 0C12.9562 0 4 8.95415 4 20.001Z" fill="white"/>
</g>
<path d="M17.5 18V25.5C17.5 26.4428 17.5 26.9142 17.7929 27.2071C18.0858 27.5 18.5572 27.5 19.5 27.5H28.5C29.4428 27.5 29.9142 27.5 30.2071 27.2071C30.5 26.9142 30.5 26.4428 30.5 25.5V18" stroke="#7A7979" stroke-width="1.5"/>
<path d="M32.5 19.5L24.5767 13.9071C24.231 13.663 23.769 13.663 23.4233 13.9071L15.5 19.5" stroke="#7A7979" stroke-width="1.5" stroke-linecap="round"/>
<path d="M26.5 27V23C26.5 21.8954 25.6046 21 24.5 21H23.5C22.3954 21 21.5 21.8954 21.5 23V27" stroke="#7A7979" stroke-width="1.5" stroke-linejoin="round"/>
<path d="M29.5 17V13.5" stroke="#7A7979" stroke-width="1.5" stroke-linecap="round"/>
<defs>
<filter id="filter0_d_213_6653" x="0" y="0" width="48" height="48" filterUnits="userSpaceOnUse" color-interpolation-filters="sRGB">
<feFlood flood-opacity="0" result="BackgroundImageFix"/>
<feColorMatrix in="SourceAlpha" type="matrix" values="0 0 0 0 0 0 0 0 0 0 0 0 0 0 0 0 0 0 127 0" result="hardAlpha"/>
<feOffset dy="4"/>
<feGaussianBlur stdDeviation="2"/>
<feComposite in2="hardAlpha" operator="out"/>
<feColorMatrix type="matrix" values="0 0 0 0 0 0 0 0 0 0 0 0 0 0 0 0 0 0 0.25 0"/>
<feBlend mode="normal" in2="BackgroundImageFix" result="effect1_dropShadow_213_6653"/>
<feBlend mode="normal" in="SourceGraphic" in2="effect1_dropShadow_213_6653" result="shape"/>
</filter>
</defs>
</svg>









