<svg width="70" height="70" viewBox="0 0 60 60" fill="none" xmlns="http://www.w3.org/2000/svg">
<g filter="url(#filter0_dd_475_8437)">
<rect x="9" y="2" width="50" height="50" rx="7" fill="white"/>
</g>
<path d="M30.7135 18.7079C30.7135 16.9288 31.3933 15.2226 32.6036 13.9647C33.8142 12.7068 35.4558 12 37.1674 12C38.879 12 40.5206 12.7068 41.731 13.9647C42.9413 15.2226 43.6214 16.9287 43.6214 18.7079C43.6214 20.4868 42.9413 22.193 41.731 23.4509C40.5206 24.7088 38.8791 25.4156 37.1674 25.4156C35.4564 25.4136 33.8158 24.7063 32.6058 23.4486C31.396 22.1913 30.7155 20.4863 30.7136 18.7079H30.7135ZM29.4264 35.8303C29.5377 35.9011 29.6415 35.9837 29.7365 36.0767L29.6331 37.5291C29.5268 37.6067 29.4126 37.6723 29.2927 37.7248C28.9197 37.6656 28.55 37.8514 28.3631 38.1922L27.8344 39.1521V39.1518C27.6489 39.493 27.685 39.9175 27.9256 40.2192C27.9405 40.3534 27.9427 40.4887 27.9318 40.6234L26.7774 41.4506C26.6529 41.4137 26.5327 41.3629 26.4188 41.2989C26.2278 40.9595 25.8576 40.7743 25.4832 40.8318L24.4381 41.0023C24.0629 41.0601 23.7621 41.355 23.6845 41.7409C23.5934 41.8371 23.4938 41.9236 23.3869 42L22.0442 41.5706H22.044C21.9946 41.4466 21.958 41.3175 21.9346 41.1853C22.0768 40.8202 21.9846 40.4016 21.7038 40.1371L20.9262 39.3921C20.6468 39.1259 20.2388 39.0659 19.8992 39.2404C19.7709 39.2283 19.6445 39.2006 19.5224 39.1583L19 37.8068C19.0651 37.6884 19.1402 37.5765 19.2249 37.4722C19.5883 37.3614 19.846 37.0254 19.8688 36.6323L19.9477 35.5334C19.9741 35.1413 19.7628 34.7734 19.418 34.6116C19.3518 34.4957 19.2929 34.3753 19.2417 34.2516L19.9404 32.9824C20.069 32.9598 20.1992 32.9514 20.3294 32.957C20.64 33.1811 21.0517 33.1811 21.3623 32.957L22.2374 32.3317C22.549 32.1096 22.6947 31.7087 22.6019 31.3278C22.6456 31.2007 22.7004 31.0781 22.7658 30.9616L24.151 30.7406H24.1513C24.2487 30.8289 24.3366 30.9284 24.4125 31.0372C24.4364 31.4299 24.6935 31.7654 25.0565 31.8773L26.0712 32.1993C26.4331 32.3126 26.8248 32.1818 27.0556 31.8708C27.1782 31.8283 27.3043 31.7967 27.4324 31.7761L28.4653 32.7611V32.7614C28.4563 32.8956 28.436 33.0286 28.4045 33.1591C28.1257 33.4247 28.0337 33.8419 28.1734 34.2073L28.5624 35.2304C28.7037 35.5966 29.0469 35.8348 29.4263 35.8303L29.4264 35.8303ZM25.3858 36.0956C25.3053 35.7937 25.113 35.5371 24.8512 35.3821C24.6817 35.2786 24.4888 35.2242 24.2922 35.2242C23.9558 35.2233 23.6365 35.3778 23.4203 35.6457C23.2044 35.9135 23.1135 36.2673 23.173 36.6115C23.2321 36.9554 23.435 37.2546 23.7271 37.4279C23.9854 37.5872 24.2954 37.6283 24.5837 37.5415C24.8753 37.4637 25.1235 37.2652 25.2705 36.9923C25.4233 36.7209 25.4648 36.3972 25.3858 36.0936L25.3858 36.0956ZM45.8367 30.3919C43.7904 28.284 40.8598 27.2604 37.1851 27.3255C33.5165 27.2624 30.6347 28.259 28.5891 30.3048L29.9999 31.6537C30.1727 31.8181 30.2776 32.0459 30.2928 32.2889C30.3327 32.8657 30.2497 33.4445 30.0498 33.9837L30.0777 34.059C30.5801 34.3074 31.023 34.6688 31.3743 35.1173C31.5238 35.3048 31.5978 35.545 31.5816 35.788L31.4261 38.0797H48.3918C48.5686 38.08 48.7371 37.9999 48.8526 37.8603C48.9682 37.7208 49.0197 37.5361 48.9931 37.354C48.6723 34.7457 47.5675 32.3092 45.836 30.3918L45.8367 30.3919Z" fill="#0174FF"/>
<defs>
<filter id="filter0_dd_475_8437" x="0.40625" y="0.281249" width="67.1875" height="67.1875" filterUnits="userSpaceOnUse" color-interpolation-filters="sRGB">
<feFlood flood-opacity="0" result="BackgroundImageFix"/>
<feColorMatrix in="SourceAlpha" type="matrix" values="0 0 0 0 0 0 0 0 0 0 0 0 0 0 0 0 0 0 127 0" result="hardAlpha"/>
<feMorphology radius="1.71875" operator="erode" in="SourceAlpha" result="effect1_dropShadow_475_8437"/>
<feOffset dy="3.4375"/>
<feGaussianBlur stdDeviation="3.4375"/>
<feColorMatrix type="matrix" values="0 0 0 0 0 0 0 0 0 0 0 0 0 0 0 0 0 0 0.07 0"/>
<feBlend mode="normal" in2="BackgroundImageFix" result="effect1_dropShadow_475_8437"/>
<feColorMatrix in="SourceAlpha" type="matrix" values="0 0 0 0 0 0 0 0 0 0 0 0 0 0 0 0 0 0 127 0" result="hardAlpha"/>
<feMorphology radius="1.71875" operator="erode" in="SourceAlpha" result="effect2_dropShadow_475_8437"/>
<feOffset dy="6.875"/>
<feGaussianBlur stdDeviation="5.15625"/>
<feColorMatrix type="matrix" values="0 0 0 0 0 0 0 0 0 0 0 0 0 0 0 0 0 0 0.12 0"/>
<feBlend mode="normal" in2="effect1_dropShadow_475_8437" result="effect2_dropShadow_475_8437"/>
<feBlend mode="normal" in="SourceGraphic" in2="effect2_dropShadow_475_8437" result="shape"/>
</filter>
</defs>
</svg>
