<svg width="33" height="30" viewBox="0 0 33 30" fill="none" xmlns="http://www.w3.org/2000/svg">
<path d="M32.341 7.67414H8.74961L8.39551 3.59753C8.33876 2.91301 8.02575 2.27512 7.51904 1.8114C7.01233 1.34769 6.34927 1.0923 5.66242 1.09631H5.48153C5.48153 0.805547 5.36602 0.526698 5.16043 0.3211C4.95483 0.115503 4.67598 0 4.38522 0H1.09631C0.805547 0 0.526698 0.115503 0.3211 0.3211C0.115503 0.526698 0 0.805547 0 1.09631V2.19261C0 2.48337 0.115503 2.76222 0.3211 2.96782C0.526698 3.17341 0.805547 3.28892 1.09631 3.28892H4.38522C4.67598 3.28892 4.95483 3.17341 5.16043 2.96782C5.36602 2.76222 5.48153 2.48337 5.48153 2.19261H5.66242C6.07325 2.19457 6.46869 2.34913 6.77196 2.62627C7.07524 2.90342 7.26471 3.28337 7.30359 3.69236L7.64892 7.67414H7.12599C6.98061 7.67414 6.84118 7.73189 6.73838 7.83469C6.63558 7.93749 6.57783 8.07691 6.57783 8.22229C6.57783 8.36767 6.63558 8.50709 6.73838 8.60989C6.84118 8.71269 6.98061 8.77044 7.12599 8.77044H7.7443L9.14538 24.9064C9.20212 25.5909 9.51514 26.2288 10.0218 26.6925C10.5286 27.1563 11.1916 27.4116 11.8785 27.4076H12.6623C12.7881 28.0272 13.1243 28.5842 13.6138 28.9843C14.1033 29.3844 14.7161 29.603 15.3483 29.603C15.9805 29.603 16.5933 29.3844 17.0828 28.9843C17.5723 28.5842 17.9084 28.0272 18.0342 27.4076H25.2698C25.4057 28.0731 25.7838 28.6645 26.3308 29.067C26.8779 29.4696 27.5549 29.6546 28.2307 29.5864C28.9065 29.5181 29.5328 29.2013 29.9883 28.6975C30.4438 28.1937 30.696 27.5387 30.696 26.8595C30.696 26.1803 30.4438 25.5253 29.9883 25.0214C29.5328 24.5176 28.9065 24.2009 28.2307 24.1326C27.5549 24.0643 26.8779 24.2494 26.3308 24.652C25.7838 25.0545 25.4057 25.6458 25.2698 26.3113H18.0342C17.9084 25.6918 17.5723 25.1347 17.0828 24.7346C16.5933 24.3345 15.9805 24.116 15.3483 24.116C14.7161 24.116 14.1033 24.3345 13.6138 24.7346C13.1243 25.1347 12.7881 25.6918 12.6623 26.3113H11.8785C11.4676 26.3094 11.0722 26.1548 10.7689 25.8777C10.4656 25.6005 10.2762 25.2206 10.2373 24.8116L8.84444 8.77044H9.36245L10.1655 18.4075C10.2504 19.3648 10.6894 20.256 11.3966 20.9068C12.1038 21.5575 13.0284 21.921 13.9894 21.9261H26.5739C27.5349 21.921 28.4595 21.5575 29.1667 20.9068C29.8739 20.256 30.3129 19.3648 30.3978 18.4075L31.2008 8.77044H32.341C32.4864 8.77044 32.6258 8.71269 32.7286 8.60989C32.8314 8.50709 32.8892 8.36767 32.8892 8.22229C32.8892 8.07691 32.8314 7.93749 32.7286 7.83469C32.6258 7.73189 32.4864 7.67414 32.341 7.67414ZM1.09631 2.19261V1.09631H4.38522V2.19261H1.09631ZM27.9558 25.215C28.281 25.215 28.599 25.3115 28.8694 25.4922C29.1398 25.6729 29.3506 25.9297 29.4751 26.2302C29.5995 26.5307 29.6321 26.8613 29.5686 27.1803C29.5052 27.4993 29.3486 27.7923 29.1186 28.0223C28.8886 28.2523 28.5956 28.4089 28.2766 28.4723C27.9576 28.5358 27.627 28.5032 27.3265 28.3788C27.026 28.2543 26.7692 28.0435 26.5885 27.7731C26.4078 27.5027 26.3113 27.1847 26.3113 26.8595C26.3113 26.4233 26.4846 26.0051 26.793 25.6967C27.1014 25.3883 27.5196 25.215 27.9558 25.215ZM15.3483 25.215C15.6735 25.215 15.9915 25.3115 16.2619 25.4922C16.5323 25.6729 16.7431 25.9297 16.8676 26.2302C16.992 26.5307 17.0246 26.8613 16.9611 27.1803C16.8977 27.4993 16.7411 27.7923 16.5111 28.0223C16.2811 28.2523 15.9881 28.4089 15.6691 28.4723C15.3501 28.5358 15.0195 28.5032 14.719 28.3788C14.4185 28.2543 14.1617 28.0435 13.981 27.7731C13.8003 27.5027 13.7038 27.1847 13.7038 26.8595C13.7038 26.4233 13.8771 26.0051 14.1855 25.6967C14.4939 25.3883 14.9121 25.215 15.3483 25.215ZM29.3053 18.3165C29.2446 19.0003 28.931 19.6368 28.4259 20.1016C27.9207 20.5664 27.2603 20.8261 26.5739 20.8298H13.9894C13.303 20.8261 12.6426 20.5664 12.1374 20.1016C11.6323 19.6368 11.3187 19.0003 11.258 18.3165L10.4626 8.77044H30.1007L29.3053 18.3165Z" fill="black"/>
<path d="M14.9597 27.2486C15.013 27.297 15.0742 27.3359 15.1406 27.3637C15.2065 27.3918 15.2773 27.4067 15.3489 27.4076C15.494 27.4054 15.633 27.3487 15.7381 27.2486C15.7876 27.1962 15.8267 27.1348 15.8532 27.0677C15.8821 27.0021 15.8971 26.9311 15.8971 26.8594C15.8971 26.7877 15.8821 26.7167 15.8532 26.6511C15.8254 26.5847 15.7865 26.5235 15.7381 26.4702C15.6604 26.3952 15.5625 26.3444 15.4564 26.324C15.3504 26.3035 15.2406 26.3143 15.1406 26.3551C15.0726 26.3797 15.0108 26.419 14.9597 26.4702C14.9085 26.5213 14.8692 26.5831 14.8446 26.6511C14.8157 26.7167 14.8008 26.7877 14.8008 26.8594C14.8008 26.9311 14.8157 27.0021 14.8446 27.0677C14.8711 27.1348 14.9102 27.1962 14.9597 27.2486Z" fill="white"/>
<path d="M27.5667 27.2485C27.62 27.2969 27.6811 27.3358 27.7475 27.3636C27.8132 27.3925 27.8841 27.4075 27.9558 27.4075C28.0276 27.4075 28.0985 27.3925 28.1641 27.3636C28.2322 27.339 28.2939 27.2997 28.3451 27.2486C28.3962 27.1974 28.4355 27.1356 28.4601 27.0676C28.4891 27.002 28.504 26.931 28.504 26.8593C28.504 26.7876 28.4891 26.7166 28.4601 26.651C28.4323 26.5846 28.3934 26.5234 28.345 26.4701C28.2926 26.4206 28.2312 26.3815 28.1641 26.355C28.0307 26.3002 27.881 26.3002 27.7475 26.355C27.6795 26.3796 27.6177 26.4189 27.5666 26.4701C27.5154 26.5212 27.4762 26.583 27.4515 26.651C27.4226 26.7166 27.4077 26.7876 27.4077 26.8593C27.4077 26.931 27.4226 27.002 27.4515 27.0676C27.478 27.1347 27.5171 27.1961 27.5667 27.2485Z" fill="white"/>
<path d="M20.282 19.7342C21.2577 19.7342 22.2116 19.4449 23.0228 18.9028C23.8341 18.3607 24.4665 17.5902 24.8398 16.6888C25.2132 15.7873 25.3109 14.7954 25.1206 13.8384C24.9302 12.8814 24.4604 12.0024 23.7704 11.3124C23.0805 10.6225 22.2014 10.1526 21.2445 9.96226C20.2875 9.7719 19.2955 9.8696 18.3941 10.243C17.4926 10.6164 16.7221 11.2487 16.1801 12.06C15.638 12.8713 15.3486 13.8251 15.3486 14.8008C15.3502 16.1088 15.8705 17.3627 16.7953 18.2875C17.7202 19.2123 18.9741 19.7326 20.282 19.7342ZM20.282 10.9638C21.0409 10.9638 21.7828 11.1888 22.4138 11.6104C23.0448 12.0321 23.5366 12.6313 23.827 13.3325C24.1174 14.0336 24.1934 14.8051 24.0453 15.5494C23.8973 16.2937 23.5318 16.9774 22.9952 17.5141C22.4586 18.0507 21.7749 18.4161 21.0306 18.5642C20.2863 18.7122 19.5148 18.6362 18.8136 18.3458C18.1125 18.0554 17.5132 17.5636 17.0916 16.9326C16.67 16.3016 16.4449 15.5597 16.4449 14.8008C16.4461 13.7835 16.8507 12.8082 17.5701 12.0889C18.2894 11.3696 19.2647 10.9649 20.282 10.9638Z" fill="white"/>
<path d="M19.3459 16.2846C19.4487 16.3873 19.5881 16.445 19.7334 16.445C19.8788 16.445 20.0182 16.3873 20.121 16.2846L22.3136 14.0919C22.4134 13.9886 22.4687 13.8501 22.4674 13.7064C22.4662 13.5626 22.4085 13.4252 22.3069 13.3235C22.2053 13.2219 22.0678 13.1642 21.9241 13.163C21.7803 13.1618 21.6419 13.217 21.5385 13.3169L19.7334 15.1219L19.0247 14.4132C18.9213 14.3133 18.7828 14.2581 18.6391 14.2593C18.4954 14.2606 18.3579 14.3182 18.2563 14.4198C18.1546 14.5215 18.097 14.659 18.0957 14.8027C18.0945 14.9464 18.1497 15.0849 18.2496 15.1882L19.3459 16.2846Z" fill="white"/>
</svg>
