<svg width="122" height="122" viewBox="0 0 122 122" fill="none" xmlns="http://www.w3.org/2000/svg">
<g filter="url(#filter0_dd_5_270)">
<path d="M28 56.0014C28 71.4642 40.5358 84 56.0014 84C71.4642 84 84 71.4642 84 56.0014C84 40.5386 71.4642 28 56.0014 28C40.5386 28 28 40.5358 28 56.0014Z" fill="white"/>
<path d="M28 56.0014C28 71.4642 40.5358 84 56.0014 84C71.4642 84 84 71.4642 84 56.0014C84 40.5386 71.4642 28 56.0014 28C40.5386 28 28 40.5358 28 56.0014Z" fill="url(#paint0_linear_5_270)" style="mix-blend-mode:soft-light"/>
<path d="M56.0014 83.5333C40.7935 83.5333 28.4667 71.2064 28.4667 56.0014C28.4667 40.7936 40.7963 28.4667 56.0014 28.4667C71.2064 28.4667 83.5333 40.7963 83.5333 56.0014C83.5333 71.2065 71.2065 83.5333 56.0014 83.5333Z" stroke="url(#paint1_linear_5_270)" stroke-opacity="0.8" stroke-width="0.933333" style="mix-blend-mode:soft-light"/>
</g>
<path fill-rule="evenodd" clip-rule="evenodd" d="M46.0625 60.6875C46.0625 59.393 45.0133 58.3438 43.7188 58.3438C42.9836 58.3438 42.1102 58.3438 41.375 58.3438C40.0805 58.3438 39.0312 59.393 39.0312 60.6875C39.0312 63.0891 39.0312 67.6609 39.0312 70.0625C39.0312 71.357 40.0805 72.4062 41.375 72.4062C42.1102 72.4062 42.9836 72.4062 43.7188 72.4062C45.0133 72.4062 46.0625 71.357 46.0625 70.0625V60.6875ZM44.5 60.6875C44.5 60.2563 44.15 59.9062 43.7188 59.9062C42.9836 59.9062 42.1102 59.9062 41.375 59.9062C40.9438 59.9062 40.5938 60.2563 40.5938 60.6875C40.5938 63.0891 40.5938 67.6609 40.5938 70.0625C40.5938 70.4937 40.9438 70.8438 41.375 70.8438C42.1102 70.8438 42.9836 70.8438 43.7188 70.8438C44.15 70.8438 44.5 70.4937 44.5 70.0625V60.6875Z" fill="black"/>
<path fill-rule="evenodd" clip-rule="evenodd" d="M45.153 70.0516C45.153 70.0516 55.2288 71.7313 58.3225 72.2469C59.0514 72.368 59.7999 72.2805 60.4803 71.9937C62.8186 71.0094 69.4772 68.2063 72.6999 66.8492C74.0749 66.2703 74.9686 64.9234 74.9686 63.432V63.4313C74.9686 62.7039 74.6795 62.0055 74.1647 61.4914C73.6506 60.9766 72.9522 60.6875 72.2249 60.6875C68.7061 60.6875 61.6874 60.6875 61.6874 60.6875C61.2561 60.6875 60.9061 61.0375 60.9061 61.4688C60.9061 61.9 61.2561 62.25 61.6874 62.25C61.6874 62.25 68.7061 62.25 72.2249 62.25C72.5381 62.25 72.8389 62.3742 73.06 62.5961C73.2819 62.8172 73.4061 63.118 73.4061 63.4313V63.432C73.4061 64.2953 72.8889 65.0742 72.0936 65.4094C68.871 66.7656 62.2124 69.5695 59.8741 70.5539C59.4655 70.7258 59.017 70.7781 58.5795 70.7055C55.4858 70.1898 45.4092 68.5109 45.4092 68.5109C44.9842 68.4398 44.5811 68.7273 44.5108 69.1531C44.4397 69.5781 44.7272 69.9812 45.153 70.0516Z" fill="black"/>
<path fill-rule="evenodd" clip-rule="evenodd" d="M60.9061 62.25C60.9061 61.3867 60.2069 60.6875 59.3436 60.6875C56.3881 60.6875 51.4881 60.6875 49.7889 60.6875C49.4912 60.6875 49.1959 60.7445 48.9186 60.8555C47.8389 61.2867 45.5709 62.1938 45.5709 62.1938C45.1709 62.3539 44.7155 62.1594 44.5561 61.7586C44.3959 61.3586 44.5905 60.9031 44.9912 60.7437C44.9912 60.7437 47.2584 59.8359 48.3381 59.4047C48.7998 59.2195 49.292 59.125 49.7889 59.125C51.4881 59.125 56.3881 59.125 59.3436 59.125C61.0694 59.125 62.4686 60.5242 62.4686 62.25C62.4686 63.9758 61.0694 65.375 59.3436 65.375C57.5701 65.375 55.4373 65.375 55.4373 65.375C55.0061 65.375 54.6561 65.025 54.6561 64.5938C54.6561 64.1625 55.0061 63.8125 55.4373 63.8125C55.4373 63.8125 57.5701 63.8125 59.3436 63.8125C60.2069 63.8125 60.9061 63.1133 60.9061 62.25Z" fill="black"/>
<path fill-rule="evenodd" clip-rule="evenodd" d="M53.875 44.2812V40.375C53.875 39.9438 54.225 39.5938 54.6562 39.5938H59.3438C59.775 39.5938 60.125 39.9438 60.125 40.375V44.2812H64.0312C64.4625 44.2812 64.8125 44.6312 64.8125 45.0625V49.75C64.8125 50.1812 64.4625 50.5312 64.0312 50.5312H60.125V54.4375C60.125 54.8687 59.775 55.2188 59.3438 55.2188H54.6562C54.225 55.2188 53.875 54.8687 53.875 54.4375V50.5312H49.9688C49.5375 50.5312 49.1875 50.1812 49.1875 49.75V45.0625C49.1875 44.6312 49.5375 44.2812 49.9688 44.2812H53.875ZM58.5625 41.1562H55.4375V45.0625C55.4375 45.4938 55.0875 45.8438 54.6562 45.8438H50.75V48.9688H54.6562C55.0875 48.9688 55.4375 49.3188 55.4375 49.75V53.6562H58.5625V49.75C58.5625 49.3188 58.9125 48.9688 59.3438 48.9688H63.25V45.8438H59.3438C58.9125 45.8438 58.5625 45.4938 58.5625 45.0625V41.1562Z" fill="black"/>

</svg>
