<svg width="56" height="56" viewBox="0 0 56 56" fill="none" xmlns="http://www.w3.org/2000/svg">
<path d="M0 28.0014C0 43.4642 12.5358 56 28.0014 56C43.4642 56 56 43.4642 56 28.0014C56 12.5386 43.4642 0 28.0014 0C12.5386 0 0 12.5358 0 28.0014Z" fill="#0174FF"/>
<path d="M0 28.0014C0 43.4642 12.5358 56 28.0014 56C43.4642 56 56 43.4642 56 28.0014C56 12.5386 43.4642 0 28.0014 0C12.5386 0 0 12.5358 0 28.0014Z" fill="url(#paint0_linear_1_73)" style="mix-blend-mode:soft-light"/>
<path d="M28.0014 55.5333C12.7935 55.5333 0.466667 43.2064 0.466667 28.0014C0.466667 12.7936 12.7963 0.466667 28.0014 0.466667C43.2064 0.466667 55.5333 12.7963 55.5333 28.0014C55.5333 43.2065 43.2065 55.5333 28.0014 55.5333Z" stroke="url(#paint1_linear_1_73)" stroke-opacity="0.8" stroke-width="0.933333" style="mix-blend-mode:soft-light"/>
<path fill-rule="evenodd" clip-rule="evenodd" d="M18.0625 32.6875C18.0625 31.393 17.0133 30.3438 15.7188 30.3438C14.9836 30.3438 14.1102 30.3438 13.375 30.3438C12.0805 30.3438 11.0312 31.393 11.0312 32.6875C11.0312 35.0891 11.0312 39.6609 11.0312 42.0625C11.0312 43.357 12.0805 44.4062 13.375 44.4062C14.1102 44.4062 14.9836 44.4062 15.7188 44.4062C17.0133 44.4062 18.0625 43.357 18.0625 42.0625V32.6875ZM16.5 32.6875C16.5 32.2563 16.15 31.9062 15.7188 31.9062C14.9836 31.9062 14.1102 31.9062 13.375 31.9062C12.9438 31.9062 12.5938 32.2563 12.5938 32.6875C12.5938 35.0891 12.5938 39.6609 12.5938 42.0625C12.5938 42.4937 12.9438 42.8438 13.375 42.8438C14.1102 42.8438 14.9836 42.8438 15.7188 42.8438C16.15 42.8438 16.5 42.4937 16.5 42.0625V32.6875Z" fill="white"/>
<path fill-rule="evenodd" clip-rule="evenodd" d="M17.153 42.0516C17.153 42.0516 27.2288 43.7313 30.3225 44.2469C31.0514 44.368 31.7999 44.2805 32.4803 43.9937C34.8186 43.0094 41.4772 40.2063 44.6999 38.8492C46.0749 38.2703 46.9686 36.9234 46.9686 35.432V35.4313C46.9686 34.7039 46.6795 34.0055 46.1647 33.4914C45.6506 32.9766 44.9522 32.6875 44.2249 32.6875C40.7061 32.6875 33.6874 32.6875 33.6874 32.6875C33.2561 32.6875 32.9061 33.0375 32.9061 33.4688C32.9061 33.9 33.2561 34.25 33.6874 34.25C33.6874 34.25 40.7061 34.25 44.2249 34.25C44.5381 34.25 44.8389 34.3742 45.06 34.5961C45.2819 34.8172 45.4061 35.118 45.4061 35.4313V35.432C45.4061 36.2953 44.8889 37.0742 44.0936 37.4094C40.871 38.7656 34.2124 41.5695 31.8741 42.5539C31.4655 42.7258 31.017 42.7781 30.5795 42.7055C27.4858 42.1898 17.4092 40.5109 17.4092 40.5109C16.9842 40.4398 16.5811 40.7273 16.5108 41.1531C16.4397 41.5781 16.7272 41.9812 17.153 42.0516Z" fill="white"/>
<path fill-rule="evenodd" clip-rule="evenodd" d="M32.9061 34.25C32.9061 33.3867 32.2069 32.6875 31.3436 32.6875C28.3881 32.6875 23.4881 32.6875 21.7889 32.6875C21.4912 32.6875 21.1959 32.7445 20.9186 32.8555C19.8389 33.2867 17.5709 34.1938 17.5709 34.1938C17.1709 34.3539 16.7155 34.1594 16.5561 33.7586C16.3959 33.3586 16.5905 32.9031 16.9912 32.7437C16.9912 32.7437 19.2584 31.8359 20.3381 31.4047C20.7998 31.2195 21.292 31.125 21.7889 31.125C23.4881 31.125 28.3881 31.125 31.3436 31.125C33.0694 31.125 34.4686 32.5242 34.4686 34.25C34.4686 35.9758 33.0694 37.375 31.3436 37.375C29.5701 37.375 27.4373 37.375 27.4373 37.375C27.0061 37.375 26.6561 37.025 26.6561 36.5938C26.6561 36.1625 27.0061 35.8125 27.4373 35.8125C27.4373 35.8125 29.5701 35.8125 31.3436 35.8125C32.2069 35.8125 32.9061 35.1133 32.9061 34.25Z" fill="white"/>
<path fill-rule="evenodd" clip-rule="evenodd" d="M25.875 16.2812V12.375C25.875 11.9438 26.225 11.5938 26.6562 11.5938H31.3438C31.775 11.5938 32.125 11.9438 32.125 12.375V16.2812H36.0312C36.4625 16.2812 36.8125 16.6312 36.8125 17.0625V21.75C36.8125 22.1812 36.4625 22.5312 36.0312 22.5312H32.125V26.4375C32.125 26.8687 31.775 27.2188 31.3438 27.2188H26.6562C26.225 27.2188 25.875 26.8687 25.875 26.4375V22.5312H21.9688C21.5375 22.5312 21.1875 22.1812 21.1875 21.75V17.0625C21.1875 16.6312 21.5375 16.2812 21.9688 16.2812H25.875ZM30.5625 13.1562H27.4375V17.0625C27.4375 17.4938 27.0875 17.8438 26.6562 17.8438H22.75V20.9688H26.6562C27.0875 20.9688 27.4375 21.3188 27.4375 21.75V25.6562H30.5625V21.75C30.5625 21.3188 30.9125 20.9688 31.3438 20.9688H35.25V17.8438H31.3438C30.9125 17.8438 30.5625 17.4938 30.5625 17.0625V13.1562Z" fill="white"/>
<defs>
<linearGradient id="paint0_linear_1_73" x1="-12.8585" y1="-7.89091" x2="58.5784" y2="51.7652" gradientUnits="userSpaceOnUse">
<stop stop-color="white"/>
<stop offset="1" stop-opacity="0"/>
</linearGradient>
<linearGradient id="paint1_linear_1_73" x1="1.04967" y1="1.01818" x2="46.5485" y2="50.8527" gradientUnits="userSpaceOnUse">
<stop stop-color="white"/>
<stop offset="1" stop-color="white" stop-opacity="0"/>
</linearGradient>
</defs>
</svg>

