<svg width="18" height="12" viewBox="0 0 38 27" fill="none" xmlns="http://www.w3.org/2000/svg">
<path d="M37.9942 0.942285C37.9925 0.906612 37.9889 0.871054 37.9835 0.835762C37.9782 0.804266 37.9708 0.77399 37.9627 0.743552C37.9542 0.711733 37.9451 0.680572 37.9335 0.649486C37.9215 0.61834 37.9079 0.587824 37.8929 0.558057C37.8791 0.530229 37.865 0.503048 37.8486 0.476352C37.8293 0.445837 37.8083 0.416387 37.7859 0.388133C37.774 0.373 37.7655 0.356153 37.7526 0.341467C37.7454 0.333334 37.7367 0.327638 37.7293 0.319657C37.7045 0.293912 37.6784 0.269494 37.651 0.246505C37.6278 0.2264 37.6051 0.205972 37.5805 0.188315C37.5539 0.169267 37.5254 0.1534 37.4969 0.136962C37.4688 0.120772 37.4413 0.104162 37.412 0.0909809C37.3835 0.0779618 37.3536 0.0685239 37.3238 0.0582668C37.2924 0.0467451 37.2604 0.0368057 37.2281 0.028486C37.1992 0.0218193 37.1695 0.018229 37.1397 0.0140766C37.1036 0.00842723 37.0673 0.00476112 37.0308 0.00309535C37.0203 0.00277154 37.0105 0 37 0H1C0.989419 0 0.979572 0.00277154 0.969076 0.00309535C0.932211 0.00474521 0.895465 0.00843937 0.85901 0.0141616C0.829838 0.0183902 0.800743 0.0217811 0.772419 0.0283239C0.738965 0.0368124 0.705988 0.0470808 0.673629 0.0590857C0.644943 0.0690095 0.616172 0.0781335 0.588743 0.0905144C0.55853 0.104954 0.529073 0.120924 0.500486 0.138362C0.473143 0.154314 0.4458 0.169457 0.420162 0.187886C0.394895 0.205981 0.371667 0.226866 0.347857 0.247533C0.320919 0.270198 0.295195 0.294266 0.27079 0.319638C0.26339 0.327533 0.2546 0.333304 0.2474 0.341543C0.234533 0.356276 0.22599 0.373124 0.214152 0.38821C0.191675 0.416464 0.170743 0.445913 0.151447 0.476429C0.134971 0.503095 0.120886 0.530304 0.107133 0.558133C0.0920522 0.587899 0.0784981 0.618416 0.066524 0.649562C0.0548954 0.680648 0.0457809 0.711809 0.0373143 0.743628C0.029219 0.774105 0.0217714 0.804343 0.0165238 0.835838C0.0110614 0.87113 0.00748807 0.906688 0.00581905 0.942362C0.00467619 0.961733 0 0.980286 0 0.999981V25.75C0 25.7697 0.00467619 25.7882 0.00581905 25.8076C0.00749428 25.8433 0.0110676 25.8788 0.0165238 25.9141C0.0217714 25.9456 0.029219 25.9759 0.0373143 26.0064C0.0457809 26.0382 0.0548954 26.0694 0.066524 26.1004C0.0785109 26.1316 0.0920646 26.1621 0.107133 26.1919C0.120886 26.2197 0.134971 26.2468 0.151447 26.2735C0.170722 26.3041 0.191655 26.3335 0.214152 26.3618C0.22599 26.377 0.234533 26.3938 0.2474 26.4085C0.254066 26.4162 0.262533 26.4213 0.26941 26.4287C0.299857 26.4606 0.332385 26.4905 0.366781 26.5181C0.386391 26.5343 0.404876 26.552 0.425371 26.5665C0.463175 26.592 0.502683 26.6149 0.543619 26.635C0.563314 26.6451 0.58179 26.6579 0.602009 26.6667C0.654356 26.6887 0.708498 26.7062 0.763838 26.7189C0.774314 26.7215 0.784257 26.7264 0.794838 26.7286C0.862311 26.7427 0.931061 26.7499 1 26.7499H37C37.0689 26.7498 37.1377 26.7427 37.2052 26.7285C37.2157 26.7263 37.2257 26.7214 37.2362 26.7189C37.2915 26.7061 37.3456 26.6886 37.398 26.6666C37.4182 26.6579 37.4367 26.645 37.4564 26.6349C37.4973 26.6148 37.5368 26.5919 37.5746 26.5664C37.5952 26.5519 37.6136 26.5342 37.6332 26.5181C37.6676 26.4904 37.7001 26.4605 37.7306 26.4286C37.7375 26.4212 37.7459 26.4161 37.7526 26.4084C37.7655 26.3937 37.774 26.3769 37.7859 26.3617C37.8083 26.3334 37.8293 26.304 37.8486 26.2735C37.865 26.2468 37.8791 26.2196 37.8929 26.1918C37.9079 26.162 37.9215 26.1315 37.9335 26.1003C37.9451 26.0693 37.9542 26.0381 37.9627 26.0063C37.9708 25.9758 37.9782 25.9455 37.9835 25.914C37.9889 25.8788 37.9925 25.8432 37.9942 25.8076C37.9953 25.7881 38 25.7696 38 25.7499V0.999905C38 0.98021 37.9953 0.961657 37.9942 0.942285ZM34.3385 1.9999L19 15.4211L3.6615 1.9999H34.3385ZM2 3.20368L13.6242 13.3749L2 23.5461V3.20368ZM3.6615 24.7499L15.1429 14.7037L18.3415 17.5025C18.5238 17.662 18.7578 17.7499 19 17.7499C19.2422 17.7499 19.4762 17.662 19.6585 17.5025L22.8571 14.7037L34.3385 24.7499H3.6615ZM36 23.5461L24.3758 13.3749L36 3.20368V23.5461Z" fill="black" fill-opacity="0.5"/>
</svg>
