<svg width="30" height="30" viewBox="0 0 50 50" fill="none" xmlns="http://www.w3.org/2000/svg">
<path d="M45.2304 19.694H42.5537C41.7156 8.69512 32.5181 0 21.3152 0C9.56143 0 0 9.56913 0 21.3306C0 27.5305 2.66152 33.1227 6.89995 37.0304C6.87685 36.7227 6.85379 36.4304 6.83839 36.1688C6.76914 34.9304 6.79224 33.6073 6.9076 32.2843C4.58458 29.2381 3.20764 25.4459 3.20764 21.3306C3.20764 11.3383 11.3306 3.20768 21.3152 3.20768C30.7481 3.20768 38.5155 10.4661 39.3453 19.694H36.816C36.1989 19.694 35.8132 20.362 36.1218 20.8964L40.329 28.1824C40.6376 28.7167 41.4088 28.7167 41.7174 28.1824L45.9246 20.8964C46.2332 20.362 45.8476 19.694 45.2304 19.694Z" fill="black"/>
<path d="M25.4843 22.8012C22.4075 22.1396 18.5459 22.1396 15.4691 22.7935V18.232C15.4691 15.4704 17.7152 13.2243 20.4767 13.2243C23.2382 13.2243 25.4843 15.4704 25.4843 18.232V22.8012ZM29.9689 24.8165C29.5843 24.4319 29.0843 24.1011 28.492 23.8011V18.232C28.492 13.8089 24.8997 10.209 20.4767 10.209C16.0537 10.209 12.4614 13.8089 12.4614 18.232V23.8011C11.8691 24.1011 11.3614 24.4319 10.9845 24.8165C7.62302 28.1703 7.29222 40.8163 10.9845 43.8009C13.4306 45.7778 19.3537 46.447 24.1459 45.8009V38.6625C24.1459 36.8933 25.4382 35.4241 27.1305 35.1549V32.0164C27.1305 30.8241 28.0997 29.8626 29.2843 29.8626C29.8612 29.8626 30.3997 30.0857 30.7997 30.4934L32.4919 32.1857C32.1843 29.0472 31.3228 26.1703 29.9689 24.8165ZM22.469 37.7087H18.4844L19.2075 33.978C18.3613 33.5241 17.7767 32.6318 17.7767 31.5933C17.7767 30.1088 18.9844 28.9011 20.4767 28.9011C21.969 28.9011 23.1767 30.1088 23.1767 31.5933C23.1767 32.6318 22.5998 33.5241 21.7459 33.978L22.469 37.7087Z" fill="black"/>
<path d="M47.9887 36.6515H34.7862L29.7154 31.5808C29.3301 31.1954 28.6711 31.4683 28.6711 32.0133V36.6515H27.6922C26.5828 36.6515 25.6833 37.5509 25.6833 38.6605V47.2244C25.6833 48.3339 26.5828 49.2334 27.6922 49.2334H47.9887C49.0982 49.2334 49.9977 48.3339 49.9977 47.2244V38.6605C49.9977 37.551 49.0982 36.6515 47.9887 36.6515ZM31.834 44.5562L30.9971 45.1401L30.0943 43.9318L29.1773 45.1401L28.3415 44.5562L29.2444 43.2679L27.8636 42.843L28.1685 41.8736L29.5233 42.325V40.7447H30.6522V42.325L31.9929 41.8736L32.3119 42.843L30.9171 43.2679L31.834 44.5562ZM37.0025 44.5562L36.1656 45.1401L35.2628 43.9318L34.3458 45.1401L33.51 44.5562L34.4129 43.2679L33.0321 42.843L33.337 41.8736L34.6918 42.325V40.7447H35.8207V42.325L37.1614 41.8736L37.4804 42.843L36.0856 43.2679L37.0025 44.5562ZM42.171 44.5562L41.3341 45.1401L40.4312 43.9318L39.5143 45.1401L38.6785 44.5562L39.5813 43.2679L38.2006 42.843L38.5055 41.8736L39.8603 42.325V40.7447H40.9891V42.325L42.3299 41.8736L42.6489 42.843L41.2541 43.2679L42.171 44.5562ZM47.3395 44.5562L46.5026 45.1401L45.5997 43.9318L44.6828 45.1401L43.847 44.5562L44.7498 43.2679L43.369 42.843L43.674 41.8736L45.0288 42.325V40.7447H46.1576V42.325L47.4984 41.8736L47.8174 42.843L46.4225 43.2679L47.3395 44.5562Z" fill="black"/>
</svg>
