<svg width="24" height="24" viewBox="0 0 24 24" fill="none" xmlns="http://www.w3.org/2000/svg">
<path d="M22.946 3.61334C23.1971 3.36226 23.3381 3.02174 23.3381 2.66667C23.3381 2.3116 23.1971 1.97107 22.946 1.72C22.6949 1.46893 22.3544 1.32788 21.9994 1.32788C21.6443 1.32788 21.3038 1.46893 21.0527 1.72L12.6794 10.1333L8.27935 5.72C8.53455 5.18256 8.66665 4.59496 8.66602 4C8.66602 3.20888 8.43142 2.43552 7.9919 1.77772C7.55237 1.11992 6.92766 0.607234 6.19675 0.304484C5.46585 0.00173314 4.66158 -0.0774802 3.88566 0.0768607C3.10973 0.231202 2.397 0.612165 1.83759 1.17157C1.27818 1.73098 0.897217 2.44372 0.742876 3.21964C0.588535 3.99556 0.667749 4.79983 0.970499 5.53074C1.27325 6.26164 1.78594 6.88635 2.44374 7.32588C3.10153 7.76541 3.87489 8 4.66602 8C5.26199 7.99647 5.84964 7.85981 6.38602 7.6L10.7994 12L6.41268 16.4C5.8682 16.1363 5.271 15.9995 4.66602 16C3.87489 16 3.10153 16.2346 2.44374 16.6741C1.78594 17.1136 1.27325 17.7384 0.970499 18.4693C0.667749 19.2002 0.588535 20.0044 0.742876 20.7804C0.897217 21.5563 1.27818 22.269 1.83759 22.8284C2.397 23.3878 3.10973 23.7688 3.88566 23.9231C4.66158 24.0775 5.46585 23.9983 6.19675 23.6955C6.92766 23.3928 7.55237 22.8801 7.9919 22.2223C8.43142 21.5645 8.66602 20.7911 8.66602 20C8.66077 19.4186 8.52882 18.8452 8.27935 18.32L22.946 3.61334ZM4.66602 5.33334C4.40231 5.33334 4.14452 5.25514 3.92526 5.10863C3.70599 4.96212 3.53509 4.75388 3.43418 4.51025C3.33326 4.26661 3.30686 3.99852 3.3583 3.73988C3.40975 3.48124 3.53674 3.24366 3.72321 3.05719C3.90968 2.87072 4.14726 2.74374 4.4059 2.69229C4.66454 2.64084 4.93263 2.66725 5.17626 2.76816C5.4199 2.86908 5.62814 3.03998 5.77464 3.25924C5.92115 3.47851 5.99935 3.73629 5.99935 4C5.99935 4.35362 5.85887 4.69276 5.60883 4.94281C5.35878 5.19286 5.01964 5.33334 4.66602 5.33334ZM4.66602 21.3333C4.40231 21.3333 4.14452 21.2551 3.92526 21.1086C3.70599 20.9621 3.53509 20.7539 3.43418 20.5102C3.33326 20.2666 3.30686 19.9985 3.3583 19.7399C3.40975 19.4812 3.53674 19.2437 3.72321 19.0572C3.90968 18.8707 4.14726 18.7437 4.4059 18.6923C4.66454 18.6408 4.93263 18.6672 5.17626 18.7682C5.4199 18.8691 5.62814 19.04 5.77464 19.2592C5.92115 19.4785 5.99935 19.7363 5.99935 20C5.99935 20.3536 5.85887 20.6928 5.60883 20.9428C5.35878 21.1929 5.01964 21.3333 4.66602 21.3333Z" fill="#0174FF"/>
</svg>
