<svg width="17" height="17" viewBox="0 0 17 17" fill="none" xmlns="http://www.w3.org/2000/svg">
<path d="M11.3957 3.00652L13.1607 4.77069L11.3957 3.00652ZM12.5307 1.45236L7.75815 6.22486C7.51156 6.4711 7.34338 6.78484 7.27482 7.12652L6.83398 9.33319L9.04065 8.89152C9.38232 8.82319 9.69565 8.65569 9.94232 8.40902L14.7148 3.63652C14.8582 3.49311 14.972 3.32285 15.0496 3.13547C15.1272 2.94809 15.1672 2.74726 15.1672 2.54444C15.1672 2.34162 15.1272 2.14079 15.0496 1.95341C14.972 1.76603 14.8582 1.59577 14.7148 1.45236C14.5714 1.30894 14.4011 1.19518 14.2138 1.11756C14.0264 1.03995 13.8256 1 13.6227 1C13.4199 1 13.2191 1.03995 13.0317 1.11756C12.8443 1.19518 12.6741 1.30894 12.5307 1.45236V1.45236Z" stroke="#0174FF" stroke-width="2" stroke-linecap="round" stroke-linejoin="round"/>
<path d="M13.5 11.0003V13.5003C13.5 13.9424 13.3244 14.3663 13.0118 14.6788C12.6993 14.9914 12.2754 15.167 11.8333 15.167H2.66667C2.22464 15.167 1.80072 14.9914 1.48816 14.6788C1.17559 14.3663 1 13.9424 1 13.5003V4.33366C1 3.89163 1.17559 3.46771 1.48816 3.15515C1.80072 2.84259 2.22464 2.66699 2.66667 2.66699H5.16667" stroke="#0174FF" stroke-width="2" stroke-linecap="round" stroke-linejoin="round"/>
</svg>
