<svg width="12" height="8" viewBox="0 0 12 8" fill="none" xmlns="http://www.w3.org/2000/svg">
<path d="M5.24848 7.14L0.452476 1.658C-0.113524 1.013 0.346476 3.67706e-07 1.20548 3.67706e-07H10.7975C10.9897 -0.000164459 11.1779 0.0550878 11.3396 0.159141C11.5012 0.263194 11.6295 0.411637 11.7089 0.586693C11.7884 0.761749 11.8157 0.955998 11.7876 1.14618C11.7595 1.33636 11.6772 1.51441 11.5505 1.659L6.75448 7.139C6.66061 7.24641 6.54486 7.3325 6.41499 7.39148C6.28511 7.45046 6.14412 7.48098 6.00148 7.48098C5.85883 7.48098 5.71784 7.45046 5.58797 7.39148C5.45809 7.3325 5.34234 7.24641 5.24848 7.139V7.14Z" fill="#9E9E9E"/>
</svg>
