<svg width="31" height="29" viewBox="0 0 39 37" fill="none" xmlns="http://www.w3.org/2000/svg">
<path d="M21.2948 3.03875L21.2951 3.05008L21.2976 3.12558L21.2979 3.13685V3.14814L21.2979 20.4843L25.0809 16.9539C25.7941 16.2882 26.8937 16.2964 27.5974 16.9512L27.6064 16.9596L27.6151 16.9683L27.6732 17.0262L27.6819 17.0349L27.6902 17.0439C28.3559 17.7571 28.3477 18.8568 27.693 19.5604L27.6846 19.5694L27.6759 19.5781L27.6179 19.6362L27.6092 19.6449L27.6003 19.6533L20.7226 26.0723C20.7218 26.0731 20.721 26.0738 20.7202 26.0746C20.6878 26.1052 20.6542 26.1348 20.6195 26.1631M21.2948 3.03875L20.1778 25.6226M21.2948 3.03875L21.294 3.02743C21.2315 2.06372 20.4308 1.30193 19.4517 1.30193C18.4321 1.30193 17.6055 2.12851 17.6055 3.14814L17.6055 20.9135L13.3634 16.9539L13.3633 16.9539C12.6179 16.2582 11.4497 16.2985 10.754 17.0439C10.0582 17.7893 10.0985 18.9575 10.8439 19.6533L17.7328 26.0828C18.1497 26.4719 18.6991 26.6303 19.222 26.5651C19.298 26.5746 19.3745 26.5793 19.451 26.5794H19.4513H19.4517H19.463L19.4743 26.579L19.5498 26.5766L19.5729 26.5758L19.5959 26.5735L19.6722 26.566L19.6837 26.5649L19.6951 26.5634C19.7107 26.5613 19.7253 26.5592 19.7383 26.5572L19.7419 26.5566C19.8049 26.5466 19.8673 26.5334 19.9288 26.5169C19.951 26.511 19.9725 26.5048 19.9932 26.4985L19.9954 26.4978C20.0118 26.4928 20.0287 26.4873 20.0461 26.4814L20.0461 26.4814L20.0539 26.4787L20.087 26.4669L20.087 26.467L20.0977 26.463C20.1184 26.4553 20.1386 26.4473 20.1587 26.439L20.1589 26.4389C20.1752 26.4322 20.1918 26.425 20.2088 26.4173L19.9215 25.7811L20.2074 26.4179C20.2305 26.4076 20.2528 26.397 20.2742 26.3864L20.2742 26.3865L20.2833 26.3818L20.3017 26.3723L20.3017 26.3723L20.3058 26.3702C20.3309 26.3571 20.3551 26.3437 20.3781 26.3304L20.3803 26.3292C20.3956 26.3202 20.4121 26.3104 20.4293 26.2995C20.4453 26.2895 20.4605 26.2797 20.4746 26.2703L20.4773 26.2685C20.4928 26.2582 20.5088 26.2471 20.5253 26.2353M21.2948 3.03875L20.0891 25.6884C20.099 25.6818 20.1087 25.675 20.1185 25.6679M20.6195 26.1631L20.1778 25.6226M20.6195 26.1631C20.6198 26.1629 20.6201 26.1627 20.6204 26.1624L20.1778 25.6226M20.6195 26.1631C20.61 26.1709 20.6006 26.1785 20.5913 26.1858L20.5905 26.1864C20.5693 26.203 20.5476 26.2193 20.5253 26.2353M20.1778 25.6226L20.16 25.6369C20.1464 25.6475 20.1326 25.6579 20.1185 25.6679M20.5253 26.2353C20.5257 26.235 20.5261 26.2347 20.5265 26.2344L20.1185 25.6679M20.5253 26.2353C20.525 26.2355 20.5247 26.2357 20.5244 26.2359L20.1185 25.6679M37.6015 24.5035C37.6015 23.4839 36.7749 22.6573 35.7553 22.6573C34.7357 22.6573 33.9091 23.4839 33.9091 24.5035V28.6368C33.9091 30.6609 32.2683 32.3017 30.2442 32.3017H8.65921C6.63516 32.3017 4.99435 30.6609 4.99435 28.6368V24.5035C4.99435 23.4839 4.16777 22.6573 3.14814 22.6573C2.12851 22.6573 1.30193 23.4839 1.30193 24.5035V28.6368C1.30193 32.7002 4.5959 35.9941 8.65921 35.9941H30.2442C34.3076 35.9941 37.6015 32.7002 37.6015 28.6368V24.5035Z" fill="black" stroke="black" stroke-width="1.39614"/>
</svg>
