<svg width="14" height="8" viewBox="0 0 14 8" fill="none" xmlns="http://www.w3.org/2000/svg">
<path d="M6.07137 7.14L0.79577 1.658C0.17317 1.013 0.67917 3.67706e-07 1.62407 3.67706e-07H12.1753C12.3867 -0.000164459 12.5938 0.0550878 12.7716 0.159141C12.9494 0.263194 13.0905 0.411637 13.1779 0.586693C13.2653 0.761749 13.2953 0.955998 13.2644 1.14618C13.2335 1.33636 13.1429 1.51441 13.0036 1.659L7.72797 7.139C7.62472 7.24641 7.49739 7.3325 7.35453 7.39148C7.21167 7.45046 7.05658 7.48098 6.89967 7.48098C6.74276 7.48098 6.58767 7.45046 6.44481 7.39148C6.30195 7.3325 6.17462 7.24641 6.07137 7.139V7.14Z" fill="#9E9E9E"/>
</svg>
