<svg width="20" height="20" viewBox="0 0 23 24" fill="none" xmlns="http://www.w3.org/2000/svg">
<path d="M20.847 8.79361C20.556 8.79361 20.2769 8.90921 20.0711 9.11498C19.8654 9.32074 19.7498 9.59982 19.7498 9.89082V19.7657C19.7498 20.0567 19.6342 20.3358 19.4284 20.5416C19.2226 20.7473 18.9436 20.8629 18.6526 20.8629H3.29163C3.00063 20.8629 2.72155 20.7473 2.51579 20.5416C2.31002 20.3358 2.19442 20.0567 2.19442 19.7657V4.40477C2.19442 4.11377 2.31002 3.83469 2.51579 3.62893C2.72155 3.42316 3.00063 3.30756 3.29163 3.30756H13.1665C13.4575 3.30756 13.7366 3.19196 13.9424 2.9862C14.1481 2.78043 14.2637 2.50135 14.2637 2.21035C14.2637 1.91935 14.1481 1.64028 13.9424 1.43451C13.7366 1.22874 13.4575 1.11314 13.1665 1.11314H3.29163C2.41864 1.11314 1.5814 1.45994 0.964096 2.07724C0.346796 2.69454 0 3.53178 0 4.40477V19.7657C0 20.6387 0.346796 21.4759 0.964096 22.0932C1.5814 22.7105 2.41864 23.0573 3.29163 23.0573H18.6526C19.5256 23.0573 20.3628 22.7105 20.9801 22.0932C21.5974 21.4759 21.9442 20.6387 21.9442 19.7657V9.89082C21.9442 9.59982 21.8286 9.32074 21.6228 9.11498C21.4171 8.90921 21.138 8.79361 20.847 8.79361ZM22.5038 2.44077L20.6166 0.553566C20.4121 0.348809 20.1632 0.193827 19.8892 0.100602C19.6153 0.00737764 19.3235 -0.0215921 19.0366 0.0159334C18.5081 0.0846647 18.0176 0.327949 17.6431 0.707176L9.87489 8.51931C9.65314 8.73617 9.47444 8.99305 9.34823 9.27638L7.89991 12.568C7.72998 12.9265 7.67257 13.328 7.73524 13.7197C7.79791 14.1114 7.97773 14.4749 8.25102 14.7624C8.4247 14.9376 8.63158 15.0763 8.85955 15.1705C9.08751 15.2647 9.33198 15.3125 9.57864 15.311C9.88465 15.3115 10.1874 15.248 10.4674 15.1245L13.759 13.6762C14.0413 13.553 14.2981 13.3781 14.5161 13.1605L22.3063 5.37032C22.7115 5.00222 22.9584 4.49152 22.9952 3.94533C23.032 3.39914 22.8559 2.85992 22.5038 2.44077V2.44077ZM20.7812 3.86714L12.98 11.6573C12.9585 11.6807 12.9323 11.6994 12.9032 11.7122L10.1382 12.9191L11.4 10.0664L19.1902 2.27619L20.847 3.8452L20.7812 3.86714Z" fill="white"/>
</svg>
