<svg width="17" height="17" viewBox="0 0 17 17" fill="none" xmlns="http://www.w3.org/2000/svg">
<path d="M11.3957 3.00603L13.1607 4.7702L11.3957 3.00603ZM12.5307 1.45187L7.75815 6.22437C7.51156 6.47062 7.34338 6.78435 7.27482 7.12603L6.83398 9.3327L9.04065 8.89104C9.38232 8.8227 9.69565 8.6552 9.94232 8.40853L14.7148 3.63603C14.8582 3.49262 14.972 3.32236 15.0496 3.13498C15.1272 2.9476 15.1672 2.74677 15.1672 2.54395C15.1672 2.34113 15.1272 2.1403 15.0496 1.95292C14.972 1.76554 14.8582 1.59528 14.7148 1.45187C14.5714 1.30845 14.4011 1.19469 14.2138 1.11708C14.0264 1.03946 13.8256 0.999512 13.6227 0.999512C13.4199 0.999512 13.2191 1.03946 13.0317 1.11708C12.8443 1.19469 12.6741 1.30845 12.5307 1.45187V1.45187Z" stroke="#7A7979" stroke-width="2" stroke-linecap="round" stroke-linejoin="round"/>
<path d="M13.5 10.9993V13.4993C13.5 13.9414 13.3244 14.3653 13.0118 14.6779C12.6993 14.9904 12.2754 15.166 11.8333 15.166H2.66667C2.22464 15.166 1.80072 14.9904 1.48816 14.6779C1.17559 14.3653 1 13.9414 1 13.4993V4.33268C1 3.89065 1.17559 3.46673 1.48816 3.15417C1.80072 2.84161 2.22464 2.66602 2.66667 2.66602H5.16667" stroke="#7A7979" stroke-width="2" stroke-linecap="round" stroke-linejoin="round"/>
</svg>
