<svg width="48" height="48" viewBox="0 0 48 48" fill="none" xmlns="http://www.w3.org/2000/svg">
<g filter="url(#filter0_d_281_7021)">
<path d="M4 20.001C4 31.0459 12.9541 40 24.001 40C35.0459 40 44 31.0459 44 20.001C44 8.95615 35.0459 0 24.001 0C12.9562 0 4 8.95415 4 20.001Z" fill="white"/>
</g>
<path d="M19 20L18.2929 19.2929L17.5858 20L18.2929 20.7071L19 20ZM24.2929 13.2929L18.2929 19.2929L19.7071 20.7071L25.7071 14.7071L24.2929 13.2929ZM18.2929 20.7071L24.2929 26.7071L25.7071 25.2929L19.7071 19.2929L18.2929 20.7071Z" fill="#7A7979"/>
<defs>
<filter id="filter0_d_281_7021" x="0" y="0" width="48" height="48" filterUnits="userSpaceOnUse" color-interpolation-filters="sRGB">
<feFlood flood-opacity="0" result="BackgroundImageFix"/>
<feColorMatrix in="SourceAlpha" type="matrix" values="0 0 0 0 0 0 0 0 0 0 0 0 0 0 0 0 0 0 127 0" result="hardAlpha"/>
<feOffset dy="4"/>
<feGaussianBlur stdDeviation="2"/>
<feComposite in2="hardAlpha" operator="out"/>
<feColorMatrix type="matrix" values="0 0 0 0 0 0 0 0 0 0 0 0 0 0 0 0 0 0 0.25 0"/>
<feBlend mode="normal" in2="BackgroundImageFix" result="effect1_dropShadow_281_7021"/>
<feBlend mode="normal" in="SourceGraphic" in2="effect1_dropShadow_281_7021" result="shape"/>
</filter>
</defs>
</svg>
