<svg width="27" height="24" viewBox="0 0 27 24" fill="none" xmlns="http://www.w3.org/2000/svg">
<path d="M17.3333 1.66874V22.3301C17.3333 23.7687 15.6347 24.5314 14.56 23.5754L8.57067 18.2501C8.38762 18.0877 8.15138 17.998 7.90667 17.9981H3C2.60603 17.9981 2.21593 17.9205 1.85195 17.7697C1.48797 17.6189 1.15726 17.398 0.87868 17.1194C0.600104 16.8408 0.379126 16.5101 0.228361 16.1461C0.0775973 15.7821 0 15.392 0 14.9981V9.00074C0.000353519 8.20532 0.31658 7.4426 0.879151 6.88028C1.44172 6.31796 2.20458 6.00207 3 6.00207H7.90667C8.15155 6.00178 8.38782 5.91163 8.57067 5.74874L14.5587 0.424736C15.6347 -0.531264 17.3333 0.231403 17.3333 1.66874ZM22.656 3.86607C22.8691 3.70821 23.1361 3.64144 23.3984 3.68044C23.6607 3.71945 23.8968 3.86104 24.0547 4.07407C25.7552 6.36762 26.6711 9.14821 26.6667 12.0034C26.6704 14.8583 25.754 17.6383 24.0533 19.9314C23.8938 20.1399 23.6586 20.2774 23.3986 20.314C23.1386 20.3506 22.8747 20.2835 22.6637 20.1272C22.4527 19.9709 22.3117 19.7378 22.2711 19.4784C22.2305 19.219 22.2936 18.9541 22.4467 18.7407C23.892 16.7922 24.6705 14.4295 24.6667 12.0034C24.6708 9.57685 23.8923 7.21366 22.4467 5.26474C22.3684 5.15911 22.3117 5.03908 22.2798 4.91152C22.2479 4.78396 22.2415 4.65136 22.261 4.52132C22.2804 4.39129 22.3253 4.26636 22.3931 4.15369C22.4609 4.04103 22.5502 3.94284 22.656 3.86474V3.86607ZM20.1907 7.16207C20.3061 7.09944 20.4328 7.06018 20.5635 7.04652C20.6941 7.03287 20.8262 7.04509 20.9521 7.08248C21.078 7.11987 21.1953 7.18171 21.2974 7.26446C21.3994 7.3472 21.4841 7.44924 21.5467 7.56474C22.2613 8.88474 22.6667 10.3981 22.6667 12.0034C22.6689 13.5527 22.2839 15.078 21.5467 16.4407C21.4842 16.5563 21.3995 16.6584 21.2975 16.7413C21.1955 16.8241 21.0783 16.8861 20.9523 16.9236C20.8264 16.9611 20.6943 16.9734 20.5637 16.9599C20.433 16.9464 20.3062 16.9072 20.1907 16.8447C20.0751 16.7822 19.973 16.6976 19.8901 16.5956C19.8073 16.4936 19.7453 16.3763 19.7078 16.2504C19.6703 16.1245 19.658 15.9924 19.6715 15.8617C19.685 15.731 19.7242 15.6043 19.7867 15.4887C20.3657 14.4184 20.6682 13.2203 20.6667 12.0034C20.6667 10.7394 20.3467 9.55274 19.7867 8.51674C19.6607 8.2835 19.6325 8.0098 19.7083 7.75578C19.784 7.50176 19.9575 7.28822 20.1907 7.16207Z" fill="#9E9E9E"/>
</svg>
