<svg width="21" height="27" viewBox="0 0 21 27" fill="none" xmlns="http://www.w3.org/2000/svg">
<path d="M6.76256 26.8334H2.47684C1.29381 26.8334 0.333984 25.5536 0.333984 23.9762V3.02383C0.333984 1.44645 1.29381 0.166687 2.47684 0.166687H6.76256C7.94559 0.166687 8.90541 1.44645 8.90541 3.02383V23.9762C8.90541 25.5536 7.94559 26.8334 6.76256 26.8334ZM20.334 23.9762V3.02383C20.334 1.44645 19.3742 0.166687 18.1911 0.166687H13.9054C12.7224 0.166687 11.7626 1.44645 11.7626 3.02383V23.9762C11.7626 25.5536 12.7224 26.8334 13.9054 26.8334H18.1911C19.3742 26.8334 20.334 25.5536 20.334 23.9762Z" fill="#0174FF"/>
</svg>
