<svg width="42" height="42" viewBox="0 0 42 42" fill="none" xmlns="http://www.w3.org/2000/svg">
<path d="M1 21.001C1 32.0459 9.95415 41 21.001 41C32.0459 41 41 32.0459 41 21.001C41 9.95615 32.0459 1 21.001 1C9.95615 1 1 9.95415 1 21.001Z" fill="#0174FF"/>
<path d="M1 21.001C1 32.0459 9.95415 41 21.001 41C32.0459 41 41 32.0459 41 21.001C41 9.95615 32.0459 1 21.001 1C9.95615 1 1 9.95415 1 21.001Z" stroke="url(#paint0_linear_2019_19197)" stroke-opacity="0.8" stroke-width="0.466667" style="mix-blend-mode:soft-light"/>
<path d="M26 29.875V27.625C26 25.7394 26 24.7966 25.4142 24.2108C24.8284 23.625 23.8856 23.625 22 23.625H21C19.1144 23.625 18.1716 23.625 17.5858 24.2108C17 24.7966 17 25.7394 17 27.625V29.875" stroke="white" stroke-width="2"/>
<path d="M17 16.3333H22" stroke="white" stroke-width="2" stroke-linecap="round"/>
<path d="M13 17.125C13 14.2966 13 12.8824 13.8787 12.0037C14.7574 11.125 16.1716 11.125 19 11.125H26.1476C26.5679 11.125 26.778 11.125 26.9659 11.2051C27.1537 11.2851 27.2993 11.4367 27.5903 11.7399L30.4428 14.7112C30.7179 14.9978 30.8555 15.1411 30.9277 15.3207C31 15.5004 31 15.699 31 16.0963V23.875C31 26.7034 31 28.1176 30.1213 28.9963C29.2426 29.875 27.8284 29.875 25 29.875H19C16.1716 29.875 14.7574 29.875 13.8787 28.9963C13 28.1176 13 26.7034 13 23.875V17.125Z" stroke="white" stroke-width="2"/>
<defs>
<linearGradient id="paint0_linear_2019_19197" x1="1.74977" y1="1.72727" x2="34.2489" y2="37.3234" gradientUnits="userSpaceOnUse">
<stop stop-color="white"/>
<stop offset="1" stop-color="white" stop-opacity="0"/>
</linearGradient>
</defs>
</svg>

