<svg width="17" height="18" viewBox="0 0 17 18" fill="none" xmlns="http://www.w3.org/2000/svg">
<path d="M16.7833 16.6579L11.9465 11.5366C13.0171 10.1186 13.5342 8.32044 13.3916 6.51137C13.249 4.7023 12.4576 3.01973 11.1799 1.80926C9.90213 0.598803 8.23514 -0.0476357 6.52129 0.00273745C4.80745 0.0531106 3.17689 0.796471 1.96456 2.08012C0.752222 3.36377 0.0501601 5.09024 0.00258537 6.9049C-0.0449893 8.71955 0.565536 10.4846 1.70875 11.8375C2.85196 13.1904 4.44106 14.0284 6.14963 14.1793C7.85819 14.3303 9.55649 13.7828 10.8957 12.6492L15.7325 17.7705C15.8721 17.9175 16.061 18 16.2579 18C16.4548 18 16.6436 17.9175 16.7833 17.7705C16.9221 17.6227 17 17.4227 17 17.2142C17 17.0057 16.9221 16.8057 16.7833 16.6579ZM6.71471 12.6334C5.68291 12.6334 4.67428 12.3095 3.81637 11.7025C2.95846 11.0956 2.2898 10.2329 1.89495 9.22354C1.50009 8.21421 1.39678 7.10357 1.59808 6.03206C1.79937 4.96056 2.29623 3.97632 3.02582 3.20381C3.75542 2.4313 4.68497 1.90522 5.69695 1.69208C6.70892 1.47895 7.75786 1.58833 8.71112 2.00641C9.66438 2.42449 10.4791 3.13249 11.0524 4.04086C11.6256 4.94924 11.9316 6.0172 11.9316 7.10969C11.9316 7.83508 11.7966 8.55337 11.5345 9.22354C11.2723 9.89371 10.888 10.5026 10.4036 11.0156C9.91917 11.5285 9.34406 11.9354 8.71112 12.213C8.07818 12.4906 7.3998 12.6334 6.71471 12.6334Z" fill="#9E9E9E"/>
</svg>
