<svg width="40" height="40" viewBox="0 0 40 40" fill="none" xmlns="http://www.w3.org/2000/svg">
<g clip-path="url(#clip0_279_6600)">
<path d="M0 20.001C0 31.0459 8.95415 40 20.001 40C31.0459 40 40 31.0459 40 20.001C40 8.95615 31.0459 0 20.001 0C8.95615 0 0 8.95415 0 20.001Z" fill="#0174FF"/>
<path d="M0 20.001C0 31.0459 8.95415 40 20.001 40C31.0459 40 40 31.0459 40 20.001C40 8.95615 31.0459 0 20.001 0C8.95615 0 0 8.95415 0 20.001Z" stroke="url(#paint0_linear_279_6600)" stroke-opacity="0.8" stroke-width="0.466667" style="mix-blend-mode:soft-light"/>
<path fill-rule="evenodd" clip-rule="evenodd" d="M11 10H28.1429V15.7143H26.7143C26.3714 14.1429 26.5429 12.8857 26 12.4C25.4714 11.9286 24.1429 11.4286 22.4286 11.4286H21V27.1429C21 28.2857 21.1714 28.6429 21.5286 28.9143C21.8857 29.1857 22.6571 29.3714 23.8571 29.4571V30H15.2571V29.4571C16.5 29.3571 17.2857 29.1571 17.5857 28.8286C17.9 28.5143 18.1429 28.4143 18.1429 27.1429V11.4286H16.7143C15.0857 11.4286 13.6429 11.9286 13.0571 12.4C12.4571 12.8714 12.7286 14.1286 12.4286 15.7143H11V10Z" fill="white"/>
</g>
<defs>
<linearGradient id="paint0_linear_279_6600" x1="0.749766" y1="0.727272" x2="33.2489" y2="36.3234" gradientUnits="userSpaceOnUse">
<stop stop-color="white"/>
<stop offset="1" stop-color="white" stop-opacity="0"/>
</linearGradient>
<clipPath id="clip0_279_6600">
<rect width="40" height="40" fill="white"/>
</clipPath>
</defs>
</svg>

