<svg width="8" height="16" viewBox="0 0 8 16" fill="none" xmlns="http://www.w3.org/2000/svg">
<path d="M7.9938 7.86617C7.96562 7.57376 7.8475 7.29725 7.65594 7.07472L2.53345 1.09847C2.29246 0.797728 1.93968 0.607759 1.556 0.571638C1.17228 0.535707 0.790577 0.656799 0.497761 0.907516C0.20496 1.15804 0.0263038 1.51673 0.00267839 1.90127C-0.0209436 2.28598 0.112457 2.66375 0.3725 2.94838L4.7036 7.99964L0.3725 13.0509C0.11265 13.3355 -0.0207481 13.7133 0.00287676 14.098C0.0263014 14.4825 0.20496 14.8412 0.497761 15.0918C0.790562 15.3425 1.17248 15.4636 1.55621 15.4276C1.93993 15.3915 2.29247 15.2015 2.53345 14.9008L7.65594 8.92455C7.90745 8.63215 8.02934 8.25019 7.994 7.86631L7.9938 7.86617Z" fill="white"/>
</svg>
