<svg width="17" height="21" viewBox="0 0 17 21" fill="none" xmlns="http://www.w3.org/2000/svg">
<path fill-rule="evenodd" clip-rule="evenodd" d="M12.9732 18.1498L12.9732 1.82733C12.9732 1.36547 13.3433 0.991062 13.8069 0.991062C14.2674 0.991062 14.6406 1.3655 14.6406 1.82733L14.6406 18.1525L15.5823 17.2108C15.9048 16.8882 16.428 16.8884 16.7559 17.2163C17.0814 17.5418 17.0795 18.0716 16.7613 18.3899L14.3923 20.7588C14.2319 20.9192 14.0219 20.9998 13.811 21L13.8047 20.9975C13.5929 20.9971 13.3824 20.917 13.2242 20.7588L10.8552 18.3899C10.5326 18.0673 10.5328 17.5441 10.8607 17.2163C11.1862 16.8907 11.716 16.8926 12.0343 17.2108L12.9732 18.1498Z" fill="#4A9AFC"/>
<path fill-rule="evenodd" clip-rule="evenodd" d="M4.64008 3.84146L4.64008 20.1639C4.64008 20.6257 4.27003 21.0001 3.80637 21.0001C3.34593 21.0001 2.97267 20.6257 2.97267 20.1639L2.97267 3.83876L2.03103 4.7804C1.70845 5.10298 1.18528 5.10281 0.857429 4.77496C0.531846 4.44938 0.533768 3.91958 0.851992 3.60136L3.22094 1.23241C3.38134 1.07201 3.59133 0.991409 3.80225 0.991211L3.80861 0.9937C4.02034 0.994152 4.23088 1.07418 4.38911 1.23241L6.75805 3.60136C7.08063 3.92394 7.08047 4.44711 6.75262 4.77496C6.42704 5.10054 5.89724 5.09862 5.57902 4.7804L4.64008 3.84146Z" fill="white"/>
</svg>