<svg width="18" height="21" viewBox="0 0 18 21" fill="#707070" xmlns="http://www.w3.org/2000/svg">
<path fill-rule="evenodd" clip-rule="evenodd" d="M13.494 18.0813V1.75887C13.494 1.29702 13.864 0.922607 14.3277 0.922607C14.7881 0.922607 15.1614 1.29704 15.1614 1.75887V18.084L16.103 17.1424C16.4256 16.8198 16.9488 16.8199 17.2766 17.1478C17.6022 17.4734 17.6003 18.0032 17.2821 18.3214L14.9131 20.6903C14.7527 20.8507 14.5427 20.9313 14.3318 20.9315L14.3255 20.9291C14.1137 20.9286 13.9032 20.8486 13.745 20.6903L11.376 18.3214C11.0534 17.9988 11.0536 17.4756 11.3815 17.1478C11.707 16.8222 12.2368 16.8241 12.5551 17.1424L13.494 18.0813ZM4.87348 3.77286V20.0953C4.87348 20.5571 4.50343 20.9315 4.03977 20.9315C3.57933 20.9315 3.20607 20.5571 3.20607 20.0953V3.77015L2.26443 4.71179C1.94185 5.03437 1.41868 5.03421 1.09083 4.70636C0.765245 4.38077 0.767167 3.85098 1.08539 3.53275L3.45434 1.16381C3.61474 1.00341 3.82473 0.922805 4.03565 0.922607L4.04201 0.925096C4.25374 0.925548 4.46428 1.00558 4.6225 1.16381L6.99145 3.53275C7.31403 3.85533 7.31387 4.3785 6.98602 4.70636C6.66043 5.03194 6.13064 5.03002 5.81242 4.71179L4.87348 3.77286Z" fill="white"/>
</svg>

