<svg width="47" height="41" viewBox="0 0 47 41" fill="none" xmlns="http://www.w3.org/2000/svg">
<path d="M31.4681 30.9593L31.4681 30.9593C31.4693 30.959 31.4705 30.9587 31.4717 30.9584C31.4856 30.9549 31.4994 30.9515 31.5131 30.9481C31.7357 30.8927 31.9328 30.8436 32.1117 30.7424C32.2906 30.6411 32.434 30.4973 32.596 30.335C32.6069 30.3241 32.6178 30.3132 32.6288 30.3022L39.818 23.1129L39.8413 23.0897C40.1545 22.7765 40.4244 22.5066 40.6114 22.2615C40.8119 21.9987 40.9637 21.7065 40.9637 21.3464C40.9637 20.9862 40.8119 20.694 40.6114 20.4313C40.4244 20.1861 40.1545 19.9162 39.8412 19.603L39.818 19.5798L39.6465 19.4083L39.2932 19.7616L39.6465 19.4083L39.6233 19.3851C39.3101 19.0719 39.0402 18.802 38.7951 18.6149C38.5323 18.4144 38.2401 18.2627 37.88 18.2627C37.5198 18.2627 37.2276 18.4144 36.9649 18.6149C36.7197 18.802 36.4498 19.0718 36.1367 19.3851L36.1134 19.4083L28.9242 26.5975C28.9132 26.6086 28.9022 26.6195 28.8914 26.6303C28.729 26.7923 28.5853 26.9358 28.484 27.1147C28.3827 27.2936 28.3336 27.4906 28.2782 27.7132C28.2745 27.7281 28.2708 27.7431 28.267 27.7582L27.604 30.4105C27.6017 30.4194 27.5995 30.4283 27.5973 30.4372C27.5581 30.5938 27.5162 30.761 27.5024 30.9014C27.4873 31.0561 27.4908 31.317 27.7001 31.5262C27.9094 31.7355 28.1703 31.739 28.3249 31.7239C28.4653 31.7102 28.6325 31.6683 28.7891 31.6291C28.798 31.6268 28.8069 31.6246 28.8158 31.6224L31.4681 30.9593Z" stroke="#333333" stroke-width="0.999325"/>
<path d="M35.3809 19.8475L38.3788 17.8489L41.3768 20.8469L39.3782 23.8448L35.3809 19.8475Z" fill="#333333"/>
<rect x="8.22656" y="7.46411" width="22.813" height="27.7015" rx="3.259" stroke="#333333" stroke-width="1.6295"/>
<path d="M14.7441 15.6116H24.5211" stroke="#333333" stroke-width="1.6295" stroke-linecap="round"/>
<path d="M14.7441 22.1296H24.5211" stroke="#333333" stroke-width="1.6295" stroke-linecap="round"/>
<path d="M14.7441 28.6475H21.2621" stroke="#333333" stroke-width="1.6295" stroke-linecap="round"/>
</svg>
