<svg width="20" height="22" viewBox="0 0 20 22" fill="none" xmlns="http://www.w3.org/2000/svg">
<path fill-rule="evenodd" clip-rule="evenodd" d="M14.0117 16.8071H17.6987V17.753H14.0117V16.8071Z" fill="white"/>
<path fill-rule="evenodd" clip-rule="evenodd" d="M16.3275 15.4346V19.1196H15.3828V15.4346H16.3275Z" fill="white"/>
<path d="M8.31195 0C9.62194 0 10.8062 0.531526 11.6641 1.38948C12.5221 2.24743 13.0536 3.43165 13.0536 4.74164C13.0536 6.05163 12.5221 7.23585 11.6641 8.09381C10.8062 8.95176 9.62194 9.48328 8.31195 9.48328C7.00197 9.48328 5.81774 8.95176 4.95979 8.09381C4.10184 7.23585 3.57031 6.05163 3.57031 4.74164C3.57031 3.43165 4.10184 2.24743 4.95979 1.38948C5.81774 0.531526 7.00197 0 8.31195 0Z" fill="white"/>
<path d="M11.4422 18.0966H0.33516H0.322605C0.138453 18.0924 -0.00803053 17.9375 0.000341844 17.7534C0.00871218 17.5441 0.0128971 17.339 0.0170828 17.1256C0.0463795 15.9746 0.0756746 14.6649 0.368641 13.6562C0.62394 12.7647 1.08848 12.0575 1.95485 11.4257C2.77933 10.823 3.96795 10.2957 5.7088 9.74319C5.80925 9.70552 5.92643 9.71808 6.02269 9.78504C6.36588 10.0278 6.74671 10.2203 7.15268 10.35C7.54609 10.4756 7.96461 10.5426 8.40405 10.5426C8.8435 10.5426 9.26618 10.4756 9.6596 10.35C10.0656 10.2203 10.4506 10.0278 10.7938 9.78086C10.8733 9.72645 10.9737 9.70134 11.0742 9.73064C12.991 10.2663 14.2422 10.8397 15.0709 11.5303C15.5271 11.9111 15.8661 12.3422 16.1088 12.8068C16.0251 12.8026 15.9372 12.7984 15.8535 12.7984C14.6607 12.7984 13.5268 13.2672 12.6813 14.1126C11.8359 14.958 11.3671 16.0922 11.3671 17.2848C11.3671 17.561 11.3923 17.8372 11.4425 18.1051L11.4422 18.0966Z" fill="white"/>
<path fill-rule="evenodd" clip-rule="evenodd" d="M15.8524 21.4275C16.9992 21.4275 18.0369 20.963 18.7861 20.2138C19.5353 19.4646 19.9998 18.4267 19.9998 17.2802C19.9998 16.1334 19.5352 15.0957 18.7861 14.3465C18.0369 13.5973 16.999 13.1328 15.8524 13.1328C14.7057 13.1328 13.668 13.5974 12.9188 14.3465C12.1696 15.0957 11.7051 16.1336 11.7051 17.2802C11.7051 18.4269 12.1696 19.4646 12.9188 20.2138C13.668 20.963 14.7059 21.4275 15.8524 21.4275ZM15.8524 20.2138C15.0405 20.2138 14.3081 19.8874 13.7767 19.3559C13.2452 18.8243 12.9188 18.092 12.9188 17.2802C12.9188 16.4682 13.2452 15.7358 13.7767 15.2045C14.3083 14.673 15.0407 14.3465 15.8524 14.3465C16.6644 14.3465 17.3968 14.673 17.9281 15.2045C18.4597 15.736 18.7861 16.4684 18.7861 17.2802C18.7861 18.0921 18.4596 18.8245 17.9281 19.3559C17.3966 19.8874 16.6642 20.2138 15.8524 20.2138Z" fill="white"/>
</svg>