<svg width="26" height="29" viewBox="0 0 26 26" fill="none" xmlns="http://www.w3.org/2000/svg">
<path d="M21.8935 6.18584C22.0975 5.98184 22.2121 5.70516 22.2121 5.41667C22.2121 5.12817 22.0975 4.8515 21.8935 4.6475C21.6895 4.44351 21.4128 4.3289 21.1244 4.3289C20.8359 4.3289 20.5592 4.44351 20.3552 4.6475L13.5519 11.4833L9.97685 7.8975C10.1842 7.46083 10.2915 6.9834 10.291 6.5C10.291 5.85721 10.1004 5.22886 9.74329 4.6944C9.38618 4.15994 8.8786 3.74338 8.28474 3.49739C7.69088 3.25141 7.03741 3.18705 6.40697 3.31245C5.77654 3.43785 5.19744 3.74738 4.74292 4.2019C4.2884 4.65643 3.97887 5.23552 3.85346 5.86596C3.72806 6.4964 3.79242 7.14986 4.03841 7.74372C4.28439 8.33758 4.70095 8.84516 5.23541 9.20228C5.76987 9.55939 6.39823 9.75 7.04102 9.75C7.52525 9.74713 8.00271 9.63609 8.43852 9.425L12.0244 13L8.46018 16.575C8.01779 16.3607 7.53256 16.2496 7.04102 16.25C6.39823 16.25 5.76987 16.4406 5.23541 16.7977C4.70095 17.1548 4.28439 17.6624 4.03841 18.2563C3.79242 18.8501 3.72806 19.5036 3.85346 20.134C3.97887 20.7645 4.2884 21.3436 4.74292 21.7981C5.19744 22.2526 5.77654 22.5622 6.40697 22.6876C7.03741 22.813 7.69088 22.7486 8.28474 22.5026C8.8786 22.2566 9.38618 21.8401 9.74329 21.3056C10.1004 20.7711 10.291 20.1428 10.291 19.5C10.2868 19.0276 10.1795 18.5618 9.97685 18.135L21.8935 6.18584ZM7.04102 7.58333C6.82675 7.58333 6.6173 7.5198 6.43915 7.40076C6.261 7.28172 6.12214 7.11253 6.04015 6.91458C5.95815 6.71662 5.9367 6.4988 5.9785 6.28865C6.0203 6.07851 6.12348 5.88548 6.27499 5.73397C6.42649 5.58246 6.61952 5.47928 6.82967 5.43748C7.03982 5.39568 7.25764 5.41714 7.45559 5.49913C7.65354 5.58113 7.82274 5.71998 7.94178 5.89813C8.06081 6.07629 8.12435 6.28574 8.12435 6.5C8.12435 6.78732 8.01021 7.06287 7.80705 7.26603C7.60388 7.4692 7.32834 7.58333 7.04102 7.58333ZM7.04102 20.5833C6.82675 20.5833 6.6173 20.5198 6.43915 20.4008C6.261 20.2817 6.12214 20.1125 6.04015 19.9146C5.95815 19.7166 5.9367 19.4988 5.9785 19.2887C6.0203 19.0785 6.12348 18.8855 6.27499 18.734C6.42649 18.5825 6.61952 18.4793 6.82967 18.4375C7.03982 18.3957 7.25764 18.4171 7.45559 18.4991C7.65354 18.5811 7.82274 18.72 7.94178 18.8981C8.06081 19.0763 8.12435 19.2857 8.12435 19.5C8.12435 19.7873 8.01021 20.0629 7.80705 20.266C7.60388 20.4692 7.32834 20.5833 7.04102 20.5833Z" fill="black"/>
<path d="M16.478 14.3975C16.274 14.1935 15.9974 14.0789 15.7089 14.0789C15.4204 14.0789 15.1437 14.1935 14.9397 14.3975C14.7357 14.6015 14.6211 14.8781 14.6211 15.1666C14.6211 15.4551 14.7357 15.7318 14.9397 15.9358L20.3564 21.3525C20.4571 21.454 20.5769 21.5346 20.7089 21.5896C20.8409 21.6446 20.9825 21.6729 21.1255 21.6729C21.2685 21.6729 21.4101 21.6446 21.5422 21.5896C21.6742 21.5346 21.794 21.454 21.8947 21.3525C21.9962 21.2517 22.0768 21.1319 22.1318 20.9999C22.1868 20.8679 22.2151 20.7263 22.2151 20.5833C22.2151 20.4403 22.1868 20.2987 22.1318 20.1667C22.0768 20.0347 21.9962 19.9148 21.8947 19.8141L16.478 14.3975Z" fill="black"/>
</svg>
