<svg width="31" height="31" viewBox="0 0 31 31" fill="none" xmlns="http://www.w3.org/2000/svg">
<path d="M15.4103 13.9084C13.9737 14.8551 12.2759 15.4103 10.415 15.4103C8.58675 15.4103 6.85636 14.8553 5.41976 13.9084C2.35071 14.3329 0 16.9446 0 20.1443V24.1928C0 24.552 0.293786 24.8457 0.652917 24.8457H12.7983L20.2095 17.4345C19.328 15.5736 17.5322 14.2349 15.4102 13.9084H15.4103Z" fill="#0174FF"/>
<path d="M16.7149 6.26856C16.7149 9.73068 13.9084 12.5371 10.4463 12.5371C6.98419 12.5371 4.17773 9.73068 4.17773 6.26856C4.17773 2.80645 6.98419 0 10.4463 0C13.9084 0 16.7149 2.80645 16.7149 6.26856Z" fill="#0174FF"/>
<path d="M14.102 26.7394C14.004 26.8373 13.9715 26.9352 13.9387 27.0332L13.3183 30.298C13.2529 30.7226 13.6121 31.0817 14.004 30.9838L17.2689 30.3634C17.3994 30.3308 17.4976 30.298 17.5627 30.2001L18.1831 29.5797L14.7224 26.119L14.102 26.7394Z" fill="#0174FF"/>
<path d="M16.3105 24.549L23.6285 17.231L27.1146 20.717L19.7966 28.035L16.3105 24.549Z" fill="#0174FF"/>
<path d="M29.9387 16.7815L27.5226 14.3654C27.2288 14.0716 26.739 14.0716 26.4452 14.3654L25.1719 15.6387L28.6326 19.1323L29.9059 17.859C30.2325 17.5652 30.2325 17.0753 29.9387 16.7815L29.9387 16.7815Z" fill="#0174FF"/>
</svg>