<svg width="30" height="30" viewBox="0 0 30 30" fill="none" xmlns="http://www.w3.org/2000/svg">
<path fill-rule="evenodd" clip-rule="evenodd" d="M15 2.75C12.0509 2.75 9.51524 4.51071 8.38275 7.03405C8.24403 7.34311 8.15549 7.53964 8.08468 7.67817C8.07156 7.70383 8.06047 7.72455 8.05137 7.74099L8.02964 7.74252C7.91908 7.74953 7.7663 7.75 7.5 7.75C4.87665 7.75 2.75 9.87665 2.75 12.5C2.75 15.1234 4.87665 17.25 7.5 17.25H8.67157L10.6716 15.25H7.5C5.98122 15.25 4.75 14.0188 4.75 12.5C4.75 10.9812 5.98122 9.75 7.5 9.75L7.52637 9.75C7.75691 9.75002 7.9744 9.75003 8.15609 9.73852C8.34782 9.72638 8.58434 9.69796 8.82529 9.59838C9.07281 9.49609 9.24029 9.38768 9.43497 9.20374C9.64054 9.00951 9.77429 8.76692 9.8655 8.58849C9.9623 8.39912 10.0717 8.15534 10.1971 7.87602L10.1971 7.87595L10.2074 7.85297C11.0292 6.02198 12.8671 4.75 15 4.75C17.1329 4.75 18.9708 6.02198 19.7926 7.85297L19.803 7.87612C19.9283 8.1554 20.0377 8.39914 20.1345 8.58849C20.2257 8.76692 20.3595 9.00951 20.565 9.20374C20.7597 9.38768 20.9272 9.49609 21.1747 9.59838C21.4157 9.69796 21.6522 9.72638 21.8439 9.73852C22.0256 9.75003 22.2431 9.75002 22.4736 9.75L22.5 9.75C24.0188 9.75 25.25 10.9812 25.25 12.5C25.25 14.0188 24.0188 15.25 22.5 15.25H19.3284L21.3284 17.25H22.5C25.1234 17.25 27.25 15.1234 27.25 12.5C27.25 9.87665 25.1234 7.75 22.5 7.75C22.2337 7.75 22.0809 7.74953 21.9704 7.74252L21.9486 7.74098C21.9395 7.72454 21.9284 7.70383 21.9153 7.67817C21.8445 7.53964 21.756 7.34311 21.6173 7.03405C20.4848 4.51071 17.9491 2.75 15 2.75Z" fill="white"/>
<path d="M15 15L14.2929 14.2929L15 13.5858L15.7071 14.2929L15 15ZM16 26.25C16 26.8023 15.5523 27.25 15 27.25C14.4477 27.25 14 26.8023 14 26.25L16 26.25ZM9.29289 19.2929L14.2929 14.2929L15.7071 15.7071L10.7071 20.7071L9.29289 19.2929ZM15.7071 14.2929L20.7071 19.2929L19.2929 20.7071L14.2929 15.7071L15.7071 14.2929ZM16 15L16 26.25L14 26.25L14 15L16 15Z" fill="white"/>
</svg>
