<svg width="28" height="30" viewBox="0 0 31 33" fill="none" xmlns="http://www.w3.org/2000/svg">
<path fill-rule="evenodd" clip-rule="evenodd" d="M21.0996 25.3096H26.6519V26.734H21.0996V25.3096Z" fill="#0174FF"/>
<path fill-rule="evenodd" clip-rule="evenodd" d="M24.5867 23.2436V28.7929H23.1641V23.2436H24.5867Z" fill="#0174FF"/>
<path d="M12.5164 -9.53674e-07C14.4891 -9.53674e-07 16.2724 0.800421 17.5644 2.0924C18.8564 3.38439 19.6568 5.1677 19.6568 7.14041C19.6568 9.11311 18.8564 10.8964 17.5644 12.1884C16.2724 13.4804 14.4891 14.2808 12.5164 14.2808C10.5437 14.2808 8.76037 13.4804 7.46838 12.1884C6.1764 10.8964 5.37598 9.11311 5.37598 7.14041C5.37598 5.1677 6.1764 3.38439 7.46838 2.0924C8.76037 0.800421 10.5437 -9.53674e-07 12.5164 -9.53674e-07V-9.53674e-07Z" fill="#0174FF"/>
<path d="M17.2307 27.2511H0.504715H0.485808C0.208496 27.2448 -0.0120931 27.0116 0.000514781 26.7343C0.0131196 26.4192 0.0194216 26.1104 0.0257248 25.7889C0.0698425 24.0557 0.113958 22.0834 0.555135 20.5644C0.939588 19.222 1.63914 18.1569 2.9438 17.2055C4.18538 16.298 5.9753 15.5038 8.59684 14.6718C8.74811 14.6151 8.92457 14.634 9.06953 14.7349C9.58634 15.1004 10.1598 15.3903 10.7712 15.5857C11.3636 15.7748 11.9939 15.8756 12.6556 15.8756C13.3174 15.8756 13.9539 15.7748 14.5463 15.5857C15.1577 15.3903 15.7375 15.1004 16.2543 14.7286C16.374 14.6466 16.5253 14.6088 16.6765 14.6529C19.5631 15.4597 21.4473 16.3231 22.6951 17.363C23.3821 17.9365 23.8926 18.5857 24.2582 19.2853C24.1321 19.279 23.9998 19.2727 23.8737 19.2727C22.0775 19.2727 20.3699 19.9786 19.0967 21.2517C17.8236 22.5248 17.1177 24.2328 17.1177 26.0287C17.1177 26.4447 17.1555 26.8606 17.2312 27.264L17.2307 27.2511Z" fill="#0174FF"/>
<path fill-rule="evenodd" clip-rule="evenodd" d="M23.8724 32.2674C25.5994 32.2674 27.162 31.5678 28.2902 30.4397C29.4184 29.3115 30.1179 27.7485 30.1179 26.0219C30.1179 24.295 29.4183 22.7323 28.2902 21.6042C27.162 20.476 25.5991 19.7764 23.8724 19.7764C22.1455 19.7764 20.5829 20.476 19.4547 21.6042C18.3265 22.7323 17.627 24.2953 17.627 26.0219C17.627 27.7488 18.3265 29.3115 19.4547 30.4397C20.5829 31.5679 22.1458 32.2674 23.8724 32.2674ZM23.8724 30.4397C22.6498 30.4397 21.5468 29.9481 20.7467 29.1477C19.9462 28.3473 19.4547 27.2444 19.4547 26.0219C19.4547 24.7992 19.9463 23.6963 20.7467 22.8961C21.5471 22.0957 22.65 21.6042 23.8724 21.6042C25.0951 21.6042 26.1981 22.0958 26.9982 22.8961C27.7986 23.6966 28.2902 24.7995 28.2902 26.0219C28.2902 27.2446 27.7986 28.3476 26.9982 29.1477C26.1978 29.9481 25.0949 30.4397 23.8724 30.4397Z" fill="#0174FF"/>
</svg>

