<svg width="40" height="36" viewBox="0 0 40 36" fill="none" xmlns="http://www.w3.org/2000/svg">
<path fill-rule="evenodd" clip-rule="evenodd" d="M19.3188 1.75514C18.0276 2.77054 17.888 3.70814 18.8282 5.05034C19.6413 6.21142 19.2423 7.3457 18.0255 7.33446C17.5158 7.32971 15.2511 6.84729 12.9925 6.26243C8.07068 4.98809 6.67185 4.92153 6.15226 5.93823C5.38369 7.44167 0.30623 28.8054 0.559973 29.4667C0.737637 29.9306 2.95476 30.6719 7.55542 31.8066C12.616 33.0546 14.3499 33.6537 14.5284 34.2161C14.84 35.1982 16.0755 35.5618 17.3965 35.0599C18.1249 34.7828 19.3404 34.8684 21.2852 35.3335C22.841 35.7061 24.4222 35.8925 24.7987 35.7481C25.1752 35.6033 25.6823 34.7456 25.9261 33.8418L26.3687 32.1987L32.4962 30.2535C36.1013 29.1088 38.8121 28.0078 39.0814 27.5781C39.4354 27.014 38.7308 24.3158 35.9777 15.692C34.0191 9.5559 32.1313 4.25064 31.7825 3.90223C31.2261 3.34547 30.6197 3.44186 26.7928 4.69631C22.4649 6.11503 21.4456 6.23822 22.7082 5.1904C23.6286 4.42657 23.5291 2.75023 22.5025 1.72358C21.4075 0.628641 20.7427 0.635125 19.3188 1.75514ZM21.7823 3.20498C22.0646 3.9407 21.0021 4.94184 20.3601 4.54502C20.112 4.39156 19.9089 3.88883 19.9089 3.42716C19.9089 2.4364 21.4183 2.25744 21.7823 3.20498ZM33.7389 13.503C35.1922 18.0799 36.7584 22.9766 37.2196 24.385C37.6808 25.7933 38.0111 26.9743 37.9531 27.0097C37.8952 27.0447 32.9228 28.6446 26.9026 30.5643C19.742 32.8475 15.9017 33.8833 15.7975 33.5591C13.3025 25.8115 9.51793 13.7671 9.31692 12.9358C9.05669 11.8595 9.17557 11.7903 13.5722 10.4503C16.0599 9.6925 18.1932 9.07219 18.3129 9.07219C18.4331 9.07219 18.4244 9.48069 18.2935 9.98039C18.1076 10.6915 18.2295 10.8553 18.8554 10.7347C19.295 10.65 19.7649 10.0954 19.8998 9.5023C20.112 8.56687 20.7747 8.2137 24.8895 6.84081C27.4995 5.97021 29.9639 5.24097 30.3659 5.21979C30.9439 5.18997 31.6515 6.92813 33.7389 13.503ZM11.5959 7.42135L15.3553 8.36413L11.6884 9.5706C9.67138 10.2337 7.99374 10.7823 7.95959 10.7887C7.16551 10.9482 8.64085 16.4074 13.1745 30.0853L13.7637 31.8624L7.87054 30.3775C4.62937 29.5605 1.93287 28.8482 1.87883 28.7937C1.8248 28.7397 2.85533 24.426 4.169 19.2081C7.36349 6.5205 7.37473 6.47857 7.62155 6.47857C7.73956 6.47857 9.5283 6.90306 11.5959 7.42135ZM27.9059 10.1632C27.6681 10.2506 24.3128 11.3226 20.4492 12.5459C15.7457 14.0351 13.4248 14.9714 13.4248 15.379C13.4248 15.7145 13.6504 15.9885 13.9258 15.9885C14.2016 15.9885 17.8002 14.9113 21.9228 13.595C27.1235 11.9347 29.4188 11.0079 29.4188 10.5691C29.4188 9.96786 28.8534 9.81613 27.9059 10.1632ZM22.3127 16.665C18.2857 17.9675 14.8945 19.1298 14.7769 19.2474C14.6594 19.365 14.7743 19.6723 15.0328 19.9308C15.7046 20.6026 30.7156 15.7828 30.7156 14.8949C30.7156 14.5456 30.4727 14.2677 30.1753 14.278C29.8783 14.2884 26.3402 15.3626 22.3127 16.665ZM23.8538 20.9462C16.7645 23.2749 15.3008 23.9613 16.4866 24.4001C17.5344 24.7878 31.7769 20.0636 31.9359 19.2751C32.1369 18.2796 31.6926 18.3712 23.8538 20.9462ZM24.988 25.3243C19.9832 26.9578 17.7475 27.8833 17.7475 28.3221C17.7475 28.6709 17.8932 28.9571 18.0717 28.9571C18.7435 28.9584 32.6842 24.4559 33.1964 24.0724C33.8055 23.6164 33.5172 22.8906 32.7434 22.933C32.4603 22.9485 28.9706 24.0249 24.988 25.3243ZM24.6574 33.1713C24.6388 34.0726 23.9095 34.4772 22.7173 34.2472L21.4218 33.9969L22.7186 33.4415C24.2432 32.7887 24.6664 32.7295 24.6574 33.1713Z" fill="#1A81FE"/>
</svg>
