<svg width="48" height="40" viewBox="0 0 48 40" fill="none" xmlns="http://www.w3.org/2000/svg">
<path d="M32.2474 30.7796L32.2474 30.7796C32.2486 30.7793 32.2498 30.779 32.251 30.7787C32.2649 30.7753 32.2787 30.7718 32.2924 30.7684C32.515 30.713 32.712 30.664 32.891 30.5627C33.0699 30.4614 33.2133 30.3176 33.3753 30.1553C33.3861 30.1444 33.3971 30.1335 33.4081 30.1225L40.5973 22.9332L40.6206 22.91C40.9338 22.5968 41.2037 22.3269 41.3907 22.0818C41.5912 21.819 41.743 21.5268 41.743 21.1667C41.743 20.8065 41.5912 20.5143 41.3907 20.2516C41.2037 20.0064 40.9338 19.7365 40.6205 19.4233L40.5973 19.4001L40.4258 19.2286L40.0725 19.582L40.4258 19.2286L40.4026 19.2054C40.0894 18.8922 39.8195 18.6223 39.5744 18.4352C39.3116 18.2348 39.0194 18.083 38.6593 18.083C38.2991 18.083 38.0069 18.2348 37.7442 18.4352C37.499 18.6223 37.2291 18.8922 36.916 19.2054L36.8927 19.2286L29.7035 26.4179C29.6925 26.4289 29.6815 26.4398 29.6707 26.4506C29.5083 26.6126 29.3646 26.7561 29.2633 26.935C29.162 27.1139 29.1129 27.3109 29.0575 27.5335C29.0538 27.5484 29.0501 27.5634 29.0463 27.5785L28.3832 30.2308C28.381 30.2397 28.3788 30.2486 28.3766 30.2575C28.3374 30.4141 28.2955 30.5813 28.2817 30.7218C28.2666 30.8764 28.2701 31.1373 28.4794 31.3465C28.6887 31.5558 28.9496 31.5593 29.1042 31.5442C29.2446 31.5305 29.4118 31.4886 29.5684 31.4494C29.5773 31.4471 29.5862 31.4449 29.5951 31.4427L32.2474 30.7796Z" stroke="#0174FF" stroke-width="0.999325"/>
<path d="M36.1621 19.6677L39.1601 17.6691L42.1581 20.667L40.1594 23.665L36.1621 19.6677Z" fill="#0174FF"/>
<rect x="9.00781" y="7.28418" width="22.813" height="27.7015" rx="3.259" stroke="#0174FF" stroke-width="1.6295"/>
<path d="M15.5254 15.4318H25.3024" stroke="#0174FF" stroke-width="1.6295" stroke-linecap="round"/>
<path d="M15.5254 21.9497H25.3024" stroke="#0174FF" stroke-width="1.6295" stroke-linecap="round"/>
<path d="M15.5254 28.4678H22.0434" stroke="#0174FF" stroke-width="1.6295" stroke-linecap="round"/>
</svg>
