<svg width="15" height="18" viewBox="0 0 15 18" fill="none" xmlns="http://www.w3.org/2000/svg">
<path d="M7.35187 8.24788C5.42186 8.25003 3.57151 9.01933 2.20678 10.387C0.842055 11.7547 0.0744102 13.609 0.0722656 15.5432V16.1775C0.0725504 16.4298 0.17268 16.6717 0.350687 16.8501C0.528693 17.0285 0.77004 17.1288 1.02178 17.1291H13.682C13.9337 17.1288 14.1751 17.0285 14.3531 16.8501C14.5311 16.6717 14.6312 16.4298 14.6315 16.1775V15.5432C14.6293 13.609 13.8617 11.7547 12.497 10.387C11.1322 9.01933 9.28189 8.25003 7.35187 8.24788Z" fill="#7A7979"/>
<path d="M7.35079 7.61248C9.4484 7.61248 11.1488 5.90837 11.1488 3.80624C11.1488 1.70411 9.4484 0 7.35079 0C5.25318 0 3.55273 1.70411 3.55273 3.80624C3.55273 5.90837 5.25318 7.61248 7.35079 7.61248Z" fill="#7A7979"/>
</svg>
