<svg width="56" height="56" viewBox="0 0 63 63" fill="none" xmlns="http://www.w3.org/2000/svg">
<path d="M0 31.5016C0 48.8972 14.1028 63 31.5016 63C48.8972 63 63 48.8972 63 31.5016C63 14.1059 48.8972 0 31.5016 0C14.1059 0 0 14.1028 0 31.5016Z" fill="white"/>
<path d="M0 31.5016C0 48.8972 14.1028 63 31.5016 63C48.8972 63 63 48.8972 63 31.5016C63 14.1059 48.8972 0 31.5016 0C14.1059 0 0 14.1028 0 31.5016Z" fill="url(#paint0_linear_550_507)" style="mix-blend-mode:soft-light"/>
<path d="M31.5016 62.475C14.3927 62.475 0.525 48.6072 0.525 31.5016C0.525 14.3928 14.3959 0.525 31.5016 0.525C48.6072 0.525 62.475 14.3958 62.475 31.5016C62.475 48.6073 48.6073 62.475 31.5016 62.475Z" stroke="url(#paint1_linear_550_507)" stroke-opacity="0.8" stroke-width="1.05" style="mix-blend-mode:soft-light"/>
<path fill-rule="evenodd" clip-rule="evenodd" d="M20.3571 10.5273C19.5257 10.9389 18.4919 12.1519 18.4919 12.7162C18.4919 12.8942 19.2807 14.6281 20.2448 16.569L21.9976 20.0981L20.1988 21.9674C16.005 26.3257 13.1494 30.5805 11.8506 34.4067C11.3345 35.9269 11.2566 36.4047 11.2501 38.0849C11.2382 41.2201 12.0301 43.2479 14.0577 45.275C15.457 46.6738 17.4868 47.7639 19.8812 48.4026C22.7114 49.1576 30.3015 49.0542 31.1057 48.25C31.4454 47.9103 31.4369 47.3846 31.0871 47.0942C30.8668 46.9114 30.5876 46.9085 29.7538 47.0801C29.1737 47.1996 27.7059 47.346 26.4921 47.4054C20.4117 47.7036 15.5634 45.7863 13.76 42.3706C12.1831 39.3837 12.5015 35.8031 14.7035 31.7638C16.1886 29.0394 19.6185 24.6212 22.1013 22.2344L22.9977 21.3728L24.0034 21.6367C25.2749 21.9703 25.9302 21.969 27.0549 21.6306C28.1226 21.3091 27.8817 21.1455 30.906 24.247C32.0187 25.388 33.0265 26.32 33.1459 26.318C33.4499 26.313 33.9405 25.7891 33.9405 25.4694C33.9405 25.1969 30.52 21.3853 29.5211 20.5448L28.9696 20.0808L29.8707 17.8181C31.0152 14.9447 31.7338 12.6667 31.733 11.9138L31.7327 11.3256L29.9399 11.2982C28.5938 11.2774 27.604 11.1287 25.9665 10.7005C23.2609 9.993 21.5435 9.94003 20.3571 10.5273ZM25.7171 12.2373C26.6057 12.483 27.9091 12.7408 28.6137 12.8102C29.4683 12.8944 29.8945 13.015 29.8945 13.1727C29.8945 13.3025 29.4875 14.4711 28.99 15.7695C27.2537 20.3009 27.2538 20.3007 25.5859 20.2836C23.8349 20.2656 23.8316 20.2619 21.8503 16.2824L20.0551 12.6765L20.6003 12.2386C20.9002 11.9976 21.314 11.7624 21.5198 11.7159C22.2225 11.5568 24.099 11.7898 25.7171 12.2373ZM43.6178 22.6425C42.5736 22.9552 41.6649 24.199 41.6649 25.3153C41.6649 25.5814 41.7971 26.0778 41.9588 26.4182L42.2525 27.0375L40.9013 28.9678L39.5499 30.8983L35.8256 30.9053L32.1014 30.9123V31.7399V32.5675L36.1935 32.5591L40.2855 32.5506L41.8856 30.2837L43.4856 28.0168L44.4773 27.9346C45.0963 27.8833 45.6815 27.7008 46.0354 27.4489C46.7615 26.9319 47.2705 25.6475 47.1032 24.7553C46.9395 23.8826 46.0265 22.8741 45.1901 22.6418C44.4171 22.4271 44.3375 22.4271 43.6178 22.6425ZM45.1907 24.4119C45.5305 24.7194 45.635 25.5007 45.3863 25.8731C45.0857 26.3233 44.4405 26.5203 44.0098 26.2934C43.479 26.0138 43.3263 25.7767 43.3228 25.2256C43.3168 24.2593 44.4679 23.7579 45.1907 24.4119ZM24.7449 27.9697C24.7449 28.8005 24.705 28.8893 24.3311 28.89C23.6699 28.8911 22.7222 29.5791 22.435 30.2668C22.1006 31.067 22.0931 32.7652 22.4206 33.539C22.7936 34.4199 23.2326 34.7217 25.0208 35.3262C27.0652 36.0172 27.3197 36.2399 27.3197 37.3368C27.3197 38.6731 26.9774 39.0045 25.5972 39.0045C24.2419 39.0045 23.866 38.7751 23.7897 37.901C23.7358 37.2856 23.699 37.2549 22.9518 37.2008L22.1701 37.1442V37.8045C22.1701 39.1981 23.2019 40.4732 24.3311 40.475C24.705 40.4758 24.7449 40.5646 24.7449 41.3953V42.3149H25.4704H26.196L26.2521 41.4479C26.3052 40.626 26.3404 40.5745 26.93 40.4548C27.2721 40.3853 27.8094 40.071 28.1241 39.7561C28.6554 39.2248 28.7014 39.0757 28.7649 37.6766C28.8717 35.3244 28.4066 34.7673 25.5725 33.8533C24.8645 33.625 24.1818 33.3563 24.0552 33.2561C23.9145 33.1448 23.8253 32.6212 23.8253 31.9078C23.8253 30.5083 23.9988 30.3606 25.642 30.3606C26.5756 30.3606 26.7915 30.424 27.0333 30.7694C27.1908 30.9942 27.3197 31.3872 27.3197 31.643C27.3197 32.0645 27.3898 32.1078 28.0743 32.1078H28.8289L28.7478 31.1295C28.6828 30.3468 28.5554 30.04 28.1092 29.594C27.8026 29.2875 27.2721 28.9798 26.93 28.9103C26.3404 28.7905 26.3052 28.739 26.2521 27.9171L26.196 27.0502H25.4704H24.7449V27.9697ZM36.6992 41.4873V42.3149H38.4218H40.1443L41.4103 44.2427L42.6764 46.1706L44.4451 46.1738L46.2138 46.1771L46.6816 46.884C48.1949 49.1706 51.667 48.1659 51.667 45.4414C51.667 43.866 50.5451 42.7688 48.9497 42.7837C47.848 42.7942 46.9868 43.2873 46.531 44.1686C46.2623 44.6881 46.2097 44.7056 44.9245 44.6992L43.596 44.6925L42.2313 42.6761L40.8669 40.6597H38.783H36.6992V41.4873ZM31.7336 41.5793V42.3149H33.4808H35.2279V41.5793V40.8436H33.4808H31.7336V41.5793ZM49.7885 44.6423C50.4967 45.2833 49.9924 46.5449 49.028 46.5449C48.2909 46.5449 47.8567 46.1359 47.8567 45.4414C47.8567 44.4413 49.03 43.956 49.7885 44.6423Z" fill="black"/>
<defs>
<linearGradient id="paint0_linear_550_507" x1="-14.4658" y1="-8.87727" x2="65.9007" y2="58.2359" gradientUnits="userSpaceOnUse">
<stop stop-color="white"/>
<stop offset="1" stop-opacity="0"/>
</linearGradient>
<linearGradient id="paint1_linear_550_507" x1="1.18088" y1="1.14545" x2="52.3671" y2="57.2093" gradientUnits="userSpaceOnUse">
<stop stop-color="white"/>
<stop offset="1" stop-color="white" stop-opacity="0"/>
</linearGradient>
</defs>
</svg>
