<svg width="35" height="36" viewBox="0 0 45 46" fill="none" xmlns="http://www.w3.org/2000/svg">
<path fill-rule="evenodd" clip-rule="evenodd" d="M7.88652 0.863273C7.16649 1.23465 6.27127 2.32921 6.27127 2.83832C6.27127 2.99895 6.95435 4.56345 7.78921 6.31464L9.30715 9.49891L7.74939 11.1855C4.11771 15.118 1.64483 18.9571 0.52011 22.4094C0.0732172 23.7811 0.00568952 24.2122 0.000115304 25.7282C-0.0102368 28.557 0.675552 30.3867 2.43143 32.2157C3.64311 33.4779 5.4009 34.4614 7.47435 35.0378C9.92525 35.7189 16.4981 35.6257 17.1945 34.9C17.4887 34.5935 17.4813 34.1193 17.1784 33.8572C16.9876 33.6923 16.7459 33.6896 16.0238 33.8445C15.5214 33.9523 14.2504 34.0844 13.1992 34.138C7.93382 34.407 3.73532 32.6771 2.17358 29.5952C0.808059 26.9001 1.08374 23.6694 2.9906 20.0248C4.27666 17.5665 7.24692 13.5801 9.39697 11.4265L10.1732 10.6491L11.0441 10.8872C12.1452 11.1882 12.7127 11.187 13.6866 10.8817C14.6113 10.5916 14.4026 10.4439 17.0216 13.2424C17.9851 14.2719 18.8579 15.1129 18.9612 15.1111C19.2245 15.1066 19.6494 14.6338 19.6494 14.3454C19.6494 14.0995 16.6873 10.6603 15.8223 9.90198L15.3447 9.48331L16.1251 7.44172C17.1162 4.84904 17.7384 2.79368 17.7378 2.11431L17.7374 1.58363L16.1849 1.5589C15.0193 1.54015 14.1621 1.4059 12.7441 1.01959C10.4011 0.381211 8.91393 0.333419 7.88652 0.863273ZM12.5281 2.4062C13.2977 2.6279 14.4264 2.86055 15.0365 2.92311C15.7766 2.99912 16.1456 3.10797 16.1456 3.25019C16.1456 3.36734 15.7932 4.42174 15.3623 5.59329C13.8587 9.68194 13.8589 9.68178 12.4145 9.66634C10.8982 9.65008 10.8953 9.64676 9.17958 6.0561L7.62501 2.80247L8.09707 2.40737C8.35683 2.18998 8.71517 1.97774 8.89338 1.93576C9.50193 1.79222 11.1269 2.00247 12.5281 2.4062ZM28.0297 11.7947C27.1254 12.0768 26.3385 13.1991 26.3385 14.2064C26.3385 14.4465 26.453 14.8944 26.593 15.2015L26.8473 15.7602L25.6772 17.502L24.5069 19.2439L21.2818 19.2502L18.0568 19.2565V20.0032V20.75L21.6004 20.7423L25.144 20.7347L26.5296 18.6893L27.9152 16.6439L28.7739 16.5697C29.31 16.5234 29.8168 16.3588 30.1232 16.1315C30.752 15.665 31.1928 14.506 31.0479 13.7011C30.9061 12.9137 30.1156 12.0036 29.3912 11.7941C28.7218 11.6004 28.6529 11.6004 28.0297 11.7947ZM29.3917 13.3912C29.686 13.6687 29.7765 14.3736 29.5612 14.7097C29.3008 15.1159 28.7421 15.2936 28.3691 15.0888C27.9094 14.8366 27.7772 14.6227 27.7742 14.1254C27.769 13.2535 28.7658 12.8012 29.3917 13.3912ZM11.6862 16.6014C11.6862 17.351 11.6517 17.4311 11.3279 17.4318C10.7553 17.4328 9.93465 18.0536 9.68588 18.674C9.39634 19.396 9.38981 20.9283 9.67346 21.6265C9.99644 22.4213 10.3766 22.6936 11.9251 23.2391C13.6955 23.8625 13.9159 24.0635 13.9159 25.0532C13.9159 26.2589 13.6195 26.5579 12.4243 26.5579C11.2506 26.5579 10.9251 26.351 10.859 25.5623C10.8123 25.007 10.7805 24.9793 10.1334 24.9305L9.45654 24.8794V25.4752C9.45654 26.7327 10.35 27.8832 11.3279 27.8848C11.6517 27.8855 11.6862 27.9656 11.6862 28.7152V29.5449H12.3145H12.9428L12.9914 28.7626C13.0374 28.021 13.0678 27.9746 13.5784 27.8666C13.8747 27.8038 14.34 27.5202 14.6125 27.2361C15.0726 26.7567 15.1125 26.6222 15.1674 25.3598C15.2599 23.2374 14.8572 22.7348 12.4029 21.9101C11.7897 21.7041 11.1986 21.4617 11.089 21.3712C10.9672 21.2708 10.8899 20.7984 10.8899 20.1547C10.8899 18.8919 11.0401 18.7586 12.4631 18.7586C13.2715 18.7586 13.4585 18.8159 13.6679 19.1275C13.8043 19.3303 13.9159 19.6849 13.9159 19.9158C13.9159 20.2961 13.9766 20.3351 14.5694 20.3351H15.2228L15.1526 19.4525C15.0964 18.7462 14.986 18.4694 14.5996 18.067C14.3341 17.7904 13.8747 17.5128 13.5784 17.45C13.0678 17.342 13.0374 17.2955 12.9914 16.5539L12.9428 15.7717H12.3145H11.6862V16.6014ZM22.0383 28.7982V29.5449H23.53H25.0217L26.118 31.2843L27.2144 33.0239L28.746 33.0267L30.2777 33.0297L30.6828 33.6676C31.9933 35.7307 35 34.8242 35 32.3659C35 30.9445 34.0285 29.9544 32.6469 29.9679C31.6929 29.9773 30.9471 30.4222 30.5524 31.2174C30.3197 31.6862 30.2742 31.702 29.1612 31.6962L28.0107 31.6902L26.829 29.8708L25.6474 28.0514H23.8428H22.0383V28.7982ZM17.7382 28.8811V29.5449H19.2512H20.7642V28.8811V28.2174H19.2512H17.7382V28.8811ZM33.3733 31.6449C33.9866 32.2232 33.5499 33.3616 32.7147 33.3616C32.0764 33.3616 31.7004 32.9925 31.7004 32.3659C31.7004 31.4635 32.7165 31.0256 33.3733 31.6449Z" fill="white"/>
</svg>
