<svg width="40" height="40" viewBox="0 0 40 40" fill="none" xmlns="http://www.w3.org/2000/svg">
<path d="M0 20.001C0 31.0459 8.95415 40 20.001 40C31.0459 40 40 31.0459 40 20.001C40 8.95615 31.0459 0 20.001 0C8.95615 0 0 8.95415 0 20.001Z" fill="#0174FF"/>
<path d="M0 20.001C0 31.0459 8.95415 40 20.001 40C31.0459 40 40 31.0459 40 20.001C40 8.95615 31.0459 0 20.001 0C8.95615 0 0 8.95415 0 20.001Z" stroke="url(#paint0_linear_223_8873)" stroke-opacity="0.8" stroke-width="0.466667" style="mix-blend-mode:soft-light"/>
<path d="M30.5508 13.4479C30.7469 13.2518 30.8571 12.9857 30.8571 12.7083C30.8571 12.4309 30.7469 12.1649 30.5508 11.9688C30.3546 11.7726 30.0886 11.6624 29.8112 11.6624C29.5338 11.6624 29.2678 11.7726 29.0716 11.9688L22.5299 18.5417L19.0924 15.0938C19.2918 14.6739 19.395 14.2148 19.3945 13.75C19.3945 13.1319 19.2113 12.5277 18.8679 12.0138C18.5245 11.4999 18.0364 11.0994 17.4654 10.8629C16.8944 10.6264 16.2661 10.5645 15.6599 10.685C15.0537 10.8056 14.4969 11.1033 14.0598 11.5403C13.6228 11.9773 13.3252 12.5342 13.2046 13.1403C13.084 13.7465 13.1459 14.3749 13.3824 14.9459C13.6189 15.5169 14.0195 16.005 14.5334 16.3483C15.0473 16.6917 15.6515 16.875 16.2695 16.875C16.7351 16.8722 17.1942 16.7655 17.6133 16.5625L21.0612 20L17.6341 23.4375C17.2087 23.2315 16.7422 23.1246 16.2695 23.125C15.6515 23.125 15.0473 23.3083 14.5334 23.6517C14.0195 23.995 13.6189 24.4831 13.3824 25.0541C13.1459 25.6251 13.084 26.2535 13.2046 26.8597C13.3252 27.4659 13.6228 28.0227 14.0598 28.4597C14.4969 28.8967 15.0537 29.1944 15.6599 29.315C16.2661 29.4355 16.8944 29.3737 17.4654 29.1371C18.0364 28.9006 18.5245 28.5001 18.8679 27.9862C19.2113 27.4723 19.3945 26.8681 19.3945 26.25C19.3904 25.7957 19.2873 25.3478 19.0924 24.9375L30.5508 13.4479ZM16.2695 14.7917C16.0635 14.7917 15.8621 14.7306 15.6908 14.6161C15.5195 14.5017 15.386 14.339 15.3072 14.1486C15.2283 13.9583 15.2077 13.7488 15.2479 13.5468C15.2881 13.3447 15.3873 13.1591 15.533 13.0134C15.6786 12.8678 15.8643 12.7685 16.0663 12.7284C16.2684 12.6882 16.4778 12.7088 16.6682 12.7876C16.8585 12.8665 17.0212 13 17.1356 13.1713C17.2501 13.3426 17.3112 13.544 17.3112 13.75C17.3112 14.0263 17.2015 14.2912 17.0061 14.4866C16.8108 14.6819 16.5458 14.7917 16.2695 14.7917ZM16.2695 27.2917C16.0635 27.2917 15.8621 27.2306 15.6908 27.1161C15.5195 27.0017 15.386 26.839 15.3072 26.6486C15.2283 26.4583 15.2077 26.2488 15.2479 26.0468C15.2881 25.8447 15.3873 25.6591 15.533 25.5134C15.6786 25.3678 15.8643 25.2685 16.0663 25.2283C16.2684 25.1882 16.4778 25.2088 16.6682 25.2876C16.8585 25.3665 17.0212 25.5 17.1356 25.6713C17.2501 25.8426 17.3112 26.044 17.3112 26.25C17.3112 26.5263 17.2015 26.7912 17.0061 26.9866C16.8108 27.1819 16.5458 27.2917 16.2695 27.2917Z" fill="white"/>
<path d="M25.3441 21.3435C25.148 21.1473 24.8819 21.0371 24.6045 21.0371C24.3271 21.0371 24.0611 21.1473 23.8649 21.3435C23.6688 21.5396 23.5586 21.8056 23.5586 22.083C23.5586 22.3604 23.6688 22.6265 23.8649 22.8226L29.0733 28.031C29.1701 28.1286 29.2853 28.2061 29.4123 28.259C29.5392 28.3119 29.6753 28.3391 29.8129 28.3391C29.9504 28.3391 30.0865 28.3119 30.2135 28.259C30.3404 28.2061 30.4556 28.1286 30.5524 28.031C30.6501 27.9341 30.7276 27.8189 30.7805 27.692C30.8333 27.565 30.8606 27.4289 30.8606 27.2914C30.8606 27.1539 30.8333 27.0177 30.7805 26.8908C30.7276 26.7638 30.6501 26.6486 30.5524 26.5518L25.3441 21.3435Z" fill="white"/>
<defs>
<linearGradient id="paint0_linear_223_8873" x1="0.749766" y1="0.727272" x2="33.2489" y2="36.3234" gradientUnits="userSpaceOnUse">
<stop stop-color="white"/>
<stop offset="1" stop-color="white" stop-opacity="0"/>
</linearGradient>
</defs>
</svg>

