<svg width="25" height="25" viewBox="0 0 25 25" fill="none" xmlns="http://www.w3.org/2000/svg">
<path d="M20.334 10.3331C20.334 12.6131 19.5713 14.7158 18.286 16.3971L24.61 22.7238C24.8491 22.9637 24.988 23.2857 24.9983 23.6243C25.0086 23.9629 24.8897 24.2927 24.6657 24.5468C24.4416 24.8009 24.1293 24.9602 23.792 24.9923C23.4548 25.0244 23.118 24.927 22.85 24.7198L22.7247 24.6091L16.398 18.2851C14.604 19.6532 12.4001 20.3745 10.1444 20.3317C7.88871 20.2889 5.71374 19.4846 3.97292 18.0495C2.2321 16.6144 1.02773 14.6327 0.555502 12.4266C0.0832746 10.2205 0.370943 7.91946 1.37176 5.89747C2.37259 3.87549 4.02774 2.25135 6.0683 1.28896C8.10885 0.326567 10.4149 0.0824798 12.6117 0.596357C14.8085 1.11023 16.767 2.35188 18.169 4.11953C19.5709 5.88719 20.3339 8.07699 20.334 10.3331ZM10.334 4.3331C9.98037 4.3331 9.64124 4.47358 9.39119 4.72363C9.14114 4.97368 9.00066 5.31281 9.00066 5.66644V8.99977H5.66733C5.31371 8.99977 4.97457 9.14025 4.72452 9.39029C4.47447 9.64034 4.334 9.97948 4.334 10.3331C4.334 10.6867 4.47447 11.0259 4.72452 11.2759C4.97457 11.526 5.31371 11.6664 5.66733 11.6664H9.00066V14.9998C9.00066 15.3534 9.14114 15.6925 9.39119 15.9426C9.64124 16.1926 9.98037 16.3331 10.334 16.3331C10.6876 16.3331 11.0268 16.1926 11.2768 15.9426C11.5269 15.6925 11.6673 15.3534 11.6673 14.9998V11.6664H15.0007C15.3543 11.6664 15.6934 11.526 15.9435 11.2759C16.1935 11.0259 16.334 10.6867 16.334 10.3331C16.334 9.97948 16.1935 9.64034 15.9435 9.39029C15.6934 9.14025 15.3543 8.99977 15.0007 8.99977H11.6673V5.66644C11.6673 5.31281 11.5269 4.97368 11.2768 4.72363C11.0268 4.47358 10.6876 4.3331 10.334 4.3331Z" fill="#0174FF"/>
</svg>
