<svg width="21" height="27" viewBox="0 0 21 27" fill="none" xmlns="http://www.w3.org/2000/svg">
<path d="M6.76256 26.8333H2.47684C1.29381 26.8333 0.333984 25.5536 0.333984 23.9762V3.02381C0.333984 1.44643 1.29381 0.166672 2.47684 0.166672H6.76256C7.94559 0.166672 8.90541 1.44643 8.90541 3.02381V23.9762C8.90541 25.5536 7.94559 26.8333 6.76256 26.8333ZM20.334 23.9762V3.02381C20.334 1.44643 19.3742 0.166672 18.1911 0.166672H13.9054C12.7224 0.166672 11.7626 1.44643 11.7626 3.02381V23.9762C11.7626 25.5536 12.7224 26.8333 13.9054 26.8333H18.1911C19.3742 26.8333 20.334 25.5536 20.334 23.9762Z" fill="#0174FF"/>
</svg>
