<svg width="12" height="8" viewBox="0 0 12 8" fill="none" xmlns="http://www.w3.org/2000/svg">
<path d="M0.234229 1.03427C0.384251 0.884293 0.587698 0.800041 0.799829 0.800041C1.01196 0.800041 1.21541 0.884293 1.36543 1.03427L5.59983 5.26867L9.83423 1.03427C9.90803 0.957862 9.9963 0.896915 10.0939 0.854988C10.1915 0.813061 10.2965 0.790992 10.4027 0.790069C10.5089 0.789146 10.6143 0.809388 10.7126 0.849612C10.8109 0.889837 10.9002 0.94924 10.9753 1.02435C11.0505 1.09947 11.1099 1.18879 11.1501 1.28711C11.1903 1.38542 11.2106 1.49077 11.2096 1.59699C11.2087 1.70321 11.1866 1.80819 11.1447 1.90579C11.1028 2.0034 11.0418 2.09167 10.9654 2.16547L6.16543 6.96547C6.01541 7.11545 5.81196 7.1997 5.59983 7.1997C5.3877 7.1997 5.18425 7.11545 5.03423 6.96547L0.234229 2.16547C0.0842524 2.01545 0 1.812 0 1.59987C0 1.38774 0.0842524 1.18429 0.234229 1.03427Z" fill="#676767"/>
</svg>
