<svg width="22" height="24" viewBox="0 0 22 24" fill="none" xmlns="http://www.w3.org/2000/svg">
<path d="M11.2429 10.5747C10.1948 11.2945 8.95616 11.7167 7.59853 11.7167C6.26467 11.7167 5.00222 11.2947 3.95411 10.5747C1.71502 10.8975 0 12.8832 0 15.316V18.3942C0 18.6672 0.214339 18.8906 0.476351 18.8906H9.33728L14.7443 13.2557C14.1012 11.8408 12.791 10.823 11.2429 10.5747H11.2429Z" fill="#7A7979"/>
<path d="M12.1936 4.76613C12.1936 7.39844 10.1461 9.53225 7.62026 9.53225C5.09439 9.53225 3.04688 7.39844 3.04688 4.76613C3.04688 2.13381 5.09439 0 7.62026 0C10.1461 0 12.1936 2.13381 12.1936 4.76613Z" fill="#7A7979"/>
<path d="M10.2883 20.3306C10.2169 20.405 10.1931 20.4795 10.1692 20.5539L9.71658 23.0363C9.6689 23.3591 9.93092 23.6321 10.2169 23.5577L12.5988 23.086C12.6941 23.0612 12.7657 23.0363 12.8132 22.9618L13.2658 22.4901L10.741 19.8589L10.2883 20.3306Z" fill="#7A7979"/>
<path d="M11.8984 18.6651L17.2375 13.1011L19.7808 15.7516L14.4417 21.3156L11.8984 18.6651Z" fill="#7A7979"/>
<path d="M21.841 12.7594L20.0783 10.9224C19.864 10.699 19.5066 10.699 19.2923 10.9224L18.3633 11.8905L20.8881 14.5467L21.8171 13.5786C22.0554 13.3553 22.0554 12.9828 21.841 12.7594L21.841 12.7594Z" fill="#7A7979"/>
</svg>