<svg width="17" height="21" viewBox="0 0 17 21" fill="none" xmlns="http://www.w3.org/2000/svg">
<path fill-rule="evenodd" clip-rule="evenodd" d="M4.0268 2.85025V19.1727C4.0268 19.6345 3.65675 20.0089 3.19309 20.0089C2.73265 20.0089 2.35939 19.6345 2.35939 19.1727V2.84755L1.41775 3.78919C1.09517 4.11176 0.572 4.1116 0.244147 3.78375C-0.081435 3.45817 -0.079513 2.92837 0.238711 2.61015L2.60766 0.241198C2.76806 0.0807995 2.97805 0.000197604 3.18897 0L3.19533 0.00248893C3.40706 0.00294061 3.6176 0.0829693 3.77582 0.241198L6.14477 2.61015C6.46735 2.93273 6.46719 3.4559 6.13934 3.78375C5.81375 4.10933 5.28396 4.10741 4.96574 3.78919L4.0268 2.85025Z" fill="#4A9AFC"/>
<path fill-rule="evenodd" clip-rule="evenodd" d="M12.3599 17.1585L12.3599 0.836117C12.3599 0.37426 12.73 -0.000148773 13.1936 -0.000148773C13.6541 -0.000148773 14.0273 0.374287 14.0273 0.836117L14.0273 17.1612L14.969 16.2196C15.2915 15.897 15.8147 15.8972 16.1426 16.225C16.4682 16.5506 16.4662 17.0804 16.148 17.3986L13.7791 19.7676C13.6187 19.928 13.4087 20.0086 13.1978 20.0088L13.1914 20.0063C12.9797 20.0058 12.7691 19.9258 12.6109 19.7676L10.2419 17.3986C9.91937 17.0761 9.91953 16.5529 10.2474 16.225C10.573 15.8995 11.1028 15.9014 11.421 16.2196L12.3599 17.1585Z" fill="white"/>
</svg>