<svg width="21" height="15" viewBox="0 0 28 20" fill="none" xmlns="http://www.w3.org/2000/svg">
<path d="M10.8441 14.7407C10.5791 14.7425 10.3165 14.6836 10.0712 14.5676C9.82591 14.4516 9.6028 14.2806 9.41468 14.0645L1.36162 4.73753C1.1739 4.52012 1.025 4.26203 0.92341 3.97797C0.82182 3.69391 0.769531 3.38946 0.769531 3.082C0.769531 2.77454 0.82182 2.47009 0.92341 2.18603C1.025 1.90197 1.1739 1.64387 1.36162 1.42647C1.54933 1.20906 1.77218 1.0366 2.01744 0.91894C2.2627 0.80128 2.52557 0.740723 2.79104 0.740723C3.0565 0.740723 3.31937 0.80128 3.56463 0.91894C3.80989 1.0366 4.03274 1.20906 4.22046 1.42647L10.8441 9.14452L17.4879 1.72959C17.6731 1.49108 17.8988 1.29939 18.1509 1.16651C18.403 1.03364 18.676 0.962432 18.9529 0.957351C19.2299 0.952269 19.5047 1.01342 19.7603 1.13698C20.0159 1.26054 20.2468 1.44386 20.4384 1.67545C20.63 1.90705 20.7783 2.18195 20.8741 2.48297C20.9698 2.78398 21.0108 3.10463 20.9947 3.42486C20.9785 3.7451 20.9055 4.05802 20.7801 4.34407C20.6548 4.63012 20.4798 4.88313 20.2662 5.08729L12.2131 14.0878C11.8449 14.4989 11.3555 14.7323 10.8441 14.7407Z" fill="#333333"/>
</svg>
