
<svg width="129" height="129" viewBox="0 0 122 122" fill="none" xmlns="http://www.w3.org/2000/svg">
<g filter="url(#filter0_dd_1_2652)">
<path d="M28 56.0014C28 71.4642 40.5358 84 56.0014 84C71.4642 84 84 71.4642 84 56.0014C84 40.5386 71.4642 28 56.0014 28C40.5386 28 28 40.5358 28 56.0014Z" fill="#0174FF"/>
<path d="M28 56.0014C28 71.4642 40.5358 84 56.0014 84C71.4642 84 84 71.4642 84 56.0014C84 40.5386 71.4642 28 56.0014 28C40.5386 28 28 40.5358 28 56.0014Z" fill="url(#paint0_linear_1_2652)" style="mix-blend-mode:soft-light"/>
<path d="M56.0014 83.5333C40.7935 83.5333 28.4667 71.2064 28.4667 56.0014C28.4667 40.7936 40.7963 28.4667 56.0014 28.4667C71.2064 28.4667 83.5333 40.7963 83.5333 56.0014C83.5333 71.2065 71.2065 83.5333 56.0014 83.5333Z" stroke="url(#paint1_linear_1_2652)" stroke-opacity="0.8" stroke-width="0.933333" style="mix-blend-mode:soft-light"/>
</g>
<path d="M70.341 48.6741H46.7496L46.3955 44.5975C46.3388 43.913 46.0257 43.2751 45.519 42.8114C45.0123 42.3477 44.3493 42.0923 43.6624 42.0963H43.4815C43.4815 41.8055 43.366 41.5267 43.1604 41.3211C42.9548 41.1155 42.676 41 42.3852 41H39.0963C38.8055 41 38.5267 41.1155 38.3211 41.3211C38.1155 41.5267 38 41.8055 38 42.0963V43.1926C38 43.4834 38.1155 43.7622 38.3211 43.9678C38.5267 44.1734 38.8055 44.2889 39.0963 44.2889H42.3852C42.676 44.2889 42.9548 44.1734 43.1604 43.9678C43.366 43.7622 43.4815 43.4834 43.4815 43.1926H43.6624C44.0732 43.1946 44.4687 43.3491 44.772 43.6263C45.0752 43.9034 45.2647 44.2834 45.3036 44.6924L45.6489 48.6741H45.126C44.9806 48.6741 44.8412 48.7319 44.7384 48.8347C44.6356 48.9375 44.5778 49.0769 44.5778 49.2223C44.5778 49.3677 44.6356 49.5071 44.7384 49.6099C44.8412 49.7127 44.9806 49.7704 45.126 49.7704H45.7443L47.1454 65.9064C47.2021 66.5909 47.5151 67.2288 48.0218 67.6925C48.5286 68.1563 49.1916 68.4116 49.8785 68.4076H50.6623C50.7881 69.0272 51.1243 69.5842 51.6138 69.9843C52.1033 70.3844 52.7161 70.603 53.3483 70.603C53.9805 70.603 54.5933 70.3844 55.0828 69.9843C55.5723 69.5842 55.9084 69.0272 56.0342 68.4076H63.2698C63.4057 69.0731 63.7838 69.6645 64.3308 70.067C64.8779 70.4696 65.5549 70.6546 66.2307 70.5864C66.9065 70.5181 67.5328 70.2013 67.9883 69.6975C68.4438 69.1937 68.696 68.5387 68.696 67.8595C68.696 67.1803 68.4438 66.5253 67.9883 66.0214C67.5328 65.5176 66.9065 65.2009 66.2307 65.1326C65.5549 65.0643 64.8779 65.2494 64.3308 65.652C63.7838 66.0545 63.4057 66.6458 63.2698 67.3113H56.0342C55.9084 66.6918 55.5723 66.1347 55.0828 65.7346C54.5933 65.3345 53.9805 65.116 53.3483 65.116C52.7161 65.116 52.1033 65.3345 51.6138 65.7346C51.1243 66.1347 50.7881 66.6918 50.6623 67.3113H49.8785C49.4676 67.3094 49.0722 67.1548 48.7689 66.8777C48.4656 66.6005 48.2762 66.2206 48.2373 65.8116L46.8444 49.7704H47.3624L48.1655 59.4075C48.2504 60.3648 48.6894 61.256 49.3966 61.9068C50.1038 62.5575 51.0284 62.921 51.9894 62.9261H64.5739C65.5349 62.921 66.4595 62.5575 67.1667 61.9068C67.8739 61.256 68.3129 60.3648 68.3978 59.4075L69.2008 49.7704H70.341C70.4864 49.7704 70.6258 49.7127 70.7286 49.6099C70.8314 49.5071 70.8892 49.3677 70.8892 49.2223C70.8892 49.0769 70.8314 48.9375 70.7286 48.8347C70.6258 48.7319 70.4864 48.6741 70.341 48.6741ZM39.0963 43.1926V42.0963H42.3852V43.1926H39.0963ZM65.9558 66.215C66.281 66.215 66.599 66.3115 66.8694 66.4922C67.1398 66.6729 67.3506 66.9297 67.4751 67.2302C67.5995 67.5307 67.6321 67.8613 67.5686 68.1803C67.5052 68.4993 67.3486 68.7923 67.1186 69.0223C66.8886 69.2523 66.5956 69.4089 66.2766 69.4723C65.9576 69.5358 65.627 69.5032 65.3265 69.3788C65.026 69.2543 64.7692 69.0435 64.5885 68.7731C64.4078 68.5027 64.3113 68.1847 64.3113 67.8595C64.3113 67.4233 64.4846 67.0051 64.793 66.6967C65.1014 66.3883 65.5196 66.215 65.9558 66.215ZM53.3483 66.215C53.6735 66.215 53.9915 66.3115 54.2619 66.4922C54.5323 66.6729 54.7431 66.9297 54.8676 67.2302C54.992 67.5307 55.0246 67.8613 54.9611 68.1803C54.8977 68.4993 54.7411 68.7923 54.5111 69.0223C54.2811 69.2523 53.9881 69.4089 53.6691 69.4723C53.3501 69.5358 53.0195 69.5032 52.719 69.3788C52.4185 69.2543 52.1617 69.0435 51.981 68.7731C51.8003 68.5027 51.7038 68.1847 51.7038 67.8595C51.7038 67.4233 51.8771 67.0051 52.1855 66.6967C52.4939 66.3883 52.9121 66.215 53.3483 66.215ZM67.3053 59.3165C67.2446 60.0003 66.931 60.6368 66.4259 61.1016C65.9207 61.5664 65.2603 61.8261 64.5739 61.8298H51.9894C51.303 61.8261 50.6426 61.5664 50.1374 61.1016C49.6323 60.6368 49.3187 60.0003 49.258 59.3165L48.4626 49.7704H68.1007L67.3053 59.3165Z" fill="white"/>
<path d="M52.9597 68.2486C53.013 68.297 53.0742 68.3359 53.1406 68.3637C53.2065 68.3918 53.2773 68.4067 53.3489 68.4076C53.494 68.4054 53.633 68.3487 53.7381 68.2486C53.7876 68.1962 53.8267 68.1348 53.8532 68.0677C53.8821 68.0021 53.8971 67.9311 53.8971 67.8594C53.8971 67.7877 53.8821 67.7167 53.8532 67.6511C53.8254 67.5847 53.7865 67.5235 53.7381 67.4702C53.6604 67.3952 53.5625 67.3444 53.4564 67.324C53.3504 67.3035 53.2406 67.3143 53.1406 67.3551C53.0726 67.3797 53.0108 67.419 52.9597 67.4702C52.9085 67.5213 52.8692 67.5831 52.8446 67.6511C52.8157 67.7167 52.8008 67.7877 52.8008 67.8594C52.8008 67.9311 52.8157 68.0021 52.8446 68.0677C52.8711 68.1348 52.9102 68.1962 52.9597 68.2486Z" fill="white"/>
<path d="M65.5662 68.2485C65.6195 68.2969 65.6807 68.3358 65.7471 68.3636C65.8127 68.3925 65.8836 68.4075 65.9554 68.4075C66.0271 68.4075 66.098 68.3925 66.1637 68.3636C66.2317 68.339 66.2935 68.2997 66.3446 68.2486C66.3958 68.1974 66.435 68.1356 66.4597 68.0676C66.4886 68.002 66.5035 67.931 66.5035 67.8593C66.5035 67.7876 66.4886 67.7166 66.4597 67.651C66.4318 67.5846 66.3929 67.5234 66.3445 67.4701C66.2921 67.4206 66.2307 67.3815 66.1637 67.355C66.0302 67.3002 65.8805 67.3002 65.7471 67.355C65.679 67.3796 65.6173 67.4189 65.5661 67.4701C65.515 67.5212 65.4757 67.583 65.4511 67.651C65.4222 67.7166 65.4072 67.7876 65.4072 67.8593C65.4072 67.931 65.4222 68.002 65.4511 68.0676C65.4775 68.1347 65.5166 68.1961 65.5662 68.2485Z" fill="white"/>
<path d="M58.282 60.7342C59.2577 60.7342 60.2116 60.4449 61.0228 59.9028C61.8341 59.3607 62.4665 58.5902 62.8398 57.6888C63.2132 56.7873 63.3109 55.7954 63.1206 54.8384C62.9302 53.8814 62.4604 53.0024 61.7704 52.3124C61.0805 51.6225 60.2014 51.1526 59.2445 50.9623C58.2875 50.7719 57.2955 50.8696 56.3941 51.243C55.4926 51.6164 54.7221 52.2487 54.1801 53.06C53.638 53.8713 53.3486 54.8251 53.3486 55.8008C53.3502 57.1088 53.8705 58.3626 54.7953 59.2875C55.7202 60.2123 56.9741 60.7326 58.282 60.7342ZM58.282 51.9638C59.0409 51.9638 59.7828 52.1888 60.4138 52.6104C61.0448 53.032 61.5366 53.6313 61.827 54.3324C62.1174 55.0336 62.1934 55.8051 62.0453 56.5494C61.8973 57.2937 61.5318 57.9774 60.9952 58.514C60.4586 59.0507 59.7749 59.4161 59.0306 59.5642C58.2863 59.7122 57.5148 59.6362 56.8136 59.3458C56.1125 59.0554 55.5132 58.5636 55.0916 57.9326C54.67 57.3016 54.4449 56.5597 54.4449 55.8008C54.4461 54.7835 54.8507 53.8082 55.5701 53.0889C56.2894 52.3696 57.2647 51.9649 58.282 51.9638Z" fill="white"/>
<path d="M57.3459 57.2846C57.4487 57.3873 57.5881 57.445 57.7334 57.445C57.8788 57.445 58.0182 57.3873 58.121 57.2846L60.3136 55.0919C60.4134 54.9886 60.4687 54.8501 60.4674 54.7064C60.4662 54.5627 60.4085 54.4252 60.3069 54.3235C60.2053 54.2219 60.0678 54.1643 59.9241 54.163C59.7803 54.1618 59.6419 54.217 59.5385 54.3169L57.7334 56.1219L57.0247 55.4132C56.9213 55.3133 56.7828 55.2581 56.6391 55.2593C56.4954 55.2606 56.3579 55.3182 56.2563 55.4198C56.1546 55.5215 56.097 55.659 56.0957 55.8027C56.0945 55.9464 56.1497 56.0849 56.2496 56.1883L57.3459 57.2846Z" fill="white"/>
<defs>
<filter id="filter0_dd_1_2652" x="-1.90735e-06" y="-1.90735e-06" width="121.333" height="121.333" filterUnits="userSpaceOnUse" color-interpolation-filters="sRGB">
<feFlood flood-opacity="0" result="BackgroundImageFix"/>
<feColorMatrix in="SourceAlpha" type="matrix" values="0 0 0 0 0 0 0 0 0 0 0 0 0 0 0 0 0 0 127 0" result="hardAlpha"/>
<feOffset dx="9.33333" dy="9.33333"/>
<feGaussianBlur stdDeviation="14"/>
<feColorMatrix type="matrix" values="0 0 0 0 0.214583 0 0 0 0 0.300417 0 0 0 0 0.429167 0 0 0 0.5 0"/>
<feBlend mode="normal" in2="BackgroundImageFix" result="effect1_dropShadow_1_2652"/>
<feColorMatrix in="SourceAlpha" type="matrix" values="0 0 0 0 0 0 0 0 0 0 0 0 0 0 0 0 0 0 127 0" result="hardAlpha"/>
<feOffset dx="-9.33333" dy="-9.33333"/>
<feGaussianBlur stdDeviation="9.33333"/>
<feColorMatrix type="matrix" values="0 0 0 0 1 0 0 0 0 1 0 0 0 0 1 0 0 0 1 0"/>
<feBlend mode="normal" in2="effect1_dropShadow_1_2652" result="effect2_dropShadow_1_2652"/>
<feBlend mode="normal" in="SourceGraphic" in2="effect2_dropShadow_1_2652" result="shape"/>
</filter>
<linearGradient id="paint0_linear_1_2652" x1="15.1415" y1="20.1091" x2="86.5784" y2="79.7652" gradientUnits="userSpaceOnUse">
<stop stop-color="white"/>
<stop offset="1" stop-opacity="0"/>
</linearGradient>
<linearGradient id="paint1_linear_1_2652" x1="29.0497" y1="29.0182" x2="74.5485" y2="78.8527" gradientUnits="userSpaceOnUse">
<stop stop-color="white"/>
<stop offset="1" stop-color="white" stop-opacity="0"/>
</linearGradient>
</defs>
</svg>
