<svg width="56" height="56" viewBox="0 0 56 56" fill="none" xmlns="http://www.w3.org/2000/svg">
<path d="M0 28.0014C0 43.4642 12.5358 56 28.0014 56C43.4642 56 56 43.4642 56 28.0014C56 12.5386 43.4642 0 28.0014 0C12.5386 0 0 12.5358 0 28.0014Z" fill="#0168FF"/>
<path d="M28.0014 55.5333C12.7935 55.5333 0.466667 43.2064 0.466667 28.0014C0.466667 12.7936 12.7963 0.466667 28.0014 0.466667C43.2064 0.466667 55.5333 12.7963 55.5333 28.0014C55.5333 43.2065 43.2065 55.5333 28.0014 55.5333Z" stroke="url(#paint0_linear_550_524)" stroke-opacity="0.8" stroke-width="0.933333" style="mix-blend-mode:soft-light"/>
<path d="M42.341 20.6741H18.7496L18.3955 16.5975C18.3388 15.913 18.0257 15.2751 17.519 14.8114C17.0123 14.3477 16.3493 14.0923 15.6624 14.0963H15.4815C15.4815 13.8055 15.366 13.5267 15.1604 13.3211C14.9548 13.1155 14.676 13 14.3852 13H11.0963C10.8055 13 10.5267 13.1155 10.3211 13.3211C10.1155 13.5267 10 13.8055 10 14.0963V15.1926C10 15.4834 10.1155 15.7622 10.3211 15.9678C10.5267 16.1734 10.8055 16.2889 11.0963 16.2889H14.3852C14.676 16.2889 14.9548 16.1734 15.1604 15.9678C15.366 15.7622 15.4815 15.4834 15.4815 15.1926H15.6624C16.0732 15.1946 16.4687 15.3491 16.772 15.6263C17.0752 15.9034 17.2647 16.2834 17.3036 16.6924L17.6489 20.6741H17.126C16.9806 20.6741 16.8412 20.7319 16.7384 20.8347C16.6356 20.9375 16.5778 21.0769 16.5778 21.2223C16.5778 21.3677 16.6356 21.5071 16.7384 21.6099C16.8412 21.7127 16.9806 21.7704 17.126 21.7704H17.7443L19.1454 37.9064C19.2021 38.5909 19.5151 39.2288 20.0218 39.6925C20.5286 40.1563 21.1916 40.4116 21.8785 40.4076H22.6623C22.7881 41.0272 23.1243 41.5842 23.6138 41.9843C24.1033 42.3844 24.7161 42.603 25.3483 42.603C25.9805 42.603 26.5933 42.3844 27.0828 41.9843C27.5723 41.5842 27.9084 41.0272 28.0342 40.4076H35.2698C35.4057 41.0731 35.7838 41.6645 36.3308 42.067C36.8779 42.4696 37.5549 42.6546 38.2307 42.5864C38.9065 42.5181 39.5328 42.2013 39.9883 41.6975C40.4438 41.1937 40.696 40.5387 40.696 39.8595C40.696 39.1803 40.4438 38.5253 39.9883 38.0214C39.5328 37.5176 38.9065 37.2009 38.2307 37.1326C37.5549 37.0643 36.8779 37.2494 36.3308 37.652C35.7838 38.0545 35.4057 38.6458 35.2698 39.3113H28.0342C27.9084 38.6918 27.5723 38.1347 27.0828 37.7346C26.5933 37.3345 25.9805 37.116 25.3483 37.116C24.7161 37.116 24.1033 37.3345 23.6138 37.7346C23.1243 38.1347 22.7881 38.6918 22.6623 39.3113H21.8785C21.4676 39.3094 21.0722 39.1548 20.7689 38.8777C20.4656 38.6005 20.2762 38.2206 20.2373 37.8116L18.8444 21.7704H19.3624L20.1655 31.4075C20.2504 32.3648 20.6894 33.256 21.3966 33.9068C22.1038 34.5575 23.0284 34.921 23.9894 34.9261H36.5739C37.5349 34.921 38.4595 34.5575 39.1667 33.9068C39.8739 33.256 40.3129 32.3648 40.3978 31.4075L41.2008 21.7704H42.341C42.4864 21.7704 42.6258 21.7127 42.7286 21.6099C42.8314 21.5071 42.8892 21.3677 42.8892 21.2223C42.8892 21.0769 42.8314 20.9375 42.7286 20.8347C42.6258 20.7319 42.4864 20.6741 42.341 20.6741ZM11.0963 15.1926V14.0963H14.3852V15.1926H11.0963ZM37.9558 38.215C38.281 38.215 38.599 38.3115 38.8694 38.4922C39.1398 38.6729 39.3506 38.9297 39.4751 39.2302C39.5995 39.5307 39.6321 39.8613 39.5686 40.1803C39.5052 40.4993 39.3486 40.7923 39.1186 41.0223C38.8886 41.2523 38.5956 41.4089 38.2766 41.4723C37.9576 41.5358 37.627 41.5032 37.3265 41.3788C37.026 41.2543 36.7692 41.0435 36.5885 40.7731C36.4078 40.5027 36.3113 40.1847 36.3113 39.8595C36.3113 39.4233 36.4846 39.0051 36.793 38.6967C37.1014 38.3883 37.5196 38.215 37.9558 38.215ZM25.3483 38.215C25.6735 38.215 25.9915 38.3115 26.2619 38.4922C26.5323 38.6729 26.7431 38.9297 26.8676 39.2302C26.992 39.5307 27.0246 39.8613 26.9611 40.1803C26.8977 40.4993 26.7411 40.7923 26.5111 41.0223C26.2811 41.2523 25.9881 41.4089 25.6691 41.4723C25.3501 41.5358 25.0195 41.5032 24.719 41.3788C24.4185 41.2543 24.1617 41.0435 23.981 40.7731C23.8003 40.5027 23.7038 40.1847 23.7038 39.8595C23.7038 39.4233 23.8771 39.0051 24.1855 38.6967C24.4939 38.3883 24.9121 38.215 25.3483 38.215ZM39.3053 31.3165C39.2446 32.0003 38.931 32.6368 38.4259 33.1016C37.9207 33.5664 37.2603 33.8261 36.5739 33.8298H23.9894C23.303 33.8261 22.6426 33.5664 22.1374 33.1016C21.6323 32.6368 21.3187 32.0003 21.258 31.3165L20.4626 21.7704H40.1007L39.3053 31.3165Z" fill="white"/>
<path d="M24.9597 40.2486C25.013 40.297 25.0742 40.3359 25.1406 40.3637C25.2065 40.3918 25.2773 40.4067 25.3489 40.4076C25.494 40.4054 25.633 40.3487 25.7381 40.2486C25.7876 40.1962 25.8267 40.1348 25.8532 40.0677C25.8821 40.0021 25.8971 39.9311 25.8971 39.8594C25.8971 39.7877 25.8821 39.7168 25.8532 39.6511C25.8254 39.5847 25.7865 39.5235 25.7381 39.4702C25.6604 39.3952 25.5625 39.3444 25.4564 39.324C25.3504 39.3035 25.2406 39.3144 25.1406 39.3551C25.0726 39.3797 25.0108 39.419 24.9597 39.4702C24.9085 39.5213 24.8692 39.5831 24.8446 39.6511C24.8157 39.7168 24.8008 39.7877 24.8008 39.8594C24.8008 39.9311 24.8157 40.0021 24.8446 40.0677C24.8711 40.1348 24.9102 40.1962 24.9597 40.2486Z" fill="white"/>
<path d="M37.5667 40.2485C37.62 40.2969 37.6811 40.3358 37.7475 40.3636C37.8132 40.3926 37.8841 40.4075 37.9558 40.4075C38.0276 40.4075 38.0985 40.3926 38.1641 40.3636C38.2322 40.339 38.2939 40.2997 38.3451 40.2486C38.3962 40.1974 38.4355 40.1356 38.4601 40.0676C38.4891 40.002 38.504 39.931 38.504 39.8593C38.504 39.7876 38.4891 39.7167 38.4601 39.651C38.4323 39.5846 38.3934 39.5234 38.345 39.4701C38.2926 39.4206 38.2312 39.3815 38.1641 39.355C38.0307 39.3002 37.881 39.3002 37.7475 39.355C37.6795 39.3796 37.6177 39.4189 37.5666 39.4701C37.5154 39.5212 37.4762 39.583 37.4515 39.651C37.4226 39.7167 37.4077 39.7876 37.4077 39.8593C37.4077 39.931 37.4226 40.002 37.4515 40.0676C37.478 40.1347 37.5171 40.1961 37.5667 40.2485Z" fill="white"/>
<path d="M30.282 32.7342C31.2577 32.7342 32.2116 32.4448 33.0228 31.9028C33.8341 31.3607 34.4665 30.5902 34.8398 29.6887C35.2132 28.7873 35.3109 27.7953 35.1206 26.8384C34.9302 25.8814 34.4604 25.0023 33.7704 24.3124C33.0805 23.6224 32.2014 23.1526 31.2445 22.9622C30.2875 22.7719 29.2955 22.8696 28.3941 23.243C27.4926 23.6164 26.7221 24.2487 26.1801 25.06C25.638 25.8713 25.3486 26.8251 25.3486 27.8008C25.3502 29.1087 25.8705 30.3626 26.7953 31.2875C27.7202 32.2123 28.9741 32.7326 30.282 32.7342ZM30.282 23.9637C31.0409 23.9637 31.7828 24.1888 32.4138 24.6104C33.0448 25.032 33.5366 25.6313 33.827 26.3324C34.1174 27.0336 34.1934 27.8051 34.0453 28.5494C33.8973 29.2937 33.5318 29.9774 32.9952 30.514C32.4586 31.0507 31.7749 31.4161 31.0306 31.5641C30.2863 31.7122 29.5148 31.6362 28.8136 31.3458C28.1125 31.0554 27.5132 30.5636 27.0916 29.9326C26.67 29.3016 26.4449 28.5597 26.4449 27.8008C26.4461 26.7835 26.8507 25.8082 27.5701 25.0889C28.2894 24.3695 29.2647 23.9649 30.282 23.9637Z" fill="white"/>
<path d="M29.3459 29.2845C29.4487 29.3873 29.5881 29.445 29.7334 29.445C29.8788 29.445 30.0182 29.3873 30.121 29.2845L32.3136 27.0919C32.4134 26.9885 32.4687 26.8501 32.4674 26.7064C32.4662 26.5626 32.4085 26.4251 32.3069 26.3235C32.2053 26.2219 32.0678 26.1642 31.9241 26.163C31.7803 26.1617 31.6419 26.217 31.5385 26.3168L29.7334 28.1219L29.0247 27.4131C28.9213 27.3133 28.7828 27.258 28.6391 27.2593C28.4954 27.2605 28.3579 27.3182 28.2563 27.4198C28.1546 27.5215 28.097 27.6589 28.0957 27.8027C28.0945 27.9464 28.1497 28.0848 28.2496 28.1882L29.3459 29.2845Z" fill="white"/>
<defs>
<linearGradient id="paint0_linear_550_524" x1="1.04967" y1="1.01818" x2="46.5485" y2="50.8527" gradientUnits="userSpaceOnUse">
<stop stop-color="white"/>
<stop offset="1" stop-color="white" stop-opacity="0"/>
</linearGradient>
</defs>
</svg>
