<svg width="26" height="27" viewBox="0 0 26 27" fill="none" xmlns="http://www.w3.org/2000/svg">
<path d="M13 0.5C5.83187 0.5 0 6.33187 0 13.5C0 20.6681 5.83187 26.5 13 26.5C20.1681 26.5 26 20.6681 26 13.5C26 6.33187 20.1681 0.5 13 0.5ZM20.5 11.8844C20.5 12.0273 20.4432 12.1643 20.3422 12.2653C20.2412 12.3664 20.1041 12.4231 19.9613 12.4231H16.24C16.1334 12.4233 16.0292 12.3918 15.9405 12.3326C15.8518 12.2735 15.7827 12.1893 15.7419 12.0908C15.7012 11.9924 15.6906 11.884 15.7115 11.7795C15.7324 11.6749 15.7839 11.579 15.8594 11.5037L17.245 10.1181L16.895 9.71125C16.269 9.06132 15.4916 8.57666 14.6325 8.30059C13.7733 8.02452 12.8591 7.96565 11.9717 8.12924C11.0842 8.29283 10.2511 8.67379 9.5469 9.23805C8.84266 9.80232 8.28922 10.5323 7.93606 11.3627C7.5829 12.1932 7.44103 13.0982 7.52313 13.9968C7.60522 14.8955 7.90874 15.7598 8.40652 16.5125C8.90431 17.2652 9.58086 17.8828 10.3757 18.3102C11.1705 18.7375 12.0588 18.9612 12.9613 18.9613C14.0906 18.9602 15.192 18.6097 16.1143 17.9579C17.0365 17.3061 17.7345 16.3849 18.1125 15.3206C18.1563 15.1967 18.2241 15.0826 18.3119 14.9848C18.3998 14.8871 18.5061 14.8076 18.6247 14.751C18.7433 14.6943 18.8719 14.6615 19.0031 14.6546C19.1344 14.6476 19.2658 14.6665 19.3897 14.7103C19.5136 14.7541 19.6277 14.8219 19.7255 14.9098C19.8232 14.9976 19.9027 15.1039 19.9594 15.2225C20.016 15.3411 20.0488 15.4697 20.0558 15.601C20.0627 15.7322 20.0438 15.8636 20 15.9875C19.5442 17.2774 18.7426 18.4172 17.6828 19.2823C16.623 20.1474 15.3458 20.7045 13.9907 20.8928C12.6357 21.081 11.2549 20.8931 9.99945 20.3497C8.74396 19.8063 7.66202 18.9281 6.87187 17.8113C6.08173 16.6945 5.61379 15.382 5.5192 14.0172C5.42462 12.6524 5.70702 11.2879 6.33555 10.0728C6.96408 8.85762 7.91454 7.83865 9.08306 7.12721C10.2516 6.41576 11.5932 6.03923 12.9613 6.03875C13.9709 6.03489 14.9707 6.2378 15.8989 6.63497C16.8272 7.03214 17.6643 7.61516 18.3587 8.34813L18.3937 8.38688L18.6631 8.69938L19.5806 7.78187C19.6295 7.73188 19.6878 7.69211 19.7522 7.66486C19.8166 7.6376 19.8857 7.62342 19.9556 7.62313C20.0268 7.62255 20.0973 7.63608 20.1632 7.66294C20.2291 7.6898 20.289 7.72946 20.3394 7.77962C20.3899 7.82978 20.4299 7.88945 20.4571 7.95517C20.4844 8.02089 20.4983 8.09136 20.4981 8.1625L20.5 11.8844Z" fill="#9E9E9E"/>
</svg>
