<svg width="28" height="22" viewBox="0 0 28 22" fill="none" xmlns="http://www.w3.org/2000/svg">
<path d="M11.9327 15.6668C12.4882 16.2224 13.1882 16.4833 14.0327 16.4495C14.8771 16.4166 15.4882 16.1113 15.866 15.5335L23.3327 4.3335L12.1327 11.8002C11.5549 12.2002 11.2385 12.8055 11.1833 13.6162C11.1273 14.4277 11.3771 15.1113 11.9327 15.6668ZM4.79935 21.6668C4.31046 21.6668 3.86068 21.5611 3.45002 21.3495C3.03846 21.1388 2.71046 20.8224 2.46602 20.4002C1.88824 19.3557 1.44379 18.2726 1.13268 17.1508C0.821571 16.0282 0.666016 14.8668 0.666016 13.6668C0.666016 11.8224 1.01624 10.0891 1.71668 8.46683C2.41624 6.84461 3.36602 5.4335 4.56602 4.2335C5.76602 3.0335 7.17713 2.08327 8.79935 1.38283C10.4216 0.683274 12.1549 0.333496 13.9993 0.333496C15.8216 0.333496 17.5327 0.677941 19.1327 1.36683C20.7327 2.05572 22.1327 2.99483 23.3327 4.18416C24.5327 5.37261 25.4882 6.76105 26.1993 8.3495C26.9105 9.93883 27.2771 11.6446 27.2994 13.4668C27.3216 14.6891 27.1829 15.8837 26.8834 17.0508C26.5829 18.2171 26.1216 19.3335 25.4993 20.4002C25.2549 20.8224 24.9274 21.1388 24.5167 21.3495C24.1051 21.5611 23.6549 21.6668 23.166 21.6668H4.79935Z" fill="#9E9E9E"/>
</svg>
