<svg width="32" height="32" viewBox="0 0 32 32" fill="none" xmlns="http://www.w3.org/2000/svg">
<path d="M26.946 7.61334C27.1971 7.36226 27.3381 7.02174 27.3381 6.66667C27.3381 6.3116 27.1971 5.97107 26.946 5.72C26.6949 5.46893 26.3544 5.32788 25.9994 5.32788C25.6443 5.32788 25.3038 5.46893 25.0527 5.72L16.6794 14.1333L12.2794 9.72C12.5346 9.18256 12.6666 8.59496 12.666 8C12.666 7.20888 12.4314 6.43552 11.9919 5.77772C11.5524 5.11992 10.9277 4.60723 10.1968 4.30448C9.46585 4.00173 8.66158 3.92252 7.88566 4.07686C7.10973 4.2312 6.397 4.61216 5.83759 5.17157C5.27818 5.73098 4.89722 6.44372 4.74288 7.21964C4.58854 7.99556 4.66775 8.79983 4.9705 9.53074C5.27325 10.2616 5.78594 10.8864 6.44374 11.3259C7.10153 11.7654 7.87489 12 8.66602 12C9.26199 11.9965 9.84964 11.8598 10.386 11.6L14.7994 16L10.4127 20.4C9.8682 20.1363 9.271 19.9995 8.66602 20C7.87489 20 7.10153 20.2346 6.44374 20.6741C5.78594 21.1136 5.27325 21.7384 4.9705 22.4693C4.66775 23.2002 4.58854 24.0044 4.74288 24.7804C4.89722 25.5563 5.27818 26.269 5.83759 26.8284C6.397 27.3878 7.10973 27.7688 7.88566 27.9231C8.66158 28.0775 9.46585 27.9983 10.1968 27.6955C10.9277 27.3928 11.5524 26.8801 11.9919 26.2223C12.4314 25.5645 12.666 24.7911 12.666 24C12.6608 23.4186 12.5288 22.8452 12.2794 22.32L26.946 7.61334ZM8.66602 9.33334C8.40231 9.33334 8.14452 9.25514 7.92526 9.10863C7.70599 8.96212 7.53509 8.75388 7.43418 8.51025C7.33326 8.26661 7.30686 7.99852 7.3583 7.73988C7.40975 7.48124 7.53674 7.24366 7.72321 7.05719C7.90968 6.87072 8.14726 6.74374 8.4059 6.69229C8.66454 6.64084 8.93263 6.66725 9.17626 6.76816C9.4199 6.86908 9.62814 7.03998 9.77464 7.25924C9.92115 7.47851 9.99935 7.73629 9.99935 8C9.99935 8.35362 9.85887 8.69276 9.60883 8.94281C9.35878 9.19286 9.01964 9.33334 8.66602 9.33334ZM8.66602 25.3333C8.40231 25.3333 8.14452 25.2551 7.92526 25.1086C7.70599 24.9621 7.53509 24.7539 7.43418 24.5102C7.33326 24.2666 7.30686 23.9985 7.3583 23.7399C7.40975 23.4812 7.53674 23.2437 7.72321 23.0572C7.90968 22.8707 8.14726 22.7437 8.4059 22.6923C8.66454 22.6408 8.93263 22.6672 9.17626 22.7682C9.4199 22.8691 9.62814 23.04 9.77464 23.2592C9.92115 23.4785 9.99935 23.7363 9.99935 24C9.99935 24.3536 9.85887 24.6928 9.60883 24.9428C9.35878 25.1929 9.01964 25.3333 8.66602 25.3333Z" fill="#9E9E9E"/>
<path d="M20.2796 17.7198C20.0285 17.4687 19.688 17.3276 19.3329 17.3276C18.9779 17.3276 18.6373 17.4687 18.3863 17.7198C18.1352 17.9708 17.9941 18.3114 17.9941 18.6664C17.9941 19.0215 18.1352 19.362 18.3863 19.6131L25.0529 26.2798C25.1769 26.4047 25.3243 26.5039 25.4868 26.5716C25.6493 26.6393 25.8236 26.6742 25.9996 26.6742C26.1756 26.6742 26.3499 26.6393 26.5124 26.5716C26.6748 26.5039 26.8223 26.4047 26.9463 26.2798C27.0712 26.1558 27.1704 26.0083 27.2381 25.8459C27.3058 25.6834 27.3407 25.5091 27.3407 25.3331C27.3407 25.1571 27.3058 24.9828 27.2381 24.8203C27.1704 24.6578 27.0712 24.5104 26.9463 24.3864L20.2796 17.7198Z" fill="#9E9E9E"/>
</svg>
