<svg width="31" height="31" viewBox="0 0 31 31" fill="none" xmlns="http://www.w3.org/2000/svg">
<path d="M15.4514 0C6.91748 0 0 6.91748 0 15.4514C0 23.9854 6.91748 30.9028 15.4514 30.9028C23.9854 30.9028 30.9028 23.9854 30.9028 15.4514C30.9028 6.91748 23.9854 0 15.4514 0ZM15.4514 27.3371C8.89764 27.3371 3.56571 22.0052 3.56571 15.4514C3.56571 8.89764 8.89764 3.56571 15.4514 3.56571C22.0052 3.56571 27.3371 8.89764 27.3371 15.4514C27.3371 22.0052 22.0052 27.3371 15.4514 27.3371Z" fill="#5E6A7C"/>
<path d="M15.4514 0C6.91748 0 0 6.91748 0 15.4514C0 23.9854 6.91748 30.9028 15.4514 30.9028C23.9854 30.9028 30.9028 23.9854 30.9028 15.4514C30.9028 6.91748 23.9854 0 15.4514 0ZM15.4514 27.3371C8.89764 27.3371 3.56571 22.0052 3.56571 15.4514C3.56571 8.89764 8.89764 3.56571 15.4514 3.56571C22.0052 3.56571 27.3371 8.89764 27.3371 15.4514C27.3371 22.0052 22.0052 27.3371 15.4514 27.3371Z" fill="url(#paint0_linear_184_1178)" style="mix-blend-mode:soft-light"/>
<path d="M0.204805 15.4514C0.204805 7.03059 7.03059 0.204805 15.4514 0.204805C23.8722 0.204805 30.698 7.03059 30.698 15.4514C30.698 23.8722 23.8722 30.698 15.4514 30.698C7.03059 30.698 0.204805 23.8722 0.204805 15.4514ZM3.36091 15.4514C3.36091 22.1183 8.78453 27.5419 15.4514 27.5419C22.1183 27.5419 27.5419 22.1183 27.5419 15.4514C27.5419 8.78453 22.1183 3.36091 15.4514 3.36091C8.78453 3.36091 3.36091 8.78453 3.36091 15.4514Z" stroke="url(#paint1_linear_184_1178)" stroke-opacity="0.8" stroke-width="0.40961" style="mix-blend-mode:soft-light"/>
<path d="M22.5827 9.50781H8.31982V11.885H22.5827V9.50781Z" fill="#5E6A7C"/>
<path d="M22.5827 9.50781H8.31982V11.885H22.5827V9.50781Z" fill="url(#paint2_linear_184_1178)" style="mix-blend-mode:soft-light"/>
<path d="M8.52463 11.6801V9.71262H22.3779V11.6801H8.52463Z" stroke="url(#paint3_linear_184_1178)" stroke-opacity="0.8" stroke-width="0.40961" style="mix-blend-mode:soft-light"/>
<path d="M15.4512 23.7708L8.31982 14.2622H22.5827L15.4512 23.7708Z" fill="#5E6A7C"/>
<path d="M15.4512 23.7708L8.31982 14.2622H22.5827L15.4512 23.7708Z" fill="url(#paint4_linear_184_1178)" style="mix-blend-mode:soft-light"/>
<path d="M22.1731 14.467L15.4512 23.4294L8.72943 14.467H22.1731Z" stroke="url(#paint5_linear_184_1178)" stroke-opacity="0.8" stroke-width="0.40961" style="mix-blend-mode:soft-light"/>
<defs>
<linearGradient id="paint0_linear_184_1178" x1="-7.09578" y1="-4.35449" x2="32.3257" y2="28.5659" gradientUnits="userSpaceOnUse">
<stop stop-color="white"/>
<stop offset="1" stop-opacity="0"/>
</linearGradient>
<linearGradient id="paint1_linear_184_1178" x1="0.579247" y1="0.56187" x2="9.7054" y2="9.97027" gradientUnits="userSpaceOnUse">
<stop stop-color="white"/>
<stop offset="1" stop-color="white" stop-opacity="0"/>
</linearGradient>
<linearGradient id="paint2_linear_184_1178" x1="5.04485" y1="9.17285" x2="6.22786" y2="15.1003" gradientUnits="userSpaceOnUse">
<stop stop-color="white"/>
<stop offset="1" stop-opacity="0"/>
</linearGradient>
<linearGradient id="paint3_linear_184_1178" x1="8.58717" y1="9.55103" x2="8.80847" y2="10.9199" gradientUnits="userSpaceOnUse">
<stop stop-color="white"/>
<stop offset="1" stop-color="white" stop-opacity="0"/>
</linearGradient>
<linearGradient id="paint4_linear_184_1178" x1="5.04485" y1="12.9224" x2="17.0658" y2="27.9802" gradientUnits="userSpaceOnUse">
<stop stop-color="white"/>
<stop offset="1" stop-opacity="0"/>
</linearGradient>
<linearGradient id="paint5_linear_184_1178" x1="8.58717" y1="14.4351" x2="11.1492" y2="18.397" gradientUnits="userSpaceOnUse">
<stop stop-color="white"/>
<stop offset="1" stop-color="white" stop-opacity="0"/>
</linearGradient>
</defs>
</svg>

