<svg width="31" height="31" viewBox="0 0 31 31" fill="none" xmlns="http://www.w3.org/2000/svg">
<path d="M15.4514 30.9028C6.91748 30.9028 0 23.9854 0 15.4514C0 6.91748 6.91748 -9.53674e-07 15.4514 -9.53674e-07C23.9854 -9.53674e-07 30.9028 6.91748 30.9028 15.4514C30.9028 23.9854 23.9854 30.9028 15.4514 30.9028ZM15.4514 3.56571C8.89764 3.56571 3.56571 8.89764 3.56571 15.4514C3.56571 22.0052 8.89764 27.3371 15.4514 27.3371C22.0052 27.3371 27.3371 22.0052 27.3371 15.4514C27.3371 8.89764 22.0052 3.56571 15.4514 3.56571Z" fill="#5E6A7C"/>
<path d="M15.4514 30.9028C6.91748 30.9028 0 23.9854 0 15.4514C0 6.91748 6.91748 -9.53674e-07 15.4514 -9.53674e-07C23.9854 -9.53674e-07 30.9028 6.91748 30.9028 15.4514C30.9028 23.9854 23.9854 30.9028 15.4514 30.9028ZM15.4514 3.56571C8.89764 3.56571 3.56571 8.89764 3.56571 15.4514C3.56571 22.0052 8.89764 27.3371 15.4514 27.3371C22.0052 27.3371 27.3371 22.0052 27.3371 15.4514C27.3371 8.89764 22.0052 3.56571 15.4514 3.56571Z" fill="url(#paint0_linear_329_1840)" style="mix-blend-mode:soft-light"/>
<path d="M0.204805 15.4514C0.204805 23.8722 7.03059 30.698 15.4514 30.698C23.8722 30.698 30.698 23.8722 30.698 15.4514C30.698 7.03059 23.8722 0.204803 15.4514 0.204803C7.03059 0.204803 0.204805 7.03059 0.204805 15.4514ZM3.36091 15.4514C3.36091 8.78453 8.78453 3.3609 15.4514 3.3609C22.1183 3.3609 27.5419 8.78453 27.5419 15.4514C27.5419 22.1183 22.1183 27.5419 15.4514 27.5419C8.78453 27.5419 3.36091 22.1183 3.36091 15.4514Z" stroke="url(#paint1_linear_329_1840)" stroke-opacity="0.8" stroke-width="0.40961" style="mix-blend-mode:soft-light"/>
<path d="M22.5832 21.395H8.32031V19.0179H22.5832V21.395Z" fill="#5E6A7C"/>
<path d="M22.5832 21.395H8.32031V19.0179H22.5832V21.395Z" fill="url(#paint2_linear_329_1840)" style="mix-blend-mode:soft-light"/>
<path d="M8.52512 21.1902H22.3784V19.2227H8.52512V21.1902Z" stroke="url(#paint3_linear_329_1840)" stroke-opacity="0.8" stroke-width="0.40961" style="mix-blend-mode:soft-light"/>
<path d="M15.4517 7.13206L8.32031 16.6406H22.5832L15.4517 7.13206Z" fill="#5E6A7C"/>
<path d="M15.4517 7.13206L8.32031 16.6406H22.5832L15.4517 7.13206Z" fill="url(#paint4_linear_329_1840)" style="mix-blend-mode:soft-light"/>
<path d="M22.1735 16.4358L15.4517 7.4734L8.72992 16.4358H22.1735Z" stroke="url(#paint5_linear_329_1840)" stroke-opacity="0.8" stroke-width="0.40961" style="mix-blend-mode:soft-light"/>
<defs>
<linearGradient id="paint0_linear_329_1840" x1="-7.09578" y1="35.2573" x2="32.3257" y2="2.33692" gradientUnits="userSpaceOnUse">
<stop stop-color="white"/>
<stop offset="1" stop-opacity="0"/>
</linearGradient>
<linearGradient id="paint1_linear_329_1840" x1="0.579247" y1="30.341" x2="9.7054" y2="20.9326" gradientUnits="userSpaceOnUse">
<stop stop-color="white"/>
<stop offset="1" stop-color="white" stop-opacity="0"/>
</linearGradient>
<linearGradient id="paint2_linear_329_1840" x1="5.04534" y1="21.73" x2="6.22834" y2="15.8025" gradientUnits="userSpaceOnUse">
<stop stop-color="white"/>
<stop offset="1" stop-opacity="0"/>
</linearGradient>
<linearGradient id="paint3_linear_329_1840" x1="8.58766" y1="21.3518" x2="8.80896" y2="19.9829" gradientUnits="userSpaceOnUse">
<stop stop-color="white"/>
<stop offset="1" stop-color="white" stop-opacity="0"/>
</linearGradient>
<linearGradient id="paint4_linear_329_1840" x1="5.04534" y1="17.9805" x2="17.0663" y2="2.92264" gradientUnits="userSpaceOnUse">
<stop stop-color="white"/>
<stop offset="1" stop-opacity="0"/>
</linearGradient>
<linearGradient id="paint5_linear_329_1840" x1="8.58766" y1="16.4677" x2="11.1497" y2="12.5058" gradientUnits="userSpaceOnUse">
<stop stop-color="white"/>
<stop offset="1" stop-color="white" stop-opacity="0"/>
</linearGradient>
</defs>
</svg>
