<svg width="52" height="52" viewBox="0 0 52 52" fill="none" xmlns="http://www.w3.org/2000/svg">
<g filter="url(#filter0_d_196_4607)">
<path d="M12 20.0007C12 27.7321 18.2679 34 26.0007 34C33.7321 34 40 27.7321 40 20.0007C40 12.2693 33.7321 6 26.0007 6C18.2693 6 12 12.2679 12 20.0007Z" fill="white"/>
<path d="M26.0007 33.7667C18.3968 33.7667 12.2333 27.6032 12.2333 20.0007C12.2333 12.3968 18.3982 6.23333 26.0007 6.23333C33.6032 6.23333 39.7667 12.3981 39.7667 20.0007C39.7667 27.6032 33.6032 33.7667 26.0007 33.7667Z" stroke="#B8B8B8" stroke-width="0.466667"/>
</g>
<path fill-rule="evenodd" clip-rule="evenodd" d="M22.0559 11.1661C21.6856 11.3358 21.2252 11.8362 21.2252 12.0689C21.2252 12.1424 21.5765 12.8576 22.0059 13.6581L22.7865 15.1138L21.9854 15.8848C20.1177 17.6825 18.8459 19.4375 18.2675 21.0157C18.0377 21.6428 18.0029 21.8399 18.0001 22.5329C17.9947 23.8261 18.3474 24.6625 19.2505 25.4986C19.8736 26.0756 20.7776 26.5252 21.8439 26.7887C23.1044 27.1001 26.4847 27.0575 26.8429 26.7257C26.9942 26.5856 26.9904 26.3688 26.8346 26.249C26.7365 26.1736 26.6122 26.1724 26.2408 26.2432C25.9825 26.2925 25.3288 26.3529 24.7882 26.3774C22.0803 26.5003 19.921 25.7095 19.1178 24.3007C18.4156 23.0686 18.5574 21.5917 19.538 19.9256C20.1994 18.8018 21.727 16.9795 22.8327 15.995L23.2319 15.6396L23.6798 15.7484C24.2461 15.886 24.5379 15.8855 25.0388 15.7459C25.5144 15.6133 25.4071 15.5458 26.7539 16.8251C27.2495 17.2957 27.6983 17.6802 27.7515 17.6793C27.8869 17.6773 28.1054 17.4612 28.1054 17.3293C28.1054 17.2169 26.582 15.6447 26.1372 15.298L25.8915 15.1067L26.2929 14.1734C26.8026 12.9881 27.1226 12.0485 27.1223 11.738L27.1221 11.4954L26.3237 11.4841C25.7242 11.4755 25.2834 11.4141 24.5541 11.2375C23.3492 10.9457 22.5843 10.9238 22.0559 11.1661ZM24.443 11.8714C24.8388 11.9728 25.4193 12.0791 25.7331 12.1077C26.1137 12.1425 26.3035 12.1922 26.3035 12.2572C26.3035 12.3108 26.1222 12.7928 25.9006 13.3284C25.1274 15.1975 25.1274 15.1974 24.3846 15.1903C23.6048 15.1829 23.6033 15.1814 22.7209 13.5399L21.9214 12.0526L22.1642 11.8719C22.2978 11.7726 22.4821 11.6755 22.5737 11.6563C22.8867 11.5907 23.7224 11.6868 24.443 11.8714ZM32.4153 16.1633C31.9502 16.2923 31.5455 16.8053 31.5455 17.2658C31.5455 17.3755 31.6044 17.5803 31.6764 17.7207L31.8072 17.9761L31.2054 18.7723L30.6036 19.5686L28.945 19.5715L27.2863 19.5744V19.9158V20.2571L29.1088 20.2536L30.9312 20.2501L31.6438 19.3151L32.3564 18.3801L32.798 18.3462C33.0737 18.325 33.3343 18.2497 33.4919 18.1458C33.8153 17.9326 34.042 17.4028 33.9675 17.0348C33.8946 16.6748 33.488 16.2588 33.1155 16.163C32.7712 16.0745 32.7358 16.0745 32.4153 16.1633ZM33.1157 16.8931C33.2671 17.02 33.3136 17.3422 33.2029 17.4958C33.069 17.6815 32.7816 17.7628 32.5898 17.6692C32.3534 17.5539 32.2854 17.4561 32.2839 17.2287C32.2812 16.8302 32.7938 16.6234 33.1157 16.8931ZM24.0101 18.3606C24.0101 18.7033 23.9923 18.7399 23.8258 18.7402C23.5313 18.7407 23.1092 19.0245 22.9813 19.3081C22.8324 19.6382 22.829 20.3387 22.9749 20.6578C23.141 21.0212 23.3365 21.1457 24.1329 21.395C25.0434 21.68 25.1568 21.7719 25.1568 22.2243C25.1568 22.7755 25.0043 22.9122 24.3896 22.9122C23.786 22.9122 23.6186 22.8176 23.5846 22.457C23.5606 22.2032 23.5443 22.1905 23.2115 22.1682L22.8634 22.1449V22.4172C22.8634 22.9921 23.3229 23.518 23.8258 23.5188C23.9923 23.5191 24.0101 23.5557 24.0101 23.8984V24.2777H24.3332H24.6563L24.6813 23.9201C24.705 23.581 24.7206 23.5598 24.9832 23.5104C25.1355 23.4818 25.3749 23.3521 25.515 23.2222C25.7516 23.0031 25.7721 22.9416 25.8004 22.3645C25.848 21.3943 25.6408 21.1645 24.3786 20.7875C24.0633 20.6933 23.7593 20.5825 23.7029 20.5411C23.6402 20.4952 23.6005 20.2793 23.6005 19.985C23.6005 19.4077 23.6778 19.3468 24.4096 19.3468C24.8254 19.3468 24.9215 19.373 25.0292 19.5154C25.0993 19.6081 25.1568 19.7703 25.1568 19.8758C25.1568 20.0496 25.188 20.0675 25.4928 20.0675H25.8289L25.7928 19.664C25.7638 19.3411 25.7071 19.2146 25.5084 19.0306C25.3718 18.9042 25.1355 18.7773 24.9832 18.7486C24.7206 18.6992 24.705 18.678 24.6813 18.3389L24.6563 17.9813H24.3332H24.0101V18.3606ZM29.334 23.9363V24.2777H30.1011H30.8683L31.4321 25.0728L31.996 25.8681L32.7837 25.8693L33.5714 25.8707L33.7797 26.1623C34.4537 27.1055 36 26.6911 36 25.5673C36 24.9175 35.5004 24.4649 34.7898 24.471C34.2992 24.4754 33.9156 24.6787 33.7127 25.0423C33.593 25.2566 33.5696 25.2638 32.9972 25.2611L32.4055 25.2584L31.7978 24.4267L31.1901 23.5949H30.262H29.334V23.9363ZM27.1225 23.9742V24.2777H27.9006H28.6788V23.9742V23.6708H27.9006H27.1225V23.9742ZM35.1634 25.2377C35.4788 25.502 35.2542 26.0224 34.8247 26.0224C34.4964 26.0224 34.3031 25.8537 34.3031 25.5673C34.3031 25.1548 34.8256 24.9546 35.1634 25.2377Z" fill="#0174FF"/>
<defs>
<filter id="filter0_d_196_4607" x="0" y="0" width="52" height="52" filterUnits="userSpaceOnUse" color-interpolation-filters="sRGB">
<feFlood flood-opacity="0" result="BackgroundImageFix"/>
<feColorMatrix in="SourceAlpha" type="matrix" values="0 0 0 0 0 0 0 0 0 0 0 0 0 0 0 0 0 0 127 0" result="hardAlpha"/>
<feOffset dy="6"/>
<feGaussianBlur stdDeviation="6"/>
<feComposite in2="hardAlpha" operator="out"/>
<feColorMatrix type="matrix" values="0 0 0 0 0 0 0 0 0 0 0 0 0 0 0 0 0 0 0.1 0"/>
<feBlend mode="normal" in2="BackgroundImageFix" result="effect1_dropShadow_196_4607"/>
<feBlend mode="normal" in="SourceGraphic" in2="effect1_dropShadow_196_4607" result="shape"/>
</filter>
</defs>
</svg>
