<svg width="29" height="29" viewBox="0 0 29 29" fill="none" xmlns="http://www.w3.org/2000/svg">
<path d="M15.8949 1.23985L15.8949 1.2398C15.2093 0.614094 14.1847 0.615182 13.5013 1.24231C13.5013 1.24232 13.5013 1.24233 13.5012 1.24234L1.38931 12.3519L1.38929 12.3519C0.762458 12.927 0.646552 13.755 0.889242 14.4314C1.13214 15.1083 1.74475 15.6591 2.58784 15.6591C3.3263 15.6591 3.94321 16.2897 3.94321 17.0909V26.7905C3.94321 27.8241 4.7456 28.6793 5.7566 28.6793H11.3087H11.5374V28.4506V19.9497C11.5374 19.547 11.8457 19.2399 12.2038 19.2399H17.2471C17.6054 19.2399 17.914 19.5472 17.914 19.9497V28.4511V28.6799H18.1427H23.4155C24.4271 28.6799 25.2289 27.8246 25.2289 26.7911V17.0915C25.2289 16.2903 25.8458 15.6596 26.5843 15.6596L26.8636 15.6596L26.8637 15.6596C27.7076 15.659 28.3203 15.1069 28.5626 14.429C28.8047 13.7517 28.6876 12.9231 28.0587 12.3489C28.0587 12.3489 28.0587 12.3489 28.0587 12.3489L15.8949 1.23985Z" fill="url(#paint0_linear_183_593)" stroke="white" stroke-width="0.457518"/>
<defs>
<linearGradient id="paint0_linear_183_593" x1="41.0126" y1="33.5982" x2="4.63721" y2="6.64535" gradientUnits="userSpaceOnUse">
<stop offset="0.810764"/>
</linearGradient>
</defs>
</svg>
