<svg width="40" height="40" viewBox="0 0 40 40" fill="none" xmlns="http://www.w3.org/2000/svg">
<circle cx="20" cy="20" r="19.5" fill="#DDECFF" stroke="#0174FF"/>
<path d="M16.5705 18.6004V17.5377V15.2618V13.1409V12.5646C16.5705 12.1483 16.4869 11.7639 16.3147 11.3852C16.0212 10.7395 15.3709 10.2265 14.6813 10.0708C14.315 9.98814 13.9492 10.0007 13.5777 10.0007H12.5411C12.3174 10.0007 12.0916 10.023 11.8737 10.0744C11.4839 10.1665 11.1461 10.3679 10.8407 10.6197C10.3009 11.0653 10.006 11.7847 10.0004 12.4753C9.99952 12.5834 10.0004 12.6914 10.0004 12.7993V14.672V17.0368V18.5254V18.6003C10.0004 19.0407 10.3877 19.4626 10.8423 19.4422C11.2985 19.4218 11.6843 19.0723 11.6843 18.6003V16.4715V13.1486C11.6843 12.8504 11.6614 12.5387 11.7006 12.2419C11.6906 12.3165 11.6805 12.3911 11.6705 12.4658C11.6918 12.3268 11.7288 12.193 11.7824 12.0629C11.754 12.1299 11.7259 12.1969 11.6975 12.2641C11.7523 12.138 11.8205 12.0206 11.9028 11.9105C11.859 11.9674 11.815 12.0241 11.7712 12.0809C11.8616 11.9648 11.9644 11.862 12.0805 11.7717C12.0236 11.8155 11.9669 11.8595 11.9101 11.9033C12.0202 11.821 12.1376 11.7528 12.2637 11.6979C12.1967 11.7263 12.1297 11.7545 12.0625 11.7828C12.1925 11.7292 12.3262 11.6923 12.4654 11.671C12.3908 11.6809 12.3163 11.6911 12.2415 11.701C12.5829 11.6558 12.9422 11.6847 13.2853 11.6847C13.6284 11.6847 13.9877 11.656 14.3291 11.701C14.2546 11.6911 14.18 11.6809 14.1052 11.671C14.2442 11.6923 14.3781 11.7292 14.5082 11.7828C14.4412 11.7545 14.3741 11.7263 14.307 11.6979C14.4331 11.7528 14.5504 11.821 14.6606 11.9033C14.6037 11.8595 14.547 11.8155 14.4901 11.7717C14.6063 11.862 14.709 11.9648 14.7994 12.0809C14.7556 12.0241 14.7116 11.9674 14.6678 11.9105C14.7501 12.0206 14.8183 12.138 14.8731 12.2641C14.8448 12.1971 14.8166 12.1301 14.7882 12.0629C14.8419 12.193 14.8788 12.3266 14.9001 12.4658C14.8901 12.3913 14.88 12.3167 14.87 12.2419C14.9028 12.4902 14.8864 12.7493 14.8864 12.999V14.4435V17.8125V18.6005C14.8864 19.0408 15.2736 19.4628 15.7283 19.4424C16.1848 19.422 16.5706 19.0725 16.5706 18.6005L16.5705 18.6004Z" fill="#0174FF"/>
<path d="M10.8427 15.5633H12.4937H15.1252H15.729C16.1694 15.5633 16.5913 15.176 16.5709 14.7213C16.5505 14.2652 16.201 13.8794 15.729 13.8794H14.0779H11.4465H10.8427C10.4023 13.8794 9.9803 14.2667 10.0007 14.7213C10.0212 15.1775 10.3706 15.5633 10.8427 15.5633Z" fill="#0174FF"/>
<path d="M20.9306 22.1687H21.7464H23.7065H26.0914H28.1432C28.4758 22.1687 28.8094 22.1753 29.142 22.1687C29.1468 22.1686 29.1516 22.1687 29.1564 22.1687C29.5968 22.1687 30.0188 21.7814 29.9984 21.3268C29.9779 20.8706 29.6285 20.4848 29.1564 20.4848H28.3406H26.3805H23.9956H21.9438C21.6111 20.4848 21.2776 20.4783 20.945 20.4848C20.9402 20.485 20.9354 20.4848 20.9306 20.4848C20.4902 20.4848 20.0682 20.8721 20.0886 21.3268C20.109 21.7828 20.4585 22.1687 20.9306 22.1687Z" fill="#0174FF"/>
<path d="M26.846 21.3271C26.8562 21.5212 26.8431 21.7185 26.8268 21.9118C26.8172 22.0259 26.8045 22.1396 26.7892 22.2532C26.7991 22.1786 26.8093 22.1041 26.8192 22.0293C26.7304 22.6846 26.5553 23.3276 26.2984 23.9369C26.3268 23.8699 26.355 23.8029 26.3833 23.7357C26.1501 24.2846 25.85 24.8029 25.4864 25.2761C25.5302 25.2192 25.5742 25.1625 25.618 25.1056C25.2544 25.5758 24.8316 25.9959 24.3627 26.3606C24.4195 26.3168 24.4762 26.2728 24.5331 26.229C23.9768 26.6586 23.363 27.0055 22.7168 27.2804C22.7838 27.252 22.8508 27.2239 22.918 27.1955C22.2396 27.4813 21.5312 27.6869 20.81 27.8321C20.6114 27.8722 20.4064 28.0488 20.3069 28.2191C20.2012 28.3995 20.1566 28.6655 20.222 28.8679C20.3705 29.3268 20.7944 29.5493 21.2578 29.4559C22.4843 29.2088 23.7008 28.7806 24.7647 28.1143C25.6551 27.5565 26.4115 26.8483 27.0328 26.0036C27.5049 25.3618 27.8584 24.6345 28.1137 23.8811C28.3113 23.2982 28.4262 22.6963 28.4938 22.0855C28.5211 21.8386 28.5414 21.5864 28.5305 21.3376C28.5304 21.3341 28.5302 21.3305 28.53 21.3271C28.507 20.8881 28.1592 20.464 27.6881 20.4851C27.2515 20.5045 26.8212 20.8559 26.8459 21.3271L26.846 21.3271Z" fill="#0174FF"/>
<path d="M22.3538 24.1693C22.7002 25.0119 23.1539 25.7683 23.7433 26.4661C24.4791 27.337 25.4207 28.0511 26.4351 28.5661C27.1944 28.9516 28.0009 29.2479 28.8262 29.4558C29.2526 29.5632 29.7594 29.3178 29.8619 28.8678C29.9614 28.431 29.7308 27.9472 29.274 27.8321C28.7294 27.6949 28.1954 27.5211 27.6777 27.303C27.7447 27.3314 27.8117 27.3596 27.8789 27.3879C27.192 27.0956 26.5401 26.7264 25.9471 26.2719C26.004 26.3157 26.0607 26.3597 26.1176 26.4035C25.6007 26.0042 25.1342 25.5436 24.7335 25.0276C24.7773 25.0845 24.8213 25.1412 24.8651 25.198C24.4823 24.7017 24.1617 24.1587 23.9177 23.581C23.9461 23.648 23.9742 23.715 24.0026 23.7822C23.9942 23.7621 23.9857 23.742 23.9775 23.7219C23.8904 23.5102 23.7961 23.3389 23.5906 23.2188C23.4101 23.1131 23.1442 23.0684 22.9417 23.1339C22.738 23.1999 22.5414 23.326 22.4386 23.5208C22.3403 23.7068 22.2697 23.9648 22.3537 24.1693L22.3538 24.1693Z" fill="#0174FF"/>
<path d="M25.8851 21.3265V19.7533C25.8851 19.3129 25.4978 18.8909 25.0431 18.9114C24.5869 18.9318 24.2012 19.2813 24.2012 19.7533V21.3265C24.2012 21.7669 24.5885 22.1889 25.0431 22.1685C25.4993 22.148 25.8851 21.7986 25.8851 21.3265Z" fill="#0174FF"/>
<path d="M17.9573 26.0455H15.1376C14.9527 26.0455 14.7673 26.051 14.5834 26.0279C14.658 26.0379 14.7326 26.048 14.8073 26.058C14.6362 26.0338 14.4709 25.9896 14.3106 25.9248C14.3776 25.9532 14.4446 25.9814 14.5118 26.0097C14.3465 25.9398 14.1929 25.8504 14.0504 25.7415C14.1073 25.7853 14.164 25.8293 14.2209 25.8731C14.0893 25.7692 13.9717 25.6516 13.868 25.5202C13.9118 25.5771 13.9558 25.6338 13.9996 25.6906C13.8906 25.5482 13.8011 25.3944 13.7314 25.2293C13.7597 25.2963 13.7879 25.3633 13.8162 25.4305C13.7515 25.2702 13.7073 25.1049 13.6831 24.9338C13.693 25.0083 13.7032 25.0829 13.7131 25.1577C13.691 24.9795 13.6956 24.8003 13.6956 24.6212V23.769V21.7463V21.2621C13.6956 20.8217 13.3083 20.3997 12.8537 20.4201C12.3975 20.4406 12.0117 20.7901 12.0117 21.2621V22.8142V24.7967C12.0117 25.2807 12.1097 25.7285 12.3158 26.1664C12.6291 26.8316 13.2327 27.3092 13.9076 27.5668C14.2616 27.7019 14.6432 27.7299 15.019 27.7299H15.9759C16.6232 27.7299 17.2708 27.7366 17.9178 27.7299C17.9312 27.7297 17.9445 27.7299 17.9579 27.7299C18.3983 27.7299 18.8202 27.3426 18.7998 26.8879C18.7789 26.4312 18.4294 26.0455 17.9574 26.0455L17.9573 26.0455Z" fill="#0174FF"/>
<path d="M19.3842 13.4413H21.4132H24.5336C24.8241 13.4413 25.1248 13.4227 25.4138 13.4588C25.3392 13.4488 25.2647 13.4387 25.1899 13.4287C25.3611 13.453 25.5264 13.4971 25.6867 13.5619C25.6197 13.5336 25.5527 13.5054 25.4855 13.477C25.6508 13.547 25.8044 13.6363 25.9468 13.7452C25.8899 13.7014 25.8332 13.6574 25.7764 13.6136C25.908 13.7176 26.0255 13.8351 26.1293 13.9665C26.0855 13.9097 26.0415 13.853 25.9977 13.7961C26.1066 13.9385 26.1961 14.0923 26.2659 14.2574C26.2375 14.1904 26.2093 14.1234 26.181 14.0562C26.2458 14.2165 26.2899 14.3818 26.3142 14.553C26.3042 14.4784 26.2941 14.4038 26.2841 14.3291C26.3277 14.6798 26.3016 15.0461 26.3016 15.3984V16.3929C26.3016 16.8333 26.6889 17.2552 27.1436 17.2348C27.5998 17.2144 27.9855 16.8649 27.9855 16.3929C27.9855 15.7935 27.9896 15.194 27.9855 14.5945C27.9802 13.8147 27.653 13.0227 27.0633 12.5023C26.5271 12.0289 25.8582 11.7607 25.1396 11.7569C24.6372 11.7542 24.1346 11.7569 23.6322 11.7569H21.0188C20.4825 11.7569 19.9454 11.7485 19.4091 11.7569C19.4007 11.7571 19.3921 11.7569 19.3837 11.7569C18.9433 11.7569 18.5213 12.1442 18.5417 12.5989C18.5627 13.0556 18.9122 13.4413 19.3842 13.4413L19.3842 13.4413Z" fill="#0174FF"/>
</svg>


