<svg width="42" height="42" viewBox="0 0 42 42" fill="none" xmlns="http://www.w3.org/2000/svg">
<path d="M1 21.001C1 32.0459 9.95415 41 21.001 41C32.0459 41 41 32.0459 41 21.001C41 9.95615 32.0459 1 21.001 1C9.95615 1 1 9.95415 1 21.001Z" fill="#0174FF"/>
<path d="M1 21.001C1 32.0459 9.95415 41 21.001 41C32.0459 41 41 32.0459 41 21.001C41 9.95615 32.0459 1 21.001 1C9.95615 1 1 9.95415 1 21.001Z" stroke="url(#paint0_linear_2019_19182)" stroke-opacity="0.8" stroke-width="0.466667" style="mix-blend-mode:soft-light"/>
<path d="M17.5705 19.6004V18.5377V16.2618V14.1409V13.5646C17.5705 13.1483 17.4869 12.7639 17.3147 12.3852C17.0212 11.7395 16.3709 11.2265 15.6813 11.0708C15.315 10.9881 14.9492 11.0007 14.5777 11.0007H13.5411C13.3174 11.0007 13.0916 11.023 12.8737 11.0744C12.4839 11.1665 12.1461 11.3679 11.8407 11.6197C11.3009 12.0653 11.006 12.7847 11.0004 13.4753C10.9995 13.5834 11.0004 13.6914 11.0004 13.7993V15.672V18.0368V19.5254V19.6003C11.0004 20.0407 11.3877 20.4626 11.8423 20.4422C12.2985 20.4218 12.6843 20.0723 12.6843 19.6003V17.4715V14.1486C12.6843 13.8504 12.6614 13.5387 12.7006 13.2419C12.6906 13.3165 12.6805 13.3911 12.6705 13.4658C12.6918 13.3268 12.7288 13.193 12.7824 13.0629C12.754 13.1299 12.7259 13.1969 12.6975 13.2641C12.7523 13.138 12.8205 13.0206 12.9028 12.9105C12.859 12.9674 12.815 13.0241 12.7712 13.0809C12.8616 12.9648 12.9644 12.862 13.0805 12.7717C13.0236 12.8155 12.9669 12.8595 12.9101 12.9033C13.0202 12.821 13.1376 12.7528 13.2637 12.6979C13.1967 12.7263 13.1297 12.7545 13.0625 12.7828C13.1925 12.7292 13.3262 12.6923 13.4654 12.671C13.3908 12.6809 13.3163 12.6911 13.2415 12.701C13.5829 12.6558 13.9422 12.6847 14.2853 12.6847C14.6284 12.6847 14.9877 12.656 15.3291 12.701C15.2546 12.6911 15.18 12.6809 15.1052 12.671C15.2442 12.6923 15.3781 12.7292 15.5082 12.7828C15.4412 12.7545 15.3741 12.7263 15.307 12.6979C15.4331 12.7528 15.5504 12.821 15.6606 12.9033C15.6037 12.8595 15.547 12.8155 15.4901 12.7717C15.6063 12.862 15.709 12.9648 15.7994 13.0809C15.7556 13.0241 15.7116 12.9674 15.6678 12.9105C15.7501 13.0206 15.8183 13.138 15.8731 13.2641C15.8448 13.1971 15.8166 13.1301 15.7882 13.0629C15.8419 13.193 15.8788 13.3266 15.9001 13.4658C15.8901 13.3913 15.88 13.3167 15.87 13.2419C15.9028 13.4902 15.8864 13.7493 15.8864 13.999V15.4435V18.8125V19.6005C15.8864 20.0408 16.2736 20.4628 16.7283 20.4424C17.1848 20.422 17.5706 20.0725 17.5706 19.6005L17.5705 19.6004Z" fill="white"/>
<path d="M11.8427 16.5632H13.4937H16.1252H16.729C17.1694 16.5632 17.5913 16.1759 17.5709 15.7212C17.5505 15.265 17.201 14.8793 16.729 14.8793H15.0779H12.4465H11.8427C11.4023 14.8793 10.9803 15.2666 11.0007 15.7212C11.0212 16.1774 11.3706 16.5632 11.8427 16.5632Z" fill="white"/>
<path d="M21.9306 23.1688H22.7464H24.7065H27.0914H29.1432C29.4758 23.1688 29.8094 23.1753 30.142 23.1688C30.1468 23.1686 30.1516 23.1688 30.1564 23.1688C30.5968 23.1688 31.0188 22.7815 30.9984 22.3268C30.9779 21.8706 30.6285 21.4849 30.1564 21.4849H29.3406H27.3805H24.9956H22.9438C22.6111 21.4849 22.2776 21.4783 21.945 21.4849C21.9402 21.485 21.9354 21.4849 21.9306 21.4849C21.4902 21.4849 21.0682 21.8721 21.0886 22.3268C21.109 22.7828 21.4585 23.1688 21.9306 23.1688Z" fill="white"/>
<path d="M27.846 22.3272C27.8562 22.5213 27.8431 22.7186 27.8268 22.9119C27.8172 23.026 27.8045 23.1397 27.7892 23.2533C27.7991 23.1787 27.8093 23.1042 27.8192 23.0294C27.7304 23.6847 27.5553 24.3277 27.2984 24.937C27.3268 24.87 27.355 24.803 27.3833 24.7358C27.1501 25.2848 26.85 25.803 26.4864 26.2762C26.5302 26.2193 26.5742 26.1626 26.618 26.1058C26.2544 26.5759 25.8316 26.996 25.3627 27.3608C25.4195 27.3169 25.4762 27.273 25.5331 27.2291C24.9768 27.6587 24.363 28.0056 23.7168 28.2805C23.7838 28.2522 23.8508 28.224 23.918 28.1956C23.2396 28.4814 22.5312 28.6871 21.81 28.8323C21.6114 28.8723 21.4064 29.0489 21.3069 29.2192C21.2012 29.3996 21.1566 29.6656 21.222 29.868C21.3705 30.327 21.7944 30.5494 22.2578 30.456C23.4843 30.2089 24.7008 29.7807 25.7647 29.1144C26.6551 28.5566 27.4115 27.8484 28.0328 27.0037C28.5049 26.362 28.8584 25.6346 29.1137 24.8812C29.3113 24.2984 29.4262 23.6964 29.4938 23.0856C29.5211 22.8387 29.5414 22.5865 29.5305 22.3377C29.5304 22.3343 29.5302 22.3306 29.53 22.3272C29.507 21.8882 29.1592 21.4641 28.6881 21.4853C28.2515 21.5047 27.8212 21.8561 27.8459 22.3272L27.846 22.3272Z" fill="white"/>
<path d="M23.3538 25.1693C23.7002 26.0119 24.1539 26.7683 24.7433 27.4661C25.4791 28.3371 26.4207 29.0511 27.4351 29.5661C28.1944 29.9517 29.0009 30.2479 29.8262 30.4558C30.2526 30.5632 30.7594 30.3178 30.8619 29.8679C30.9614 29.4311 30.7308 28.9472 30.274 28.8321C29.7294 28.695 29.1954 28.5211 28.6777 28.3031C28.7447 28.3314 28.8117 28.3596 28.8789 28.3879C28.192 28.0957 27.5401 27.7264 26.9471 27.272C27.004 27.3158 27.0607 27.3598 27.1176 27.4036C26.6007 27.0043 26.1342 26.5436 25.7335 26.0276C25.7773 26.0845 25.8213 26.1412 25.8651 26.1981C25.4823 25.7017 25.1617 25.1587 24.9177 24.581C24.9461 24.648 24.9742 24.7151 25.0026 24.7822C24.9942 24.7621 24.9857 24.742 24.9775 24.7219C24.8904 24.5102 24.7961 24.3389 24.5906 24.2188C24.4101 24.1131 24.1442 24.0685 23.9417 24.1339C23.738 24.1999 23.5414 24.326 23.4386 24.5209C23.3403 24.7068 23.2697 24.9649 23.3537 25.1693L23.3538 25.1693Z" fill="white"/>
<path d="M26.8851 22.3265V20.7533C26.8851 20.3129 26.4978 19.8909 26.0431 19.9113C25.5869 19.9318 25.2012 20.2812 25.2012 20.7533V22.3265C25.2012 22.7669 25.5885 23.1889 26.0431 23.1684C26.4993 23.148 26.8851 22.7985 26.8851 22.3265Z" fill="white"/>
<path d="M18.9573 27.0455H16.1376C15.9527 27.0455 15.7673 27.051 15.5834 27.0279C15.658 27.0379 15.7326 27.048 15.8073 27.058C15.6362 27.0338 15.4709 26.9896 15.3106 26.9249C15.3776 26.9532 15.4446 26.9814 15.5118 27.0097C15.3465 26.9398 15.1929 26.8505 15.0504 26.7415C15.1073 26.7853 15.164 26.8293 15.2209 26.8731C15.0893 26.7692 14.9717 26.6516 14.868 26.5202C14.9118 26.5771 14.9558 26.6338 14.9996 26.6907C14.8906 26.5482 14.8011 26.3944 14.7314 26.2293C14.7597 26.2963 14.7879 26.3633 14.8162 26.4305C14.7515 26.2702 14.7073 26.1049 14.6831 25.9338C14.693 26.0084 14.7032 26.0829 14.7131 26.1577C14.691 25.9795 14.6956 25.8003 14.6956 25.6213V24.769V22.7463V22.2621C14.6956 21.8217 14.3083 21.3998 13.8537 21.4202C13.3975 21.4406 13.0117 21.7901 13.0117 22.2621V23.8142V25.7967C13.0117 26.2807 13.1097 26.7285 13.3158 27.1665C13.6291 27.8316 14.2327 28.3092 14.9076 28.5668C15.2616 28.7019 15.6432 28.7299 16.019 28.7299H16.9759C17.6232 28.7299 18.2708 28.7366 18.9178 28.7299C18.9312 28.7297 18.9445 28.7299 18.9579 28.7299C19.3983 28.7299 19.8202 28.3426 19.7998 27.8879C19.7789 27.4312 19.4294 27.0455 18.9574 27.0455L18.9573 27.0455Z" fill="white"/>
<path d="M20.3842 14.4412H22.4132H25.5336C25.8241 14.4412 26.1248 14.4227 26.4138 14.4587C26.3392 14.4488 26.2647 14.4386 26.1899 14.4287C26.3611 14.4529 26.5264 14.4971 26.6867 14.5618C26.6197 14.5335 26.5527 14.5053 26.4855 14.4769C26.6508 14.5469 26.8044 14.6362 26.9468 14.7452C26.8899 14.7014 26.8332 14.6574 26.7764 14.6135C26.908 14.7175 27.0255 14.835 27.1293 14.9665C27.0855 14.9096 27.0415 14.8529 26.9977 14.796C27.1066 14.9385 27.1961 15.0922 27.2659 15.2574C27.2375 15.1903 27.2093 15.1233 27.181 15.0562C27.2458 15.2165 27.2899 15.3818 27.3142 15.5529C27.3042 15.4783 27.2941 15.4038 27.2841 15.329C27.3277 15.6797 27.3016 16.046 27.3016 16.3983V17.3928C27.3016 17.8332 27.6889 18.2551 28.1436 18.2347C28.5998 18.2143 28.9855 17.8648 28.9855 17.3928C28.9855 16.7935 28.9896 16.194 28.9855 15.5945C28.9802 14.8146 28.653 14.0226 28.0633 13.5022C27.5271 13.0288 26.8582 12.7606 26.1396 12.7568C25.6372 12.7541 25.1346 12.7568 24.6322 12.7568H22.0188C21.4825 12.7568 20.9454 12.7484 20.4091 12.7568C20.4007 12.757 20.3921 12.7568 20.3837 12.7568C19.9433 12.7568 19.5213 13.1441 19.5417 13.5988C19.5627 14.0555 19.9122 14.4412 20.3842 14.4412L20.3842 14.4412Z" fill="white"/>
<defs>
<linearGradient id="paint0_linear_2019_19182" x1="1.74977" y1="1.72727" x2="34.2489" y2="37.3234" gradientUnits="userSpaceOnUse">
<stop stop-color="white"/>
<stop offset="1" stop-color="white" stop-opacity="0"/>
</linearGradient>
</defs>
</svg>