<svg width="15" height="15" viewBox="0 0 15 15" fill="none" xmlns="http://www.w3.org/2000/svg">
<path d="M12.799 2.20431C11.6619 1.06266 10.1876 0.318121 8.59459 0.0810573C7.00157 -0.156006 5.37464 0.127023 3.95494 0.888193C2.53524 1.64936 1.39835 2.84816 0.712774 4.30689C0.0271996 5.76562 -0.170565 7.40665 0.148794 8.98672C0.468154 10.5668 1.28764 12.0018 2.48578 13.0791C3.68392 14.1563 5.19695 14.8185 6.80059 14.9674C8.40423 15.1164 10.0131 14.7441 11.3888 13.9059C12.7645 13.0676 13.8337 11.808 14.438 10.3137H12.3588C11.7799 11.3372 10.8951 12.1533 9.82874 12.6472C8.76241 13.1412 7.56821 13.2881 6.41409 13.0674C5.25998 12.8467 4.20401 12.2695 3.39468 11.4168C2.58535 10.5642 2.06339 9.47907 1.90218 8.31407C1.74098 7.14907 1.94865 5.96279 2.496 4.92207C3.04334 3.88135 3.90282 3.03854 4.95356 2.51216C6.0043 1.98578 7.19345 1.80232 8.35376 1.98758C9.51408 2.17283 10.5872 2.71748 11.4222 3.54494L8.44385 6.56368H15V0.00119151L12.799 2.20431Z" fill="#0174FF"/>
</svg>
