<svg width="19" height="21" viewBox="0 0 19 21" fill="none" xmlns="http://www.w3.org/2000/svg">
<path d="M2.19231 0C0.990411 0 0 0.990409 0 2.19231V18.2692C0 19.4711 0.990411 20.4615 2.19231 20.4615H3.65385V11.6923C3.65385 10.4904 4.64426 9.5 5.84615 9.5H13.1538C14.3557 9.5 15.3462 10.4904 15.3462 11.6923V20.4615H16.8077C18.0096 20.4615 19 19.4711 19 18.2692V5.84615C19 5.65235 18.923 5.4665 18.7859 5.32948L13.6705 0.214092C13.5335 0.0770468 13.3476 3.73993e-05 13.1538 0H11.6923V4.21191C11.6923 5.1044 10.9506 5.84615 10.0581 5.84615H4.55732C3.66483 5.84615 2.92308 5.1044 2.92308 4.21191V0H2.19231ZM4.38462 0V4.21191C4.38462 4.31999 4.44924 4.38462 4.55732 4.38462H10.0581C10.1661 4.38462 10.2308 4.31999 10.2308 4.21191V0H4.38462ZM5.84615 10.9615C5.42867 10.9615 5.11538 11.2748 5.11538 11.6923V20.4615H13.8846V11.6923C13.8846 11.2748 13.5713 10.9615 13.1538 10.9615H5.84615Z" fill="black"/>
<path d="M2.19231 0C0.990411 0 0 0.990409 0 2.19231V18.2692C0 19.4711 0.990411 20.4615 2.19231 20.4615H3.65385V11.6923C3.65385 10.4904 4.64426 9.5 5.84615 9.5H13.1538C14.3557 9.5 15.3462 10.4904 15.3462 11.6923V20.4615H16.8077C18.0096 20.4615 19 19.4711 19 18.2692V5.84615C19 5.65235 18.923 5.4665 18.7859 5.32948L13.6705 0.214092C13.5335 0.0770468 13.3476 3.73993e-05 13.1538 0H11.6923V4.21191C11.6923 5.1044 10.9506 5.84615 10.0581 5.84615H4.55732C3.66483 5.84615 2.92308 5.1044 2.92308 4.21191V0H2.19231ZM4.38462 0V4.21191C4.38462 4.31999 4.44924 4.38462 4.55732 4.38462H10.0581C10.1661 4.38462 10.2308 4.31999 10.2308 4.21191V0H4.38462ZM5.84615 10.9615C5.42867 10.9615 5.11538 11.2748 5.11538 11.6923V20.4615H13.8846V11.6923C13.8846 11.2748 13.5713 10.9615 13.1538 10.9615H5.84615Z" fill="url(#paint0_linear_183_769)" style="mix-blend-mode:soft-light"/>
<path d="M18.5114 5.60399L18.5114 5.60401C18.5756 5.66823 18.6117 5.75533 18.6118 5.84615C18.6118 5.84618 18.6118 5.8462 18.6118 5.84623V18.2692C18.6118 19.2567 17.7952 20.0733 16.8077 20.0733H15.7344V11.6923C15.7344 10.276 14.5702 9.11178 13.1538 9.11178H5.84615C4.42985 9.11178 3.26562 10.276 3.26562 11.6923V20.0733H2.19231C1.20482 20.0733 0.388221 19.2567 0.388221 18.2692V2.19231C0.388221 1.20482 1.20482 0.388221 2.19231 0.388221H2.53486V4.21191C2.53486 5.31881 3.45042 6.23437 4.55732 6.23437H10.0581C11.165 6.23437 12.0805 5.31881 12.0805 4.21191V0.388221H13.1538C13.1538 0.388221 13.1538 0.388221 13.1538 0.388221C13.2447 0.388258 13.3318 0.424358 13.396 0.488588L13.396 0.488606L18.5114 5.60399ZM9.84255 3.99639H4.77284V0.388221H9.84255V3.99639ZM5.50361 11.6923C5.50361 11.4892 5.64307 11.3498 5.84615 11.3498H13.1538C13.3569 11.3498 13.4964 11.4892 13.4964 11.6923V20.0733H5.50361V11.6923Z" stroke="url(#paint1_linear_183_769)" stroke-opacity="0.8" stroke-width="0.776442" style="mix-blend-mode:soft-light"/>
<defs>
<linearGradient id="paint0_linear_183_769" x1="-4.3627" y1="-2.88322" x2="21.3289" y2="17.039" gradientUnits="userSpaceOnUse">
<stop stop-color="white"/>
<stop offset="1" stop-opacity="0"/>
</linearGradient>
<linearGradient id="paint1_linear_183_769" x1="0.356139" y1="0.372028" x2="6.39584" y2="6.15377" gradientUnits="userSpaceOnUse">
<stop stop-color="white"/>
<stop offset="1" stop-color="white" stop-opacity="0"/>
</linearGradient>
</defs>
</svg>
