<svg width="56" height="56" viewBox="0 0 195 195" fill="none" xmlns="http://www.w3.org/2000/svg">
<g filter="url(#filter0_dd_0_1)">
<path d="M48 89.5021C48 112.42 66.5799 131 89.5021 131C112.42 131 131 112.42 131 89.5021C131 66.584 112.42 48 89.5021 48C66.584 48 48 66.5799 48 89.5021Z" fill="#320268"/>
<path d="M48 89.5021C48 112.42 66.5799 131 89.5021 131C112.42 131 131 112.42 131 89.5021C131 66.584 112.42 48 89.5021 48C66.584 48 48 66.5799 48 89.5021Z" fill="url(#paint0_linear_0_1)" style="mix-blend-mode:soft-light"/>
<path d="M89.5021 130.204C67.0195 130.204 48.7961 111.98 48.7961 89.5021C48.7961 67.0196 67.0236 48.7961 89.5021 48.7961C111.98 48.7961 130.204 67.0236 130.204 89.5021C130.204 111.98 111.98 130.204 89.5021 130.204Z" stroke="url(#paint1_linear_0_1)" stroke-opacity="0.8" stroke-width="1.59214" style="mix-blend-mode:soft-light"/>
</g>
<g filter="url(#filter1_d_0_1)">
<path d="M100.663 67H75.6538C73.3587 67 71.1576 67.9117 69.5347 69.5347C67.9117 71.1576 67 73.3587 67 75.6538V103.346C67 105.641 67.9117 107.842 69.5347 109.465C71.1576 111.088 73.3587 112 75.6538 112H103.346C105.641 112 107.842 111.088 109.465 109.465C111.088 107.842 112 105.641 112 103.346V79.9115L100.663 67ZM92.9615 70.4615V75.6538C92.9615 76.1129 92.7792 76.5531 92.4546 76.8777C92.13 77.2023 91.6898 77.3846 91.2308 77.3846H82.5769C82.1179 77.3846 81.6777 77.2023 81.3531 76.8777C81.0285 76.5531 80.8462 76.1129 80.8462 75.6538V70.4615H92.9615ZM80.8462 108.538V96.4231C80.8462 95.964 81.0285 95.5238 81.3531 95.1992C81.6777 94.8747 82.1179 94.6923 82.5769 94.6923H96.4231C96.8821 94.6923 97.3223 94.8747 97.6469 95.1992C97.9715 95.5238 98.1538 95.964 98.1538 96.4231V108.538H80.8462ZM108.538 103.346C108.538 104.723 107.991 106.044 107.018 107.018C106.044 107.991 104.723 108.538 103.346 108.538H101.615V96.4231C101.615 95.046 101.068 93.7253 100.095 92.7516C99.1208 91.7778 97.8002 91.2308 96.4231 91.2308H82.5769C81.1998 91.2308 79.8792 91.7778 78.9054 92.7516C77.9317 93.7253 77.3846 95.046 77.3846 96.4231V108.538H75.6538C74.2768 108.538 72.9561 107.991 71.9823 107.018C71.0086 106.044 70.4615 104.723 70.4615 103.346V75.6538C70.4615 74.2768 71.0086 72.9561 71.9823 71.9823C72.9561 71.0086 74.2768 70.4615 75.6538 70.4615H77.3846V75.6538C77.3846 77.0309 77.9317 78.3516 78.9054 79.3254C79.8792 80.2991 81.1998 80.8462 82.5769 80.8462H91.2308C92.6079 80.8462 93.9285 80.2991 94.9023 79.3254C95.876 78.3516 96.4231 77.0309 96.4231 75.6538V70.4615H99.1058L108.538 81.2096V103.346Z" fill="white"/>
</g>
<defs>
<filter id="filter0_dd_0_1" x="0.235843" y="0.235843" width="194.45" height="194.45" filterUnits="userSpaceOnUse" color-interpolation-filters="sRGB">
<feFlood flood-opacity="0" result="BackgroundImageFix"/>
<feColorMatrix in="SourceAlpha" type="matrix" values="0 0 0 0 0 0 0 0 0 0 0 0 0 0 0 0 0 0 127 0" result="hardAlpha"/>
<feOffset dx="15.9214" dy="15.9214"/>
<feGaussianBlur stdDeviation="23.8821"/>
<feColorMatrix type="matrix" values="0 0 0 0 0.214583 0 0 0 0 0.300417 0 0 0 0 0.429167 0 0 0 0.5 0"/>
<feBlend mode="normal" in2="BackgroundImageFix" result="effect1_dropShadow_0_1"/>
<feColorMatrix in="SourceAlpha" type="matrix" values="0 0 0 0 0 0 0 0 0 0 0 0 0 0 0 0 0 0 127 0" result="hardAlpha"/>
<feOffset dx="-15.9214" dy="-15.9214"/>
<feGaussianBlur stdDeviation="15.9214"/>
<feColorMatrix type="matrix" values="0 0 0 0 1 0 0 0 0 1 0 0 0 0 1 0 0 0 1 0"/>
<feBlend mode="normal" in2="effect1_dropShadow_0_1" result="effect2_dropShadow_0_1"/>
<feBlend mode="normal" in="SourceGraphic" in2="effect2_dropShadow_0_1" result="shape"/>
</filter>
<filter id="filter1_d_0_1" x="63.4" y="67" width="52.2" height="52.2" filterUnits="userSpaceOnUse" color-interpolation-filters="sRGB">
<feFlood flood-opacity="0" result="BackgroundImageFix"/>
<feColorMatrix in="SourceAlpha" type="matrix" values="0 0 0 0 0 0 0 0 0 0 0 0 0 0 0 0 0 0 127 0" result="hardAlpha"/>
<feOffset dy="3.6"/>
<feGaussianBlur stdDeviation="1.8"/>
<feColorMatrix type="matrix" values="0 0 0 0 0 0 0 0 0 0 0 0 0 0 0 0 0 0 0.25 0"/>
<feBlend mode="normal" in2="BackgroundImageFix" result="effect1_dropShadow_0_1"/>
<feBlend mode="normal" in="SourceGraphic" in2="effect1_dropShadow_0_1" result="shape"/>
</filter>
<linearGradient id="paint0_linear_0_1" x1="28.9419" y1="36.3045" x2="134.822" y2="124.723" gradientUnits="userSpaceOnUse">
<stop stop-color="white"/>
<stop offset="1" stop-opacity="0"/>
</linearGradient>
<linearGradient id="paint1_linear_0_1" x1="49.5558" y1="49.5091" x2="116.992" y2="123.371" gradientUnits="userSpaceOnUse">
<stop stop-color="white"/>
<stop offset="1" stop-color="white" stop-opacity="0"/>
</linearGradient>
</defs>
</svg>
