<svg width="22" height="22" viewBox="0 0 22 22" fill="none" xmlns="http://www.w3.org/2000/svg">
<path d="M21.66 20.3596L15.6852 14.1003C17.0076 12.3672 17.6464 10.1694 17.4703 7.95834C17.2942 5.74726 16.3165 3.69078 14.7381 2.21132C13.1598 0.73187 11.1005 -0.0582215 8.98345 0.00334577C6.86635 0.064913 4.85213 0.973464 3.35454 2.54237C1.85695 4.11127 0.989697 6.22141 0.930928 8.43932C0.872159 10.6572 1.62634 12.8145 3.03854 14.468C4.45075 16.1216 6.41376 17.1458 8.52433 17.3303C10.6349 17.5148 12.7328 16.8456 14.3871 15.4602L20.3619 21.7195C20.5344 21.8992 20.7678 22 21.011 22C21.2542 22 21.4875 21.8992 21.66 21.7195C21.8315 21.5388 21.9277 21.2944 21.9277 21.0396C21.9277 20.7848 21.8315 20.5403 21.66 20.3596ZM9.22238 15.4409C7.9478 15.4409 6.70185 15.0449 5.64207 14.3031C4.5823 13.5612 3.75631 12.5068 3.26855 11.2732C2.78079 10.0396 2.65317 8.68214 2.90183 7.37252C3.15049 6.06291 3.76425 4.85995 4.66551 3.91577C5.56678 2.97159 6.71505 2.3286 7.96514 2.0681C9.21523 1.8076 10.511 1.9413 11.6885 2.45228C12.8661 2.96327 13.8726 3.82859 14.5807 4.93883C15.2888 6.04907 15.6668 7.35435 15.6668 8.68963C15.6668 9.57621 15.5001 10.4541 15.1762 11.2732C14.8523 12.0923 14.3777 12.8366 13.7792 13.4635C13.1808 14.0904 12.4704 14.5877 11.6885 14.927C10.9067 15.2662 10.0687 15.4409 9.22238 15.4409Z" fill="#9E9E9E"/>
</svg>