<svg width="18" height="18" viewBox="0 0 18 18" fill="none" xmlns="http://www.w3.org/2000/svg">
<path d="M11.7 1.25155V16.7475C11.7 17.8265 10.5534 18.3985 9.82799 17.6815L5.7852 13.6875C5.66164 13.5657 5.50218 13.4984 5.337 13.4985H2.025C1.75907 13.4985 1.49575 13.4403 1.25007 13.3272C1.00438 13.2142 0.781147 13.0484 0.593108 12.8395C0.40507 12.6306 0.25591 12.3825 0.154144 12.1095C0.0523782 11.8366 0 11.544 0 11.2485V6.75052C0.000238625 6.15396 0.213692 5.58193 0.593427 5.16019C0.973162 4.73845 1.48809 4.50153 2.025 4.50153H5.337C5.5023 4.50131 5.66177 4.43371 5.7852 4.31153L9.82709 0.318551C10.5534 -0.398446 11.7 0.173551 11.7 1.25155ZM15.2928 2.89954C15.4366 2.78114 15.6169 2.73107 15.7939 2.76032C15.971 2.78958 16.1303 2.89577 16.2369 3.05554C17.3847 4.7757 18.003 6.86113 18 9.00251C18.0025 11.1437 17.3839 13.2287 16.236 14.9485C16.1283 15.1049 15.9696 15.208 15.7941 15.2354C15.6186 15.2629 15.4404 15.2126 15.298 15.0953C15.1556 14.9781 15.0604 14.8033 15.033 14.6088C15.0056 14.4142 15.0482 14.2155 15.1515 14.0555C16.1271 12.5941 16.6526 10.8221 16.65 9.00251C16.6528 7.18261 16.1273 5.41022 15.1515 3.94854C15.0986 3.86932 15.0604 3.7793 15.0389 3.68362C15.0174 3.58795 15.013 3.48851 15.0262 3.39098C15.0393 3.29345 15.0696 3.19976 15.1153 3.11526C15.1611 3.03076 15.2214 2.95711 15.2928 2.89854V2.89954ZM13.6287 5.37153C13.7066 5.32456 13.7921 5.29511 13.8803 5.28487C13.9685 5.27463 14.0577 5.28379 14.1427 5.31184C14.2276 5.33988 14.3068 5.38626 14.3757 5.44832C14.4446 5.51038 14.5018 5.58691 14.544 5.67353C15.0264 6.66352 15.3 7.79852 15.3 9.00251C15.3015 10.1645 15.0416 11.3085 14.544 12.3305C14.5018 12.4172 14.4447 12.4938 14.3758 12.5559C14.307 12.618 14.2278 12.6645 14.1428 12.6926C14.0578 12.7208 13.9687 12.73 13.8805 12.7199C13.7922 12.7097 13.7067 12.6804 13.6287 12.6335C13.5507 12.5866 13.4818 12.5231 13.4258 12.4466C13.3699 12.3702 13.3281 12.2822 13.3028 12.1878C13.2775 12.0933 13.2691 11.9943 13.2783 11.8962C13.2874 11.7982 13.3138 11.7032 13.356 11.6165C13.7468 10.8137 13.951 9.91521 13.95 9.00251C13.95 8.05452 13.734 7.16452 13.356 6.38752C13.271 6.2126 13.2519 6.00732 13.3031 5.81681C13.3542 5.6263 13.4713 5.46614 13.6287 5.37153Z" fill="#676767"/>
</svg>
