<svg width="129" height="129" viewBox="0 0 122 122" fill="none" xmlns="http://www.w3.org/2000/svg">
<g filter="url(#filter0_dd_1_2645)">
<path d="M28 56.0014C28 71.4642 40.5358 84 56.0014 84C71.4642 84 84 71.4642 84 56.0014C84 40.5386 71.4642 28 56.0014 28C40.5386 28 28 40.5358 28 56.0014Z" fill="#0174FF"/>
<path d="M28 56.0014C28 71.4642 40.5358 84 56.0014 84C71.4642 84 84 71.4642 84 56.0014C84 40.5386 71.4642 28 56.0014 28C40.5386 28 28 40.5358 28 56.0014Z" fill="url(#paint0_linear_1_2645)" style="mix-blend-mode:soft-light"/>
<path d="M56.0014 83.5333C40.7935 83.5333 28.4667 71.2064 28.4667 56.0014C28.4667 40.7936 40.7963 28.4667 56.0014 28.4667C71.2064 28.4667 83.5333 40.7963 83.5333 56.0014C83.5333 71.2065 71.2065 83.5333 56.0014 83.5333Z" stroke="url(#paint1_linear_1_2645)" stroke-opacity="0.8" stroke-width="0.933333" style="mix-blend-mode:soft-light"/>
</g>
<path d="M64.407 70.823L60.8479 59.5711L60.777 59.3511L60.6812 59.0495L60.4647 58.3643L59.3186 54.7414L58.8931 53.393L58.8005 53.102L58.7934 53.0807L58.4634 52.034L58.0341 50.682L57.6047 49.3305L57.1793 47.9785C56.8099 48.0956 56.4125 48.1595 56.0008 48.1595C55.5892 48.1595 55.1918 48.0956 54.8228 47.9785L54.397 49.3305L53.5383 52.0343L53.2083 53.0811L53.2012 53.1024L53.1089 53.3934L52.6831 54.7417L51.537 58.3646L51.3205 59.0498L51.2247 59.3514L51.1538 59.5715L47.5947 70.8234L47.1299 72.2885H64.8718L64.407 70.823ZM59.716 60.703L62.2318 68.6482L57.0015 63.4175L59.716 60.703ZM57.6686 54.2343L57.9383 55.0824L58.2896 56.1895L57.0015 54.9014L57.6686 54.2343ZM54.9292 52.343L55.3657 50.9663L55.8057 49.5753L56.0008 48.9614L56.196 49.5753L56.636 50.9663L57.0721 52.343L57.1892 52.7121L56.0679 53.8334L56.0008 53.9008L54.8121 52.7121L54.9292 52.343ZM54.0634 55.0824L54.3331 54.2343L55.0002 54.9014L54.7199 55.1817L53.7121 56.1895L54.0634 55.0824ZM52.786 59.1169L56.0008 55.9021L59.2583 59.1595L56.0008 62.4169L52.7647 59.1808L52.7434 59.1595L52.786 59.1169ZM52.2857 60.703L55.0002 63.4175L49.7699 68.6479L52.2857 60.703ZM49.5499 70.8692L56.0008 64.4182L62.4518 70.8692H49.5499Z" fill="white"/>
<path d="M60.23 41.0273L59.2152 42.0422C59.6481 42.6702 59.9035 43.4332 59.9035 44.2564C59.9035 45.0796 59.6481 45.8425 59.2152 46.4706L60.23 47.4854C60.9148 46.5877 61.3229 45.4699 61.3229 44.2564C61.3229 43.0428 60.9148 41.9251 60.23 41.0273ZM52.7855 42.0422L51.7706 41.0273C51.0858 41.9251 50.6777 43.0428 50.6777 44.2564C50.6777 45.4699 51.0858 46.5877 51.7706 47.4854L52.7855 46.4706C52.3526 45.8425 52.0971 45.0796 52.0971 44.2564C52.0971 43.4332 52.3526 42.6702 52.7855 42.0422Z" fill="white"/>
<path d="M50.7592 40.0159L49.755 39.0117C48.5592 40.4311 47.8389 42.262 47.8389 44.2562C47.8389 46.2504 48.5592 48.0814 49.755 49.5007L50.7592 48.4966C49.8224 47.3398 49.2582 45.8637 49.2582 44.2562C49.2582 42.6488 49.8224 41.1727 50.7592 40.0159ZM62.2453 39.0117L61.2411 40.0159C62.1779 41.1727 62.7421 42.6488 62.7421 44.2562C62.7421 45.8637 62.1779 47.3398 61.2411 48.4966L62.2453 49.5007C63.4411 48.0814 64.1614 46.2504 64.1614 44.2562C64.1614 42.262 63.4411 40.4311 62.2453 39.0117Z" fill="white"/>
<path d="M48.7471 38.0042L47.7429 37C46.0361 38.9374 45 41.4816 45 44.2565C45 47.0313 46.0361 49.5755 47.7429 51.5129L48.7471 50.5087C47.2923 48.8303 46.4194 46.6481 46.4194 44.2565C46.4194 41.8648 47.2923 39.6826 48.7471 38.0042ZM64.2571 37L63.2529 38.0042C64.7077 39.6826 65.5806 41.8648 65.5806 44.2565C65.5806 46.6481 64.7077 48.8303 63.2529 50.5087L64.2567 51.5129C65.9639 49.5755 67 47.0313 67 44.2565C67 41.4816 65.9639 38.9374 64.2571 37Z" fill="white"/>
<path d="M58.4834 44.2563C58.4834 44.3167 58.4798 44.3805 58.4727 44.4408C58.4727 44.455 58.4727 44.4692 58.4692 44.4834V44.5012C58.4692 44.5047 58.4692 44.5047 58.4692 44.5083C58.4692 44.5296 58.4656 44.5508 58.4621 44.5721C58.4546 44.636 58.444 44.6963 58.4337 44.7567C58.4195 44.8241 58.4014 44.8915 58.3837 44.9554C58.3766 44.9802 58.3695 45.0015 58.3624 45.0263C58.3407 45.0938 58.3162 45.1612 58.2879 45.225C58.2559 45.2996 58.2204 45.3705 58.1849 45.4415C58.1491 45.5018 58.114 45.5657 58.0746 45.6225C58.071 45.626 58.0675 45.6331 58.0643 45.6367C58.0604 45.6438 58.0569 45.6508 58.0501 45.6579C58.0111 45.7183 57.9649 45.7786 57.9153 45.8354C57.8652 45.8957 57.8124 45.956 57.7556 46.0128C57.6988 46.0696 57.6385 46.1228 57.5782 46.1725C57.5214 46.2221 57.4611 46.2683 57.4008 46.3073C57.3933 46.3144 57.3866 46.3179 57.3791 46.3215C57.3756 46.325 57.3688 46.3286 57.3649 46.3321C57.3085 46.3712 57.2443 46.4067 57.1839 46.4421C57.0456 46.5167 56.9001 46.577 56.7479 46.6267C56.7372 46.6302 56.7262 46.6338 56.7156 46.6373C56.6552 46.655 56.5914 46.6692 56.5279 46.6834C56.5204 46.6834 56.5172 46.687 56.5101 46.687C56.4995 46.6905 56.492 46.6941 56.4817 46.6941C56.4072 46.7083 56.3327 46.7189 56.2546 46.726C56.1734 46.7367 56.0847 46.7402 55.9995 46.7402C55.9143 46.7402 55.8256 46.7367 55.744 46.726C55.6659 46.7189 55.5914 46.7083 55.5169 46.6941C55.5063 46.6941 55.4992 46.6905 55.4885 46.687C55.4814 46.687 55.4779 46.6834 55.4708 46.6834C55.4069 46.6692 55.343 46.655 55.2827 46.6373C55.2721 46.6338 55.2614 46.6302 55.2508 46.6267C55.0982 46.577 54.9527 46.5167 54.8143 46.4421C54.754 46.4067 54.6901 46.3712 54.6334 46.3321C54.6298 46.3286 54.6227 46.325 54.6192 46.3215C54.6121 46.3179 54.605 46.3144 54.5979 46.3073C54.5376 46.2683 54.4772 46.2221 54.4205 46.1725C54.3601 46.1228 54.2998 46.0696 54.243 46.0128C54.1863 45.956 54.133 45.8957 54.0834 45.8354C54.0337 45.7786 53.9876 45.7183 53.9485 45.6579C53.9414 45.6508 53.9379 45.6438 53.9343 45.6367C53.9308 45.6331 53.9272 45.626 53.9237 45.6225C53.8847 45.5657 53.8492 45.5018 53.8137 45.4415C53.7782 45.3705 53.7427 45.2996 53.7108 45.225C53.6824 45.1612 53.6576 45.0938 53.6363 45.0263C53.6292 45.0015 53.6221 44.9802 53.615 44.9554C53.5972 44.8915 53.5795 44.8241 53.5653 44.7567C53.5547 44.6963 53.544 44.636 53.5369 44.5721C53.5334 44.5508 53.5298 44.5296 53.5298 44.5083C53.5298 44.5047 53.5298 44.5047 53.5298 44.5012V44.4834C53.5263 44.4692 53.5263 44.455 53.5263 44.4408C53.5192 44.3805 53.5156 44.3167 53.5156 44.2563C53.5156 44.196 53.5192 44.1321 53.5263 44.0718C53.5263 44.0576 53.5263 44.0434 53.5298 44.0292V44.0115C53.5298 44.0079 53.5298 44.0079 53.5298 44.0044C53.5298 43.9831 53.5334 43.9618 53.5369 43.9405C53.544 43.8767 53.5547 43.8163 53.5653 43.756C53.5759 43.6992 53.5901 43.646 53.6079 43.5892C53.6079 43.5821 53.6114 43.5715 53.615 43.5644C53.6185 43.5396 53.6256 43.5112 53.6363 43.4863C53.6576 43.4189 53.6824 43.3515 53.7108 43.2876C53.7427 43.2131 53.7782 43.1421 53.8137 43.0712C53.8492 43.0108 53.8847 42.947 53.9237 42.8902C53.9272 42.8867 53.9308 42.8796 53.9343 42.876C53.9379 42.8689 53.9414 42.8618 53.9485 42.8547C53.9876 42.7944 54.0337 42.7341 54.0834 42.6773C54.133 42.617 54.1863 42.5567 54.243 42.4999C54.2998 42.4431 54.3601 42.3899 54.4205 42.3402C54.4772 42.2905 54.5376 42.2444 54.5979 42.2054C54.605 42.1983 54.6121 42.1947 54.6192 42.1912C54.6227 42.1876 54.6298 42.1841 54.6334 42.1805C54.6901 42.1415 54.754 42.106 54.8143 42.0705C54.8853 42.035 54.9563 41.9996 55.0308 41.9676C55.0947 41.9392 55.1621 41.9144 55.2295 41.8931C55.2543 41.8825 55.2827 41.8754 55.3076 41.8718C55.3147 41.8683 55.3253 41.8647 55.3324 41.8647C55.3892 41.847 55.4424 41.8328 55.4992 41.8221C55.5595 41.8115 55.6198 41.8008 55.6837 41.7938C55.705 41.7902 55.7263 41.7867 55.7476 41.7867C55.7511 41.7867 55.7511 41.7867 55.7547 41.7867H55.7724C55.7866 41.7831 55.8008 41.7831 55.815 41.7831C55.8753 41.776 55.9392 41.7725 55.9995 41.7725C56.0598 41.7725 56.1237 41.776 56.184 41.7831C56.1982 41.7831 56.2124 41.7831 56.2266 41.7867H56.2443C56.2479 41.7867 56.2479 41.7867 56.2514 41.7867C56.2727 41.7867 56.294 41.7902 56.3153 41.7938C56.3792 41.8008 56.4395 41.8115 56.4998 41.8221C56.5566 41.8328 56.6098 41.847 56.6666 41.8647C56.674 41.8647 56.6843 41.8683 56.6914 41.8718C56.7159 41.8754 56.7443 41.8825 56.7695 41.8931C56.8369 41.9144 56.9043 41.9392 56.9686 41.9676C57.0431 41.9996 57.1137 42.035 57.1847 42.0705C57.245 42.106 57.3092 42.1415 57.3656 42.1805C57.3695 42.1841 57.3763 42.1876 57.3798 42.1912C57.3873 42.1947 57.394 42.1983 57.4015 42.2054C57.4618 42.2444 57.5221 42.2905 57.5789 42.3402C57.6392 42.3899 57.6995 42.4431 57.7563 42.4999C57.8131 42.5567 57.8663 42.617 57.916 42.6773C57.9657 42.7341 58.0118 42.7944 58.0508 42.8547C58.0579 42.8618 58.0611 42.8689 58.065 42.876C58.0686 42.8796 58.0721 42.8867 58.0753 42.8902C58.1143 42.947 58.1498 43.0108 58.1857 43.0712C58.2211 43.1421 58.2566 43.2131 58.2886 43.2876C58.3169 43.3515 58.3414 43.4189 58.3631 43.4863C58.3737 43.5112 58.3808 43.5396 58.3844 43.5644C58.3883 43.5715 58.3918 43.5821 58.3918 43.5892C58.4096 43.646 58.4238 43.6992 58.4344 43.756C58.4447 43.8163 58.4557 43.8767 58.4628 43.9405C58.4663 43.9618 58.4699 43.9831 58.4699 44.0044C58.4699 44.0079 58.4699 44.0079 58.4699 44.0115V44.0292C58.4734 44.0434 58.4734 44.0576 58.4734 44.0718C58.4798 44.1321 58.4834 44.196 58.4834 44.2563Z" fill="white"/>
<defs>
<filter id="filter0_dd_1_2645" x="-1.90735e-06" y="-1.90735e-06" width="121.333" height="121.333" filterUnits="userSpaceOnUse" color-interpolation-filters="sRGB">
<feFlood flood-opacity="0" result="BackgroundImageFix"/>
<feColorMatrix in="SourceAlpha" type="matrix" values="0 0 0 0 0 0 0 0 0 0 0 0 0 0 0 0 0 0 127 0" result="hardAlpha"/>
<feOffset dx="9.33333" dy="9.33333"/>
<feGaussianBlur stdDeviation="14"/>
<feColorMatrix type="matrix" values="0 0 0 0 0.214583 0 0 0 0 0.300417 0 0 0 0 0.429167 0 0 0 0.5 0"/>
<feBlend mode="normal" in2="BackgroundImageFix" result="effect1_dropShadow_1_2645"/>
<feColorMatrix in="SourceAlpha" type="matrix" values="0 0 0 0 0 0 0 0 0 0 0 0 0 0 0 0 0 0 127 0" result="hardAlpha"/>
<feOffset dx="-9.33333" dy="-9.33333"/>
<feGaussianBlur stdDeviation="9.33333"/>
<feColorMatrix type="matrix" values="0 0 0 0 1 0 0 0 0 1 0 0 0 0 1 0 0 0 1 0"/>
<feBlend mode="normal" in2="effect1_dropShadow_1_2645" result="effect2_dropShadow_1_2645"/>
<feBlend mode="normal" in="SourceGraphic" in2="effect2_dropShadow_1_2645" result="shape"/>
</filter>
<linearGradient id="paint0_linear_1_2645" x1="15.1415" y1="20.1091" x2="86.5784" y2="79.7652" gradientUnits="userSpaceOnUse">
<stop stop-color="white"/>
<stop offset="1" stop-opacity="0"/>
</linearGradient>
<linearGradient id="paint1_linear_1_2645" x1="29.0497" y1="29.0182" x2="74.5485" y2="78.8527" gradientUnits="userSpaceOnUse">
<stop stop-color="white"/>
<stop offset="1" stop-color="white" stop-opacity="0"/>
</linearGradient>
</defs>
</svg>
