<svg width="22" height="36" viewBox="0 0 22 36" fill="none" xmlns="http://www.w3.org/2000/svg">
<path d="M19.407 33.823L15.8479 22.5711L15.777 22.3511L15.6812 22.0495L15.4647 21.3643L14.3186 17.7414L13.8931 16.393L13.8005 16.102L13.7934 16.0807L13.4634 15.034L13.0341 13.682L12.6047 12.3305L12.1793 10.9785C11.8099 11.0956 11.4125 11.1595 11.0008 11.1595C10.5892 11.1595 10.1918 11.0956 9.82279 10.9785L9.39698 12.3305L8.53827 15.0343L8.20827 16.0811L8.20117 16.1024L8.10891 16.3934L7.68311 17.7417L6.53698 21.3646L6.32053 22.0498L6.22472 22.3514L6.15375 22.5715L2.59472 33.8234L2.12988 35.2885H19.8718L19.407 33.823ZM14.716 23.703L17.2318 31.6482L12.0015 26.4175L14.716 23.703ZM12.6686 17.2343L12.9383 18.0824L13.2896 19.1895L12.0015 17.9014L12.6686 17.2343ZM9.92924 15.343L10.3657 13.9663L10.8057 12.5753L11.0008 11.9614L11.196 12.5753L11.636 13.9663L12.0721 15.343L12.1892 15.7121L11.0679 16.8334L11.0008 16.9008L9.81214 15.7121L9.92924 15.343ZM9.06343 18.0824L9.33311 17.2343L10.0002 17.9014L9.71988 18.1817L8.71214 19.1895L9.06343 18.0824ZM7.78601 22.1169L11.0008 18.9021L14.2583 22.1595L11.0008 25.4169L7.76472 22.1808L7.74343 22.1595L7.78601 22.1169ZM7.28569 23.703L10.0002 26.4175L4.76988 31.6479L7.28569 23.703ZM4.54988 33.8692L11.0008 27.4182L17.4518 33.8692H4.54988Z" fill="black"/>
<path d="M15.2295 4.02734L14.2147 5.04218C14.6476 5.67025 14.9031 6.43315 14.9031 7.25638C14.9031 8.0796 14.6476 8.84251 14.2147 9.47057L15.2295 10.4854C15.9143 9.58767 16.3224 8.46992 16.3224 7.25638C16.3224 6.04283 15.9143 4.92509 15.2295 4.02734ZM7.78499 5.04218L6.77015 4.02734C6.08531 4.92509 5.67725 6.04283 5.67725 7.25638C5.67725 8.46992 6.08531 9.58767 6.77015 10.4854L7.78499 9.47057C7.35208 8.84251 7.0966 8.0796 7.0966 7.25638C7.0966 6.43315 7.35208 5.67025 7.78499 5.04218Z" fill="black"/>
<path d="M5.75919 3.01591L4.755 2.01172C3.55919 3.43107 2.83887 5.26204 2.83887 7.25623C2.83887 9.25043 3.55919 11.0814 4.755 12.5007L5.75919 11.4966C4.82242 10.3398 4.25822 8.86365 4.25822 7.25623C4.25822 5.64882 4.82242 4.17269 5.75919 3.01591ZM17.2453 2.01172L16.2411 3.01591C17.1779 4.17269 17.7421 5.64882 17.7421 7.25623C17.7421 8.86365 17.1779 10.3398 16.2411 11.4966L17.2453 12.5007C18.4411 11.0814 19.1614 9.25043 19.1614 7.25623C19.1614 5.26204 18.4411 3.43107 17.2453 2.01172Z" fill="black"/>
<path d="M3.7471 1.00419L2.7429 0C1.03613 1.93742 0 4.48161 0 7.25645C0 10.0313 1.03613 12.5755 2.7429 14.5129L3.7471 13.5087C2.29226 11.8303 1.41935 9.64806 1.41935 7.25645C1.41935 4.86484 2.29226 2.68258 3.7471 1.00419ZM19.2571 0L18.2529 1.00419C19.7077 2.68258 20.5806 4.86484 20.5806 7.25645C20.5806 9.64806 19.7077 11.8303 18.2529 13.5087L19.2567 14.5129C20.9639 12.5755 22 10.0313 22 7.25645C22 4.48161 20.9639 1.93742 19.2571 0Z" fill="black"/>
<path d="M13.4839 7.25633C13.4839 7.31665 13.4803 7.38053 13.4732 7.44085C13.4732 7.45504 13.4732 7.46923 13.4697 7.48343V7.50117C13.4697 7.50472 13.4697 7.50472 13.4697 7.50827C13.4697 7.52956 13.4661 7.55085 13.4626 7.57214C13.4551 7.63601 13.4445 7.69633 13.4342 7.75665C13.42 7.82407 13.4019 7.89149 13.3841 7.95536C13.377 7.9802 13.37 8.00149 13.3629 8.02633C13.3412 8.09375 13.3167 8.16117 13.2883 8.22504C13.2564 8.29956 13.2209 8.37053 13.1854 8.44149C13.1496 8.50182 13.1145 8.56569 13.0751 8.62246C13.0715 8.62601 13.068 8.63311 13.0648 8.63665C13.0609 8.64375 13.0573 8.65085 13.0506 8.65794C13.0116 8.71827 12.9654 8.77859 12.9158 8.83536C12.8657 8.89569 12.8129 8.95601 12.7561 9.01278C12.6993 9.06956 12.639 9.12278 12.5787 9.17246C12.5219 9.22214 12.4616 9.26827 12.4012 9.3073C12.3938 9.3144 12.387 9.31794 12.3796 9.32149C12.376 9.32504 12.3693 9.32859 12.3654 9.33214C12.309 9.37117 12.2448 9.40665 12.1844 9.44214C12.046 9.51665 11.9006 9.57698 11.7483 9.62665C11.7377 9.6302 11.7267 9.63375 11.716 9.6373C11.6557 9.65504 11.5919 9.66924 11.5283 9.68343C11.5209 9.68343 11.5177 9.68698 11.5106 9.68698C11.5 9.69052 11.4925 9.69407 11.4822 9.69407C11.4077 9.70827 11.3332 9.71891 11.2551 9.72601C11.1739 9.73665 11.0851 9.7402 11 9.7402C10.9148 9.7402 10.8261 9.73665 10.7445 9.72601C10.6664 9.71891 10.5919 9.70827 10.5174 9.69407C10.5068 9.69407 10.4997 9.69052 10.489 9.68698C10.4819 9.68698 10.4784 9.68343 10.4713 9.68343C10.4074 9.66924 10.3435 9.65504 10.2832 9.6373C10.2726 9.63375 10.2619 9.6302 10.2513 9.62665C10.0987 9.57698 9.95321 9.51665 9.81482 9.44214C9.7545 9.40665 9.69063 9.37117 9.63386 9.33214C9.63031 9.32859 9.62321 9.32504 9.61966 9.32149C9.61257 9.31794 9.60547 9.3144 9.59837 9.3073C9.53805 9.26827 9.47773 9.22214 9.42095 9.17246C9.36063 9.12278 9.30031 9.06956 9.24353 9.01278C9.18676 8.95601 9.13353 8.89569 9.08385 8.83536C9.03418 8.77859 8.98805 8.71827 8.94902 8.65794C8.94192 8.65085 8.93837 8.64375 8.93482 8.63665C8.93127 8.63311 8.92773 8.62601 8.92418 8.62246C8.88515 8.56569 8.84966 8.50182 8.81418 8.44149C8.77869 8.37053 8.74321 8.29956 8.71127 8.22504C8.68289 8.16117 8.65805 8.09375 8.63676 8.02633C8.62966 8.00149 8.62256 7.9802 8.61547 7.95536C8.59773 7.89149 8.57998 7.82407 8.56579 7.75665C8.55515 7.69633 8.5445 7.63601 8.5374 7.57214C8.53386 7.55085 8.53031 7.52956 8.53031 7.50827C8.53031 7.50472 8.53031 7.50472 8.53031 7.50117V7.48343C8.52676 7.46923 8.52676 7.45504 8.52676 7.44085C8.51966 7.38053 8.51611 7.31665 8.51611 7.25633C8.51611 7.19601 8.51966 7.13214 8.52676 7.07182C8.52676 7.05762 8.52676 7.04343 8.53031 7.02924V7.01149C8.53031 7.00794 8.53031 7.00795 8.53031 7.0044C8.53031 6.98311 8.53386 6.96182 8.5374 6.94053C8.5445 6.87665 8.55515 6.81633 8.56579 6.75601C8.57644 6.69924 8.59063 6.64601 8.60837 6.58924C8.60837 6.58214 8.61192 6.57149 8.61547 6.5644C8.61902 6.53956 8.62611 6.51117 8.63676 6.48633C8.65805 6.41891 8.68289 6.35149 8.71127 6.28762C8.74321 6.21311 8.77869 6.14214 8.81418 6.07117C8.84966 6.01085 8.88515 5.94698 8.92418 5.8902C8.92773 5.88665 8.93127 5.87956 8.93482 5.87601C8.93837 5.86891 8.94192 5.86182 8.94902 5.85472C8.98805 5.7944 9.03418 5.73407 9.08385 5.6773C9.13353 5.61698 9.18676 5.55665 9.24353 5.49988C9.30031 5.44311 9.36063 5.38988 9.42095 5.3402C9.47773 5.29053 9.53805 5.2444 9.59837 5.20536C9.60547 5.19827 9.61257 5.19472 9.61966 5.19117C9.62321 5.18762 9.63031 5.18407 9.63386 5.18053C9.69063 5.14149 9.7545 5.10601 9.81482 5.07053C9.88579 5.03504 9.95676 4.99956 10.0313 4.96762C10.0951 4.93923 10.1626 4.9144 10.23 4.89311C10.2548 4.88246 10.2832 4.87536 10.308 4.87182C10.3151 4.86827 10.3258 4.86472 10.3329 4.86472C10.3897 4.84698 10.4429 4.83278 10.4997 4.82214C10.56 4.81149 10.6203 4.80085 10.6842 4.79375C10.7055 4.7902 10.7268 4.78665 10.748 4.78665C10.7516 4.78665 10.7516 4.78665 10.7551 4.78665H10.7729C10.7871 4.78311 10.8013 4.78311 10.8155 4.78311C10.8758 4.77601 10.9397 4.77246 11 4.77246C11.0603 4.77246 11.1242 4.77601 11.1845 4.78311C11.1987 4.78311 11.2129 4.78311 11.2271 4.78665H11.2448C11.2484 4.78665 11.2484 4.78665 11.2519 4.78665C11.2732 4.78665 11.2945 4.7902 11.3158 4.79375C11.3797 4.80085 11.44 4.81149 11.5003 4.82214C11.5571 4.83278 11.6103 4.84698 11.6671 4.86472C11.6745 4.86472 11.6848 4.86827 11.6919 4.87182C11.7164 4.87536 11.7448 4.88246 11.77 4.89311C11.8374 4.9144 11.9048 4.93923 11.969 4.96762C12.0436 4.99956 12.1142 5.03504 12.1851 5.07053C12.2455 5.10601 12.3097 5.14149 12.3661 5.18053C12.37 5.18407 12.3768 5.18762 12.3803 5.19117C12.3878 5.19472 12.3945 5.19827 12.402 5.20536C12.4623 5.2444 12.5226 5.29053 12.5794 5.3402C12.6397 5.38988 12.7 5.44311 12.7568 5.49988C12.8136 5.55665 12.8668 5.61698 12.9165 5.6773C12.9661 5.73407 13.0123 5.7944 13.0513 5.85472C13.0584 5.86182 13.0616 5.86891 13.0655 5.87601C13.069 5.87956 13.0726 5.88665 13.0758 5.8902C13.1148 5.94698 13.1503 6.01085 13.1861 6.07117C13.2216 6.14214 13.2571 6.21311 13.289 6.28762C13.3174 6.35149 13.3419 6.41891 13.3636 6.48633C13.3742 6.51117 13.3813 6.53956 13.3849 6.5644C13.3888 6.57149 13.3923 6.58214 13.3923 6.58924C13.41 6.64601 13.4242 6.69924 13.4349 6.75601C13.4452 6.81633 13.4562 6.87665 13.4633 6.94053C13.4668 6.96182 13.4704 6.98311 13.4704 7.0044C13.4704 7.00795 13.4704 7.00794 13.4704 7.01149V7.02924C13.4739 7.04343 13.4739 7.05762 13.4739 7.07182C13.4803 7.13214 13.4839 7.19601 13.4839 7.25633Z" fill="white"/>
<path d="M13.9677 7.48387C13.9677 7.54419 13.9642 7.60806 13.9571 7.66839C13.9571 7.68258 13.9571 7.69677 13.9535 7.71097V7.72871C13.9535 7.73226 13.9535 7.73226 13.9535 7.73581C13.9535 7.7571 13.95 7.77839 13.9465 7.79968C13.939 7.86355 13.9284 7.92387 13.9181 7.98419C13.9039 8.05161 13.8858 8.11903 13.868 8.1829C13.8609 8.20774 13.8538 8.22903 13.8467 8.25387C13.8251 8.32129 13.8006 8.38871 13.7722 8.45258C13.7403 8.5271 13.7048 8.59806 13.6693 8.66903C13.6335 8.72935 13.5984 8.79323 13.559 8.85C13.5554 8.85355 13.5519 8.86064 13.5487 8.86419C13.5448 8.87129 13.5412 8.87839 13.5345 8.88548C13.4955 8.94581 13.4493 9.00613 13.3996 9.0629C13.3496 9.12323 13.2967 9.18355 13.24 9.24032C13.1832 9.2971 13.1229 9.35032 13.0625 9.4C13.0058 9.44968 12.9455 9.49581 12.8851 9.53484C12.8777 9.54194 12.8709 9.54548 12.8635 9.54903C12.8599 9.55258 12.8532 9.55613 12.8493 9.55968C12.7929 9.59871 12.7286 9.63419 12.6683 9.66968C12.5299 9.74419 12.3845 9.80452 12.2322 9.85419C12.2216 9.85774 12.2106 9.86129 12.1999 9.86484C12.1396 9.88258 12.0757 9.89677 12.0122 9.91097C12.0048 9.91097 12.0016 9.91452 11.9945 9.91452C11.9838 9.91806 11.9764 9.92161 11.9661 9.92161C11.8916 9.93581 11.8171 9.94645 11.739 9.95355C11.6577 9.96419 11.569 9.96774 11.4839 9.96774C11.3987 9.96774 11.31 9.96419 11.2284 9.95355C11.1503 9.94645 11.0758 9.93581 11.0013 9.92161C10.9906 9.92161 10.9835 9.91806 10.9729 9.91452C10.9658 9.91452 10.9623 9.91097 10.9552 9.91097C10.8913 9.89677 10.8274 9.88258 10.7671 9.86484C10.7565 9.86129 10.7458 9.85774 10.7352 9.85419C10.5826 9.80452 10.4371 9.74419 10.2987 9.66968C10.2384 9.63419 10.1745 9.59871 10.1177 9.55968C10.1142 9.55613 10.1071 9.55258 10.1035 9.54903C10.0965 9.54548 10.0894 9.54194 10.0823 9.53484C10.0219 9.49581 9.96161 9.44968 9.90484 9.4C9.84452 9.35032 9.78419 9.2971 9.72742 9.24032C9.67064 9.18355 9.61742 9.12323 9.56774 9.0629C9.51806 9.00613 9.47194 8.94581 9.4329 8.88548C9.42581 8.87839 9.42226 8.87129 9.41871 8.86419C9.41516 8.86064 9.41161 8.85355 9.40807 8.85C9.36903 8.79323 9.33355 8.72935 9.29806 8.66903C9.26258 8.59806 9.2271 8.5271 9.19516 8.45258C9.16677 8.38871 9.14194 8.32129 9.12065 8.25387C9.11355 8.22903 9.10645 8.20774 9.09935 8.1829C9.08161 8.11903 9.06387 8.05161 9.04968 7.98419C9.03903 7.92387 9.02839 7.86355 9.02129 7.79968C9.01774 7.77839 9.01419 7.7571 9.01419 7.73581C9.01419 7.73226 9.01419 7.73226 9.01419 7.72871V7.71097C9.01065 7.69677 9.01064 7.68258 9.01064 7.66839C9.00355 7.60806 9 7.54419 9 7.48387C9 7.42355 9.00355 7.35968 9.01064 7.29935C9.01064 7.28516 9.01065 7.27097 9.01419 7.25677V7.23903C9.01419 7.23548 9.01419 7.23548 9.01419 7.23194C9.01419 7.21065 9.01774 7.18935 9.02129 7.16806C9.02839 7.10419 9.03903 7.04387 9.04968 6.98355C9.06032 6.92677 9.07452 6.87355 9.09226 6.81677C9.09226 6.80968 9.09581 6.79903 9.09935 6.79194C9.1029 6.7671 9.11 6.73871 9.12065 6.71387C9.14194 6.64645 9.16677 6.57903 9.19516 6.51516C9.2271 6.44065 9.26258 6.36968 9.29806 6.29871C9.33355 6.23839 9.36903 6.17452 9.40807 6.11774C9.41161 6.11419 9.41516 6.1071 9.41871 6.10355C9.42226 6.09645 9.42581 6.08935 9.4329 6.08226C9.47194 6.02194 9.51806 5.96161 9.56774 5.90484C9.61742 5.84452 9.67064 5.78419 9.72742 5.72742C9.78419 5.67064 9.84452 5.61742 9.90484 5.56774C9.96161 5.51806 10.0219 5.47194 10.0823 5.4329C10.0894 5.42581 10.0965 5.42226 10.1035 5.41871C10.1071 5.41516 10.1142 5.41161 10.1177 5.40806C10.1745 5.36903 10.2384 5.33355 10.2987 5.29806C10.3697 5.26258 10.4406 5.2271 10.5152 5.19516C10.579 5.16677 10.6465 5.14194 10.7139 5.12065C10.7387 5.11 10.7671 5.1029 10.7919 5.09936C10.799 5.09581 10.8097 5.09226 10.8168 5.09226C10.8735 5.07452 10.9268 5.06032 10.9835 5.04968C11.0439 5.03903 11.1042 5.02839 11.1681 5.02129C11.1894 5.01774 11.2106 5.01419 11.2319 5.01419C11.2355 5.01419 11.2355 5.01419 11.239 5.01419H11.2568C11.271 5.01065 11.2852 5.01065 11.2994 5.01065C11.3597 5.00355 11.4235 5 11.4839 5C11.5442 5 11.6081 5.00355 11.6684 5.01065C11.6826 5.01065 11.6968 5.01065 11.711 5.01419H11.7287C11.7323 5.01419 11.7323 5.01419 11.7358 5.01419C11.7571 5.01419 11.7784 5.01774 11.7997 5.02129C11.8635 5.02839 11.9239 5.03903 11.9842 5.04968C12.041 5.06032 12.0942 5.07452 12.151 5.09226C12.1584 5.09226 12.1687 5.09581 12.1758 5.09936C12.2003 5.1029 12.2287 5.11 12.2539 5.12065C12.3213 5.14194 12.3887 5.16677 12.4529 5.19516C12.5275 5.2271 12.5981 5.26258 12.669 5.29806C12.7294 5.33355 12.7936 5.36903 12.85 5.40806C12.8539 5.41161 12.8606 5.41516 12.8642 5.41871C12.8716 5.42226 12.8784 5.42581 12.8858 5.4329C12.9462 5.47194 13.0065 5.51806 13.0633 5.56774C13.1236 5.61742 13.1839 5.67064 13.2407 5.72742C13.2975 5.78419 13.3507 5.84452 13.4004 5.90484C13.45 5.96161 13.4962 6.02194 13.5352 6.08226C13.5423 6.08935 13.5455 6.09645 13.5494 6.10355C13.5529 6.1071 13.5565 6.11419 13.5597 6.11774C13.5987 6.17452 13.6342 6.23839 13.67 6.29871C13.7055 6.36968 13.741 6.44065 13.7729 6.51516C13.8013 6.57903 13.8258 6.64645 13.8475 6.71387C13.8581 6.73871 13.8652 6.7671 13.8687 6.79194C13.8726 6.79903 13.8762 6.80968 13.8762 6.81677C13.8939 6.87355 13.9081 6.92677 13.9188 6.98355C13.9291 7.04387 13.9401 7.10419 13.9472 7.16806C13.9507 7.18935 13.9543 7.21065 13.9543 7.23194C13.9543 7.23548 13.9543 7.23548 13.9543 7.23903V7.25677C13.9578 7.27097 13.9578 7.28516 13.9578 7.29935C13.9642 7.35968 13.9677 7.42355 13.9677 7.48387Z" fill="black"/>
</svg>






