<svg width="40" height="40" viewBox="0 0 40 40" fill="none" xmlns="http://www.w3.org/2000/svg">
<path d="M26.0048 30.5879L23.4627 22.5508L23.412 22.3937L23.3436 22.1782L23.1889 21.6888L22.3703 19.101L22.0664 18.1379L22.0002 17.93L21.9952 17.9148L21.7595 17.1671L21.4528 16.2015L21.1461 15.2361L20.8422 14.2704C20.5783 14.354 20.2945 14.3996 20.0005 14.3996C19.7065 14.3996 19.4226 14.354 19.159 14.2704L18.8548 15.2361L18.2415 17.1674L18.0058 17.9151L18.0007 17.9303L17.9348 18.1381L17.6307 19.1013L16.812 21.689L16.6574 22.1785L16.5889 22.3939L16.5383 22.5511L13.9961 30.5882L13.6641 31.6347H26.3369L26.0048 30.5879ZM22.6542 23.3593L24.4512 29.0345L20.7152 25.2983L22.6542 23.3593ZM21.1917 18.7388L21.3843 19.3446L21.6353 20.1354L20.7152 19.2153L21.1917 18.7388ZM19.235 17.3879L19.5468 16.4045L19.8611 15.4109L20.0005 14.9725L20.1399 15.4109L20.4542 16.4045L20.7657 17.3879L20.8493 17.6515L20.0484 18.4524L20.0005 18.5006L19.1514 17.6515L19.235 17.3879ZM18.6166 19.3446L18.8092 18.7388L19.2857 19.2153L19.0855 19.4155L18.3657 20.1354L18.6166 19.3446ZM17.7042 22.2264L20.0005 19.9301L22.3272 22.2568L20.0005 24.5835L17.6889 22.272L17.6737 22.2568L17.7042 22.2264ZM17.3468 23.3593L19.2857 25.2983L15.5498 29.0342L17.3468 23.3593ZM15.3926 30.6208L20.0005 26.013L24.6083 30.6208H15.3926Z" fill="#333333"/>
<path d="M23.0223 9.3053L22.2974 10.0302C22.6066 10.4788 22.7891 11.0237 22.7891 11.6117C22.7891 12.1998 22.6066 12.7447 22.2974 13.1933L23.0223 13.9182C23.5114 13.277 23.8029 12.4786 23.8029 11.6117C23.8029 10.7449 23.5114 9.94654 23.0223 9.3053ZM17.7047 10.0302L16.9799 9.3053C16.4907 9.94654 16.1992 10.7449 16.1992 11.6117C16.1992 12.4786 16.4907 13.277 16.9799 13.9182L17.7047 13.1933C17.3955 12.7447 17.213 12.1998 17.213 11.6117C17.213 11.0237 17.3955 10.4788 17.7047 10.0302Z" fill="#333333"/>
<path d="M16.2578 8.58276L15.5405 7.86548C14.6864 8.8793 14.1719 10.1871 14.1719 11.6116C14.1719 13.036 14.6864 14.3438 15.5405 15.3576L16.2578 14.6404C15.5887 13.8141 15.1857 12.7597 15.1857 11.6116C15.1857 10.4634 15.5887 9.40903 16.2578 8.58276ZM24.4622 7.86548L23.7449 8.58276C24.414 9.40903 24.817 10.4634 24.817 11.6116C24.817 12.7597 24.414 13.8141 23.7449 14.6404L24.4622 15.3576C25.3163 14.3438 25.8309 13.036 25.8309 11.6116C25.8309 10.1871 25.3163 8.8793 24.4622 7.86548Z" fill="#333333"/>
<path d="M14.821 7.14587L14.1037 6.42859C12.8846 7.81246 12.1445 9.62974 12.1445 11.6118C12.1445 13.5938 12.8846 15.4111 14.1037 16.7949L14.821 16.0777C13.7819 14.8788 13.1584 13.3201 13.1584 11.6118C13.1584 9.90347 13.7819 8.34472 14.821 7.14587ZM25.8996 6.42859L25.1823 7.14587C26.2215 8.34472 26.845 9.90347 26.845 11.6118C26.845 13.3201 26.2215 14.8788 25.1823 16.0777L25.8993 16.7949C27.1187 15.4111 27.8588 13.5938 27.8588 11.6118C27.8588 9.62974 27.1187 7.81246 25.8996 6.42859Z" fill="#333333"/>
<path d="M21.7749 11.6117C21.7749 11.6548 21.7724 11.7004 21.7673 11.7435C21.7673 11.7537 21.7673 11.7638 21.7648 11.7739V11.7866C21.7648 11.7891 21.7648 11.7891 21.7648 11.7917C21.7648 11.8069 21.7623 11.8221 21.7597 11.8373C21.7544 11.8829 21.7468 11.926 21.7395 11.9691C21.7293 12.0172 21.7164 12.0654 21.7037 12.111C21.6987 12.1288 21.6936 12.144 21.6885 12.1617C21.6731 12.2099 21.6556 12.258 21.6353 12.3037C21.6125 12.3569 21.5871 12.4076 21.5618 12.4583C21.5362 12.5013 21.5111 12.547 21.483 12.5875C21.4804 12.5901 21.4779 12.5951 21.4756 12.5977C21.4728 12.6027 21.4703 12.6078 21.4655 12.6129C21.4376 12.656 21.4046 12.699 21.3692 12.7396C21.3334 12.7827 21.2957 12.8258 21.2551 12.8663C21.2146 12.9069 21.1715 12.9449 21.1284 12.9804C21.0878 13.0159 21.0447 13.0488 21.0017 13.0767C20.9963 13.0818 20.9915 13.0843 20.9862 13.0868C20.9837 13.0894 20.9788 13.0919 20.9761 13.0944C20.9358 13.1223 20.8899 13.1477 20.8468 13.173C20.7479 13.2262 20.644 13.2693 20.5353 13.3048C20.5277 13.3073 20.5198 13.3099 20.5122 13.3124C20.4691 13.3251 20.4235 13.3352 20.3782 13.3454C20.3728 13.3454 20.3705 13.3479 20.3655 13.3479C20.3579 13.3504 20.3526 13.353 20.3452 13.353C20.292 13.3631 20.2388 13.3707 20.183 13.3758C20.1249 13.3834 20.0616 13.3859 20.0008 13.3859C19.9399 13.3859 19.8766 13.3834 19.8183 13.3758C19.7625 13.3707 19.7093 13.3631 19.6561 13.353C19.6485 13.353 19.6434 13.3504 19.6358 13.3479C19.6307 13.3479 19.6282 13.3454 19.6231 13.3454C19.5775 13.3352 19.5319 13.3251 19.4888 13.3124C19.4812 13.3099 19.4736 13.3073 19.466 13.3048C19.357 13.2693 19.2531 13.2262 19.1542 13.173C19.1111 13.1477 19.0655 13.1223 19.0249 13.0944C19.0224 13.0919 19.0173 13.0894 19.0148 13.0868C19.0097 13.0843 19.0047 13.0818 18.9996 13.0767C18.9565 13.0488 18.9134 13.0159 18.8729 12.9804C18.8298 12.9449 18.7867 12.9069 18.7461 12.8663C18.7056 12.8258 18.6676 12.7827 18.6321 12.7396C18.5966 12.699 18.5637 12.656 18.5358 12.6129C18.5307 12.6078 18.5282 12.6027 18.5256 12.5977C18.5231 12.5951 18.5206 12.5901 18.518 12.5875C18.4902 12.547 18.4648 12.5013 18.4395 12.4583C18.4141 12.4076 18.3888 12.3569 18.366 12.3037C18.3457 12.258 18.3279 12.2099 18.3127 12.1617C18.3077 12.144 18.3026 12.1288 18.2975 12.111C18.2849 12.0654 18.2722 12.0172 18.262 11.9691C18.2544 11.926 18.2468 11.8829 18.2418 11.8373C18.2392 11.8221 18.2367 11.8069 18.2367 11.7917C18.2367 11.7891 18.2367 11.7891 18.2367 11.7866V11.7739C18.2342 11.7638 18.2342 11.7537 18.2342 11.7435C18.2291 11.7004 18.2266 11.6548 18.2266 11.6117C18.2266 11.5686 18.2291 11.523 18.2342 11.4799C18.2342 11.4698 18.2342 11.4596 18.2367 11.4495V11.4368C18.2367 11.4343 18.2367 11.4343 18.2367 11.4318C18.2367 11.4166 18.2392 11.4013 18.2418 11.3861C18.2468 11.3405 18.2544 11.2974 18.262 11.2543C18.2696 11.2138 18.2798 11.1758 18.2925 11.1352C18.2925 11.1302 18.295 11.1225 18.2975 11.1175C18.3001 11.0997 18.3051 11.0795 18.3127 11.0617C18.3279 11.0136 18.3457 10.9654 18.366 10.9198C18.3888 10.8666 18.4141 10.8159 18.4395 10.7652C18.4648 10.7221 18.4902 10.6765 18.518 10.6359C18.5206 10.6334 18.5231 10.6283 18.5256 10.6258C18.5282 10.6207 18.5307 10.6156 18.5358 10.6106C18.5637 10.5675 18.5966 10.5244 18.6321 10.4838C18.6676 10.4408 18.7056 10.3977 18.7461 10.3571C18.7867 10.3166 18.8298 10.2785 18.8729 10.2431C18.9134 10.2076 18.9565 10.1746 18.9996 10.1467C19.0047 10.1417 19.0097 10.1391 19.0148 10.1366C19.0173 10.1341 19.0224 10.1315 19.0249 10.129C19.0655 10.1011 19.1111 10.0758 19.1542 10.0504C19.2049 10.0251 19.2556 9.99974 19.3088 9.97693C19.3544 9.95665 19.4026 9.93891 19.4508 9.9237C19.4685 9.9161 19.4888 9.91103 19.5065 9.90849C19.5116 9.90596 19.5192 9.90342 19.5243 9.90342C19.5648 9.89075 19.6028 9.88061 19.6434 9.87301C19.6865 9.8654 19.7296 9.8578 19.7752 9.85273C19.7904 9.8502 19.8056 9.84766 19.8208 9.84766C19.8233 9.84766 19.8233 9.84766 19.8259 9.84766H19.8385C19.8487 9.84513 19.8588 9.84513 19.869 9.84513C19.912 9.84006 19.9577 9.83752 20.0008 9.83752C20.0438 9.83752 20.0895 9.84006 20.1326 9.84513C20.1427 9.84513 20.1528 9.84513 20.163 9.84766H20.1756C20.1782 9.84766 20.1782 9.84766 20.1807 9.84766C20.1959 9.84766 20.2111 9.8502 20.2263 9.85273C20.272 9.8578 20.315 9.8654 20.3581 9.87301C20.3987 9.88061 20.4367 9.89075 20.4773 9.90342C20.4826 9.90342 20.4899 9.90596 20.495 9.90849C20.5125 9.91103 20.5328 9.9161 20.5508 9.9237C20.5989 9.93891 20.6471 9.95665 20.6929 9.97693C20.7462 9.99974 20.7966 10.0251 20.8473 10.0504C20.8904 10.0758 20.9363 10.1011 20.9766 10.129C20.9793 10.1315 20.9842 10.1341 20.9867 10.1366C20.992 10.1391 20.9968 10.1417 21.0022 10.1467C21.0452 10.1746 21.0883 10.2076 21.1289 10.2431C21.172 10.2785 21.2151 10.3166 21.2556 10.3571C21.2962 10.3977 21.3342 10.4408 21.3697 10.4838C21.4052 10.5244 21.4381 10.5675 21.466 10.6106C21.4711 10.6156 21.4733 10.6207 21.4761 10.6258C21.4787 10.6283 21.4812 10.6334 21.4835 10.6359C21.5114 10.6765 21.5367 10.7221 21.5623 10.7652C21.5876 10.8159 21.613 10.8666 21.6358 10.9198C21.6561 10.9654 21.6736 11.0136 21.689 11.0617C21.6966 11.0795 21.7017 11.0997 21.7042 11.1175C21.707 11.1225 21.7096 11.1302 21.7096 11.1352C21.7222 11.1758 21.7324 11.2138 21.74 11.2543C21.7473 11.2974 21.7552 11.3405 21.7602 11.3861C21.7628 11.4013 21.7653 11.4166 21.7653 11.4318C21.7653 11.4343 21.7653 11.4343 21.7653 11.4368V11.4495C21.7679 11.4596 21.7679 11.4698 21.7679 11.4799C21.7724 11.523 21.7749 11.5686 21.7749 11.6117Z" fill="#333333"/>
</svg>
