
<svg width="56" height="56" viewBox="0 0 56 56" fill="none" xmlns="http://www.w3.org/2000/svg">
<path d="M0 28.0014C0 43.4642 12.5358 56 28.0014 56C43.4642 56 56 43.4642 56 28.0014C56 12.5386 43.4642 0 28.0014 0C12.5386 0 0 12.5358 0 28.0014Z" fill="#0174FF"/>
<path d="M0 28.0014C0 43.4642 12.5358 56 28.0014 56C43.4642 56 56 43.4642 56 28.0014C56 12.5386 43.4642 0 28.0014 0C12.5386 0 0 12.5358 0 28.0014Z" fill="url(#paint0_linear_0_1)" style="mix-blend-mode:soft-light"/>
<path d="M28.0014 55.5333C12.7935 55.5333 0.466667 43.2064 0.466667 28.0014C0.466667 12.7936 12.7963 0.466667 28.0014 0.466667C43.2064 0.466667 55.5333 12.7963 55.5333 28.0014C55.5333 43.2065 43.2065 55.5333 28.0014 55.5333Z" stroke="url(#paint1_linear_0_1)" stroke-opacity="0.8" stroke-width="0.933333" style="mix-blend-mode:soft-light"/>
<path d="M36.407 42.823L32.8479 31.5711L32.777 31.3511L32.6812 31.0495L32.4647 30.3643L31.3186 26.7414L30.8931 25.393L30.8005 25.102L30.7934 25.0807L30.4634 24.034L30.0341 22.682L29.6047 21.3305L29.1793 19.9785C28.8099 20.0956 28.4125 20.1595 28.0008 20.1595C27.5892 20.1595 27.1918 20.0956 26.8228 19.9785L26.397 21.3305L25.5383 24.0343L25.2083 25.0811L25.2012 25.1024L25.1089 25.3934L24.6831 26.7417L23.537 30.3646L23.3205 31.0498L23.2247 31.3514L23.1538 31.5715L19.5947 42.8234L19.1299 44.2885H36.8718L36.407 42.823ZM31.716 32.703L34.2318 40.6482L29.0015 35.4175L31.716 32.703ZM29.6686 26.2343L29.9383 27.0824L30.2896 28.1895L29.0015 26.9014L29.6686 26.2343ZM26.9292 24.343L27.3657 22.9663L27.8057 21.5753L28.0008 20.9614L28.196 21.5753L28.636 22.9663L29.0721 24.343L29.1892 24.7121L28.0679 25.8334L28.0008 25.9008L26.8121 24.7121L26.9292 24.343ZM26.0634 27.0824L26.3331 26.2343L27.0002 26.9014L26.7199 27.1817L25.7121 28.1895L26.0634 27.0824ZM24.786 31.1169L28.0008 27.9021L31.2583 31.1595L28.0008 34.4169L24.7647 31.1808L24.7434 31.1595L24.786 31.1169ZM24.2857 32.703L27.0002 35.4175L21.7699 40.6479L24.2857 32.703ZM21.5499 42.8692L28.0008 36.4182L34.4518 42.8692H21.5499Z" fill="white"/>
<path d="M32.2295 13.0273L31.2147 14.0422C31.6476 14.6702 31.9031 15.4332 31.9031 16.2564C31.9031 17.0796 31.6476 17.8425 31.2147 18.4706L32.2295 19.4854C32.9143 18.5877 33.3224 17.4699 33.3224 16.2564C33.3224 15.0428 32.9143 13.9251 32.2295 13.0273ZM24.785 14.0422L23.7701 13.0273C23.0853 13.9251 22.6772 15.0428 22.6772 16.2564C22.6772 17.4699 23.0853 18.5877 23.7701 19.4854L24.785 18.4706C24.3521 17.8425 24.0966 17.0796 24.0966 16.2564C24.0966 15.4332 24.3521 14.6702 24.785 14.0422Z" fill="white"/>
<path d="M22.7592 12.0159L21.755 11.0117C20.5592 12.4311 19.8389 14.262 19.8389 16.2562C19.8389 18.2504 20.5592 20.0814 21.755 21.5007L22.7592 20.4966C21.8224 19.3398 21.2582 17.8637 21.2582 16.2562C21.2582 14.6488 21.8224 13.1727 22.7592 12.0159ZM34.2453 11.0117L33.2411 12.0159C34.1779 13.1727 34.7421 14.6488 34.7421 16.2562C34.7421 17.8637 34.1779 19.3398 33.2411 20.4966L34.2453 21.5007C35.4411 20.0814 36.1614 18.2504 36.1614 16.2562C36.1614 14.262 35.4411 12.4311 34.2453 11.0117Z" fill="white"/>
<path d="M20.7471 10.0042L19.7429 9C18.0361 10.9374 17 13.4816 17 16.2565C17 19.0313 18.0361 21.5755 19.7429 23.5129L20.7471 22.5087C19.2923 20.8303 18.4194 18.6481 18.4194 16.2565C18.4194 13.8648 19.2923 11.6826 20.7471 10.0042ZM36.2571 9L35.2529 10.0042C36.7077 11.6826 37.5806 13.8648 37.5806 16.2565C37.5806 18.6481 36.7077 20.8303 35.2529 22.5087L36.2567 23.5129C37.9639 21.5755 39 19.0313 39 16.2565C39 13.4816 37.9639 10.9374 36.2571 9Z" fill="white"/>
<path d="M30.4839 16.2563C30.4839 16.3167 30.4803 16.3805 30.4732 16.4408C30.4732 16.455 30.4732 16.4692 30.4697 16.4834V16.5012C30.4697 16.5047 30.4697 16.5047 30.4697 16.5083C30.4697 16.5296 30.4661 16.5508 30.4626 16.5721C30.4551 16.636 30.4445 16.6963 30.4342 16.7567C30.42 16.8241 30.4019 16.8915 30.3841 16.9554C30.377 16.9802 30.37 17.0015 30.3629 17.0263C30.3412 17.0938 30.3167 17.1612 30.2883 17.225C30.2564 17.2996 30.2209 17.3705 30.1854 17.4415C30.1496 17.5018 30.1145 17.5657 30.0751 17.6225C30.0715 17.626 30.068 17.6331 30.0648 17.6367C30.0609 17.6438 30.0573 17.6508 30.0506 17.6579C30.0116 17.7183 29.9654 17.7786 29.9158 17.8354C29.8657 17.8957 29.8129 17.956 29.7561 18.0128C29.6993 18.0696 29.639 18.1228 29.5787 18.1725C29.5219 18.2221 29.4616 18.2683 29.4012 18.3073C29.3938 18.3144 29.387 18.3179 29.3796 18.3215C29.376 18.325 29.3693 18.3286 29.3654 18.3321C29.309 18.3712 29.2448 18.4067 29.1844 18.4421C29.046 18.5167 28.9006 18.577 28.7483 18.6267C28.7377 18.6302 28.7267 18.6338 28.716 18.6373C28.6557 18.655 28.5919 18.6692 28.5283 18.6834C28.5209 18.6834 28.5177 18.687 28.5106 18.687C28.5 18.6905 28.4925 18.6941 28.4822 18.6941C28.4077 18.7083 28.3332 18.7189 28.2551 18.726C28.1739 18.7367 28.0851 18.7402 28 18.7402C27.9148 18.7402 27.8261 18.7367 27.7445 18.726C27.6664 18.7189 27.5919 18.7083 27.5174 18.6941C27.5068 18.6941 27.4997 18.6905 27.489 18.687C27.4819 18.687 27.4784 18.6834 27.4713 18.6834C27.4074 18.6692 27.3435 18.655 27.2832 18.6373C27.2726 18.6338 27.2619 18.6302 27.2513 18.6267C27.0987 18.577 26.9532 18.5167 26.8148 18.4421C26.7545 18.4067 26.6906 18.3712 26.6339 18.3321C26.6303 18.3286 26.6232 18.325 26.6197 18.3215C26.6126 18.3179 26.6055 18.3144 26.5984 18.3073C26.538 18.2683 26.4777 18.2221 26.421 18.1725C26.3606 18.1228 26.3003 18.0696 26.2435 18.0128C26.1868 17.956 26.1335 17.8957 26.0839 17.8354C26.0342 17.7786 25.988 17.7183 25.949 17.6579C25.9419 17.6508 25.9384 17.6438 25.9348 17.6367C25.9313 17.6331 25.9277 17.626 25.9242 17.6225C25.8851 17.5657 25.8497 17.5018 25.8142 17.4415C25.7787 17.3705 25.7432 17.2996 25.7113 17.225C25.6829 17.1612 25.658 17.0938 25.6368 17.0263C25.6297 17.0015 25.6226 16.9802 25.6155 16.9554C25.5977 16.8915 25.58 16.8241 25.5658 16.7567C25.5551 16.6963 25.5445 16.636 25.5374 16.5721C25.5339 16.5508 25.5303 16.5296 25.5303 16.5083C25.5303 16.5047 25.5303 16.5047 25.5303 16.5012V16.4834C25.5268 16.4692 25.5268 16.455 25.5268 16.4408C25.5197 16.3805 25.5161 16.3167 25.5161 16.2563C25.5161 16.196 25.5197 16.1321 25.5268 16.0718C25.5268 16.0576 25.5268 16.0434 25.5303 16.0292V16.0115C25.5303 16.0079 25.5303 16.0079 25.5303 16.0044C25.5303 15.9831 25.5339 15.9618 25.5374 15.9405C25.5445 15.8767 25.5551 15.8163 25.5658 15.756C25.5764 15.6992 25.5906 15.646 25.6084 15.5892C25.6084 15.5821 25.6119 15.5715 25.6155 15.5644C25.619 15.5396 25.6261 15.5112 25.6368 15.4863C25.658 15.4189 25.6829 15.3515 25.7113 15.2876C25.7432 15.2131 25.7787 15.1421 25.8142 15.0712C25.8497 15.0108 25.8851 14.947 25.9242 14.8902C25.9277 14.8867 25.9313 14.8796 25.9348 14.876C25.9384 14.8689 25.9419 14.8618 25.949 14.8547C25.988 14.7944 26.0342 14.7341 26.0839 14.6773C26.1335 14.617 26.1868 14.5567 26.2435 14.4999C26.3003 14.4431 26.3606 14.3899 26.421 14.3402C26.4777 14.2905 26.538 14.2444 26.5984 14.2054C26.6055 14.1983 26.6126 14.1947 26.6197 14.1912C26.6232 14.1876 26.6303 14.1841 26.6339 14.1805C26.6906 14.1415 26.7545 14.106 26.8148 14.0705C26.8858 14.035 26.9568 13.9996 27.0313 13.9676C27.0951 13.9392 27.1626 13.9144 27.23 13.8931C27.2548 13.8825 27.2832 13.8754 27.308 13.8718C27.3151 13.8683 27.3258 13.8647 27.3329 13.8647C27.3897 13.847 27.4429 13.8328 27.4997 13.8221C27.56 13.8115 27.6203 13.8008 27.6842 13.7938C27.7055 13.7902 27.7268 13.7867 27.748 13.7867C27.7516 13.7867 27.7516 13.7867 27.7551 13.7867H27.7729C27.7871 13.7831 27.8013 13.7831 27.8155 13.7831C27.8758 13.776 27.9397 13.7725 28 13.7725C28.0603 13.7725 28.1242 13.776 28.1845 13.7831C28.1987 13.7831 28.2129 13.7831 28.2271 13.7867H28.2448C28.2484 13.7867 28.2484 13.7867 28.2519 13.7867C28.2732 13.7867 28.2945 13.7902 28.3158 13.7938C28.3797 13.8008 28.44 13.8115 28.5003 13.8221C28.5571 13.8328 28.6103 13.847 28.6671 13.8647C28.6745 13.8647 28.6848 13.8683 28.6919 13.8718C28.7164 13.8754 28.7448 13.8825 28.77 13.8931C28.8374 13.9144 28.9048 13.9392 28.969 13.9676C29.0436 13.9996 29.1142 14.035 29.1851 14.0705C29.2455 14.106 29.3097 14.1415 29.3661 14.1805C29.37 14.1841 29.3768 14.1876 29.3803 14.1912C29.3878 14.1947 29.3945 14.1983 29.402 14.2054C29.4623 14.2444 29.5226 14.2905 29.5794 14.3402C29.6397 14.3899 29.7 14.4431 29.7568 14.4999C29.8136 14.5567 29.8668 14.617 29.9165 14.6773C29.9661 14.7341 30.0123 14.7944 30.0513 14.8547C30.0584 14.8618 30.0616 14.8689 30.0655 14.876C30.069 14.8796 30.0726 14.8867 30.0758 14.8902C30.1148 14.947 30.1503 15.0108 30.1861 15.0712C30.2216 15.1421 30.2571 15.2131 30.289 15.2876C30.3174 15.3515 30.3419 15.4189 30.3636 15.4863C30.3742 15.5112 30.3813 15.5396 30.3849 15.5644C30.3888 15.5715 30.3923 15.5821 30.3923 15.5892C30.41 15.646 30.4242 15.6992 30.4349 15.756C30.4452 15.8163 30.4562 15.8767 30.4633 15.9405C30.4668 15.9618 30.4704 15.9831 30.4704 16.0044C30.4704 16.0079 30.4704 16.0079 30.4704 16.0115V16.0292C30.4739 16.0434 30.4739 16.0576 30.4739 16.0718C30.4803 16.1321 30.4839 16.196 30.4839 16.2563Z" fill="white"/>
<path d="M30.9677 16.4839C30.9677 16.5442 30.9642 16.6081 30.9571 16.6684C30.9571 16.6826 30.9571 16.6968 30.9535 16.711V16.7287C30.9535 16.7323 30.9535 16.7323 30.9535 16.7358C30.9535 16.7571 30.95 16.7784 30.9465 16.7997C30.939 16.8635 30.9284 16.9239 30.9181 16.9842C30.9039 17.0516 30.8858 17.119 30.868 17.1829C30.8609 17.2077 30.8538 17.229 30.8467 17.2539C30.8251 17.3213 30.8006 17.3887 30.7722 17.4526C30.7403 17.5271 30.7048 17.5981 30.6693 17.669C30.6335 17.7294 30.5984 17.7932 30.559 17.85C30.5554 17.8535 30.5519 17.8606 30.5487 17.8642C30.5448 17.8713 30.5412 17.8784 30.5345 17.8855C30.4955 17.9458 30.4493 18.0061 30.3996 18.0629C30.3496 18.1232 30.2967 18.1835 30.24 18.2403C30.1832 18.2971 30.1229 18.3503 30.0625 18.4C30.0058 18.4497 29.9455 18.4958 29.8851 18.5348C29.8777 18.5419 29.8709 18.5455 29.8635 18.549C29.8599 18.5526 29.8532 18.5561 29.8493 18.5597C29.7929 18.5987 29.7286 18.6342 29.6683 18.6697C29.5299 18.7442 29.3845 18.8045 29.2322 18.8542C29.2216 18.8577 29.2106 18.8613 29.1999 18.8648C29.1396 18.8826 29.0757 18.8968 29.0122 18.911C29.0048 18.911 29.0016 18.9145 28.9945 18.9145C28.9838 18.9181 28.9764 18.9216 28.9661 18.9216C28.8916 18.9358 28.8171 18.9465 28.739 18.9535C28.6577 18.9642 28.569 18.9677 28.4839 18.9677C28.3987 18.9677 28.31 18.9642 28.2284 18.9535C28.1503 18.9465 28.0758 18.9358 28.0013 18.9216C27.9906 18.9216 27.9835 18.9181 27.9729 18.9145C27.9658 18.9145 27.9623 18.911 27.9552 18.911C27.8913 18.8968 27.8274 18.8826 27.7671 18.8648C27.7565 18.8613 27.7458 18.8577 27.7352 18.8542C27.5826 18.8045 27.4371 18.7442 27.2987 18.6697C27.2384 18.6342 27.1745 18.5987 27.1177 18.5597C27.1142 18.5561 27.1071 18.5526 27.1035 18.549C27.0965 18.5455 27.0894 18.5419 27.0823 18.5348C27.0219 18.4958 26.9616 18.4497 26.9048 18.4C26.8445 18.3503 26.7842 18.2971 26.7274 18.2403C26.6706 18.1835 26.6174 18.1232 26.5677 18.0629C26.5181 18.0061 26.4719 17.9458 26.4329 17.8855C26.4258 17.8784 26.4223 17.8713 26.4187 17.8642C26.4152 17.8606 26.4116 17.8535 26.4081 17.85C26.369 17.7932 26.3335 17.7294 26.2981 17.669C26.2626 17.5981 26.2271 17.5271 26.1952 17.4526C26.1668 17.3887 26.1419 17.3213 26.1206 17.2539C26.1135 17.229 26.1065 17.2077 26.0994 17.1829C26.0816 17.119 26.0639 17.0516 26.0497 16.9842C26.039 16.9239 26.0284 16.8635 26.0213 16.7997C26.0177 16.7784 26.0142 16.7571 26.0142 16.7358C26.0142 16.7323 26.0142 16.7323 26.0142 16.7287V16.711C26.0106 16.6968 26.0106 16.6826 26.0106 16.6684C26.0035 16.6081 26 16.5442 26 16.4839C26 16.4235 26.0035 16.3597 26.0106 16.2994C26.0106 16.2852 26.0106 16.271 26.0142 16.2568V16.239C26.0142 16.2355 26.0142 16.2355 26.0142 16.2319C26.0142 16.2106 26.0177 16.1894 26.0213 16.1681C26.0284 16.1042 26.039 16.0439 26.0497 15.9835C26.0603 15.9268 26.0745 15.8735 26.0923 15.8168C26.0923 15.8097 26.0958 15.799 26.0994 15.7919C26.1029 15.7671 26.11 15.7387 26.1206 15.7139C26.1419 15.6465 26.1668 15.579 26.1952 15.5152C26.2271 15.4406 26.2626 15.3697 26.2981 15.2987C26.3335 15.2384 26.369 15.1745 26.4081 15.1177C26.4116 15.1142 26.4152 15.1071 26.4187 15.1035C26.4223 15.0965 26.4258 15.0894 26.4329 15.0823C26.4719 15.0219 26.5181 14.9616 26.5677 14.9048C26.6174 14.8445 26.6706 14.7842 26.7274 14.7274C26.7842 14.6706 26.8445 14.6174 26.9048 14.5677C26.9616 14.5181 27.0219 14.4719 27.0823 14.4329C27.0894 14.4258 27.0965 14.4223 27.1035 14.4187C27.1071 14.4152 27.1142 14.4116 27.1177 14.4081C27.1745 14.369 27.2384 14.3335 27.2987 14.2981C27.3697 14.2626 27.4406 14.2271 27.5152 14.1952C27.579 14.1668 27.6465 14.1419 27.7139 14.1206C27.7387 14.11 27.7671 14.1029 27.7919 14.0994C27.799 14.0958 27.8097 14.0923 27.8168 14.0923C27.8735 14.0745 27.9268 14.0603 27.9835 14.0497C28.0439 14.039 28.1042 14.0284 28.1681 14.0213C28.1894 14.0177 28.2106 14.0142 28.2319 14.0142C28.2355 14.0142 28.2355 14.0142 28.239 14.0142H28.2568C28.271 14.0106 28.2852 14.0106 28.2994 14.0106C28.3597 14.0035 28.4235 14 28.4839 14C28.5442 14 28.6081 14.0035 28.6684 14.0106C28.6826 14.0106 28.6968 14.0106 28.711 14.0142H28.7287C28.7323 14.0142 28.7323 14.0142 28.7358 14.0142C28.7571 14.0142 28.7784 14.0177 28.7997 14.0213C28.8635 14.0284 28.9239 14.039 28.9842 14.0497C29.041 14.0603 29.0942 14.0745 29.151 14.0923C29.1584 14.0923 29.1687 14.0958 29.1758 14.0994C29.2003 14.1029 29.2287 14.11 29.2539 14.1206C29.3213 14.1419 29.3887 14.1668 29.4529 14.1952C29.5275 14.2271 29.5981 14.2626 29.669 14.2981C29.7294 14.3335 29.7936 14.369 29.85 14.4081C29.8539 14.4116 29.8606 14.4152 29.8642 14.4187C29.8716 14.4223 29.8784 14.4258 29.8858 14.4329C29.9462 14.4719 30.0065 14.5181 30.0633 14.5677C30.1236 14.6174 30.1839 14.6706 30.2407 14.7274C30.2975 14.7842 30.3507 14.8445 30.4004 14.9048C30.45 14.9616 30.4962 15.0219 30.5352 15.0823C30.5423 15.0894 30.5455 15.0965 30.5494 15.1035C30.5529 15.1071 30.5565 15.1142 30.5597 15.1177C30.5987 15.1745 30.6342 15.2384 30.67 15.2987C30.7055 15.3697 30.741 15.4406 30.7729 15.5152C30.8013 15.579 30.8258 15.6465 30.8475 15.7139C30.8581 15.7387 30.8652 15.7671 30.8687 15.7919C30.8726 15.799 30.8762 15.8097 30.8762 15.8168C30.8939 15.8735 30.9081 15.9268 30.9188 15.9835C30.9291 16.0439 30.9401 16.1042 30.9472 16.1681C30.9507 16.1894 30.9543 16.2106 30.9543 16.2319C30.9543 16.2355 30.9543 16.2355 30.9543 16.239V16.2568C30.9578 16.271 30.9578 16.2852 30.9578 16.2994C30.9642 16.3597 30.9677 16.4235 30.9677 16.4839Z" fill="white"/>
<defs>
<linearGradient id="paint0_linear_0_1" x1="-12.8585" y1="-7.89091" x2="58.5784" y2="51.7652" gradientUnits="userSpaceOnUse">
<stop stop-color="white"/>
<stop offset="1" stop-opacity="0"/>
</linearGradient>
<linearGradient id="paint1_linear_0_1" x1="1.04967" y1="1.01818" x2="46.5485" y2="50.8527" gradientUnits="userSpaceOnUse">
<stop stop-color="white"/>
<stop offset="1" stop-color="white" stop-opacity="0"/>
</linearGradient>
</defs>
</svg>