<svg width="16" height="16" viewBox="0 0 16 16" fill="none" xmlns="http://www.w3.org/2000/svg">
<path fill-rule="evenodd" clip-rule="evenodd" d="M0 0H16V4.57143H14.6667C14.3467 3.31429 14.5067 2.30857 14 1.92C13.5067 1.54286 12.2667 1.14286 10.6667 1.14286H9.33333V13.7143C9.33333 14.6286 9.49333 14.9143 9.82667 15.1314C10.16 15.3486 10.88 15.4971 12 15.5657V16H3.97333V15.5657C5.13333 15.4857 5.86667 15.3257 6.14667 15.0629C6.44 14.8114 6.66667 14.7314 6.66667 13.7143V1.14286H5.33333C3.81333 1.14286 2.46667 1.54286 1.92 1.92C1.36 2.29714 1.61333 3.30286 1.33333 4.57143H0V0Z" fill="#676767"/>
</svg>
