<svg width="18" height="20" viewBox="0 0 18 20" fill="none" xmlns="http://www.w3.org/2000/svg">
<path fill-rule="evenodd" clip-rule="evenodd" d="M0 0H17.1429V5.71429H15.7143C15.3714 4.14286 15.5429 2.88571 15 2.4C14.4714 1.92857 13.1429 1.42857 11.4286 1.42857H10V17.1429C10 18.2857 10.1714 18.6429 10.5286 18.9143C10.8857 19.1857 11.6571 19.3714 12.8571 19.4571V20H4.25714V19.4571C5.5 19.3571 6.28572 19.1571 6.58572 18.8286C6.9 18.5143 7.14286 18.4143 7.14286 17.1429V1.42857H5.71429C4.08571 1.42857 2.64286 1.92857 2.05714 2.4C1.45714 2.87143 1.72857 4.12857 1.42857 5.71429H0V0Z" fill="black"/>
</svg>
