<svg width="50" height="50" viewBox="0 0 50 50" fill="none" xmlns="http://www.w3.org/2000/svg">
<path d="M24.9993 8.33325L10.416 14.5833L24.9993 20.8333L39.5827 14.5833L24.9993 8.33325Z" stroke="#0174FF" stroke-width="2" stroke-linejoin="round"/>
<path fill-rule="evenodd" clip-rule="evenodd" d="M18.7609 20.3357L10.0221 24.0809C9.65441 24.2384 9.41602 24.6 9.41602 25C9.41602 25.4 9.65441 25.7616 10.0221 25.9191L24.6054 32.1691C24.857 32.277 25.1417 32.277 25.3933 32.1691L39.9766 25.9191C40.3443 25.7616 40.5827 25.4 40.5827 25C40.5827 24.6 40.3443 24.2384 39.9766 24.0809L31.2378 20.3357L28.6992 21.4236L37.0441 25L24.9993 30.162L12.9546 25L21.2995 21.4236L18.7609 20.3357ZM23.8381 18.1597L24.6054 17.8309C24.857 17.723 25.1417 17.723 25.3933 17.8309L26.1606 18.1597L24.9993 18.6574L23.8381 18.1597Z" fill="#0174FF"/>
<path fill-rule="evenodd" clip-rule="evenodd" d="M18.7609 30.7524L10.0221 34.4976C9.65441 34.6552 9.41602 35.0167 9.41602 35.4167C9.41602 35.8168 9.65441 36.1783 10.0221 36.3359L24.6054 42.5859C24.857 42.6937 25.1417 42.6937 25.3933 42.5859L39.9766 36.3359C40.3443 36.1783 40.5827 35.8168 40.5827 35.4167C40.5827 35.0167 40.3443 34.6552 39.9766 34.4976L31.2378 30.7524L28.6992 31.8404L37.0441 35.4167L24.9993 40.5788L12.9546 35.4167L21.2995 31.8404L18.7609 30.7524ZM23.8381 28.5765L24.6054 28.2476C24.857 28.1398 25.1417 28.1398 25.3933 28.2476L26.1606 28.5765L24.9993 29.0741L23.8381 28.5765Z" fill="#0174FF"/>
</svg>
