<svg width="50" height="50" viewBox="0 0 50 50" fill="none" xmlns="http://www.w3.org/2000/svg">
<path d="M25 13C25 12.7625 25 12.6437 25.0768 12.5699C25.1536 12.4961 25.269 12.5008 25.4999 12.51C27.5206 12.5909 29.4943 13.161 31.25 14.1747C33.1502 15.2718 34.7282 16.8498 35.8253 18.75C36.9224 20.6502 37.5 22.8058 37.5 25C37.5 27.1942 36.9224 29.3498 35.8253 31.25C34.7282 33.1502 33.1502 34.7282 31.25 35.8253C29.3498 36.9224 27.1942 37.5 25 37.5C22.8058 37.5 20.6502 36.9224 18.75 35.8253C16.9943 34.8117 15.5137 33.3875 14.4333 31.6779C14.3099 31.4826 14.2481 31.3849 14.2736 31.2815C14.2991 31.1781 14.402 31.1188 14.6077 31L24.75 25.1443C24.872 25.0739 24.933 25.0387 24.9665 24.9807C25 24.9226 25 24.8522 25 24.7113V13Z" fill="#0174FF"/>
<circle cx="25.0007" cy="24.9999" r="17.6667" stroke="#0174FF" stroke-width="2"/>
</svg>
