<svg width="62" height="62" viewBox="0 0 62 62" fill="none" xmlns="http://www.w3.org/2000/svg">
<g filter="url(#filter0_dd_0_1)">
<path d="M15 29.0007C15 36.7321 21.2679 43 29.0007 43C36.7321 43 43 36.7321 43 29.0007C43 21.2693 36.7321 15 29.0007 15C21.2693 15 15 21.2679 15 29.0007Z" fill="black"/>
<path d="M15 29.0007C15 36.7321 21.2679 43 29.0007 43C36.7321 43 43 36.7321 43 29.0007C43 21.2693 36.7321 15 29.0007 15C21.2693 15 15 21.2679 15 29.0007Z" fill="url(#paint0_linear_0_1)" style="mix-blend-mode:soft-light"/>
<path d="M15 29.0007C15 36.7321 21.2679 43 29.0007 43C36.7321 43 43 36.7321 43 29.0007C43 21.2693 36.7321 15 29.0007 15C21.2693 15 15 21.2679 15 29.0007Z" stroke="url(#paint1_linear_0_1)" stroke-opacity="0.8" stroke-width="0.466667" style="mix-blend-mode:soft-light"/>
<path d="M15 29.0007C15 36.7321 21.2679 43 29.0007 43C36.7321 43 43 36.7321 43 29.0007C43 21.2693 36.7321 15 29.0007 15C21.2693 15 15 21.2679 15 29.0007Z" stroke="black" stroke-opacity="0.2" stroke-width="0.466667"/>
<path d="M15 29.0007C15 36.7321 21.2679 43 29.0007 43C36.7321 43 43 36.7321 43 29.0007C43 21.2693 36.7321 15 29.0007 15C21.2693 15 15 21.2679 15 29.0007Z" stroke="black" stroke-opacity="0.2" stroke-width="0.466667"/>
</g>
<path d="M26.5318 28.585V27.7713V26.0287V24.4049V23.9636C26.5318 23.6449 26.4677 23.3506 26.3359 23.0606C26.1112 22.5662 25.6132 22.1734 25.0853 22.0542C24.8048 21.9909 24.5247 22.0005 24.2403 22.0005H23.4466C23.2753 22.0005 23.1024 22.0176 22.9356 22.057C22.6371 22.1275 22.3785 22.2817 22.1447 22.4745C21.7314 22.8156 21.5056 23.3665 21.5013 23.8952C21.5006 23.978 21.5013 24.0607 21.5013 24.1433V25.5772V27.3879V28.5276V28.5849C21.5013 28.9221 21.7978 29.2452 22.1459 29.2296C22.4952 29.2139 22.7906 28.9463 22.7906 28.5849V26.955V24.4108C22.7906 24.1824 22.7731 23.9438 22.8031 23.7166C22.7954 23.7737 22.7877 23.8308 22.78 23.888C22.7964 23.7816 22.8246 23.6791 22.8657 23.5795C22.844 23.6308 22.8224 23.6821 22.8007 23.7335C22.8427 23.637 22.8949 23.5471 22.9579 23.4628C22.9244 23.5063 22.8907 23.5497 22.8571 23.5933C22.9263 23.5044 23.005 23.4257 23.0939 23.3565C23.0504 23.39 23.007 23.4237 22.9634 23.4573C23.0478 23.3942 23.1376 23.342 23.2342 23.3001C23.1829 23.3218 23.1316 23.3433 23.0801 23.365C23.1797 23.324 23.2821 23.2957 23.3886 23.2794C23.3315 23.287 23.2744 23.2948 23.2172 23.3024C23.4786 23.2678 23.7537 23.2899 24.0164 23.2899C24.2791 23.2899 24.5542 23.268 24.8156 23.3024C24.7585 23.2948 24.7014 23.287 24.6442 23.2794C24.7506 23.2957 24.8531 23.324 24.9527 23.365C24.9014 23.3433 24.8501 23.3218 24.7987 23.3001C24.8952 23.342 24.9851 23.3942 25.0694 23.4573C25.0259 23.4237 24.9824 23.39 24.9389 23.3565C25.0278 23.4257 25.1065 23.5044 25.1757 23.5933C25.1422 23.5497 25.1085 23.5063 25.0749 23.4628C25.1379 23.5471 25.1902 23.637 25.2321 23.7335C25.2104 23.6822 25.1889 23.6309 25.1672 23.5795C25.2082 23.6791 25.2365 23.7814 25.2528 23.888C25.2452 23.8309 25.2374 23.7738 25.2298 23.7166C25.2549 23.9067 25.2423 24.1051 25.2423 24.2962V25.4022V27.9817V28.585C25.2423 28.9222 25.5388 29.2453 25.8869 29.2297C26.2365 29.214 26.5318 28.9464 26.5318 28.585L26.5318 28.585Z" fill="white"/>
<path d="M22.1462 26.2595H23.4103H25.4251H25.8874C26.2246 26.2595 26.5477 25.963 26.5321 25.6149C26.5164 25.2656 26.2488 24.9702 25.8874 24.9702H24.6233H22.6085H22.1462C21.809 24.9702 21.4859 25.2667 21.5015 25.6149C21.5172 25.9642 21.7848 26.2595 22.1462 26.2595Z" fill="white"/>
<path d="M29.8708 31.3172H30.4954H31.9962H33.8223H35.3932C35.6479 31.3172 35.9033 31.3222 36.158 31.3172C36.1617 31.317 36.1654 31.3172 36.169 31.3172C36.5062 31.3172 36.8293 31.0206 36.8137 30.6725C36.798 30.3232 36.5304 30.0279 36.169 30.0279H35.5444H34.0436H32.2175H30.6466C30.3919 30.0279 30.1365 30.0229 29.8818 30.0279C29.8781 30.028 29.8745 30.0279 29.8708 30.0279C29.5336 30.0279 29.2105 30.3244 29.2261 30.6725C29.2418 31.0217 29.5094 31.3172 29.8708 31.3172Z" fill="white"/>
<path d="M34.3996 30.6728C34.4074 30.8215 34.3974 30.9725 34.3849 31.1205C34.3775 31.2079 34.3678 31.2949 34.3561 31.3819C34.3637 31.3248 34.3715 31.2677 34.3791 31.2105C34.3111 31.7122 34.1771 32.2046 33.9804 32.671C34.0021 32.6197 34.0237 32.5684 34.0454 32.517C33.8668 32.9373 33.637 33.3341 33.3586 33.6964C33.3922 33.6529 33.4258 33.6095 33.4594 33.5659C33.181 33.9259 32.8572 34.2475 32.4982 34.5268C32.5418 34.4933 32.5852 34.4596 32.6287 34.426C32.2027 34.7549 31.7328 35.0206 31.238 35.231C31.2893 35.2093 31.3406 35.1878 31.3921 35.1661C30.8727 35.3848 30.3303 35.5423 29.7781 35.6535C29.626 35.6841 29.4691 35.8194 29.3929 35.9498C29.312 36.0879 29.2778 36.2915 29.3279 36.4465C29.4416 36.7979 29.7661 36.9683 30.1209 36.8967C31.06 36.7075 31.9914 36.3797 32.8061 35.8695C33.4878 35.4425 34.0669 34.9002 34.5426 34.2534C34.9041 33.7621 35.1748 33.2052 35.3702 32.6283C35.5215 32.1821 35.6096 31.7212 35.6613 31.2535C35.6822 31.0645 35.6977 30.8713 35.6894 30.6808C35.6893 30.6782 35.6891 30.6754 35.689 30.6728C35.6714 30.3367 35.4051 30.012 35.0444 30.0282C34.7101 30.043 34.3806 30.3121 34.3996 30.6728L34.3996 30.6728Z" fill="white"/>
<path d="M30.959 32.8489C31.2243 33.4941 31.5717 34.0732 32.023 34.6075C32.5863 35.2744 33.3072 35.8211 34.0839 36.2154C34.6653 36.5106 35.2829 36.7374 35.9147 36.8966C36.2412 36.9788 36.6292 36.791 36.7077 36.4464C36.7839 36.112 36.6074 35.7415 36.2576 35.6534C35.8406 35.5484 35.4317 35.4153 35.0354 35.2483C35.0867 35.27 35.138 35.2916 35.1894 35.3133C34.6635 35.0895 34.1643 34.8068 33.7103 34.4588C33.7539 34.4924 33.7973 34.5261 33.8408 34.5596C33.4451 34.2539 33.0879 33.9012 32.7811 33.5061C32.8147 33.5496 32.8483 33.5931 32.8819 33.6366C32.5888 33.2565 32.3433 32.8408 32.1565 32.3985C32.1782 32.4498 32.1998 32.5011 32.2215 32.5525C32.215 32.5372 32.2086 32.5218 32.2023 32.5064C32.1356 32.3443 32.0633 32.2131 31.906 32.1212C31.7678 32.0402 31.5642 32.006 31.4092 32.0562C31.2532 32.1067 31.1027 32.2032 31.024 32.3524C30.9487 32.4948 30.8947 32.6924 30.959 32.8489L30.959 32.8489Z" fill="white"/>
<path d="M33.6626 30.6723V29.4677C33.6626 29.1305 33.3661 28.8074 33.0179 28.8231C32.6687 28.8387 32.3733 29.1063 32.3733 29.4677V30.6723C32.3733 31.0095 32.6698 31.3325 33.0179 31.3169C33.3672 31.3013 33.6626 31.0337 33.6626 30.6723Z" fill="white"/>
<path d="M27.5941 34.2854H25.4351C25.2935 34.2854 25.1516 34.2896 25.0108 34.272C25.0679 34.2796 25.125 34.2874 25.1822 34.295C25.0512 34.2765 24.9246 34.2427 24.8019 34.1931C24.8532 34.2148 24.9045 34.2363 24.9559 34.2581C24.8294 34.2045 24.7118 34.1361 24.6027 34.0527C24.6463 34.0862 24.6897 34.1199 24.7332 34.1535C24.6324 34.0739 24.5425 33.9839 24.463 33.8832C24.4965 33.9268 24.5302 33.9702 24.5638 34.0138C24.4804 33.9047 24.4118 33.7869 24.3584 33.6605C24.3801 33.7118 24.4017 33.7631 24.4234 33.8146C24.3738 33.6918 24.34 33.5653 24.3214 33.4342C24.3291 33.4913 24.3368 33.5484 24.3445 33.6057C24.3275 33.4692 24.331 33.332 24.331 33.1949V32.5424V30.9937V30.623C24.331 30.2858 24.0345 29.9627 23.6864 29.9783C23.3371 29.994 23.0417 30.2616 23.0417 30.623V31.8113V33.3293C23.0417 33.6999 23.1167 34.0427 23.2746 34.3781C23.5144 34.8873 23.9766 35.253 24.4934 35.4503C24.7644 35.5537 25.0566 35.5751 25.3443 35.5751H26.077C26.5726 35.5751 27.0684 35.5802 27.5638 35.5751C27.5741 35.575 27.5842 35.5751 27.5945 35.5751C27.9317 35.5751 28.2548 35.2786 28.2391 34.9305C28.2231 34.5808 27.9555 34.2854 27.5941 34.2854L27.5941 34.2854Z" fill="white"/>
<path d="M28.6849 24.6348H30.2384H32.6276C32.85 24.6348 33.0802 24.6206 33.3016 24.6482C33.2445 24.6406 33.1874 24.6328 33.1301 24.6252C33.2612 24.6438 33.3877 24.6776 33.5105 24.7272C33.4592 24.7055 33.4079 24.6839 33.3564 24.6622C33.483 24.7157 33.6006 24.7841 33.7096 24.8675C33.6661 24.834 33.6227 24.8003 33.5791 24.7668C33.6799 24.8464 33.7699 24.9363 33.8494 25.037C33.8158 24.9934 33.7821 24.95 33.7486 24.9065C33.832 25.0155 33.9005 25.1333 33.9539 25.2597C33.9322 25.2084 33.9107 25.1571 33.889 25.1056C33.9386 25.2284 33.9724 25.355 33.9909 25.486C33.9833 25.4289 33.9755 25.3718 33.9679 25.3146C34.0013 25.5831 33.9813 25.8636 33.9813 26.1333V26.8947C33.9813 27.2319 34.2778 27.555 34.626 27.5394C34.9752 27.5237 35.2706 27.2561 35.2706 26.8947C35.2706 26.4358 35.2738 25.9768 35.2706 25.5178C35.2665 24.9207 35.016 24.3143 34.5645 23.9158C34.1539 23.5534 33.6418 23.348 33.0916 23.3452C32.7069 23.343 32.3221 23.3452 31.9374 23.3452H29.9364C29.5258 23.3452 29.1146 23.3387 28.704 23.3452C28.6975 23.3453 28.6909 23.3452 28.6845 23.3452C28.3473 23.3452 28.0242 23.6417 28.0399 23.9898C28.0559 24.3395 28.3235 24.6348 28.6849 24.6348L28.6849 24.6348Z" fill="white"/>
<defs>
<filter id="filter0_dd_0_1" x="0.766723" y="0.766601" width="61.1332" height="61.1335" filterUnits="userSpaceOnUse" color-interpolation-filters="sRGB">
<feFlood flood-opacity="0" result="BackgroundImageFix"/>
<feColorMatrix in="SourceAlpha" type="matrix" values="0 0 0 0 0 0 0 0 0 0 0 0 0 0 0 0 0 0 127 0" result="hardAlpha"/>
<feOffset dx="4.66667" dy="4.66667"/>
<feGaussianBlur stdDeviation="7"/>
<feColorMatrix type="matrix" values="0 0 0 0 0.214583 0 0 0 0 0.300417 0 0 0 0 0.429167 0 0 0 0.5 0"/>
<feBlend mode="normal" in2="BackgroundImageFix" result="effect1_dropShadow_0_1"/>
<feColorMatrix in="SourceAlpha" type="matrix" values="0 0 0 0 0 0 0 0 0 0 0 0 0 0 0 0 0 0 127 0" result="hardAlpha"/>
<feOffset dx="-4.66667" dy="-4.66667"/>
<feGaussianBlur stdDeviation="4.66667"/>
<feColorMatrix type="matrix" values="0 0 0 0 1 0 0 0 0 1 0 0 0 0 1 0 0 0 1 0"/>
<feBlend mode="normal" in2="effect1_dropShadow_0_1" result="effect2_dropShadow_0_1"/>
<feBlend mode="normal" in="SourceGraphic" in2="effect2_dropShadow_0_1" result="shape"/>
</filter>
<linearGradient id="paint0_linear_0_1" x1="8.57076" y1="11.0545" x2="44.2892" y2="40.8826" gradientUnits="userSpaceOnUse">
<stop stop-color="white"/>
<stop offset="1" stop-opacity="0"/>
</linearGradient>
<linearGradient id="paint1_linear_0_1" x1="15.5248" y1="15.5091" x2="38.2743" y2="40.4264" gradientUnits="userSpaceOnUse">
<stop stop-color="white"/>
<stop offset="1" stop-color="white" stop-opacity="0"/>
</linearGradient>
</defs>
</svg>
