<svg width="30" height="30" viewBox="0 0 30 30" fill="none" xmlns="http://www.w3.org/2000/svg">
<path d="M1 15.0007C1 22.7321 7.2679 29 15.0007 29C22.7321 29 29 22.7321 29 15.0007C29 7.26931 22.7321 1 15.0007 1C7.26931 1 1 7.2679 1 15.0007Z" fill="#0174FF"/>
<path d="M1 15.0007C1 22.7321 7.2679 29 15.0007 29C22.7321 29 29 22.7321 29 15.0007C29 7.26931 22.7321 1 15.0007 1C7.26931 1 1 7.2679 1 15.0007Z" stroke="url(#paint0_linear_0_1)" stroke-opacity="0.8" stroke-width="0.466667" style="mix-blend-mode:soft-light"/>
<path d="M1 15.0007C1 22.7321 7.2679 29 15.0007 29C22.7321 29 29 22.7321 29 15.0007C29 7.26931 22.7321 1 15.0007 1C7.26931 1 1 7.2679 1 15.0007Z" stroke="black" stroke-opacity="0.2" stroke-width="0.466667"/>
<path d="M1 15.0007C1 22.7321 7.2679 29 15.0007 29C22.7321 29 29 22.7321 29 15.0007C29 7.26931 22.7321 1 15.0007 1C7.26931 1 1 7.2679 1 15.0007Z" stroke="black" stroke-opacity="0.2" stroke-width="0.466667"/>
<path d="M12.5318 14.585V13.7713V12.0287V10.4049V9.96363C12.5318 9.64487 12.4677 9.35057 12.3359 9.06063C12.1112 8.56622 11.6132 8.17339 11.0853 8.0542C10.8048 7.99092 10.5247 8.00052 10.2403 8.00052H9.4466C9.27532 8.00052 9.10244 8.01762 8.93563 8.05696C8.63712 8.12748 8.37847 8.28166 8.14471 8.47451C7.73136 8.81565 7.50558 9.36647 7.50127 9.89523C7.50061 9.97798 7.50127 10.0607 7.50127 10.1433V11.5772V13.3879V14.5276V14.5849C7.50127 14.9221 7.7978 15.2452 8.14592 15.2296C8.4952 15.2139 8.79057 14.9463 8.79057 14.5849V12.955V10.4108C8.79057 10.1824 8.77307 9.94377 8.80307 9.71657C8.79544 9.77367 8.78768 9.83076 8.78005 9.88799C8.79636 9.78156 8.82464 9.67908 8.86569 9.57948C8.84398 9.63079 8.82241 9.6821 8.8007 9.73354C8.84267 9.63697 8.8949 9.54712 8.95791 9.46279C8.92437 9.50634 8.89069 9.54975 8.85714 9.5933C8.92634 9.50436 9.00501 9.42569 9.09394 9.35649C9.0504 9.39004 9.00698 9.42372 8.96344 9.45727C9.04777 9.39425 9.13762 9.34202 9.23419 9.30005C9.18288 9.32176 9.13157 9.34334 9.08013 9.36504C9.17972 9.324 9.28208 9.29571 9.38864 9.2794C9.33154 9.28703 9.27445 9.29479 9.21722 9.30242C9.47863 9.26782 9.75373 9.28992 10.0164 9.28992C10.2791 9.28992 10.5542 9.26795 10.8156 9.30242C10.7585 9.29479 10.7014 9.28703 10.6442 9.2794C10.7506 9.29571 10.8531 9.324 10.9527 9.36504C10.9014 9.34334 10.8501 9.32176 10.7987 9.30005C10.8952 9.34202 10.9851 9.39425 11.0694 9.45727C11.0259 9.42372 10.9824 9.39004 10.9389 9.35649C11.0278 9.42569 11.1065 9.50436 11.1757 9.5933C11.1422 9.54975 11.1085 9.50634 11.0749 9.46279C11.1379 9.54712 11.1902 9.63697 11.2321 9.73354C11.2104 9.68223 11.1889 9.63092 11.1672 9.57948C11.2082 9.67907 11.2365 9.78143 11.2528 9.88799C11.2452 9.8309 11.2374 9.7738 11.2298 9.71657C11.2549 9.90667 11.2423 10.1051 11.2423 10.2962V11.4022V13.9817V14.585C11.2423 14.9222 11.5388 15.2453 11.8869 15.2297C12.2365 15.214 12.5318 14.9464 12.5318 14.585L12.5318 14.585Z" fill="white"/>
<path d="M8.14617 12.2595H9.41031H11.4251H11.8874C12.2246 12.2595 12.5477 11.963 12.5321 11.6149C12.5164 11.2656 12.2488 10.9702 11.8874 10.9702H10.6233H8.60848H8.14617C7.80898 10.9702 7.48589 11.2667 7.50152 11.6149C7.51718 11.9642 7.78477 12.2595 8.14617 12.2595Z" fill="white"/>
<path d="M15.8708 17.3172H16.4954H17.9962H19.8223H21.3932C21.6479 17.3172 21.9033 17.3222 22.158 17.3172C22.1617 17.317 22.1654 17.3172 22.169 17.3172C22.5062 17.3172 22.8293 17.0206 22.8137 16.6725C22.798 16.3232 22.5304 16.0279 22.169 16.0279H21.5444H20.0436H18.2175H16.6466C16.3919 16.0279 16.1365 16.0229 15.8818 16.0279C15.8781 16.028 15.8745 16.0279 15.8708 16.0279C15.5336 16.0279 15.2105 16.3244 15.2261 16.6725C15.2418 17.0217 15.5094 17.3172 15.8708 17.3172Z" fill="white"/>
<path d="M20.3996 16.6728C20.4074 16.8215 20.3974 16.9725 20.3849 17.1205C20.3775 17.2079 20.3678 17.2949 20.3561 17.3819C20.3637 17.3248 20.3715 17.2677 20.3791 17.2105C20.3111 17.7122 20.1771 18.2046 19.9804 18.671C20.0021 18.6197 20.0237 18.5684 20.0454 18.517C19.8668 18.9373 19.637 19.3341 19.3586 19.6964C19.3922 19.6529 19.4258 19.6095 19.4594 19.5659C19.181 19.9259 18.8572 20.2475 18.4982 20.5268C18.5418 20.4933 18.5852 20.4596 18.6287 20.426C18.2027 20.7549 17.7328 21.0206 17.238 21.231C17.2893 21.2093 17.3406 21.1878 17.3921 21.1661C16.8727 21.3848 16.3303 21.5423 15.7781 21.6535C15.626 21.6841 15.4691 21.8194 15.3929 21.9498C15.312 22.0879 15.2778 22.2915 15.3279 22.4465C15.4416 22.7979 15.7661 22.9683 16.1209 22.8967C17.06 22.7075 17.9914 22.3797 18.8061 21.8695C19.4878 21.4425 20.0669 20.9002 20.5426 20.2534C20.9041 19.7621 21.1748 19.2052 21.3702 18.6283C21.5215 18.1821 21.6096 17.7212 21.6613 17.2535C21.6822 17.0645 21.6977 16.8713 21.6894 16.6808C21.6893 16.6782 21.6891 16.6754 21.689 16.6728C21.6714 16.3367 21.4051 16.012 21.0444 16.0282C20.7101 16.043 20.3806 16.3121 20.3996 16.6728L20.3996 16.6728Z" fill="white"/>
<path d="M16.959 18.8489C17.2243 19.4941 17.5717 20.0732 18.023 20.6075C18.5863 21.2744 19.3072 21.8211 20.0839 22.2154C20.6653 22.5106 21.2829 22.7374 21.9147 22.8966C22.2412 22.9788 22.6292 22.791 22.7077 22.4464C22.7839 22.112 22.6074 21.7415 22.2576 21.6534C21.8406 21.5484 21.4317 21.4153 21.0354 21.2483C21.0867 21.27 21.138 21.2916 21.1894 21.3133C20.6635 21.0895 20.1643 20.8068 19.7103 20.4588C19.7539 20.4924 19.7973 20.5261 19.8408 20.5596C19.4451 20.2539 19.0879 19.9012 18.7811 19.5061C18.8147 19.5496 18.8483 19.5931 18.8819 19.6366C18.5888 19.2565 18.3433 18.8408 18.1565 18.3985C18.1782 18.4498 18.1998 18.5011 18.2215 18.5525C18.215 18.5372 18.2086 18.5218 18.2023 18.5064C18.1356 18.3443 18.0633 18.2131 17.906 18.1212C17.7678 18.0402 17.5642 18.006 17.4092 18.0562C17.2532 18.1067 17.1027 18.2032 17.024 18.3524C16.9487 18.4948 16.8947 18.6924 16.959 18.8489L16.959 18.8489Z" fill="white"/>
<path d="M19.6626 16.6723V15.4677C19.6626 15.1305 19.3661 14.8074 19.0179 14.8231C18.6687 14.8387 18.3733 15.1063 18.3733 15.4677V16.6723C18.3733 17.0095 18.6698 17.3325 19.0179 17.3169C19.3672 17.3013 19.6626 17.0337 19.6626 16.6723Z" fill="white"/>
<path d="M13.5941 20.2854H11.4351C11.2935 20.2854 11.1516 20.2896 11.0108 20.272C11.0679 20.2796 11.125 20.2874 11.1822 20.295C11.0512 20.2765 10.9246 20.2427 10.8019 20.1931C10.8532 20.2148 10.9045 20.2363 10.9559 20.2581C10.8294 20.2045 10.7118 20.1361 10.6027 20.0527C10.6463 20.0862 10.6897 20.1199 10.7332 20.1535C10.6324 20.0739 10.5425 19.9839 10.463 19.8832C10.4965 19.9268 10.5302 19.9702 10.5638 20.0138C10.4804 19.9047 10.4118 19.7869 10.3584 19.6605C10.3801 19.7118 10.4017 19.7631 10.4234 19.8146C10.3738 19.6918 10.34 19.5653 10.3214 19.4342C10.3291 19.4913 10.3368 19.5484 10.3445 19.6057C10.3275 19.4692 10.331 19.332 10.331 19.1949V18.5424V16.9937V16.623C10.331 16.2858 10.0345 15.9627 9.6864 15.9783C9.33711 15.994 9.04175 16.2616 9.04175 16.623V17.8113V19.3293C9.04175 19.6999 9.11674 20.0427 9.27461 20.3781C9.51444 20.8873 9.97661 21.253 10.4934 21.4503C10.7644 21.5537 11.0566 21.5751 11.3443 21.5751H12.077C12.5726 21.5751 13.0684 21.5802 13.5638 21.5751C13.5741 21.575 13.5842 21.5751 13.5945 21.5751C13.9317 21.5751 14.2548 21.2786 14.2391 20.9305C14.2231 20.5808 13.9555 20.2854 13.5941 20.2854L13.5941 20.2854Z" fill="white"/>
<path d="M14.6849 10.6348H16.2384H18.6276C18.85 10.6348 19.0802 10.6206 19.3016 10.6482C19.2445 10.6406 19.1874 10.6328 19.1301 10.6252C19.2612 10.6438 19.3877 10.6776 19.5105 10.7272C19.4592 10.7055 19.4079 10.6839 19.3564 10.6622C19.483 10.7157 19.6006 10.7841 19.7096 10.8675C19.6661 10.834 19.6227 10.8003 19.5791 10.7668C19.6799 10.8464 19.7699 10.9363 19.8494 11.037C19.8158 10.9934 19.7821 10.95 19.7486 10.9065C19.832 11.0155 19.9005 11.1333 19.9539 11.2597C19.9322 11.2084 19.9107 11.1571 19.889 11.1056C19.9386 11.2284 19.9724 11.355 19.9909 11.486C19.9833 11.4289 19.9755 11.3718 19.9679 11.3146C20.0013 11.5831 19.9813 11.8636 19.9813 12.1333V12.8947C19.9813 13.2319 20.2778 13.555 20.626 13.5394C20.9752 13.5237 21.2706 13.2561 21.2706 12.8947C21.2706 12.4358 21.2738 11.9768 21.2706 11.5178C21.2665 10.9207 21.016 10.3143 20.5645 9.91584C20.1539 9.55339 19.6418 9.34805 19.0916 9.34515C18.7069 9.34305 18.3221 9.34515 17.9374 9.34515H15.9364C15.5258 9.34515 15.1146 9.3387 14.704 9.34515C14.6975 9.34528 14.6909 9.34515 14.6845 9.34515C14.3473 9.34515 14.0242 9.64168 14.0399 9.9898C14.0559 10.3395 14.3235 10.6348 14.6849 10.6348L14.6849 10.6348Z" fill="white"/>
<defs>
<linearGradient id="paint0_linear_0_1" x1="1.52484" y1="1.50909" x2="24.2743" y2="26.4264" gradientUnits="userSpaceOnUse">
<stop stop-color="white"/>
<stop offset="1" stop-color="white" stop-opacity="0"/>
</linearGradient>
</defs>
</svg>
