<svg width="129" height="129" fill="none" xmlns="http://www.w3.org/2000/svg">
<g filter="url(#filter0_dd_1_2643)">
<path d="M32 63.5016C32 80.8972 46.1028 95 63.5016 95C80.8972 95 95 80.8972 95 63.5016C95 46.1059 80.8972 32 63.5016 32C46.1059 32 32 46.1028 32 63.5016Z" fill="#0174FF"/>
<path d="M32 63.5016C32 80.8972 46.1028 95 63.5016 95C80.8972 95 95 80.8972 95 63.5016C95 46.1059 80.8972 32 63.5016 32C46.1059 32 32 46.1028 32 63.5016Z" fill="url(#paint0_linear_1_2643)" style="mix-blend-mode:soft-light"/>
<path d="M63.5016 94.475C46.3927 94.475 32.525 80.6072 32.525 63.5016C32.525 46.3928 46.3959 32.525 63.5016 32.525C80.6072 32.525 94.475 46.3958 94.475 63.5016C94.475 80.6073 80.6073 94.475 63.5016 94.475Z" stroke="url(#paint1_linear_1_2643)" stroke-opacity="0.8" stroke-width="1.05" style="mix-blend-mode:soft-light"/>
</g>
<path fill-rule="evenodd" clip-rule="evenodd" d="M52.3571 42.5273C51.5257 42.9389 50.4919 44.1519 50.4919 44.7162C50.4919 44.8942 51.2807 46.6281 52.2448 48.569L53.9976 52.0981L52.1988 53.9674C48.005 58.3257 45.1494 62.5805 43.8506 66.4067C43.3345 67.9269 43.2566 68.4047 43.2501 70.0849C43.2382 73.2201 44.0301 75.2479 46.0577 77.275C47.457 78.6738 49.4868 79.7639 51.8812 80.4026C54.7114 81.1576 62.3015 81.0542 63.1057 80.25C63.4454 79.9103 63.4369 79.3846 63.0871 79.0942C62.8668 78.9114 62.5876 78.9085 61.7538 79.0801C61.1737 79.1996 59.7059 79.346 58.4921 79.4054C52.4117 79.7036 47.5634 77.7863 45.76 74.3706C44.1831 71.3837 44.5015 67.8031 46.7035 63.7638C48.1886 61.0394 51.6185 56.6212 54.1013 54.2344L54.9977 53.3728L56.0034 53.6367C57.2749 53.9703 57.9302 53.969 59.0549 53.6306C60.1226 53.3091 59.8817 53.1455 62.906 56.247C64.0187 57.388 65.0265 58.32 65.1459 58.318C65.4499 58.313 65.9405 57.7891 65.9405 57.4694C65.9405 57.1969 62.52 53.3853 61.5211 52.5448L60.9696 52.0808L61.8707 49.8181C63.0152 46.9447 63.7338 44.6667 63.733 43.9138L63.7327 43.3256L61.9399 43.2982C60.5938 43.2774 59.604 43.1287 57.9665 42.7005C55.2609 41.993 53.5435 41.94 52.3571 42.5273ZM57.7171 44.2373C58.6057 44.483 59.9091 44.7408 60.6137 44.8102C61.4683 44.8944 61.8945 45.015 61.8945 45.1727C61.8945 45.3025 61.4875 46.4711 60.99 47.7695C59.2537 52.3009 59.2538 52.3007 57.5859 52.2836C55.8349 52.2656 55.8316 52.2619 53.8503 48.2824L52.0551 44.6765L52.6003 44.2386C52.9002 43.9976 53.314 43.7624 53.5198 43.7159C54.2225 43.5568 56.099 43.7898 57.7171 44.2373ZM75.6178 54.6425C74.5736 54.9552 73.6649 56.199 73.6649 57.3153C73.6649 57.5814 73.7971 58.0778 73.9588 58.4182L74.2525 59.0375L72.9013 60.9678L71.5499 62.8983L67.8256 62.9053L64.1014 62.9123V63.7399V64.5675L68.1935 64.5591L72.2855 64.5506L73.8856 62.2837L75.4856 60.0168L76.4773 59.9346C77.0963 59.8833 77.6815 59.7008 78.0354 59.4489C78.7615 58.9319 79.2705 57.6475 79.1032 56.7553C78.9395 55.8826 78.0265 54.8741 77.1901 54.6418C76.4171 54.4271 76.3375 54.4271 75.6178 54.6425ZM77.1907 56.4119C77.5305 56.7194 77.635 57.5007 77.3863 57.8731C77.0857 58.3233 76.4405 58.5203 76.0098 58.2934C75.479 58.0138 75.3263 57.7767 75.3228 57.2256C75.3168 56.2593 76.4679 55.7579 77.1907 56.4119ZM56.7449 59.9697C56.7449 60.8005 56.705 60.8893 56.3311 60.89C55.6699 60.8911 54.7222 61.5791 54.435 62.2668C54.1006 63.067 54.0931 64.7652 54.4206 65.539C54.7936 66.4199 55.2326 66.7217 57.0208 67.3262C59.0652 68.0172 59.3197 68.2399 59.3197 69.3368C59.3197 70.6731 58.9774 71.0045 57.5972 71.0045C56.2419 71.0045 55.866 70.7751 55.7897 69.901C55.7358 69.2856 55.699 69.2549 54.9518 69.2008L54.1701 69.1442V69.8045C54.1701 71.1981 55.2019 72.4732 56.3311 72.475C56.705 72.4758 56.7449 72.5646 56.7449 73.3953V74.3149H57.4704H58.196L58.2521 73.4479C58.3052 72.626 58.3404 72.5745 58.93 72.4548C59.2721 72.3853 59.8094 72.071 60.1241 71.7561C60.6554 71.2248 60.7014 71.0757 60.7649 69.6766C60.8717 67.3244 60.4066 66.7673 57.5725 65.8533C56.8645 65.625 56.1818 65.3563 56.0552 65.2561C55.9145 65.1448 55.8253 64.6212 55.8253 63.9078C55.8253 62.5083 55.9988 62.3606 57.642 62.3606C58.5756 62.3606 58.7915 62.424 59.0333 62.7694C59.1908 62.9942 59.3197 63.3872 59.3197 63.643C59.3197 64.0645 59.3898 64.1078 60.0743 64.1078H60.8289L60.7478 63.1295C60.6828 62.3468 60.5554 62.04 60.1092 61.594C59.8026 61.2875 59.2721 60.9798 58.93 60.9103C58.3404 60.7905 58.3052 60.739 58.2521 59.9171L58.196 59.0502H57.4704H56.7449V59.9697ZM68.6992 73.4873V74.3149H70.4218H72.1443L73.4103 76.2427L74.6764 78.1706L76.4451 78.1738L78.2138 78.1771L78.6816 78.884C80.1949 81.1706 83.667 80.1659 83.667 77.4414C83.667 75.866 82.5451 74.7688 80.9497 74.7837C79.848 74.7942 78.9868 75.2873 78.531 76.1686C78.2623 76.6881 78.2097 76.7056 76.9245 76.6992L75.596 76.6925L74.2313 74.6761L72.8669 72.6597H70.783H68.6992V73.4873ZM63.7336 73.5793V74.3149H65.4808H67.2279V73.5793V72.8436H65.4808H63.7336V73.5793ZM81.7885 76.6423C82.4967 77.2833 81.9924 78.5449 81.028 78.5449C80.2909 78.5449 79.8567 78.1359 79.8567 77.4414C79.8567 76.4413 81.03 75.956 81.7885 76.6423Z" fill="white"/>
<defs>
<filter id="filter0_dd_1_2643" x="0.5" y="0.5" width="136.5" height="136.5" filterUnits="userSpaceOnUse" color-interpolation-filters="sRGB">
<feFlood flood-opacity="0" result="BackgroundImageFix"/>
<feColorMatrix in="SourceAlpha" type="matrix" values="0 0 0 0 0 0 0 0 0 0 0 0 0 0 0 0 0 0 127 0" result="hardAlpha"/>
<feOffset dx="10.5" dy="10.5"/>
<feGaussianBlur stdDeviation="15.75"/>
<feColorMatrix type="matrix" values="0 0 0 0 0.214583 0 0 0 0 0.300417 0 0 0 0 0.429167 0 0 0 0.5 0"/>
<feBlend mode="normal" in2="BackgroundImageFix" result="effect1_dropShadow_1_2643"/>
<feColorMatrix in="SourceAlpha" type="matrix" values="0 0 0 0 0 0 0 0 0 0 0 0 0 0 0 0 0 0 127 0" result="hardAlpha"/>
<feOffset dx="-10.5" dy="-10.5"/>
<feGaussianBlur stdDeviation="10.5"/>
<feColorMatrix type="matrix" values="0 0 0 0 1 0 0 0 0 1 0 0 0 0 1 0 0 0 1 0"/>
<feBlend mode="normal" in2="effect1_dropShadow_1_2643" result="effect2_dropShadow_1_2643"/>
<feBlend mode="normal" in="SourceGraphic" in2="effect2_dropShadow_1_2643" result="shape"/>
</filter>
<linearGradient id="paint0_linear_1_2643" x1="17.5342" y1="23.1227" x2="97.9007" y2="90.2359" gradientUnits="userSpaceOnUse">
<stop stop-color="white"/>
<stop offset="1" stop-opacity="0"/>
</linearGradient>
<linearGradient id="paint1_linear_1_2643" x1="33.1809" y1="33.1455" x2="84.3671" y2="89.2093" gradientUnits="userSpaceOnUse">
<stop stop-color="white"/>
<stop offset="1" stop-color="white" stop-opacity="0"/>
</linearGradient>
</defs>
</svg>

