<svg width="16" height="14" viewBox="0 0 16 14" fill="none" xmlns="http://www.w3.org/2000/svg">
<path fill-rule="evenodd" clip-rule="evenodd" d="M6.33061 0.977402C5.44829 1.58386 5.19375 2.07305 5.19375 3.16195C5.19375 4.25084 5.44829 4.74003 6.33061 5.34649C7.35757 6.05244 9.06332 5.68973 9.76683 4.61585C10.5664 3.39573 10.3195 1.91729 9.17639 1.08103C8.37103 0.491743 7.10409 0.4456 6.33061 0.977402ZM8.38454 1.64074C9.36901 2.1126 9.63584 3.55455 8.87222 4.27691C7.69954 5.38635 6.02856 4.73896 6.02856 3.17544C6.02856 2.41935 6.34928 1.9038 6.99663 1.61927C7.61348 1.34808 7.77923 1.35069 8.38454 1.64074ZM1.60043 2.73454C0.26701 3.57003 0.829368 5.69142 2.38409 5.69142C3.17048 5.69142 3.53369 5.49902 3.82618 4.92798C4.20913 4.18002 4.12018 3.58 3.53931 2.99331C2.95039 2.3985 2.27966 2.30898 1.60043 2.73454ZM12.0017 2.75876C11.3478 3.17329 11.0992 3.95083 11.3933 4.66184C11.9776 6.07375 13.8619 6.06225 14.3961 4.64345C14.9272 3.23262 13.2887 1.94289 12.0017 2.75876ZM2.98591 3.61342C3.43792 4.16346 2.78935 5.0241 2.12013 4.76195C1.73855 4.61248 1.64247 3.89733 1.96076 3.57586C2.20999 3.32414 2.76491 3.34437 2.98591 3.61342ZM13.4356 3.57586C13.7253 3.86851 13.6473 4.42668 13.2803 4.68622C13.0948 4.81745 12.8899 4.92491 12.825 4.92491C12.6239 4.92491 12.0999 4.32351 12.0999 4.09264C12.0999 3.52987 13.0328 3.169 13.4356 3.57586ZM1.21247 6.98344C0.290385 7.40394 0.110218 7.94862 0.109611 10.3179C0.108852 12.9643 0.0566384 12.8966 2.0963 12.8966C3.56147 12.8966 3.61171 12.9081 3.78004 13.2812C4.05659 13.8941 4.7343 13.9999 8.02405 13.9438C10.702 13.8982 11.0388 13.8633 11.3253 13.601C11.501 13.4403 11.6445 13.2162 11.6445 13.1028C11.6445 12.9432 12.0031 12.8966 13.2296 12.8966C15.2889 12.8966 15.2873 12.8984 15.2873 10.4047C15.2873 8.43198 15.1398 7.85787 14.4733 7.23715C13.7023 6.51909 11.687 6.65507 11.054 7.46802L10.7621 7.84269L9.98889 7.35719C8.65289 6.51848 6.50364 6.56646 5.19375 7.46434L4.62077 7.85695L4.10941 7.35627C3.65998 6.91629 3.48285 6.84976 2.65031 6.80776C2.05016 6.7774 1.52287 6.84194 1.21247 6.98344ZM3.54659 8.07632C3.86883 8.40178 3.91998 8.56459 3.84773 9.03446C3.79992 9.34581 3.71477 10.1352 3.65861 10.7887L3.55661 11.9768H2.28816H1.0197V10.1431C1.0197 8.45421 1.04596 8.28481 1.35196 7.99691C1.86013 7.51877 3.03675 7.56138 3.54659 8.07632ZM9.10703 7.89543C9.69777 8.15067 10.3527 8.83164 10.5723 9.41894C10.6611 9.65625 10.7338 10.5718 10.7338 11.4534V13.0562L7.66023 13.0148L4.58662 12.9732V11.2754C4.58662 9.6702 4.60999 9.54204 5.01404 8.92561C5.5685 8.0797 6.39861 7.69215 7.66509 7.68771C8.1895 7.68587 8.83837 7.77938 9.10703 7.89543ZM14.004 8.06069C14.3566 8.41665 14.3766 8.53209 14.3766 10.2069V11.9768H13.0106H11.6445V11.0795C11.6445 10.5859 11.6016 9.76693 11.5491 9.25966C11.4651 8.44885 11.4928 8.29754 11.7767 8.01071C12.2602 7.52245 13.4987 7.55019 14.004 8.06069Z" fill="#FFC600"/>
</svg>
