<svg width="30" height="30" viewBox="0 0 35 35" fill="none" xmlns="http://www.w3.org/2000/svg">
<path d="M29.5 7.77706H7.981L7.658 3.64577C7.60624 2.95207 7.32072 2.30564 6.85853 1.8357C6.39633 1.36576 5.79152 1.10695 5.165 1.11101H5C5 0.81635 4.89464 0.533761 4.70711 0.325407C4.51957 0.117052 4.26522 0 4 0H1C0.734784 0 0.48043 0.117052 0.292893 0.325407C0.105357 0.533761 0 0.81635 0 1.11101V2.22202C0 2.51667 0.105357 2.79926 0.292893 3.00762C0.48043 3.21597 0.734784 3.33302 1 3.33302H4C4.26522 3.33302 4.51957 3.21597 4.70711 3.00762C4.89464 2.79926 5 2.51667 5 2.22202H5.165C5.53974 2.22401 5.90044 2.38064 6.17708 2.66149C6.45371 2.94235 6.62654 3.3274 6.662 3.74187L6.977 7.77706H6.5C6.36739 7.77706 6.24021 7.83558 6.14645 7.93976C6.05268 8.04394 6 8.18523 6 8.33256C6 8.47989 6.05268 8.62118 6.14645 8.72536C6.24021 8.82954 6.36739 8.88806 6.5 8.88806H7.064L8.342 25.2404C8.39376 25.9341 8.67928 26.5806 9.14147 27.0505C9.60367 27.5204 10.2085 27.7793 10.835 27.7752H11.55C11.6648 28.4031 11.9714 28.9676 12.4179 29.373C12.8644 29.7785 13.4233 30 14 30C14.5767 30 15.1356 29.7785 15.5821 29.373C16.0286 28.9676 16.3352 28.4031 16.45 27.7752H23.05C23.1739 28.4496 23.5188 29.0489 24.0178 29.4568C24.5168 29.8648 25.1344 30.0523 25.7508 29.9832C26.3672 29.914 26.9385 29.593 27.354 29.0824C27.7694 28.5718 27.9995 27.908 27.9995 27.2197C27.9995 26.5314 27.7694 25.8676 27.354 25.357C26.9385 24.8464 26.3672 24.5254 25.7508 24.4562C25.1344 24.3871 24.5168 24.5746 24.0178 24.9826C23.5188 25.3905 23.1739 25.9898 23.05 26.6642H16.45C16.3352 26.0363 16.0286 25.4718 15.5821 25.0664C15.1356 24.6609 14.5767 24.4394 14 24.4394C13.4233 24.4394 12.8644 24.6609 12.4179 25.0664C11.9714 25.4718 11.6648 26.0363 11.55 26.6642H10.835C10.4603 26.6622 10.0996 26.5056 9.82292 26.2247C9.54629 25.9439 9.37346 25.5588 9.338 25.1443L8.0675 8.88806H8.54L9.2725 18.6544C9.34993 19.6245 9.75035 20.5277 10.3954 21.1871C11.0405 21.8466 11.8839 22.215 12.7605 22.2202H24.2395C25.1161 22.215 25.9595 21.8466 26.6046 21.1871C27.2496 20.5277 27.6501 19.6245 27.7275 18.6544L28.46 8.88806H29.5C29.6326 8.88806 29.7598 8.82954 29.8536 8.72536C29.9473 8.62118 30 8.47989 30 8.33256C30 8.18523 29.9473 8.04394 29.8536 7.93976C29.7598 7.83558 29.6326 7.77706 29.5 7.77706ZM1 2.22202V1.11101H4V2.22202H1ZM25.5 25.5532C25.7967 25.5532 26.0867 25.6509 26.3334 25.834C26.58 26.0172 26.7723 26.2774 26.8858 26.5819C26.9993 26.8865 27.0291 27.2215 26.9712 27.5448C26.9133 27.8681 26.7704 28.165 26.5607 28.3981C26.3509 28.6312 26.0836 28.7899 25.7926 28.8542C25.5017 28.9185 25.2001 28.8855 24.926 28.7593C24.6519 28.6332 24.4176 28.4196 24.2528 28.1456C24.088 27.8715 24 27.5493 24 27.2197C24 26.7777 24.158 26.3538 24.4393 26.0413C24.7206 25.7288 25.1022 25.5532 25.5 25.5532ZM14 25.5532C14.2967 25.5532 14.5867 25.6509 14.8334 25.834C15.08 26.0172 15.2723 26.2774 15.3858 26.5819C15.4993 26.8865 15.5291 27.2215 15.4712 27.5448C15.4133 27.8681 15.2704 28.165 15.0607 28.3981C14.8509 28.6312 14.5836 28.7899 14.2926 28.8542C14.0017 28.9185 13.7001 28.8855 13.426 28.7593C13.1519 28.6332 12.9176 28.4196 12.7528 28.1456C12.588 27.8715 12.5 27.5493 12.5 27.2197C12.5 26.7777 12.658 26.3538 12.9393 26.0413C13.2206 25.7288 13.6022 25.5532 14 25.5532ZM26.731 18.5622C26.6756 19.2551 26.3896 19.9002 25.9288 20.3712C25.468 20.8422 24.8656 21.1054 24.2395 21.1091H12.7605C12.1344 21.1054 11.532 20.8422 11.0712 20.3712C10.6104 19.9002 10.3244 19.2551 10.269 18.5622L9.5435 8.88806H27.4565L26.731 18.5622Z" fill="#333333"/>
<path d="M13.645 27.6133C13.6936 27.6623 13.7494 27.7017 13.81 27.7299C13.8701 27.7584 13.9346 27.7735 14 27.7744C14.1323 27.7722 14.2591 27.7147 14.355 27.6133C14.4002 27.5601 14.4358 27.4979 14.46 27.4299C14.4864 27.3634 14.5 27.2915 14.5 27.2188C14.5 27.1462 14.4864 27.0743 14.46 27.0078C14.4346 26.9405 14.3991 26.8785 14.355 26.8244C14.2841 26.7484 14.1948 26.6969 14.0981 26.6762C14.0013 26.6555 13.9012 26.6665 13.81 26.7078C13.7479 26.7327 13.6916 26.7725 13.6449 26.8244C13.5983 26.8762 13.5624 26.9388 13.54 27.0078C13.5136 27.0743 13.5 27.1462 13.5 27.2188C13.5 27.2915 13.5136 27.3634 13.54 27.4299C13.5641 27.4979 13.5998 27.5601 13.645 27.6133Z" fill="#333333"/>
<path d="M25.145 27.6132C25.1936 27.6622 25.2494 27.7016 25.31 27.7298C25.3698 27.7591 25.4346 27.7743 25.5 27.7743C25.5654 27.7743 25.6301 27.7591 25.69 27.7298C25.752 27.7049 25.8084 27.6651 25.855 27.6132C25.9017 27.5614 25.9375 27.4988 25.96 27.4298C25.9864 27.3633 26 27.2914 26 27.2187C26 27.1461 25.9864 27.0742 25.96 27.0077C25.9346 26.9404 25.8991 26.8784 25.855 26.8243C25.8072 26.7741 25.7512 26.7345 25.69 26.7077C25.5682 26.6521 25.4317 26.6521 25.31 26.7077C25.2479 26.7326 25.1916 26.7724 25.1449 26.8243C25.0983 26.8761 25.0624 26.9387 25.04 27.0077C25.0136 27.0742 25 27.1461 25 27.2187C25 27.2914 25.0136 27.3633 25.04 27.4298C25.0641 27.4978 25.0998 27.56 25.145 27.6132Z" fill="#333333"/>
<path d="M18.5 19.9991C19.39 19.9991 20.26 19.7059 21.0001 19.1565C21.7401 18.6071 22.3169 17.8263 22.6575 16.9128C22.9981 15.9992 23.0872 14.994 22.9135 14.0242C22.7399 13.0544 22.3113 12.1635 21.682 11.4643C21.0526 10.7651 20.2508 10.289 19.3779 10.0961C18.505 9.90316 17.6002 10.0022 16.7779 10.3806C15.9557 10.759 15.2529 11.3998 14.7584 12.2219C14.2639 13.0441 14 14.0107 14 14.9995C14.0015 16.325 14.476 17.5957 15.3196 18.533C16.1632 19.4702 17.307 19.9975 18.5 19.9991ZM18.5 11.111C19.1922 11.111 19.8689 11.3391 20.4445 11.7663C21.0201 12.1936 21.4687 12.8009 21.7336 13.5115C21.9985 14.222 22.0678 15.0039 21.9327 15.7582C21.7977 16.5125 21.4644 17.2053 20.9749 17.7491C20.4854 18.293 19.8617 18.6633 19.1828 18.8134C18.5039 18.9634 17.8002 18.8864 17.1606 18.5921C16.5211 18.2978 15.9744 17.7994 15.5899 17.1599C15.2053 16.5204 15 15.7686 15 14.9995C15.0011 13.9686 15.3701 12.9802 16.0263 12.2512C16.6824 11.5222 17.5721 11.1122 18.5 11.111Z" fill="#333333"/>
<path d="M17.6482 16.503C17.7419 16.6072 17.8691 16.6657 18.0017 16.6657C18.1343 16.6657 18.2614 16.6072 18.3552 16.503L20.3552 14.281C20.4462 14.1763 20.4966 14.0359 20.4955 13.8903C20.4944 13.7446 20.4418 13.6053 20.3491 13.5023C20.2564 13.3993 20.131 13.3409 19.9999 13.3396C19.8688 13.3384 19.7425 13.3943 19.6482 13.4955L18.0017 15.3248L17.3552 14.6065C17.2609 14.5054 17.1346 14.4494 17.0035 14.4506C16.8724 14.4519 16.747 14.5103 16.6543 14.6133C16.5616 14.7163 16.509 14.8556 16.5078 15.0013C16.5067 15.1469 16.5571 15.2873 16.6482 15.392L17.6482 16.503Z" fill="#333333"/>
</svg>
