<svg width="41" height="40" viewBox="0 0 37 38" fill="none" xmlns="http://www.w3.org/2000/svg">
<path fill-rule="evenodd" clip-rule="evenodd" d="M13.4012 23.3482C13.4012 22.4235 12.6518 21.6741 11.7271 21.6741C11.202 21.6741 10.5781 21.6741 10.053 21.6741C9.12835 21.6741 8.37891 22.4235 8.37891 23.3482C8.37891 25.0636 8.37891 28.3292 8.37891 30.0446C8.37891 30.9693 9.12835 31.7187 10.053 31.7187C10.5781 31.7187 11.202 31.7187 11.7271 31.7187C12.6518 31.7187 13.4012 30.9693 13.4012 30.0446V23.3482ZM12.2852 23.3482C12.2852 23.0401 12.0352 22.7901 11.7271 22.7901C11.202 22.7901 10.5781 22.7901 10.053 22.7901C9.74498 22.7901 9.49498 23.0401 9.49498 23.3482C9.49498 25.0636 9.49498 28.3292 9.49498 30.0446C9.49498 30.3526 9.74498 30.6026 10.053 30.6026C10.5781 30.6026 11.202 30.6026 11.7271 30.6026C12.0352 30.6026 12.2852 30.3526 12.2852 30.0446V23.3482Z" fill="#333333"/>
<path fill-rule="evenodd" clip-rule="evenodd" d="M12.7516 30.0368C12.7516 30.0368 19.9486 31.2365 22.1584 31.6048C22.679 31.6913 23.2136 31.6288 23.6997 31.424C25.3699 30.7209 30.126 28.7187 32.4279 27.7494C33.4101 27.3359 34.0485 26.3738 34.0485 25.3085V25.308C34.0485 24.7884 33.842 24.2896 33.4742 23.9224C33.107 23.5546 32.6082 23.3481 32.0886 23.3481C29.5752 23.3481 24.5618 23.3481 24.5618 23.3481C24.2538 23.3481 24.0038 23.5981 24.0038 23.9062C24.0038 24.2142 24.2538 24.4642 24.5618 24.4642C24.5618 24.4642 29.5752 24.4642 32.0886 24.4642C32.3124 24.4642 32.5272 24.5529 32.6852 24.7114C32.8437 24.8694 32.9324 25.0842 32.9324 25.308V25.3085C32.9324 25.9252 32.563 26.4815 31.9949 26.7209C29.693 27.6897 24.9368 29.6925 23.2666 30.3956C22.9748 30.5183 22.6545 30.5557 22.342 30.5038C20.1322 30.1355 12.9346 28.9363 12.9346 28.9363C12.631 28.8855 12.3431 29.0909 12.2929 29.395C12.2421 29.6986 12.4474 29.9865 12.7516 30.0368Z" fill="#333333"/>
<path fill-rule="evenodd" clip-rule="evenodd" d="M24.0038 24.4643C24.0038 23.8477 23.5043 23.3482 22.8877 23.3482C20.7767 23.3482 17.2767 23.3482 16.0629 23.3482C15.8503 23.3482 15.6394 23.389 15.4413 23.4682C14.6701 23.7763 13.0501 24.4241 13.0501 24.4241C12.7644 24.5385 12.4391 24.3996 12.3252 24.1133C12.2108 23.8276 12.3498 23.5023 12.636 23.3884C12.636 23.3884 14.2555 22.74 15.0267 22.432C15.3565 22.2997 15.708 22.2322 16.0629 22.2322C17.2767 22.2322 20.7767 22.2322 22.8877 22.2322C24.1204 22.2322 25.1199 23.2316 25.1199 24.4643C25.1199 25.697 24.1204 26.6965 22.8877 26.6965C21.621 26.6965 20.0975 26.6965 20.0975 26.6965C19.7895 26.6965 19.5395 26.4465 19.5395 26.1384C19.5395 25.8304 19.7895 25.5804 20.0975 25.5804C20.0975 25.5804 21.621 25.5804 22.8877 25.5804C23.5043 25.5804 24.0038 25.0809 24.0038 24.4643Z" fill="#333333"/>
<path fill-rule="evenodd" clip-rule="evenodd" d="M18.981 11.6295V8.83929C18.981 8.53125 19.231 8.28125 19.5391 8.28125H22.8873C23.1953 8.28125 23.4453 8.53125 23.4453 8.83929V11.6295H26.2355C26.5435 11.6295 26.7935 11.8795 26.7935 12.1875V15.5357C26.7935 15.8438 26.5435 16.0938 26.2355 16.0938H23.4453V18.8839C23.4453 19.192 23.1953 19.442 22.8873 19.442H19.5391C19.231 19.442 18.981 19.192 18.981 18.8839V16.0938H16.1908C15.8828 16.0938 15.6328 15.8438 15.6328 15.5357V12.1875C15.6328 11.8795 15.8828 11.6295 16.1908 11.6295H18.981ZM22.3292 9.39732H20.0971V12.1875C20.0971 12.4955 19.8471 12.7455 19.5391 12.7455H16.7489V14.9777H19.5391C19.8471 14.9777 20.0971 15.2277 20.0971 15.5357V18.3259H22.3292V15.5357C22.3292 15.2277 22.5792 14.9777 22.8873 14.9777H25.6775V12.7455H22.8873C22.5792 12.7455 22.3292 12.4955 22.3292 12.1875V9.39732Z" fill="#333333"/>
</svg>
