<svg width="40" height="40" viewBox="0 0 40 40" fill="none" xmlns="http://www.w3.org/2000/svg">
<path d="M26.0048 30.5878L23.4627 22.5507L23.412 22.3935L23.3436 22.1781L23.1889 21.6887L22.3703 19.1009L22.0664 18.1378L22.0002 17.9299L21.9952 17.9147L21.7595 17.167L21.4528 16.2013L21.1461 15.2359L20.8422 14.2703C20.5783 14.3539 20.2945 14.3995 20.0005 14.3995C19.7065 14.3995 19.4226 14.3539 19.159 14.2703L18.8548 15.2359L18.2415 17.1673L18.0058 17.915L18.0007 17.9302L17.9348 18.138L17.6307 19.1011L16.812 21.6889L16.6574 22.1784L16.5889 22.3938L16.5383 22.5509L13.9961 30.588L13.6641 31.6345H26.3369L26.0048 30.5878ZM22.6542 23.3592L24.4512 29.0343L20.7152 25.2981L22.6542 23.3592ZM21.1917 18.7387L21.3843 19.3445L21.6353 20.1352L20.7152 19.2152L21.1917 18.7387ZM19.235 17.3878L19.5468 16.4044L19.8611 15.4108L20.0005 14.9723L20.1399 15.4108L20.4542 16.4044L20.7657 17.3878L20.8493 17.6514L20.0484 18.4523L20.0005 18.5004L19.1514 17.6514L19.235 17.3878ZM18.6166 19.3445L18.8092 18.7387L19.2857 19.2152L19.0855 19.4154L18.3657 20.1352L18.6166 19.3445ZM17.7042 22.2263L20.0005 19.9299L22.3272 22.2567L20.0005 24.5834L17.6889 22.2719L17.6737 22.2567L17.7042 22.2263ZM17.3468 23.3592L19.2857 25.2981L15.5498 29.0341L17.3468 23.3592ZM15.3926 30.6207L20.0005 26.0129L24.6083 30.6207H15.3926Z" fill="white"/>
<path d="M23.0223 9.30518L22.2974 10.0301C22.6066 10.4787 22.7891 11.0236 22.7891 11.6116C22.7891 12.1996 22.6066 12.7446 22.2974 13.1932L23.0223 13.9181C23.5114 13.2768 23.8029 12.4784 23.8029 11.6116C23.8029 10.7448 23.5114 9.94642 23.0223 9.30518ZM17.7047 10.0301L16.9799 9.30518C16.4907 9.94642 16.1992 10.7448 16.1992 11.6116C16.1992 12.4784 16.4907 13.2768 16.9799 13.9181L17.7047 13.1932C17.3955 12.7446 17.213 12.1996 17.213 11.6116C17.213 11.0236 17.3955 10.4787 17.7047 10.0301Z" fill="white"/>
<path d="M16.2578 8.58276L15.5405 7.86548C14.6864 8.8793 14.1719 10.1871 14.1719 11.6116C14.1719 13.036 14.6864 14.3438 15.5405 15.3576L16.2578 14.6404C15.5887 13.8141 15.1857 12.7597 15.1857 11.6116C15.1857 10.4634 15.5887 9.40903 16.2578 8.58276ZM24.4622 7.86548L23.7449 8.58276C24.414 9.40903 24.817 10.4634 24.817 11.6116C24.817 12.7597 24.414 13.8141 23.7449 14.6404L24.4622 15.3576C25.3163 14.3438 25.8309 13.036 25.8309 11.6116C25.8309 10.1871 25.3163 8.8793 24.4622 7.86548Z" fill="white"/>
<path d="M14.821 7.14575L14.1037 6.42847C12.8846 7.81234 12.1445 9.62962 12.1445 11.6116C12.1445 13.5937 12.8846 15.411 14.1037 16.7948L14.821 16.0775C13.7819 14.8787 13.1584 13.3199 13.1584 11.6116C13.1584 9.90335 13.7819 8.3446 14.821 7.14575ZM25.8996 6.42847L25.1823 7.14575C26.2215 8.3446 26.845 9.90335 26.845 11.6116C26.845 13.3199 26.2215 14.8787 25.1823 16.0775L25.8993 16.7948C27.1187 15.411 27.8588 13.5937 27.8588 11.6116C27.8588 9.62962 27.1187 7.81234 25.8996 6.42847Z" fill="white"/>
<path d="M21.7749 11.6116C21.7749 11.6547 21.7724 11.7003 21.7673 11.7434C21.7673 11.7535 21.7673 11.7637 21.7648 11.7738V11.7865C21.7648 11.789 21.7648 11.789 21.7648 11.7915C21.7648 11.8068 21.7623 11.822 21.7597 11.8372C21.7544 11.8828 21.7468 11.9259 21.7395 11.969C21.7293 12.0171 21.7164 12.0653 21.7037 12.1109C21.6987 12.1286 21.6936 12.1439 21.6885 12.1616C21.6731 12.2098 21.6556 12.2579 21.6353 12.3035C21.6125 12.3568 21.5871 12.4074 21.5618 12.4581C21.5362 12.5012 21.5111 12.5468 21.483 12.5874C21.4804 12.5899 21.4779 12.595 21.4756 12.5975C21.4728 12.6026 21.4703 12.6077 21.4655 12.6127C21.4376 12.6558 21.4046 12.6989 21.3692 12.7395C21.3334 12.7826 21.2957 12.8257 21.2551 12.8662C21.2146 12.9068 21.1715 12.9448 21.1284 12.9803C21.0878 13.0157 21.0447 13.0487 21.0017 13.0766C20.9963 13.0816 20.9915 13.0842 20.9862 13.0867C20.9837 13.0892 20.9788 13.0918 20.9761 13.0943C20.9358 13.1222 20.8899 13.1475 20.8468 13.1729C20.7479 13.2261 20.644 13.2692 20.5353 13.3047C20.5277 13.3072 20.5198 13.3098 20.5122 13.3123C20.4691 13.325 20.4235 13.3351 20.3782 13.3452C20.3728 13.3452 20.3705 13.3478 20.3655 13.3478C20.3579 13.3503 20.3526 13.3528 20.3452 13.3528C20.292 13.363 20.2388 13.3706 20.183 13.3757C20.1249 13.3833 20.0616 13.3858 20.0008 13.3858C19.9399 13.3858 19.8766 13.3833 19.8183 13.3757C19.7625 13.3706 19.7093 13.363 19.6561 13.3528C19.6485 13.3528 19.6434 13.3503 19.6358 13.3478C19.6307 13.3478 19.6282 13.3452 19.6231 13.3452C19.5775 13.3351 19.5319 13.325 19.4888 13.3123C19.4812 13.3098 19.4736 13.3072 19.466 13.3047C19.357 13.2692 19.2531 13.2261 19.1542 13.1729C19.1111 13.1475 19.0655 13.1222 19.0249 13.0943C19.0224 13.0918 19.0173 13.0892 19.0148 13.0867C19.0097 13.0842 19.0047 13.0816 18.9996 13.0766C18.9565 13.0487 18.9134 13.0157 18.8729 12.9803C18.8298 12.9448 18.7867 12.9068 18.7461 12.8662C18.7056 12.8257 18.6676 12.7826 18.6321 12.7395C18.5966 12.6989 18.5637 12.6558 18.5358 12.6127C18.5307 12.6077 18.5282 12.6026 18.5256 12.5975C18.5231 12.595 18.5206 12.5899 18.518 12.5874C18.4902 12.5468 18.4648 12.5012 18.4395 12.4581C18.4141 12.4074 18.3888 12.3568 18.366 12.3035C18.3457 12.2579 18.3279 12.2098 18.3127 12.1616C18.3077 12.1439 18.3026 12.1286 18.2975 12.1109C18.2849 12.0653 18.2722 12.0171 18.262 11.969C18.2544 11.9259 18.2468 11.8828 18.2418 11.8372C18.2392 11.822 18.2367 11.8068 18.2367 11.7915C18.2367 11.789 18.2367 11.789 18.2367 11.7865V11.7738C18.2342 11.7637 18.2342 11.7535 18.2342 11.7434C18.2291 11.7003 18.2266 11.6547 18.2266 11.6116C18.2266 11.5685 18.2291 11.5229 18.2342 11.4798C18.2342 11.4697 18.2342 11.4595 18.2367 11.4494V11.4367C18.2367 11.4342 18.2367 11.4342 18.2367 11.4316C18.2367 11.4164 18.2392 11.4012 18.2418 11.386C18.2468 11.3404 18.2544 11.2973 18.262 11.2542C18.2696 11.2137 18.2798 11.1757 18.2925 11.1351C18.2925 11.13 18.295 11.1224 18.2975 11.1174C18.3001 11.0996 18.3051 11.0793 18.3127 11.0616C18.3279 11.0134 18.3457 10.9653 18.366 10.9197C18.3888 10.8664 18.4141 10.8157 18.4395 10.7651C18.4648 10.722 18.4902 10.6763 18.518 10.6358C18.5206 10.6333 18.5231 10.6282 18.5256 10.6257C18.5282 10.6206 18.5307 10.6155 18.5358 10.6104C18.5637 10.5674 18.5966 10.5243 18.6321 10.4837C18.6676 10.4406 18.7056 10.3975 18.7461 10.357C18.7867 10.3164 18.8298 10.2784 18.8729 10.2429C18.9134 10.2074 18.9565 10.1745 18.9996 10.1466C19.0047 10.1415 19.0097 10.139 19.0148 10.1365C19.0173 10.1339 19.0224 10.1314 19.0249 10.1289C19.0655 10.101 19.1111 10.0757 19.1542 10.0503C19.2049 10.025 19.2556 9.99961 19.3088 9.9768C19.3544 9.95653 19.4026 9.93878 19.4508 9.92358C19.4685 9.91597 19.4888 9.9109 19.5065 9.90837C19.5116 9.90584 19.5192 9.9033 19.5243 9.9033C19.5648 9.89063 19.6028 9.88049 19.6434 9.87289C19.6865 9.86528 19.7296 9.85768 19.7752 9.85261C19.7904 9.85008 19.8056 9.84754 19.8208 9.84754C19.8233 9.84754 19.8233 9.84754 19.8259 9.84754H19.8385C19.8487 9.84501 19.8588 9.84501 19.869 9.84501C19.912 9.83994 19.9577 9.8374 20.0008 9.8374C20.0438 9.8374 20.0895 9.83994 20.1326 9.84501C20.1427 9.84501 20.1528 9.84501 20.163 9.84754H20.1756C20.1782 9.84754 20.1782 9.84754 20.1807 9.84754C20.1959 9.84754 20.2111 9.85008 20.2263 9.85261C20.272 9.85768 20.315 9.86528 20.3581 9.87289C20.3987 9.88049 20.4367 9.89063 20.4773 9.9033C20.4826 9.9033 20.4899 9.90584 20.495 9.90837C20.5125 9.9109 20.5328 9.91597 20.5508 9.92358C20.5989 9.93878 20.6471 9.95653 20.6929 9.9768C20.7462 9.99961 20.7966 10.025 20.8473 10.0503C20.8904 10.0757 20.9363 10.101 20.9766 10.1289C20.9793 10.1314 20.9842 10.1339 20.9867 10.1365C20.992 10.139 20.9968 10.1415 21.0022 10.1466C21.0452 10.1745 21.0883 10.2074 21.1289 10.2429C21.172 10.2784 21.2151 10.3164 21.2556 10.357C21.2962 10.3975 21.3342 10.4406 21.3697 10.4837C21.4052 10.5243 21.4381 10.5674 21.466 10.6104C21.4711 10.6155 21.4733 10.6206 21.4761 10.6257C21.4787 10.6282 21.4812 10.6333 21.4835 10.6358C21.5114 10.6763 21.5367 10.722 21.5623 10.7651C21.5876 10.8157 21.613 10.8664 21.6358 10.9197C21.6561 10.9653 21.6736 11.0134 21.689 11.0616C21.6966 11.0793 21.7017 11.0996 21.7042 11.1174C21.707 11.1224 21.7096 11.13 21.7096 11.1351C21.7222 11.1757 21.7324 11.2137 21.74 11.2542C21.7473 11.2973 21.7552 11.3404 21.7602 11.386C21.7628 11.4012 21.7653 11.4164 21.7653 11.4316C21.7653 11.4342 21.7653 11.4342 21.7653 11.4367V11.4494C21.7679 11.4595 21.7679 11.4697 21.7679 11.4798C21.7724 11.5229 21.7749 11.5685 21.7749 11.6116Z" fill="white"/>
</svg>
