<svg width="23" height="23" viewBox="0 0 23 23" fill="none" xmlns="http://www.w3.org/2000/svg">
<path d="M11.3296 0C5.07855 0 0 5.07853 0 11.3296C0 17.5807 5.07855 22.6592 11.3296 22.6592C17.5807 22.6592 22.6592 17.5807 22.6592 11.3296C22.6592 5.07853 17.5807 0 11.3296 0ZM11.3296 1.02997C17.0241 1.02997 21.6293 5.63516 21.6293 11.3296C21.6293 17.0241 17.0241 21.6293 11.3296 21.6293C5.63518 21.6293 1.02997 17.0241 1.02997 11.3296C1.02997 5.63516 5.63518 1.02997 11.3296 1.02997ZM11.2733 2.82436C11.1453 2.83842 11.0272 2.89992 10.9423 2.99674C10.8574 3.09355 10.8119 3.21865 10.8146 3.34739V11.3296C10.8157 11.4619 10.8675 11.5886 10.9595 11.6837L16.1093 17.091C16.1561 17.1405 16.2123 17.1803 16.2746 17.208C16.3368 17.2356 16.404 17.2507 16.4721 17.2522C16.5402 17.2537 16.608 17.2417 16.6714 17.2169C16.7349 17.192 16.7928 17.1548 16.8418 17.1075C16.8908 17.0601 16.9298 17.0034 16.9568 16.9408C16.9837 16.8782 16.998 16.8109 16.9987 16.7428C16.9994 16.6746 16.9866 16.607 16.961 16.5439C16.9354 16.4807 16.8976 16.4233 16.8496 16.3748L11.8446 11.1204V3.34739C11.8462 3.27408 11.8321 3.20128 11.8033 3.13385C11.7744 3.06642 11.7316 3.00593 11.6775 2.95642C11.6234 2.9069 11.5594 2.86951 11.4896 2.84673C11.4199 2.82396 11.3462 2.81633 11.2733 2.82436Z" fill="black"/>
</svg>
