<svg width="22" height="22" viewBox="0 0 22 22" fill="none" xmlns="http://www.w3.org/2000/svg">
<path d="M19.112 8.63996C18.8592 8.63996 18.6167 8.7404 18.438 8.91917C18.2592 9.09794 18.1588 9.34041 18.1588 9.59323V18.1726C18.1588 18.4254 18.0583 18.6679 17.8796 18.8467C17.7008 19.0254 17.4583 19.1259 17.2055 19.1259H3.8598C3.60697 19.1259 3.36451 19.0254 3.18574 18.8467C3.00696 18.6679 2.90653 18.4254 2.90653 18.1726V4.8269C2.90653 4.57408 3.00696 4.33161 3.18574 4.15284C3.36451 3.97407 3.60697 3.87364 3.8598 3.87364H12.4392C12.692 3.87364 12.9345 3.7732 13.1132 3.59443C13.292 3.41566 13.3924 3.17319 13.3924 2.92037C13.3924 2.66755 13.292 2.42508 13.1132 2.24631C12.9345 2.06754 12.692 1.96711 12.4392 1.96711H3.8598C3.10133 1.96711 2.37393 2.26841 1.83761 2.80472C1.3013 3.34104 1 4.06844 1 4.8269V18.1726C1 18.9311 1.3013 19.6585 1.83761 20.1948C2.37393 20.7311 3.10133 21.0324 3.8598 21.0324H17.2055C17.964 21.0324 18.6914 20.7311 19.2277 20.1948C19.764 19.6585 20.0653 18.9311 20.0653 18.1726V9.59323C20.0653 9.34041 19.9649 9.09794 19.7861 8.91917C19.6073 8.7404 19.3649 8.63996 19.112 8.63996ZM20.5515 3.12056L18.9119 1.48094C18.7342 1.30305 18.518 1.1684 18.2799 1.0874C18.0419 1.00641 17.7885 0.981241 17.5391 1.01384C17.08 1.07356 16.6539 1.28492 16.3285 1.6144L9.57939 8.40165C9.38673 8.59006 9.23147 8.81324 9.12182 9.0594L7.86351 11.9192C7.71587 12.2306 7.66599 12.5794 7.72044 12.9198C7.77489 13.2601 7.93112 13.5759 8.16855 13.8257C8.31945 13.9779 8.49919 14.0984 8.69725 14.1803C8.89531 14.2621 9.1077 14.3036 9.322 14.3024C9.58787 14.3028 9.85088 14.2476 10.0941 14.1403L12.9539 12.882C13.1992 12.775 13.4223 12.623 13.6117 12.434L20.3799 5.66578C20.7319 5.34597 20.9464 4.90227 20.9784 4.42774C21.0104 3.9532 20.8574 3.48472 20.5515 3.12056V3.12056ZM19.0548 4.3598L12.2771 11.128C12.2584 11.1483 12.2357 11.1645 12.2104 11.1756L9.80817 12.2242L10.9044 9.74575L17.6726 2.97757L19.112 4.34074L19.0548 4.3598Z" fill="#7E7C84" stroke="#7E7C84" stroke-width="0.705268"/>
</svg>
