<svg width="40" height="40" viewBox="0 0 40 40" fill="none" xmlns="http://www.w3.org/2000/svg">
<circle cx="20" cy="20" r="19.5" fill="#DDECFF" stroke="#0174FF"/>
<path d="M23.5 13C24.9045 13 25.6067 13 26.1111 13.3371C26.3295 13.483 26.517 13.6705 26.6629 13.8889C27 14.3933 27 15.0955 27 16.5V26C27 27.8856 27 28.8284 26.4142 29.4142C25.8284 30 24.8856 30 23 30H17C15.1144 30 14.1716 30 13.5858 29.4142C13 28.8284 13 27.8856 13 26V16.5C13 15.0955 13 14.3933 13.3371 13.8889C13.483 13.6705 13.6705 13.483 13.8889 13.3371C14.3933 13 15.0955 13 16.5 13" stroke="#0174FF" stroke-width="2"/>
<path d="M17 13C17 11.8954 17.8954 11 19 11H21C22.1046 11 23 11.8954 23 13C23 14.1046 22.1046 15 21 15H19C17.8954 15 17 14.1046 17 13Z" stroke="#0174FF" stroke-width="2"/>
<path d="M17 20L23 20" stroke="#0174FF" stroke-width="2" stroke-linecap="round"/>
<path d="M17 24L21 24" stroke="#0174FF" stroke-width="2" stroke-linecap="round"/>
</svg>

