<svg width="42" height="42" viewBox="0 0 42 42" fill="none" xmlns="http://www.w3.org/2000/svg">
<path d="M1 21.001C1 32.0459 9.95415 41 21.001 41C32.0459 41 41 32.0459 41 21.001C41 9.95615 32.0459 1 21.001 1C9.95615 1 1 9.95415 1 21.001Z" fill="#0174FF"/>
<path d="M1 21.001C1 32.0459 9.95415 41 21.001 41C32.0459 41 41 32.0459 41 21.001C41 9.95615 32.0459 1 21.001 1C9.95615 1 1 9.95415 1 21.001Z" stroke="url(#paint0_linear_196_4607)" stroke-opacity="0.8" stroke-width="0.466667" style="mix-blend-mode:soft-light"/>
<path d="M24.5 14C25.9045 14 26.6067 14 27.1111 14.3371C27.3295 14.483 27.517 14.6705 27.6629 14.8889C28 15.3933 28 16.0955 28 17.5V27C28 28.8856 28 29.8284 27.4142 30.4142C26.8284 31 25.8856 31 24 31H18C16.1144 31 15.1716 31 14.5858 30.4142C14 29.8284 14 28.8856 14 27V17.5C14 16.0955 14 15.3933 14.3371 14.8889C14.483 14.6705 14.6705 14.483 14.8889 14.3371C15.3933 14 16.0955 14 17.5 14" stroke="white" stroke-width="2"/>
<path d="M18 14C18 12.8954 18.8954 12 20 12H22C23.1046 12 24 12.8954 24 14C24 15.1046 23.1046 16 22 16H20C18.8954 16 18 15.1046 18 14Z" stroke="white" stroke-width="2"/>
<path d="M18 21L24 21" stroke="white" stroke-width="2" stroke-linecap="round"/>
<path d="M18 25L22 25" stroke="white" stroke-width="2" stroke-linecap="round"/>
<defs>
<linearGradient id="paint0_linear_196_4607" x1="1.74977" y1="1.72727" x2="34.2489" y2="37.3234" gradientUnits="userSpaceOnUse">
<stop stop-color="white"/>
<stop offset="1" stop-color="white" stop-opacity="0"/>
</linearGradient>
</defs>
</svg>

