<svg width="14" height="26" viewBox="0 0 14 26" fill="none" xmlns="http://www.w3.org/2000/svg">
<path fill-rule="evenodd" clip-rule="evenodd" d="M2.70507 25.7404C2.41177 25.7404 2.174 25.5026 2.174 25.2093C2.174 24.916 2.41177 24.6782 2.70507 24.6782H6.77662L6.77669 18.6382C3.40762 18.3679 0.757812 15.5482 0.757812 12.1095V10.3393C0.757812 10.046 0.995581 9.80822 1.28888 9.80822C1.58219 9.80822 1.81996 10.046 1.81996 10.3393V12.1095C1.81996 15.1403 4.2769 17.5973 7.30769 17.5973C10.3011 17.5973 12.7347 15.2006 12.7943 12.2215L12.7954 12.1095V10.3393C12.7954 10.046 13.0332 9.80822 13.3265 9.80822C13.6198 9.80822 13.8576 10.046 13.8576 10.3393V12.1095C13.8576 15.548 11.2079 18.3677 7.83904 18.6382L7.83876 24.6782H11.9103C12.2036 24.6782 12.4414 24.916 12.4414 25.2093C12.4414 25.5026 12.2036 25.7404 11.9103 25.7404H2.70507ZM7.30769 0.957031C9.36081 0.957031 11.0252 2.62141 11.0252 4.67453V12.1095C11.0252 14.1626 9.36081 15.827 7.30769 15.827C5.25457 15.827 3.59019 14.1626 3.59019 12.1095V4.67453C3.59019 2.62141 5.25457 0.957031 7.30769 0.957031Z" fill="black"/>
</svg>
