<svg width="13" height="12" viewBox="0 0 9 6" fill="none" xmlns="http://www.w3.org/2000/svg">
<path d="M4.48233 5.99998C4.36445 6.00074 4.24759 5.97554 4.13845 5.9258C4.02932 5.87607 3.93006 5.8028 3.84636 5.71018L0.263428 1.71292C0.179911 1.61974 0.113662 1.50913 0.0684629 1.38739C0.0232639 1.26565 1.75999e-09 1.13517 0 1.0034C-1.75999e-09 0.871635 0.0232639 0.741156 0.0684629 0.619417C0.113662 0.497679 0.179911 0.387065 0.263428 0.29389C0.346944 0.200715 0.446093 0.126805 0.555213 0.076379C0.664333 0.0259532 0.781288 -1.96351e-09 0.899398 0C1.01751 1.96351e-09 1.13446 0.0259532 1.24358 0.076379C1.3527 0.126805 1.45185 0.200715 1.53537 0.29389L4.48233 3.60163L7.43825 0.423801C7.52065 0.321581 7.62107 0.239429 7.73323 0.182482C7.84538 0.125535 7.96687 0.0950183 8.09008 0.0928405C8.21329 0.0906628 8.33558 0.11687 8.4493 0.169825C8.56301 0.222779 8.66571 0.301342 8.75097 0.400599C8.83624 0.499855 8.90222 0.61767 8.94481 0.746676C8.9874 0.875682 9.00566 1.0131 8.99847 1.15035C8.99128 1.28759 8.95879 1.4217 8.90302 1.54429C8.84725 1.66688 8.76941 1.77532 8.67436 1.86282L5.09143 5.72018C4.92762 5.89637 4.70985 5.99641 4.48233 5.99998Z" fill="#404B69"/>
</svg>
