<svg width="38" height="38" viewBox="0 0 38 38" fill="none" xmlns="http://www.w3.org/2000/svg">
<g filter="url(#filter0_dd_0_1)">
<path d="M9 17.5004C9 22.1945 12.8055 26 17.5004 26C22.1945 26 26 22.1945 26 17.5004C26 12.8064 22.1945 9 17.5004 9C12.8064 9 9 12.8055 9 17.5004Z" fill="#0174FF"/>
<path d="M9 17.5004C9 22.1945 12.8055 26 17.5004 26C22.1945 26 26 22.1945 26 17.5004C26 12.8064 22.1945 9 17.5004 9C12.8064 9 9 12.8055 9 17.5004Z" stroke="url(#paint0_linear_0_1)" stroke-opacity="0.8" stroke-width="0.283333" style="mix-blend-mode:soft-light"/>
<path d="M9 17.5004C9 22.1945 12.8055 26 17.5004 26C22.1945 26 26 22.1945 26 17.5004C26 12.8064 22.1945 9 17.5004 9C12.8064 9 9 12.8055 9 17.5004Z" stroke="black" stroke-opacity="0.2" stroke-width="0.283333"/>
<path d="M9 17.5004C9 22.1945 12.8055 26 17.5004 26C22.1945 26 26 22.1945 26 17.5004C26 12.8064 22.1945 9 17.5004 9C12.8064 9 9 12.8055 9 17.5004Z" stroke="black" stroke-opacity="0.2" stroke-width="0.283333"/>
</g>
<path d="M16.0007 17.2481V16.754V15.696V14.7101V14.4422C16.0007 14.2487 15.9618 14.07 15.8818 13.894C15.7453 13.5938 15.443 13.3553 15.1225 13.2829C14.9522 13.2445 14.7821 13.2503 14.6094 13.2503H14.1276C14.0236 13.2503 13.9186 13.2607 13.8173 13.2846C13.6361 13.3274 13.4791 13.421 13.3371 13.5381C13.0862 13.7452 12.9491 14.0796 12.9465 14.4007C12.9461 14.4509 12.9465 14.5012 12.9465 14.5513V15.4219V16.5212V17.2132V17.248C12.9465 17.4527 13.1265 17.6489 13.3379 17.6394C13.5499 17.6299 13.7293 17.4674 13.7293 17.248V16.2584V14.7137C13.7293 14.575 13.7186 14.4301 13.7368 14.2922C13.7322 14.3269 13.7275 14.3615 13.7229 14.3963C13.7328 14.3317 13.7499 14.2694 13.7749 14.209C13.7617 14.2401 13.7486 14.2713 13.7354 14.3025C13.7609 14.2439 13.7926 14.1893 13.8309 14.1381C13.8105 14.1646 13.79 14.1909 13.7697 14.2174C13.8117 14.1634 13.8595 14.1156 13.9134 14.0736C13.887 14.094 13.8607 14.1144 13.8342 14.1348C13.8854 14.0965 13.94 14.0648 13.9986 14.0393C13.9674 14.0525 13.9363 14.0656 13.9051 14.0788C13.9655 14.0539 14.0277 14.0367 14.0924 14.0268C14.0577 14.0314 14.023 14.0361 13.9883 14.0408C14.147 14.0197 14.314 14.0332 14.4735 14.0332C14.633 14.0332 14.8001 14.0198 14.9588 14.0408C14.9241 14.0361 14.8894 14.0314 14.8547 14.0268C14.9193 14.0367 14.9815 14.0539 15.042 14.0788C15.0108 14.0656 14.9797 14.0525 14.9485 14.0393C15.0071 14.0648 15.0616 14.0965 15.1128 14.1348C15.0864 14.1144 15.06 14.094 15.0336 14.0736C15.0876 14.1156 15.1354 14.1634 15.1774 14.2174C15.157 14.1909 15.1366 14.1646 15.1162 14.1381C15.1545 14.1893 15.1862 14.2439 15.2116 14.3025C15.1985 14.2714 15.1854 14.2402 15.1722 14.209C15.1971 14.2694 15.2143 14.3316 15.2242 14.3963C15.2195 14.3616 15.2148 14.3269 15.2102 14.2922C15.2255 14.4076 15.2178 14.5281 15.2178 14.6441V15.3156V16.8818V17.2481C15.2178 17.4528 15.3978 17.6489 15.6092 17.6395C15.8214 17.63 16.0007 17.4675 16.0007 17.2481L16.0007 17.2481Z" fill="white"/>
<path d="M13.338 15.8355H14.1055H15.3288H15.6095C15.8142 15.8355 16.0104 15.6555 16.0009 15.4441C15.9914 15.2321 15.8289 15.0527 15.6095 15.0527H14.842H13.6187H13.338C13.1333 15.0527 12.9371 15.2328 12.9466 15.4441C12.9561 15.6562 13.1186 15.8355 13.338 15.8355Z" fill="white"/>
<path d="M18.027 18.9072H18.4062H19.3174H20.4261H21.3799C21.5345 18.9072 21.6896 18.9102 21.8442 18.9072C21.8464 18.9071 21.8487 18.9072 21.8509 18.9072C22.0556 18.9072 22.2518 18.7271 22.2423 18.5158C22.2328 18.3037 22.0703 18.1244 21.8509 18.1244H21.4717H20.5605H19.4518H18.498C18.3434 18.1244 18.1883 18.1214 18.0337 18.1244C18.0315 18.1245 18.0292 18.1244 18.027 18.1244C17.8223 18.1244 17.6261 18.3044 17.6356 18.5158C17.6451 18.7278 17.8076 18.9072 18.027 18.9072Z" fill="white"/>
<path d="M20.7781 18.5148C20.7828 18.605 20.7767 18.6967 20.7691 18.7866C20.7647 18.8396 20.7588 18.8925 20.7516 18.9453C20.7563 18.9106 20.761 18.876 20.7656 18.8412C20.7243 19.1459 20.6429 19.4448 20.5235 19.728C20.5367 19.6969 20.5498 19.6657 20.563 19.6345C20.4546 19.8897 20.315 20.1306 20.146 20.3506C20.1664 20.3241 20.1868 20.2978 20.2072 20.2713C20.0382 20.4899 19.8416 20.6851 19.6236 20.8547C19.6501 20.8344 19.6764 20.8139 19.7029 20.7935C19.4443 20.9932 19.1589 21.1545 18.8585 21.2823C18.8897 21.2691 18.9208 21.256 18.9521 21.2428C18.6367 21.3757 18.3074 21.4713 17.9721 21.5388C17.8798 21.5574 17.7845 21.6395 17.7383 21.7187C17.6891 21.8025 17.6684 21.9262 17.6988 22.0203C17.7678 22.2336 17.9649 22.337 18.1803 22.2936C18.7504 22.1787 19.316 21.9797 19.8106 21.6699C20.2245 21.4106 20.5761 21.0814 20.8649 20.6887C21.0844 20.3904 21.2487 20.0523 21.3674 19.7021C21.4592 19.4311 21.5127 19.1513 21.5441 18.8674C21.5568 18.7526 21.5662 18.6353 21.5612 18.5197C21.5611 18.5181 21.561 18.5164 21.5609 18.5148C21.5502 18.3107 21.3885 18.1136 21.1695 18.1234C20.9666 18.1324 20.7666 18.2958 20.778 18.5148L20.7781 18.5148Z" fill="white"/>
<path d="M18.688 19.8374C18.8491 20.2291 19.06 20.5807 19.334 20.905C19.676 21.3099 20.1137 21.6419 20.5853 21.8813C20.9383 22.0605 21.3132 22.1982 21.6968 22.2949C21.8951 22.3448 22.1306 22.2307 22.1783 22.0215C22.2246 21.8185 22.1174 21.5936 21.905 21.5401C21.6519 21.4763 21.4036 21.3955 21.163 21.2941C21.1941 21.3073 21.2253 21.3204 21.2565 21.3336C20.9371 21.1977 20.6341 21.0261 20.3584 20.8148C20.3849 20.8352 20.4112 20.8556 20.4377 20.876C20.1974 20.6904 19.9806 20.4762 19.7943 20.2364C19.8147 20.2628 19.8351 20.2891 19.8555 20.3156C19.6775 20.0848 19.5285 19.8324 19.415 19.5639C19.4282 19.595 19.4413 19.6262 19.4545 19.6574C19.4506 19.6481 19.4467 19.6387 19.4428 19.6294C19.4023 19.531 19.3585 19.4513 19.263 19.3955C19.1791 19.3464 19.0555 19.3256 18.9614 19.356C18.8666 19.3867 18.7752 19.4453 18.7275 19.5359C18.6818 19.6223 18.649 19.7423 18.688 19.8374L18.688 19.8374Z" fill="white"/>
<path d="M20.3297 18.5156V17.7843C20.3297 17.5796 20.1496 17.3834 19.9383 17.3929C19.7262 17.4024 19.5469 17.5649 19.5469 17.7843V18.5156C19.5469 18.7204 19.7269 18.9165 19.9383 18.907C20.1503 18.8975 20.3297 18.7351 20.3297 18.5156Z" fill="white"/>
<path d="M16.646 20.7091H15.3352C15.2492 20.7091 15.1631 20.7117 15.0776 20.701C15.1122 20.7056 15.1469 20.7103 15.1817 20.7149C15.1021 20.7037 15.0253 20.6831 14.9507 20.653C14.9819 20.6662 15.013 20.6793 15.0443 20.6925C14.9674 20.66 14.896 20.6184 14.8298 20.5678C14.8562 20.5882 14.8826 20.6086 14.909 20.629C14.8479 20.5807 14.7932 20.526 14.745 20.4649C14.7654 20.4914 14.7858 20.5177 14.8062 20.5442C14.7555 20.4779 14.7139 20.4065 14.6815 20.3297C14.6947 20.3609 14.7078 20.392 14.7209 20.4232C14.6908 20.3487 14.6703 20.2719 14.659 20.1923C14.6637 20.227 14.6684 20.2616 14.673 20.2964C14.6627 20.2136 14.6649 20.1303 14.6649 20.047V19.6508V18.7106V18.4855C14.6649 18.2808 14.4848 18.0846 14.2735 18.0941C14.0614 18.1036 13.8821 18.2661 13.8821 18.4855V19.207V20.1286C13.8821 20.3536 13.9276 20.5617 14.0235 20.7653C14.1691 21.0745 14.4497 21.2966 14.7634 21.4163C14.928 21.4791 15.1054 21.4921 15.2801 21.4921H15.7249C16.0258 21.4921 16.3268 21.4952 16.6276 21.4921C16.6339 21.492 16.64 21.4921 16.6462 21.4921C16.851 21.4921 17.0471 21.3121 17.0376 21.1007C17.0279 20.8884 16.8654 20.7091 16.646 20.7091L16.646 20.7091Z" fill="white"/>
<path d="M17.308 14.8492H18.2512H19.7017C19.8368 14.8492 19.9766 14.8406 20.111 14.8573C20.0763 14.8527 20.0416 14.848 20.0069 14.8434C20.0864 14.8546 20.1633 14.8752 20.2378 14.9053C20.2066 14.8921 20.1755 14.879 20.1443 14.8658C20.2211 14.8983 20.2925 14.9399 20.3587 14.9905C20.3323 14.9701 20.3059 14.9497 20.2795 14.9293C20.3407 14.9776 20.3953 15.0323 20.4435 15.0934C20.4232 15.0669 20.4027 15.0406 20.3824 15.0141C20.433 15.0804 20.4746 15.1518 20.507 15.2286C20.4939 15.1974 20.4808 15.1663 20.4676 15.1351C20.4977 15.2096 20.5182 15.2864 20.5295 15.366C20.5249 15.3313 20.5201 15.2967 20.5155 15.2619C20.5358 15.4249 20.5237 15.5952 20.5237 15.759V16.2213C20.5237 16.426 20.7037 16.6222 20.9151 16.6127C21.1271 16.6032 21.3064 16.4407 21.3064 16.2213C21.3064 15.9427 21.3084 15.664 21.3064 15.3853C21.304 15.0228 21.1519 14.6546 20.8778 14.4127C20.6285 14.1926 20.3175 14.068 19.9835 14.0662C19.7499 14.0649 19.5163 14.0662 19.2827 14.0662H18.0678C17.8186 14.0662 17.5689 14.0623 17.3196 14.0662C17.3156 14.0663 17.3117 14.0662 17.3077 14.0662C17.103 14.0662 16.9069 14.2462 16.9163 14.4576C16.9261 14.6699 17.0886 14.8492 17.308 14.8492L17.308 14.8492Z" fill="white"/>
<defs>
<filter id="filter0_dd_0_1" x="0.358398" y="0.357421" width="37.1165" height="37.1185" filterUnits="userSpaceOnUse" color-interpolation-filters="sRGB">
<feFlood flood-opacity="0" result="BackgroundImageFix"/>
<feColorMatrix in="SourceAlpha" type="matrix" values="0 0 0 0 0 0 0 0 0 0 0 0 0 0 0 0 0 0 127 0" result="hardAlpha"/>
<feOffset dx="2.83333" dy="2.83333"/>
<feGaussianBlur stdDeviation="4.25"/>
<feColorMatrix type="matrix" values="0 0 0 0 0.214583 0 0 0 0 0.300417 0 0 0 0 0.429167 0 0 0 0.5 0"/>
<feBlend mode="normal" in2="BackgroundImageFix" result="effect1_dropShadow_0_1"/>
<feColorMatrix in="SourceAlpha" type="matrix" values="0 0 0 0 0 0 0 0 0 0 0 0 0 0 0 0 0 0 127 0" result="hardAlpha"/>
<feOffset dx="-2.83333" dy="-2.83333"/>
<feGaussianBlur stdDeviation="2.83333"/>
<feColorMatrix type="matrix" values="0 0 0 0 1 0 0 0 0 1 0 0 0 0 1 0 0 0 1 0"/>
<feBlend mode="normal" in2="effect1_dropShadow_0_1" result="effect2_dropShadow_0_1"/>
<feBlend mode="normal" in="SourceGraphic" in2="effect2_dropShadow_0_1" result="shape"/>
</filter>
<linearGradient id="paint0_linear_0_1" x1="9.31865" y1="9.30909" x2="23.1308" y2="24.4374" gradientUnits="userSpaceOnUse">
<stop stop-color="white"/>
<stop offset="1" stop-color="white" stop-opacity="0"/>
</linearGradient>
</defs>
</svg>
