<svg width="24" height="24" viewBox="0 0 24 24" fill="none" xmlns="http://www.w3.org/2000/svg">
<path d="M4.88651 2.31519C3.9034 3.0696 3.03697 3.96491 2.31519 4.97222L3.68656 6.00075C4.31606 5.12772 5.06638 4.34854 5.91504 3.68656L4.88651 2.31519ZM2.22948 8.8292L0.600973 8.31494C0.186958 9.49891 -0.0161123 10.7463 0.000997755 12.0005H1.71521C1.71173 10.9224 1.88547 9.85099 2.22948 8.8292ZM0.600973 15.7718C0.998467 16.9669 1.57657 18.0942 2.31519 19.1145L3.68656 18.086C3.06694 17.2184 2.57616 16.2657 2.22948 15.2575L0.600973 15.7718ZM4.97222 21.6858C5.99246 22.4244 7.11976 23.0025 8.31494 23.4L8.8292 21.7715C7.82102 21.4248 6.86832 20.9341 6.00075 20.3144L4.97222 21.6858ZM8.31494 0.600973L8.8292 2.22948C9.85099 1.88547 10.9224 1.71173 12.0005 1.71521V0.000997755C10.7463 -0.0161123 9.49891 0.186958 8.31494 0.600973ZM19.0288 21.6858C20.0384 20.9334 20.9334 20.0384 21.6858 19.0288L20.3144 18.0002C19.677 18.8949 18.8949 19.677 18.0002 20.3144L19.0288 21.6858ZM21.7715 15.1718L23.4 15.6861C23.7729 14.492 23.9749 13.2512 24 12.0005H22.2858C22.2893 13.0786 22.1155 14.15 21.7715 15.1718ZM23.3143 8.22923C22.9168 7.03405 22.3387 5.90675 21.6001 4.88651L20.2287 5.91504C20.8483 6.78261 21.3391 7.73531 21.6858 8.74349L23.3143 8.22923ZM18.9431 2.22948C17.9228 1.49086 16.7955 0.912756 15.6003 0.515262L15.0861 2.14377C16.0943 2.49045 17.047 2.98123 17.9145 3.60085L18.9431 2.22948ZM15.6861 23.4L15.1718 21.7715C14.15 22.1155 13.0786 22.2893 12.0005 22.2858V24C13.2462 23.9258 14.4811 23.7248 15.6861 23.4Z" fill="#0174FF"/>
</svg>
