<svg width="17" height="17" viewBox="0 0 17 17" fill="none" xmlns="http://www.w3.org/2000/svg">
<circle cx="8.5" cy="8.5" r="8.5" fill="#0174FF"/>
<path d="M6.61404 7.85629V7.25622V5.97108V4.77355V4.44813C6.61404 4.21305 6.56802 3.99601 6.47332 3.78219C6.3119 3.41757 5.95418 3.12787 5.57491 3.03997C5.37341 2.9933 5.17219 3.00038 4.96787 3.00038H4.3977C4.27465 3.00038 4.15046 3.013 4.03063 3.04201C3.81618 3.09401 3.63038 3.20772 3.46244 3.34994C3.16551 3.60152 3.00331 4.00773 3.00021 4.39768C2.99974 4.45871 3.00021 4.51974 3.00021 4.58066V5.63809V6.9734V7.8139V7.8562C3.00021 8.10487 3.21323 8.34314 3.46332 8.33161C3.71424 8.32007 3.92642 8.12272 3.92642 7.8562V6.65419V4.7779C3.92642 4.60947 3.91385 4.43348 3.9354 4.26593C3.92992 4.30803 3.92434 4.35014 3.91886 4.39234C3.93058 4.31385 3.9509 4.23828 3.98039 4.16483C3.96479 4.20267 3.94929 4.24051 3.9337 4.27844C3.96385 4.20723 4.00137 4.14096 4.04664 4.07877C4.02254 4.11088 3.99834 4.1429 3.97424 4.17501C4.02396 4.10943 4.08047 4.05141 4.14436 4.00038C4.11308 4.02512 4.08189 4.04996 4.05061 4.0747C4.11119 4.02822 4.17574 3.9897 4.24511 3.95876C4.20825 3.97476 4.17139 3.99068 4.13444 4.00668C4.20598 3.97641 4.27951 3.95555 4.35606 3.94352C4.31505 3.94915 4.27403 3.95487 4.23292 3.9605C4.42071 3.93499 4.61834 3.95128 4.80705 3.95128C4.99577 3.95128 5.19341 3.93508 5.38119 3.9605C5.34017 3.95487 5.29915 3.94915 5.25804 3.94352C5.3345 3.95555 5.40812 3.97641 5.47967 4.00668C5.44281 3.99068 5.40595 3.97476 5.369 3.95876C5.43837 3.9897 5.50292 4.02822 5.5635 4.0747C5.53221 4.04996 5.50103 4.02512 5.46974 4.00038C5.53363 4.05141 5.59015 4.10943 5.63986 4.17501C5.61576 4.1429 5.59157 4.11088 5.56747 4.07877C5.61274 4.14096 5.65026 4.20723 5.68041 4.27844C5.66481 4.2406 5.64931 4.20276 5.63372 4.16483C5.66321 4.23827 5.68352 4.31376 5.69524 4.39234C5.68976 4.35024 5.68419 4.30813 5.6787 4.26593C5.69676 4.40612 5.68768 4.55243 5.68768 4.6934V5.50906V7.41136V7.8563C5.68768 8.10497 5.90071 8.34324 6.15079 8.33171C6.4019 8.32017 6.61406 8.12282 6.61406 7.8563L6.61404 7.85629Z" fill="white"/>
<path d="M3.4635 6.14126H4.37163H5.81904H6.15116C6.39339 6.14126 6.62549 5.92257 6.61426 5.66584C6.60302 5.40825 6.41078 5.19043 6.15116 5.19043H5.24302H3.79561H3.4635C3.22126 5.19043 2.98917 5.40912 3.00039 5.66584C3.01164 5.92343 3.20387 6.14126 3.4635 6.14126Z" fill="white"/>
<path d="M9.01232 9.87092H9.46106H10.5392H11.851H12.9796C13.1625 9.87092 13.346 9.87461 13.5289 9.87092C13.5316 9.87082 13.5342 9.87092 13.5369 9.87092C13.7791 9.87092 14.0112 9.65224 14 9.39551C13.9887 9.13792 13.7965 8.9201 13.5369 8.9201H13.0881H12.01H10.6982H9.56965C9.38668 8.9201 9.20322 8.91641 9.02026 8.9201C9.01762 8.92019 9.01497 8.9201 9.01232 8.9201C8.77009 8.9201 8.53799 9.13878 8.54922 9.39551C8.56047 9.653 8.7527 9.87092 9.01232 9.87092Z" fill="white"/>
<path d="M12.2658 9.396C12.2713 9.50563 12.2642 9.61701 12.2552 9.72616C12.2499 9.79058 12.2429 9.85481 12.2345 9.91894C12.24 9.87683 12.2455 9.83473 12.251 9.79252C12.2022 10.1626 12.1059 10.5256 11.9646 10.8696C11.9802 10.8318 11.9957 10.794 12.0113 10.756C11.883 11.066 11.7179 11.3586 11.5179 11.6258C11.542 11.5937 11.5662 11.5617 11.5903 11.5296C11.3903 11.7951 11.1577 12.0323 10.8998 12.2382C10.9311 12.2135 10.9623 12.1887 10.9936 12.1639C10.6876 12.4065 10.35 12.6023 9.99451 12.7576C10.0314 12.7416 10.0682 12.7257 10.1052 12.7097C9.73205 12.871 9.3424 12.9871 8.94574 13.0691C8.83648 13.0917 8.72373 13.1915 8.669 13.2876C8.61088 13.3895 8.5863 13.5397 8.62231 13.654C8.70397 13.9131 8.93713 14.0387 9.19202 13.986C9.86663 13.8465 10.5358 13.6047 11.121 13.2284C11.6107 12.9135 12.0268 12.5136 12.3685 12.0366C12.6282 11.6743 12.8226 11.2636 12.963 10.8381C13.0717 10.509 13.1349 10.1692 13.1721 9.82426C13.1871 9.68484 13.1983 9.54241 13.1923 9.40193C13.1922 9.39998 13.1921 9.39795 13.192 9.39601C13.1794 9.14812 12.9881 8.90867 12.7289 8.92059C12.4888 8.93156 12.2521 9.12997 12.2657 9.39601L12.2658 9.396Z" fill="white"/>
<path d="M9.79595 11.0009C9.98648 11.4766 10.2361 11.9037 10.5603 12.2977C10.965 12.7895 11.4829 13.1928 12.0408 13.4835C12.4585 13.7012 12.9021 13.8685 13.356 13.9859C13.5906 14.0466 13.8693 13.908 13.9257 13.6539C13.9804 13.4073 13.8536 13.1341 13.6023 13.0691C13.3028 12.9916 13.0091 12.8935 12.7243 12.7703C12.7612 12.7864 12.798 12.8023 12.835 12.8183C12.4571 12.6532 12.0986 12.4447 11.7724 12.1881C11.8037 12.2129 11.8349 12.2377 11.8662 12.2624C11.5819 12.037 11.3253 11.7768 11.1049 11.4855C11.129 11.5176 11.1532 11.5496 11.1773 11.5818C10.9667 11.3015 10.7904 10.9949 10.6562 10.6687C10.6718 10.7065 10.6873 10.7444 10.7029 10.7823C10.6982 10.7709 10.6936 10.7596 10.6891 10.7482C10.6411 10.6287 10.5893 10.532 10.4762 10.4641C10.377 10.4045 10.2307 10.3793 10.1194 10.4162C10.0073 10.4535 9.89915 10.5247 9.84262 10.6347C9.78856 10.7397 9.74972 10.8854 9.79593 11.0009L9.79595 11.0009Z" fill="white"/>
<path d="M11.7368 9.3954V8.50707C11.7368 8.25839 11.5237 8.02013 11.2737 8.03165C11.0227 8.0432 10.8105 8.24054 10.8105 8.50707V9.3954C10.8105 9.64407 11.0236 9.88234 11.2737 9.87081C11.5246 9.85927 11.7368 9.66192 11.7368 9.3954Z" fill="white"/>
<path d="M7.37774 12.0601H5.82676C5.72507 12.0601 5.62309 12.0632 5.52196 12.0502C5.56297 12.0558 5.60399 12.0615 5.6451 12.0672C5.55097 12.0535 5.46005 12.0285 5.37187 11.992C5.40873 12.008 5.44559 12.0239 5.48254 12.0399C5.39163 12.0004 5.30714 11.95 5.22879 11.8884C5.26008 11.9132 5.29126 11.938 5.32255 11.9628C5.25015 11.9041 5.18551 11.8377 5.12843 11.7635C5.15253 11.7956 5.17672 11.8276 5.20082 11.8597C5.1409 11.7793 5.09166 11.6925 5.05329 11.5992C5.06888 11.6371 5.08438 11.6749 5.09998 11.7128C5.06435 11.6223 5.04006 11.529 5.02673 11.4323C5.03222 11.4745 5.03779 11.5166 5.04327 11.5588C5.03108 11.4582 5.03363 11.357 5.03363 11.2559V10.7746V9.63253V9.35912C5.03363 9.11044 4.82061 8.87218 4.57053 8.8837C4.31961 8.89525 4.10742 9.09259 4.10742 9.35912V10.2355V11.3549C4.10742 11.6282 4.16129 11.8811 4.2747 12.1284C4.447 12.504 4.77901 12.7737 5.15025 12.9191C5.34494 12.9954 5.55486 13.0112 5.76155 13.0112H6.28787C6.6439 13.0112 7.00011 13.015 7.35601 13.0112C7.36338 13.0111 7.37066 13.0112 7.37803 13.0112C7.62026 13.0112 7.85236 12.7925 7.84114 12.5358C7.82961 12.2779 7.63737 12.0601 7.37776 12.0601L7.37774 12.0601Z" fill="white"/>
<path d="M8.16102 4.94319H9.27709H10.9934C11.1532 4.94319 11.3186 4.93272 11.4776 4.95309C11.4366 4.94746 11.3955 4.94174 11.3544 4.93611C11.4486 4.94979 11.5395 4.97473 11.6277 5.0113C11.5908 4.99529 11.5539 4.97938 11.517 4.96337C11.6079 5.00286 11.6924 5.05331 11.7707 5.11482C11.7395 5.09008 11.7083 5.06525 11.677 5.04051C11.7494 5.0992 11.814 5.16557 11.8711 5.23979C11.847 5.20767 11.8228 5.17566 11.7987 5.14354C11.8586 5.22397 11.9079 5.31081 11.9462 5.40404C11.9306 5.3662 11.9151 5.32836 11.8996 5.29042C11.9352 5.38094 11.9595 5.47428 11.9728 5.57091C11.9673 5.52881 11.9617 5.4867 11.9563 5.4445C11.9803 5.64252 11.9659 5.84937 11.9659 6.04827V6.60982C11.9659 6.85849 12.1789 7.09676 12.429 7.08523C12.6799 7.07369 12.8921 6.87634 12.8921 6.60982C12.8921 6.27141 12.8944 5.9329 12.8921 5.59439C12.8892 5.15402 12.7092 4.70685 12.3849 4.41297C12.0899 4.14567 11.722 3.99424 11.3268 3.9921C11.0504 3.99055 10.774 3.9921 10.4976 3.9921H9.06012C8.76517 3.9921 8.46973 3.98735 8.17475 3.9921C8.17012 3.9922 8.16539 3.9921 8.16076 3.9921C7.91853 3.9921 7.68643 4.21079 7.69766 4.46752C7.70919 4.7254 7.90142 4.9432 8.16103 4.9432L8.16102 4.94319Z" fill="white"/>
</svg>